<?xml version="1.0" standalone="no"?><!DOCTYPE svg PUBLIC "-//W3C//DTD SVG 1.1//EN" "http://www.w3.org/Graphics/SVG/1.1/DTD/svg11.dtd"><svg class="icon" width="200px" height="189.81px" viewBox="0 0 1079 1024" version="1.1" xmlns="http://www.w3.org/2000/svg"><path d="M976.060019 107.41039a13.664219 13.664219 0 0 1 15.527521 14.362957l5.589908 705.492952a19.021214 19.021214 0 0 1-15.527521 19.021214L80.898388 982.075691a13.664219 13.664219 0 0 1-15.527521-14.440595l-5.667546-705.492952a19.176489 19.176489 0 0 1 15.527522-19.021214z" fill="#3F59F5" /><path d="M984.367243 108.807867l-59.703321-31.753782h-0.465826a12.887843 12.887843 0 0 0-2.406766-0.931652h-1.475114a13.508944 13.508944 0 0 0-3.959518 0L15.527522 211.444786a18.633026 18.633026 0 0 0-4.037156 1.242201h-0.465826l-0.854013 0.465826-1.086927 0.698738h-0.621101l-1.242201 1.009289H6.83211a15.527522 15.527522 0 0 0-1.552753 1.63039v0.543463l-0.698738 0.854014-0.698739 1.164564a4.580619 4.580619 0 0 0 0 0.621101 13.120756 13.120756 0 0 0-0.931651 2.173853 11.412729 11.412729 0 0 0-0.621101 2.173853 5.434633 5.434633 0 0 0 0 1.086927 16.22626 16.22626 0 0 0 0 3.338417l5.667546 705.492952a14.518233 14.518233 0 0 0 7.297935 13.120756l59.703321 31.676144a14.28532 14.28532 0 0 1-7.297935-13.043118L59.703321 262.142144a16.459173 16.459173 0 0 1 0-3.416055 5.434633 5.434633 0 0 1 0-1.086926 11.412729 11.412729 0 0 1 0.621101-2.173853c0-0.854014 0.698738-1.708027 1.086927-2.562041a1.708027 1.708027 0 0 0 0.388188-0.621101 17.623737 17.623737 0 0 1 1.397477-1.94094 1.397477 1.397477 0 0 1 0-0.543464 12.887843 12.887843 0 0 1 2.018577-2.096215l0.388188-0.388188 1.863303-1.319839 2.406766-0.931652 1.319839-0.698738a17.390824 17.390824 0 0 1 4.037156-1.242202l900.829176-135.71054a13.508944 13.508944 0 0 1 3.959518 0h0.776376a13.741857 13.741857 0 0 1 3.57133 1.397477z" fill="#3F59F5" /><path d="M982.038115 110.593532a13.664219 13.664219 0 0 1 15.527521 14.362957l5.589908 705.492952a19.098852 19.098852 0 0 1-15.527522 19.021214L86.876484 985.181196a13.664219 13.664219 0 0 1-15.527521-14.440596l-5.667546-705.415314a19.176489 19.176489 0 0 1 15.527522-19.021214z" fill="#313D44" /><path d="M986.774009 110.671169a13.897132 13.897132 0 0 1 3.57133 1.242202l-12.111467-6.366284h-0.465826a12.65493 12.65493 0 0 0-2.406766-0.854014h-1.475114a13.043118 13.043118 0 0 0-3.881881 0L69.019834 239.937788a18.633026 18.633026 0 0 0-4.037155 1.242202h-0.465826l-0.854014 0.543463-1.086926 0.621101h-0.621101l-1.164564 1.009289-0.465826 0.388188a14.673508 14.673508 0 0 0-1.552752 1.552752V246.226434l-0.698739 0.854014-1.552752 1.475115v0.6211a11.490366 11.490366 0 0 0-0.931651 2.251491 21.42798 21.42798 0 0 0-0.621101 2.096216v1.086926a16.459173 16.459173 0 0 0 0 3.416055l5.667546 705.492952a14.28532 14.28532 0 0 0 7.297935 13.043118l11.956192 6.366284a14.518233 14.518233 0 0 1-8.540137-12.34438l-5.667546-705.260039a24.455847 24.455847 0 0 1 0-3.416055v-1.164564a21.42798 21.42798 0 0 1 0.621101-2.096215 23.990021 23.990021 0 0 1 1.086926-2.484404 2.717316 2.717316 0 0 0 0.388189-0.621101l2.096215-2.329128 0.465826-0.621101a23.834746 23.834746 0 0 1 1.94094-2.018578h0.465826A16.070985 16.070985 0 0 1 74.532105 248.555563h1.086926l1.319839-0.621101a17.390824 17.390824 0 0 1 4.037156-1.242202l901.062089-136.098728a13.508944 13.508944 0 0 1 3.959518 0z" fill="#313D44" /><path d="M1057.967696 149.257061a13.508944 13.508944 0 0 1 15.527522 14.28532l5.667545 705.492952a19.254127 19.254127 0 0 1-15.527521 19.098851L163.038979 1023.844725a13.664219 13.664219 0 0 1-15.527522-14.440595l-5.589908-705.492952a19.021214 19.021214 0 0 1 15.527522-18.943577z" fill="#3FA9F5" /><path d="M1066.27492 150.5769l-59.703321-31.753782h-0.465826l-2.484403-0.854014h-1.397477a16.847361 16.847361 0 0 0-3.959518 0L97.202286 253.213819a13.741857 13.741857 0 0 0-4.037155 1.319839h-0.543464l-0.776376 0.465826-1.164564 0.621101h-0.543463l-1.242202 1.009289h-0.465825c-0.543463 0.465826-1.009289 1.009289-1.552753 1.552752v0.388188l-0.465825 0.543463s-0.465826 0.543463-0.621101 0.854014l-0.698739 1.086927a1.708027 1.708027 0 0 1-0.388188 0.6211c-0.388188 0.776376-0.698738 1.475115-1.009289 2.251491a17.779012 17.779012 0 0 0-0.543463 2.173853v1.009289a25.232223 25.232223 0 0 0 0 3.416055l5.667546 705.492952a14.28532 14.28532 0 0 0 7.297935 13.043118l59.703321 31.753782A14.518233 14.518233 0 0 1 147.511457 1009.40413l-5.589908-705.492952a24.145296 24.145296 0 0 1 0-3.338417v-1.164565a20.806879 20.806879 0 0 1 0.543463-2.096215v-0.388188l1.164564-2.484404 0.388188-0.6211a18.089563 18.089563 0 0 1 1.31984-2.018578l0.465825-0.543464a23.834746 23.834746 0 0 1 1.940941-2.018577l0.465825-0.388188 1.785665-1.31984 1.164564-0.698738 1.242202-0.621101a18.089563 18.089563 0 0 1 4.114793-1.242202l901.450277-135.71054a13.508944 13.508944 0 0 1 3.959518 0h0.776376a11.490366 11.490366 0 0 1 3.57133 1.319839z" fill="#3F59F5" /><path d="M664.577932 82.022892L644.392154 71.464177a11.179816 11.179816 0 0 1 5.589907 10.092889l0.698739 79.345636 19.875228 10.636353-0.621101-79.345637a13.431306 13.431306 0 0 0-1.63039-6.211008 9.471788 9.471788 0 0 0-3.726605-3.959518zM707.045704 10.829204l3.88188 0.543463 1.863303 0.543464a23.757108 23.757108 0 0 1 3.726605 1.319839c0.698738 0 1.475115 0.543463 2.173853 0.931651L698.73848 3.608907l-1.086927-0.621101h-1.086926l-3.648968-1.708028h-0.931651L690.974719 0.813953 687.170476 0.115214h-1.785665a38.818804 38.818804 0 0 0-5.978096 0l-29.735204 4.813532L406.82107 41.49606l-29.735204 4.502981a32.995984 32.995984 0 0 0-6.599196 1.708027l-1.785665 0.698739-2.173854 0.854014-1.630389 1.164564-2.639679 1.552752-1.242202 0.776376a29.424654 29.424654 0 0 0-3.027866 2.406766l-1.009289 0.776376a32.995984 32.995984 0 0 0-3.648968 3.726605l-0.698739 0.931652a8.462499 8.462499 0 0 0-1.009288 1.319839 18.865939 18.865939 0 0 0-1.552753 1.94094l-1.552752 2.639679-0.931651 1.475114a3.183142 3.183142 0 0 0 0 0.698739 44.331075 44.331075 0 0 0-2.329128 5.20172 4.192431 4.192431 0 0 1-0.388188 0.854013 50.309171 50.309171 0 0 0-1.31984 4.89117c0 0.854014-0.543463 1.708027-0.698738 2.639678a52.793574 52.793574 0 0 0-0.621101 7.763761v24.455847l0.776376 92.388755 19.875228 10.558714-0.698739-92.388754v-24.455847a44.175799 44.175799 0 0 1 0.698739-7.763761c0-0.931651 0.465826-1.785665 0.621101-2.639678s0.776376-3.416055 1.397477-5.046445v-0.854014a57.063643 57.063643 0 0 1 2.639678-5.900458l0.931652-1.475115c0.931651-1.552752 2.018578-3.105504 3.105504-4.580619l1.009289-1.319839a46.582565 46.582565 0 0 1 4.658257-4.891169l1.009288-0.854014c1.397477-1.164564 2.872592-2.173853 4.347707-3.183142l2.562041-1.552752 4.114793-2.018578 1.863302-0.698738a31.055044 31.055044 0 0 1 6.52156-1.708028L427.006849 52.054775 669.624377 15.642736l29.735204-4.425344a38.275341 38.275341 0 0 1 5.900458 0z" fill="#3F59F5" /><path d="M699.359581 11.062117a31.986695 31.986695 0 0 1 36.489676 33.694722V69.212686l0.776376 92.388755-65.91433 9.937614-0.621101-79.345637a10.636352 10.636352 0 0 0-12.111467-11.179815l-218.938057 32.918346A14.906421 14.906421 0 0 0 427.006849 128.760732l0.621101 79.345636-65.91433 9.937614-0.698739-92.388754v-24.455847a45.107451 45.107451 0 0 1 35.868576-44.641625L427.006849 52.054775 669.624377 15.642736z" fill="#3FA9F5" /><path d="M463.6518 510.970681a180.119253 180.119253 0 0 1 31.676145-2.329129 115.990588 115.990588 0 0 1 21.195067 2.406766v50.309171a54.812152 54.812152 0 0 0-9.238876-1.086927c-4.037156 0-8.384862-0.388188-13.043118-0.465825s-9.549426 0-14.440595 0a112.496895 112.496895 0 0 0-13.431307 1.164564 46.582565 46.582565 0 0 0-20.10814 6.676834 14.751146 14.751146 0 0 0-5.900458 12.499655 15.527522 15.527522 0 0 0 1.086926 6.211009 8.151949 8.151949 0 0 0 4.270069 3.88188 34.781649 34.781649 0 0 0 9.0836 2.639679c3.959518 0.621101 9.0836 1.397477 15.527522 2.096215a129.499532 129.499532 0 0 1 30.433942 7.14266 42.001946 42.001946 0 0 1 17.313187 12.03383 39.517543 39.517543 0 0 1 7.763761 18.1672 162.107327 162.107327 0 0 1 2.096215 26.008599 103.490933 103.490933 0 0 1-3.804243 29.968117 61.566624 61.566624 0 0 1-13.508943 23.291283 74.99793 74.99793 0 0 1-25.232223 17.468462 150.539324 150.539324 0 0 1-39.517543 10.71399 218.860419 218.860419 0 0 1-32.374883 2.639679 236.406519 236.406519 0 0 1-26.396787-1.086927v-54.346326c3.338417 0.543463 7.297935 0.931651 11.800916 1.319839s9.238875 0.543463 14.207683 0.543464 10.015252 0 15.061696-0.465826 9.937614-0.854014 14.362958-1.552752a100.928892 100.928892 0 0 0 14.59587-3.105505 23.834746 23.834746 0 0 0 8.229587-4.270068 11.02454 11.02454 0 0 0 3.804242-6.133371 40.371557 40.371557 0 0 0 0.854014-8.77305 19.176489 19.176489 0 0 0-1.086926-6.133371 10.481077 10.481077 0 0 0-4.114794-4.658257 35.946213 35.946213 0 0 0-8.850687-3.338417 111.254694 111.254694 0 0 0-15.527522-2.562041 121.580495 121.580495 0 0 1-27.483713-5.279357A40.91502 40.91502 0 0 1 395.951805 632.939364a35.790938 35.790938 0 0 1-8.617774-16.692086 108.692652 108.692652 0 0 1-2.639679-24.844035 89.593801 89.593801 0 0 1 5.356995-33.228896 62.110087 62.110087 0 0 1 15.527522-23.291283 72.979352 72.979352 0 0 1 25.076947-15.527522 163.038979 163.038979 0 0 1 32.995984-8.384861zM694.002586 479.527449l0.465825 54.501601-74.454467 11.179816 0.232913 27.871902 68.321096-10.248165 0.388188 52.172473-68.243458 10.325802 0.232913 31.055044 76.240132-11.490366 0.388188 54.191051-134.545976 20.263416-1.708028-219.869709 132.682674-19.952865zM907.894198 501.498892a192.929458 192.929458 0 0 1 6.909747 54.812152 213.891612 213.891612 0 0 1-6.055733 56.908367 97.512837 97.512837 0 0 1-18.477751 37.498966 79.8891 79.8891 0 0 1-29.890479 22.126718 167.076134 167.076134 0 0 1-40.60447 11.024541 150.228773 150.228773 0 0 1-40.449194 1.164564 55.433253 55.433253 0 0 1-30.278668-13.043119 68.398733 68.398733 0 0 1-19.254127-31.831419 194.559848 194.559848 0 0 1-6.909747-54.967427 211.950672 211.950672 0 0 1 6.055734-56.753092 98.677401 98.677401 0 0 1 18.477751-37.498966 78.56926 78.56926 0 0 1 30.045754-22.281993 166.532671 166.532671 0 0 1 40.371557-11.024541 149.064209 149.064209 0 0 1 40.682107-1.164564 54.346326 54.346326 0 0 1 30.123392 13.198394 69.17511 69.17511 0 0 1 19.254127 31.831419z m-55.666165 93.708594a248.440348 248.440348 0 0 0 1.242201-29.657566 233.689203 233.689203 0 0 0-1.708027-29.735205 46.970753 46.970753 0 0 0-5.51227-18.1672 18.400113 18.400113 0 0 0-10.71399-8.540137 39.517543 39.517543 0 0 0-17.157912-0.465826 46.970753 46.970753 0 0 0-17.080274 5.589908 27.794264 27.794264 0 0 0-10.325802 11.723279 62.110087 62.110087 0 0 0-5.124082 19.79759 298.982432 298.982432 0 0 0 0.465826 59.392771 50.464446 50.464446 0 0 0 5.434632 18.089563 17.390824 17.390824 0 0 0 10.481077 8.384862 42.623047 42.623047 0 0 0 17.157912 0 48.05768 48.05768 0 0 0 17.080274-5.434633 27.328438 27.328438 0 0 0 10.558715-11.568004 58.694032 58.694032 0 0 0 5.20172-19.719952M1027.611391 278.446042l0.31055 42.467772L230.273148 441.096833l-0.388188-42.54541 797.726431-120.105381z" fill="#FFFFFF" /><path d="M1023.574235 276.349827L225.925442 396.455207l0.31055 42.467773 4.037156 2.173853-0.388188-42.54541 797.726431-120.105381-4.037156-2.096215z" fill="#DDDDDD" /></svg>