<?xml version="1.0" standalone="no"?><!DOCTYPE svg PUBLIC "-//W3C//DTD SVG 1.1//EN" "http://www.w3.org/Graphics/SVG/1.1/DTD/svg11.dtd"><svg class="icon" width="200px" height="200.00px" viewBox="0 0 1024 1024" version="1.1" xmlns="http://www.w3.org/2000/svg"><path d="M140.244265 243.480294l259.313911-150.735688a132.083284 132.083284 0 0 0-36.470758 31.769745c-38.669618 48.071643-52.014428 125.335057-37.456454 217.383913a641.30908 641.30908 0 0 0 114.492399 269.625808c44.507972 61.264807 95.385058 109.184804 147.247841 139.134803a295.178086 295.178086 0 0 0 50.573795 23.353417c49.588099 16.984303 94.171894 14.709619 129.581132-5.838355l-259.31391 150.659866c-35.485061 20.623796-79.993034 22.746834-129.581133 5.838354a289.036441 289.036441 0 0 1-50.801263-23.277594c-51.862782-29.949998-102.739868-77.869996-147.24784-139.134802A641.83984 641.83984 0 0 1 66.241231 492.86142c-14.557974-92.124679-1.213164-169.31227 37.532277-217.459735a133.06898 133.06898 0 0 1 36.470757-31.921391z" fill="#3F59F5" /><path d="M140.244265 243.480294l259.313911-150.735688a132.083284 132.083284 0 0 0-36.470758 31.769745 143.15341 143.15341 0 0 0-10.236075 14.330506L93.537432 289.504722a163.018979 163.018979 0 0 1 10.236076-14.330506 133.06898 133.06898 0 0 1 36.470757-31.693922" fill="#3F59F5" /><path d="M93.537432 289.504722l259.313911-150.659865a177.197839 177.197839 0 0 0-10.311899 18.728226l-259.31391 150.735689a165.672776 165.672776 0 0 1 10.311898-18.80405" fill="#3F59F5" /><path d="M83.225534 308.308772l259.31391-150.735689c-2.426329 5.155949-4.701012 10.539367-6.748227 16.150253L76.401484 324.383201c2.047215-5.535063 4.321899-10.91848 6.82405-16.074429" fill="#3F59F5" /><path d="M76.401484 324.383201l259.389733-150.659865c-1.819747 4.776835-3.487848 9.705316-4.928481 15.164556L71.548826 339.244466c1.440633-5.080126 3.108734-10.008607 4.852658-15.164556" fill="#3F59F5" /><path d="M71.548826 339.244466l259.31391-150.659865c-1.36481 4.549367-2.577975 9.326202-3.715316 14.17886L67.833509 353.423326c1.137342-4.776835 2.350506-9.55367 3.715317-14.17886" fill="#3F59F5" /><path d="M67.833509 353.423326l259.313911-150.659865c-0.985696 4.473544-1.971392 9.098734-2.72962 13.799746L65.028067 367.298895c0.834051-4.701012 1.743924-9.326202 2.805442-13.875569" fill="#3F59F5" /><path d="M65.028067 367.298895l259.389733-150.735688c-0.758228 4.397721-1.440633 8.947088-2.047215 13.496455L63.056674 380.79535c0.606582-4.62519 1.213164-9.098734 1.971393-13.496455M63.056674 380.79535l259.313911-150.735688q-0.834051 6.596582-1.36481 13.420632L61.691864 394.291805q0.530759-6.82405 1.36481-13.420632" fill="#3F59F5" /><path d="M61.691864 394.291805l259.313911-150.811511c-0.379114 4.397721-0.606582 8.871265-0.834051 13.420632L60.857814 407.636615c0-4.549367 0.454937-9.022911 0.83405-13.420633" fill="#3F59F5" /><path d="M60.857814 407.636615L320.247547 256.900926v13.496455L60.554522 421.13307v-13.496455" fill="#3F59F5" /><path d="M60.554522 421.13307L320.247547 270.397381v13.723924L60.706168 434.78117v-13.6481M60.706168 434.78117L320.247547 284.121305q0 6.82405 0.682405 13.875568L61.388573 448.656739q-0.454937-6.899873-0.682405-13.875569" fill="#3F59F5" /><path d="M61.388573 448.656739l259.313911-150.659866c0 4.62519 0.682405 9.402025 1.137341 14.178861L62.450092 462.532308c-0.454937-4.776835-0.834051-9.477848-1.061519-14.17886M62.450092 462.532308l259.389733-150.356574c0.454937 4.776835 0.985696 9.629493 1.592279 14.482151L64.118193 477.696864c-0.606582-5.231772-1.213164-10.008607-1.668101-15.164556" fill="#3F59F5" /><path d="M64.118193 477.696864l259.313911-150.735688c0.606582 4.928481 1.36481 9.932784 2.123037 15.164556L66.241231 492.330661c-0.834051-5.080126-1.516456-10.008607-2.123038-15.164556" fill="#3F59F5" /><path d="M66.241231 492.330661l259.31391-150.735689c0.758228 5.004304 1.592278 9.932784 2.577975 15.164557L68.819206 507.495217c-0.909873-4.928481-1.743924-9.932784-2.577975-15.164556M68.819206 507.495217l259.389733-150.659866c0.909873 5.080126 1.971392 10.236075 3.108734 15.164557L72.003762 523.190533q-1.668101-7.582278-3.184556-15.164557M72.003762 523.190533l259.313911-150.735689c1.137342 5.231772 2.350506 10.387721 3.639493 15.619493L75.643256 538.355089c-1.288987-5.155949-2.502152-10.387721-3.639494-15.164556" fill="#3F59F5" /><path d="M75.643256 538.355089l259.31391-150.659866c1.288987 5.155949 2.653797 10.311898 4.09443 15.54367L79.661863 554.050404c-1.440633-5.155949-2.805443-10.311898-4.018607-15.164556M79.661863 554.050404L339.051596 403.390539c1.36481 5.080126 2.881266 10.236075 4.473545 15.164556l-259.313911 150.887334c-1.592278-5.155949-3.108734-10.236075-4.549367-15.164556" fill="#3F59F5" /><path d="M84.21123 569.442429l259.313911-150.735688q2.274683 7.582278 4.776835 15.164556L88.988065 584.379517c-1.668101-4.928481-3.26038-9.932784-4.776835-15.164556" fill="#3F59F5" /><path d="M88.988065 584.379517L348.301976 433.719651c1.668101 4.852658 3.336202 9.629493 5.080126 14.482151L94.068192 599.013313c-1.743924-4.852658-3.487848-9.705316-5.080127-14.557974" fill="#3F59F5" /><path d="M94.068192 599.013313l259.31391-150.735688c1.668101 4.701012 3.412025 9.326202 5.231772 14.027215l-259.313911 150.584042c-1.819747-4.62519-3.563671-9.326202-5.231771-13.951391" fill="#3F59F5" /><path d="M99.299963 612.888882L358.613874 462.532308l5.45924 13.572278-259.31391 150.356574c-1.89557-4.473544-3.715316-9.022911-5.459241-13.572278" fill="#3F59F5" /><path d="M104.759204 626.46116l259.31391-150.659865c1.89557 4.473544 3.791139 8.871265 5.762531 13.344809l-259.31391 150.659866c-1.971392-4.397721-3.866962-8.871265-5.762531-13.34481" fill="#3F59F5" /><path d="M110.521735 639.80597l259.31391-150.659866c1.971392 4.473544 4.018607 9.022911 6.141646 13.496455L116.587557 653.302424c-2.047215-4.473544-4.09443-8.947088-6.065822-13.496454" fill="#3F59F5" /><path d="M116.587557 653.302424l259.389734-150.659865c2.198861 4.701012 4.473544 9.477848 6.82405 14.17886L123.487431 667.253816c-2.350506-4.701012-4.62519-9.402025-6.899874-14.17886" fill="#3F59F5" /><path d="M123.487431 667.253816l259.31391-150.659865c2.72962 5.383417 5.45924 10.766835 8.264683 16.074429l-259.31391 150.887334c-2.805443-5.307595-5.610886-10.691012-8.264683-16.074429" fill="#3F59F5" /><path d="M131.752114 683.555714l259.31391-150.659865c4.246076 7.582278 8.567974 15.619493 13.041518 23.353416l-259.31391 150.735688c-4.473544-7.582278-8.871265-15.164556-13.041518-23.429239" fill="#3F59F5" /><path d="M144.793632 706.984953l259.31391-150.735688q11.221772 19.183164 23.732531 37.91139L168.601985 744.593053a637.366296 637.366296 0 0 1-23.656707-37.911391" fill="#3F59F5" /><path d="M168.601985 744.593053l259.238088-150.735689c4.018607 5.99 8.113038 11.828354 12.28329 17.666708l3.866962 5.307595-259.31391 150.659865-3.866962-5.231771c-4.170253-5.838354-8.340506-11.752531-12.359113-17.666708" fill="#3F59F5" /><path d="M184.676415 767.491532l259.31391-150.659865c3.791139 5.080126 7.582278 10.008607 11.44924 15.164556l-259.31391 150.659866c-3.866962-4.852658-7.582278-9.856962-11.44924-15.164557" fill="#3F59F5" /><path d="M196.125655 782.42862l259.31391-150.659865c3.412025 4.321899 6.899873 8.643797 10.387721 12.81405L206.513376 795.318493c-3.487848-4.246076-6.975696-8.492151-10.387721-12.889873" fill="#3F59F5" /><path d="M206.513376 795.318493L465.827286 644.506982c3.412025 4.09443 6.82405 8.037215 10.236075 11.979999l-259.389733 150.735689c-3.412025-3.866962-6.82405-7.582278-10.160252-11.904177" fill="#3F59F5" /><path d="M216.673628 807.22267l259.389733-150.659866 10.236076 11.373417L226.985526 818.899378c-3.412025-3.715316-6.899873-7.582278-10.311898-11.44924" fill="#3F59F5" /><path d="M226.985526 818.899378l259.313911-150.963157 10.691012 11.145949-259.389733 150.735688c-3.563671-3.639493-7.051519-7.582278-10.61519-11.145949M237.600716 829.817858l259.389733-150.735688c3.639493 3.715316 7.582278 7.582278 11.070126 10.994303l-259.389733 150.659866-11.070126-10.918481" fill="#3F59F5" /><path d="M248.670842 840.736339L508.060575 690.00065c3.715316 3.563671 7.582278 7.051519 11.297594 10.463544l-259.31391 150.735688c-3.791139-3.412025-7.582278-6.899873-11.373417-10.539366M260.044259 851.275705l259.31391-150.735688c3.791139 3.487848 7.582278 6.748227 11.44924 10.008607l-259.31391 150.735688c-3.866962-3.26038-7.582278-6.596582-11.44924-10.008607M271.493499 861.284312l259.31391-150.735688c3.715316 3.184557 7.582278 6.217468 11.297595 9.250379l-259.313911 150.735689-11.297594-9.25038" fill="#3F59F5" /><path d="M282.791093 870.534692l259.313911-150.735689L553.17513 727.912041l-259.313911 150.735688c-3.715316-2.72962-7.582278-5.535063-11.070126-8.416329M293.861219 878.95102L553.17513 727.912041l10.91848 7.582278L305.082991 886.684944c-3.639493-2.502152-7.582278-5.080126-10.842658-7.582278" fill="#3F59F5" /><path d="M305.082991 886.684944l259.010619-150.735688c3.487848 2.426329 6.975696 4.776835 10.539367 6.975695l-259.313911 150.735689-10.615189-6.975696M315.319066 893.66064L574.632977 743.076597c3.412025 2.198861 6.899873 4.321899 10.38772 6.369114l-259.31391 150.584042c-3.487848-2.047215-6.975696-4.170253-10.387721-6.369113" fill="#3F59F5" /><path d="M325.706787 900.029753l259.31391-150.735688 2.350507 1.36481 7.582278 4.397721-259.313911 150.735689-7.582278-4.397722-2.350506-1.36481M335.942862 905.792285l259.313911-150.735689c3.412025 1.89557 6.82405 3.639493 10.160253 5.307595l-259.313911 150.659866c-3.412025-1.668101-6.748227-3.412025-10.160253-5.231772" fill="#3F59F5" /><path d="M346.103115 911.024057l259.313911-150.659866c3.412025 1.668101 6.748227 3.26038 10.160252 4.776835l-259.31391 150.659866c-3.412025-1.440633-6.748227-3.032911-10.160253-4.776835M356.263368 915.800892L615.956392 765.141026c3.412025 1.516456 6.748227 2.957088 10.160253 4.321899l-259.313911 150.659865c-3.412025-1.36481-6.82405-2.72962-10.160252-4.321898" fill="#3F59F5" /><path d="M366.42362 920.12279l259.313911-150.659865c3.412025 1.36481 6.899873 2.653797 10.311898 3.866962l-259.31391 150.659865c-3.487848-1.137342-6.899873-2.426329-10.311899-3.866962M376.735519 923.989752L636.049429 773.405709l1.89557 0.682405 8.492151 2.72962-259.389733 150.584043q-4.246076-1.213164-8.416329-2.72962l-1.895569-0.682405" fill="#3F59F5" /><path d="M387.047417 927.401777L646.285504 776.741912c3.487848 1.061519 6.975696 1.971392 10.387721 2.881265l-259.31391 150.659866c-3.412025-0.834051-6.899873-1.819747-10.463544-2.881266M397.51096 930.283043l259.313911-150.659866c3.639493 0.834051 7.127341 1.668101 10.615189 2.350507L408.12615 932.633549c-3.487848-0.682405-7.051519-1.440633-10.61519-2.350506" fill="#3F59F5" /><path d="M408.12615 932.633549l259.31391-150.659865 10.918481 1.819746L418.817162 934.453296q-5.45924-0.682405-10.918481-1.819747" fill="#3F59F5" /><path d="M418.817162 934.453296l259.31391-150.659866c3.791139 0.454937 7.582278 0.909873 11.297595 1.137342L430.342225 935.66646c-3.715316 0-7.582278-0.682405-11.297595-1.213164" fill="#3F59F5" /><path d="M430.342225 935.66646l259.31391-150.735688h11.904177l-259.313911 150.735688h-11.904176M442.246401 936.045574l259.313911-150.735688c4.321899 0 8.567974 0 12.738227-0.53076l-259.313911 150.659866c-4.170253 0-8.416329 0.606582-12.738227 0.606582" fill="#3F59F5" /><path d="M454.984628 935.438992L714.526007 784.779126a128.064677 128.064677 0 0 0 14.482151-2.123037L469.46678 933.391777c-4.776835 0.909873-9.55367 1.592278-14.482152 2.047215" fill="#3F59F5" /><path d="M469.46678 933.391777l259.31391-150.735688a112.59683 112.59683 0 0 0 17.515062-4.776836L487.057665 928.614942a135.571132 135.571132 0 0 1-17.515063 4.776835M487.057665 928.614942l259.31391-150.735689a125.031766 125.031766 0 0 0 21.230379-9.705316l-259.313911 150.659866a122.226323 122.226323 0 0 1-21.230378 9.781139" fill="#3F59F5" /><path d="M809.001192 839.826465l-259.31391 150.659866a160.441004 160.441004 0 0 0 44.583795-38.745441c46.934301-58.231896 63.084554-151.645562 45.493668-262.270999l259.313911-150.735688c17.515062 110.928728 1.36481 204.039103-45.493669 262.270999a162.109105 162.109105 0 0 1-44.583795 38.821263z" fill="#3FA9F5" /><path d="M639.840568 689.469891l259.313911-150.735688L639.840568 690.00065" fill="#3FA9F5" /><path d="M639.840568 690.00065l259.313911-150.735688c0.985696 6.065822 1.819747 12.055822 2.577974 17.969999l-259.31391 150.356575c-0.758228-5.914177-1.592278-11.904177-2.577975-17.894177" fill="#3FA9F5" /><path d="M642.418543 707.591536l259.31391-150.659866c0.758228 5.838354 1.36481 11.676708 1.971392 17.43924L644.314112 725.030775c-0.530759-5.762531-1.137342-11.525063-1.895569-17.439239M644.314112 725.030775L904.082959 574.37091q0.758228 8.567974 1.36481 17.060125L645.678922 742.090901q-0.454937-8.416329-1.36481-17.060126" fill="#3FA9F5" /><path d="M645.678922 742.090901L905.068655 591.431035c0 5.610886 0.606582 11.145949 0.758228 16.681012L646.285504 758.847735c0-5.535063-0.454937-11.070126-0.83405-16.756834" fill="#3FA9F5" /><path d="M646.285504 758.847735l259.313911-150.735688v16.453544l-258.934797 150.735688v-16.453544" fill="#3FA9F5" /><path d="M646.664618 775.301279l259.389734-150.735688c0 5.45924 0 10.91848-0.379114 16.301897L646.285504 791.527354v-16.226075" fill="#3FA9F5" /><path d="M646.285504 791.527354l259.389734-150.659866c0 5.45924-0.606582 10.842658-0.985696 16.150253l-259.389734 150.735688c0.454937-5.307595 0.758228-10.766835 0.985696-16.226075M645.299808 807.753429l259.389734-150.735688c-0.454937 5.45924-1.061519 10.91848-1.743924 16.226075l-259.313911 150.659865c0.682405-5.307595 1.213164-10.691012 1.668101-16.150252" fill="#3FA9F5" /><path d="M643.631707 823.903681l259.313911-150.659865c-0.682405 5.535063-1.440633 10.91848-2.350507 16.301898l-259.389733 150.659865c0.909873-5.307595 1.743924-10.766835 2.426329-16.301898" fill="#3FA9F5" /><path d="M641.205378 840.205579l259.389733-150.659865c-0.985696 5.610886-2.123038 11.221772-3.412025 16.681012L637.869176 856.810768c1.288987-5.45924 2.350506-10.994303 3.336202-16.681012" fill="#3FA9F5" /><path d="M637.869176 856.810768l259.31391-150.659865c-1.288987 5.838354-2.805443 11.525063-4.397721 17.135948l-259.313911 150.735689c1.592278-5.610886 3.108734-11.297594 4.397722-17.211772M633.471454 874.098362l259.313911-150.735688c-1.819747 6.141645-3.791139 12.131645-5.99 17.969999l-259.31391 150.735688c2.198861-5.838354 4.170253-11.828354 5.989999-17.969999" fill="#3FA9F5" /><path d="M627.481455 892.068361l259.31391-150.735688c-2.426329 6.748227-5.231772 13.268987-8.18886 19.486455l-259.313911 150.735688c2.957088-6.293291 5.686709-12.738227 8.188861-19.486455" fill="#3FA9F5" /><path d="M619.292594 911.554816l259.313911-150.735688a203.887458 203.887458 0 0 1-12.510759 22.746834l-259.31391 150.735688a218.293786 218.293786 0 0 0 12.510758-22.746834M606.781836 934.30165L866.171569 783.565962a184.780117 184.780117 0 0 1-12.434936 17.43924 162.109105 162.109105 0 0 1-44.659618 38.821263l-259.313911 150.659866a160.441004 160.441004 0 0 0 44.583796-38.745441 181.519737 181.519737 0 0 0 12.510758-17.43924" fill="#3FA9F5" /><path d="M98.845027 171.751943L358.158937 21.092078c43.522276-25.324809 98.569615-28.054429 159.22784-7.051519a355.533019 355.533019 0 0 1 62.17468 28.509366c150.963157 87.196198 287.595808 293.964921 319.593022 496.184278l-259.313911 150.735688C607.767532 487.174712 471.210703 280.557634 320.247547 193.285613a355.078083 355.078083 0 0 0-61.871389-28.509365c-61.188984-20.699619-116.008855-18.27329-159.531131 6.975695z" fill="#3FA9F5" /><path d="M98.845027 171.751943L358.158937 21.092078a148.764296 148.764296 0 0 1 25.931391-11.979999l-259.31391 150.735688a148.461005 148.461005 0 0 0-25.931391 11.904176" fill="#3FA9F5" /><path d="M124.776418 159.847767L384.090328 9.112079a158.166321 158.166321 0 0 1 21.53367-5.838355l-259.31391 150.735689a155.209232 155.209232 0 0 0-21.53367 5.838354" fill="#3FA9F5" /><path d="M146.310088 154.009413L405.623998 3.273724A170.752902 170.752902 0 0 1 423.442352 0.771573L164.052618 151.658906a149.14341 149.14341 0 0 0-17.74253 2.577975" fill="#3FA9F5" /><path d="M164.052618 151.658906L423.442352 0.771573a150.735688 150.735688 0 0 1 15.619492-0.758228l-259.31391 150.735688q-7.582278 0-15.695316 0.682405M179.747934 150.749033L439.061844 0.013345c4.852658 0 9.705316 0 14.70962 0.530759l-259.313911 150.659866c-5.004304 0-9.856962-0.530759-14.709619-0.454937" fill="#3FA9F5" /><path d="M194.457553 151.20397L453.771464 0.544104c4.549367 0 9.250379 0.758228 13.951392 1.36481l-259.313911 150.735689c-4.701012-0.606582-9.402025-1.137342-13.951392-1.440633" fill="#3FA9F5" /><path d="M208.408945 152.644603L467.722856 1.908914q6.596582 0.909873 13.420632 2.274684L221.677932 154.843463c-4.549367-0.834051-9.022911-1.592278-13.420632-2.19886" fill="#3FA9F5" /><path d="M221.677932 154.843463L481.143488 4.183598c4.321899 0.834051 8.71962 1.819747 13.117341 2.881265l-259.313911 150.735689c-4.397721-1.137342-8.795443-2.047215-13.117341-2.957089M234.946918 157.800552L494.639943 7.064863c4.321899 1.061519 8.567974 2.274683 12.965695 3.639494L247.912614 161.364222c-4.397721-1.288987-8.71962-2.502152-12.965696-3.56367" fill="#3FA9F5" /><path d="M247.912614 161.364222l259.31391-150.659865c3.487848 0.985696 6.975696 2.123038 10.463544 3.336202l2.350506 0.834051-259.31391 150.735688-2.350506-0.83405c-3.487848-1.213164-7.051519-2.350506-10.463544-3.412026M260.726664 165.610298L520.040574 15.177901c4.246076 1.440633 8.416329 3.032911 12.586582 4.701012l-259.313911 150.432398c-4.246076-1.668101-8.416329-3.26038-12.586581-4.701013" fill="#3FA9F5" /><path d="M273.313245 170.311311L532.551333 19.575622c4.170253 1.668101 8.264683 3.412025 12.434936 5.307595l-259.31391 150.659865c-4.09443-1.819747-8.264683-3.563671-12.359114-5.231771" fill="#3FA9F5" /><path d="M285.672359 175.543082L545.062092 24.883217c4.09443 1.819747 8.264683 3.791139 12.359113 5.838354l-259.31391 150.735688c-4.09443-2.047215-8.264683-4.018607-12.434936-5.914177" fill="#3FA9F5" /><path d="M298.107295 181.457259l259.31391-150.735688c4.170253 2.047215 8.340506 4.170253 12.510759 6.444936L310.542231 187.902196c-4.09443-2.274683-8.264683-4.397721-12.434936-6.444937" fill="#3FA9F5" /><path d="M310.542231 187.902196L569.931964 37.166507l9.629493 5.383418 2.957089 1.743924-259.313911 150.735688-2.957088-1.743924c-3.26038-1.89557-6.444936-3.639493-9.705316-5.383417" fill="#3FA9F5" /><path d="M323.204635 195.029537l259.313911-150.735688c4.321899 2.502152 8.567974 5.155949 12.81405 7.582278l-259.313911 150.963157c-4.246076-2.72962-8.567974-5.307595-12.81405-7.582279M336.018685 202.839284l259.313911-150.659866c4.397721 2.72962 8.71962 5.610886 13.041518 8.567974L349.060204 211.483081c-4.321899-2.957088-8.643797-5.838354-13.041519-8.643797" fill="#3FA9F5" /><path d="M349.060204 211.483081L608.374114 60.671569c4.473544 3.108734 8.947088 6.217468 13.344809 9.477848l-259.31391 150.811511c-4.473544-3.26038-8.871265-6.444936-13.344809-9.477847" fill="#3FA9F5" /><path d="M362.405013 220.960928l259.31391-150.735688c4.62519 3.412025 9.174556 6.899873 13.799747 10.539366L376.128936 231.424472c-4.549367-3.563671-9.098734-7.051519-13.723923-10.463544" fill="#3FA9F5" /><path d="M376.128936 231.424472l259.389734-150.659866q6.975696 5.45924 13.875568 11.373418L390.080328 242.646243c-4.62519-3.866962-9.250379-7.582278-13.951392-11.373417" fill="#3FA9F5" /><path d="M390.080328 242.646243l259.31391-150.659865c4.776835 3.942785 9.477848 8.113038 14.17886 12.28329l-259.389733 150.887334c-4.62519-4.246076-9.326202-8.340506-14.103037-12.359113M404.183365 255.157002l259.389733-150.735688c4.701012 4.246076 9.326202 8.567974 13.951392 13.041518l-259.31391 150.659866c-4.62519-4.397721-9.326202-8.71962-14.027215-12.965696" fill="#3FA9F5" /><path d="M418.21058 268.122698l259.31391-150.659866c4.62519 4.397721 9.174556 8.871265 13.648101 13.496455l-259.313911 150.735689c-4.549367-4.62519-9.098734-9.098734-13.6481-13.572278" fill="#3FA9F5" /><path d="M431.85868 281.694976l259.313911-150.735689c4.397721 4.473544 8.795443 9.098734 13.117341 13.723924L444.976021 295.72219c-4.321899-4.701012-8.71962-9.250379-13.117341-13.723923M444.976021 295.72219l259.313911-150.735688c4.321899 4.62519 8.492151 9.326202 12.738227 14.103037l-259.313911 150.432397L444.976021 295.72219" fill="#3FA9F5" /><path d="M457.714248 309.521936l259.313911-150.735688c4.170253 4.776835 8.340506 9.629493 12.434936 14.557974L470.073362 324.004087c-4.09443-4.928481-8.18886-9.705316-12.359114-14.482151M470.073362 324.004087L729.690563 173.344222c4.321899 5.231772 8.643797 10.539367 12.889873 15.922784L483.039057 340.002694c-4.246076-5.45924-8.567974-10.766835-12.965695-15.998607" fill="#3FA9F5" /><path d="M483.039057 340.002694L742.352968 189.570297c4.852658 6.141645 9.55367 12.434936 14.254683 18.728227l-259.313911 150.432397c-4.701012-6.369114-9.477848-12.586582-14.254683-18.728227" fill="#3FA9F5" /><path d="M497.29374 358.730921l259.313911-150.735688q10.311898 13.951392 20.168859 28.585188L517.386777 387.316109a711.824266 711.824266 0 0 0-20.093037-28.585188M517.386777 387.316109l259.389733-150.735688c9.250379 13.799746 18.197467 28.054429 26.765442 42.612403L544.152219 429.928512c-8.492151-14.557974-17.43924-28.812657-26.765442-42.612403M544.152219 429.928512l259.389733-150.735688c5.535063 9.55367 10.994303 19.183164 16.226075 28.964302L560.378294 458.892814c-5.080126-9.781139-10.615189-19.107341-16.226075-28.964302" fill="#3FA9F5" /><path d="M560.378294 458.892814l259.389733-150.735688c3.563671 6.748227 7.051519 13.496455 10.463544 20.320505L570.841837 479.21332c-3.336202-6.82405-6.82405-13.572278-10.463543-20.320506M570.841837 479.21332l259.389734-150.735689c2.805443 5.610886 5.535063 11.297594 8.18886 16.984303L579.030698 496.1218c-2.653797-5.610886-5.383417-11.297594-8.188861-16.90848M579.030698 496.1218l259.389733-150.659866c2.577975 5.535063 5.080126 11.070126 7.582278 16.681012l-259.31391 150.659866c-2.502152-5.535063-5.004304-11.145949-7.582278-16.681012" fill="#3FA9F5" /><path d="M586.688799 512.802812l259.31391-150.659866c2.350506 5.383417 4.701012 10.766835 6.899873 16.150252l-259.31391 150.735689c-2.274683-5.45924-4.549367-10.842658-6.899873-16.226075M593.588672 529.028887l259.31391-150.735689c2.274683 5.535063 4.549367 10.994303 6.672405 16.529367L600.261076 545.937367c-2.198861-5.535063-4.397721-11.070126-6.672404-16.529366" fill="#3FA9F5" /><path d="M600.261076 545.937367l259.313911-150.735688c2.198861 5.610886 4.321899 11.297594 6.369113 16.984302l-259.31391 150.280752c-2.047215-5.610886-4.170253-11.297594-6.369114-16.90848" fill="#3FA9F5" /><path d="M606.63019 562.466733L866.171569 411.806868q3.184557 8.643797 6.141645 17.515062L612.696013 579.981795c-1.971392-5.838354-3.942785-11.676708-6.065823-17.515062" fill="#3FA9F5" /><path d="M612.696013 579.981795l259.389733-150.659865c1.971392 5.914177 3.866962 11.904177 5.686708 17.894176l-259.31391 150.659866c-1.819747-5.914177-3.715316-11.904177-5.762531-17.894177" fill="#3FA9F5" /><path d="M618.458544 597.875972L877.772454 447.367752c1.89557 6.141645 3.715316 12.28329 5.383418 18.424935L623.53867 616.37673c-1.743924-6.217468-3.487848-12.359113-5.383417-18.500758" fill="#3FA9F5" /><path d="M623.53867 616.37673l259.313911-150.735688c1.743924 6.141645 3.336202 12.359113 4.852658 18.500758L628.694619 634.877489c-1.516456-6.217468-3.108734-12.359113-4.852658-18.500759M628.694619 634.877489l259.313911-150.735689c1.592278 6.217468 3.032911 12.359113 4.321898 18.576582l-259.31391 150.659865c-1.36481-6.141645-2.805443-12.359113-4.321899-18.500758" fill="#3FA9F5" /><path d="M633.016518 653.378247l259.31391-150.659865c1.36481 6.065822 2.577975 12.207468 3.715316 18.27329l-259.31391 150.735688c-1.137342-6.065822-2.350506-12.207468-3.715316-18.349113M636.731834 671.72736l259.31391-150.735688c1.137342 5.914177 2.198861 11.828354 3.108735 17.742531l-259.313911 150.735688c-0.985696-5.914177-1.971392-11.828354-3.108734-17.742531" fill="#3FA9F5" /><path d="M639.840568 689.469891c17.515062 110.852906 1.36481 204.039103-45.493668 262.270999s-119.648348 74.837085-204.190749 45.493668a354.623146 354.623146 0 0 1-62.326326-28.433542c-63.691136-36.849871-126.093285-95.536704-180.534041-170.525435C75.415788 699.326852 26.282626 583.848757 8.69174 472.844206s-1.36481-204.039103 45.493669-262.270999 119.648348-74.837085 204.190749-45.493668A355.078083 355.078083 0 0 1 320.247547 193.285613C471.210703 280.557634 607.767532 487.174712 639.840568 689.469891zM544.682978 887.139881c38.745441-48.147466 52.09025-125.335057 37.911391-217.383913C555.828927 502.642559 443.687034 332.192948 320.247547 260.767888a287.67163 287.67163 0 0 0-50.118858-23.125948c-68.240503-23.505062-127.60974-10.160253-166.127713 37.532276S51.683257 400.509273 66.241231 492.86142a641.83984 641.83984 0 0 0 114.568222 269.625809c44.507972 61.264807 95.385058 109.184804 147.24784 139.134803A289.036441 289.036441 0 0 0 378.631088 925.051271c68.240503 23.580885 127.60974 10.236075 166.05189-37.91139" fill="#51B6F4" /><path d="M896.500681 282.832317c68.695439-39.731137 124.652652-7.582278 124.88012 71.121769l0.834051 291.614415c0 78.931515-55.35063 175.226447-124.04607 214.881761L644.010821 1006.939874c-68.771262 39.655314-124.652652 7.582278-124.88012-71.121768L518.29665 644.506982c0-79.007338 55.35063-175.226447 124.04607-214.881761z" fill="#272D35" /><path d="M597.455634 1009.290381a65.814174 65.814174 0 0 1-33.134556-8.416329c-23.73253-13.648101-36.849871-42.005821-36.925694-79.765566L526.561333 644.506982c0-76.277718 53.606706-169.463915 120.027463-207.830242l240.813151-139.286449c33.134555-19.183164 64.525186-22.140252 88.409363-8.416328s36.849871 42.005821 36.925694 79.841388l0.758228 276.677327c0 76.35354-53.606706 169.539738-119.951639 207.906065l-240.813152 138.983157a112.217716 112.217716 0 0 1-55.274807 16.908481z m345.221121-719.558191a103.270627 103.270627 0 0 0-50.725441 15.619493L651.213985 444.334841C587.371204 481.184712 535.584244 570.883062 535.811713 644.506982l0.758228 276.677327c0 34.423542 11.600885 59.899997 32.376327 71.879996s49.057339 9.098734 79.158983-8.340505L888.918403 845.437351c63.842781-36.849871 115.629741-126.548221 115.402273-199.86885l-0.758228-276.677327c0-34.423542-11.600885-59.97582-32.376328-71.879997a55.578098 55.578098 0 0 0-28.509365-7.278987z" fill="#EBECED" /><path d="M910.452073 275.55333c3.639493-1.592278 7.582278-3.108734 10.766835-4.321898h0.606582c3.108734-1.061519 6.141645-1.819747 9.098734-2.577975 1.743924-0.454937 3.412025-0.758228 5.155949-1.061519s4.397721-0.758228 6.596582-1.061519l3.715316-0.379113h9.402025a73.396452 73.396452 0 0 1 9.250379 1.213164l2.123038 0.454937a71.728351 71.728351 0 0 1 6.899873 1.971392l2.047215 0.758228a57.928605 57.928605 0 0 1 8.18886 3.866962L887.401947 217.624726a1.971392 1.971392 0 0 0-0.682405-0.379114 59.44506 59.44506 0 0 0-6.217468-3.108734h-1.213164l-2.123038-0.758228c-1.061519-0.379114-2.123038-0.834051-3.26038-1.137342s-2.350506-0.530759-3.56367-0.83405l-2.198861-0.53076h-1.213164a59.748351 59.748351 0 0 0-7.582278-0.909873h-10.311899l-3.715316 0.379114h-3.487848c-0.985696 0-2.047215 0.530759-3.108734 0.682405l-5.080126 1.137342-2.72962 0.530759-6.369114 1.971392h-0.682405c-2.502152 0.834051-5.080126 1.819747-7.582278 2.881266l-3.032911 1.440633-2.957089 1.288987c-3.791139 1.819747-7.582278 3.715316-11.44924 5.914177L545.062092 372.833958c-3.942785 2.274683-7.582278 4.852658-11.828354 7.582278l-3.791139 2.72962c-2.577975 1.89557-5.231772 3.866962-7.582278 5.914177l-4.246076 3.487848-7.051518 6.141645-4.170253 3.942785c-0.909873 0.834051-1.819747 1.592278-2.653798 2.502152s-1.743924 1.89557-2.653797 2.805443c-2.805443 2.881266-5.610886 5.838354-8.340506 8.871265-0.834051 0.909873-1.743924 1.819747-2.577974 2.805443s-1.440633 1.668101-2.123038 2.502152l-4.852658 5.914177L479.475387 432.203196l-2.426329 3.260379-3.412026 4.701013c-0.834051 1.137342-1.668101 2.123038-2.426329 3.260379s-2.502152 3.715316-3.715316 5.610886l-2.426329 3.639493a18.424936 18.424936 0 0 0-1.061519 1.516456c-2.198861 3.412025-4.321899 6.975696-6.444936 10.539367a3.108734 3.108734 0 0 1 0 0.682405l-1.137342 2.123037c-1.516456 2.502152-2.957088 5.080126-4.321898 7.582279-0.606582 1.137342-1.137342 2.350506-1.819747 3.56367s-1.213164 2.502152-1.89557 3.715316l-1.592278 3.26038c-1.440633 2.881266-2.72962 5.838354-4.018607 8.795443l-0.758228 1.592278v0.454937q-2.426329 5.610886-4.549367 11.145949l-0.682405 2.047215-1.516456 4.09443c-0.682405 1.89557-1.36481 3.715316-1.971392 5.610886s-0.909873 2.881266-1.36481 4.321898l-1.592278 5.155949-0.909874 3.184557c-0.530759 1.89557-0.909873 3.791139-1.440633 5.686708s-1.061519 4.246076-1.516455 6.369114a18.576581 18.576581 0 0 1-0.606582 2.198861c0 1.592278-0.454937 3.108734-0.758228 4.625189-0.606582 3.336202-1.213164 6.596582-1.668101 9.932785 0 0.909873 0 1.819747-0.53076 2.72962s0 4.170253-0.606582 6.217468 0 2.957088-0.379114 4.397721c0 4.62519-0.606582 9.250379-0.606582 13.723923L421.850073 879.557603c0 39.2762 14.027214 66.875693 36.319112 79.841388L555.298167 1015.583671c-22.746834-12.965696-36.243289-40.565188-36.319112-79.765565L518.29665 644.506982c0-4.549367 0-9.174556 0.53076-13.799746l0.454937-4.397721c0-2.957088 0.682405-5.914177 1.061518-8.947089s1.061519-6.596582 1.743924-9.932784 0.834051-4.549367 1.288988-6.82405 1.061519-4.170253 1.592278-6.293291 1.516456-5.914177 2.350506-8.947088l1.592279-5.080126c0.985696-3.336202 2.123038-6.672405 3.336202-10.008608 0.454937-1.36481 0.909873-2.72962 1.440633-4.09443 1.743924-4.549367 3.563671-9.098734 5.535063-13.6481l0.682405-1.516456c1.819747-4.09443 3.715316-8.113038 5.686708-12.131645 0.606582-1.213164 1.288987-2.426329 1.89557-3.715316 1.971392-3.791139 3.942785-7.582278 6.065822-11.221772 0.454937-0.682405 0.758228-1.440633 1.213165-2.123037 2.502152-4.321899 5.080126-8.567974 7.582278-12.738228 0.834051-1.213164 1.592278-2.426329 2.426329-3.56367 1.971392-3.032911 4.09443-5.99 6.141645-8.871266l3.487848-4.701012c1.819747-2.426329 3.715316-4.852658 5.610886-7.582278s3.184557-3.942785 4.852658-5.838354 3.108734-3.639493 4.701012-5.383418c2.72962-3.032911 5.45924-5.99 8.340506-8.871265l5.231772-5.231772 4.473544-4.09443q3.412025-3.184557 7.051519-6.141645l4.246076-3.563671c2.577975-2.047215 5.155949-3.942785 7.582278-5.838354 1.213164-0.909873 2.502152-1.89557 3.791139-2.72962 3.866962-2.72962 7.582278-5.231772 11.828353-7.582278L896.500681 282.832317c3.866962-2.274683 7.582278-4.170253 11.373417-5.914177z" fill="#6B7179" /><path d="M528.456903 581.422428l0.454937-1.440633c1.061519-3.336202 2.123038-6.672405 3.336202-10.008607 0.454937-1.36481 0.909873-2.72962 1.440633-4.09443 1.743924-4.549367 3.563671-9.098734 5.535063-13.6481l0.682405-1.516456c1.819747-4.09443 3.715316-8.113038 5.686708-12.131645 0.606582-1.213164 1.288987-2.426329 1.89557-3.715316 1.971392-3.791139 4.018607-7.582278 6.065822-11.221772 0.454937-0.682405 0.758228-1.440633 1.213165-2.123038 2.502152-4.321899 5.080126-8.567974 7.582278-12.738227 0.834051-1.213164 1.592278-2.426329 2.426329-3.56367 1.971392-3.032911 4.09443-5.99 6.141645-8.871266l3.487848-4.701012c1.819747-2.426329 3.715316-4.852658 5.610886-7.582278s3.184557-3.942785 4.852658-5.838354 3.108734-3.639493 4.701012-5.383418c2.72962-3.032911 5.45924-5.99 8.340506-8.871265l5.231772-5.231772 4.473544-3.791139q3.412025-3.184557 7.051519-6.141645l4.246076-3.563671c2.577975-2.047215 5.155949-3.942785 7.582278-5.838354L547.715889 371.544971l-2.274683 1.288987c-3.942785 2.274683-7.582278 4.852658-11.828354 7.582278l-3.791139 2.72962c-2.577975 1.89557-5.231772 3.866962-7.582278 5.914177l-4.246076 3.487848-7.051518 6.141645-4.170253 3.942785c-0.909873 0.834051-1.819747 1.592278-2.653798 2.502152s-1.743924 1.89557-2.653797 2.805443c-2.805443 2.881266-5.610886 5.838354-8.340506 8.871265-0.834051 0.909873-1.743924 1.819747-2.577974 2.805443s-1.440633 1.668101-2.123038 2.502152l-4.852658 5.914177L479.475387 432.203196l-2.426329 3.260379-3.412026 4.701013c-0.834051 1.137342-1.668101 2.123038-2.426329 3.260379s-2.502152 3.715316-3.715316 5.610886l-2.426329 3.639493-1.061519 1.516456c-2.198861 3.412025-4.321899 6.975696-6.444936 10.539367a3.108734 3.108734 0 0 1 0 0.682405l-1.137342 2.123037c-1.440633 2.502152-2.957088 5.080126-4.321898 7.582279-0.606582 1.137342-1.137342 2.350506-1.819747 3.56367s-1.213164 2.502152-1.89557 3.715316l-1.592278 3.26038c-1.440633 2.881266-2.72962 5.838354-4.018607 8.795443l-0.758228 1.592278a1.061519 1.061519 0 0 0 0 0.454937c-1.668101 3.715316-3.184557 7.582278-4.62519 11.145949l-0.682405 2.047215-1.516455 4.09443c-0.682405 1.89557-1.36481 3.715316-1.971393 5.610886s-0.909873 2.881266-1.36481 4.321898l-1.592278 5.155949-0.909874 3.184557c-0.454937 1.668101-0.834051 3.26038-1.213164 4.928481z" fill="#71777C" /><path d="M514.884625 723.059383v-1.819747a15.164556 15.164556 0 0 0 0-1.895569 17.363417 17.363417 0 0 0 0-1.89557v-1.895569-1.89557l-0.454936-1.971392-0.454937-2.047215a15.164556 15.164556 0 0 0-0.53076-1.971393l-0.454936-1.592278a15.164556 15.164556 0 0 0-0.606583-1.971392l-0.682405-1.971393-1.895569-2.426329a14.103037 14.103037 0 0 1-0.758228-1.895569 10.766835 10.766835 0 0 1-0.606582-1.36481 19.410632 19.410632 0 0 0-0.834051-1.819747c0-0.682405-0.606582-1.36481-0.985696-2.047215L505.255132 690.00065l-1.36481-2.426329v-0.454936a1.213164 1.213164 0 0 1 0-0.53076c-0.909873-1.516456-1.89557-3.032911-2.881266-4.549367l-2.350506-3.336202-1.668101-2.274683-1.516456-1.819747-1.440633-1.743924-1.516455-1.592278-1.213165-1.213165-1.592278-1.592278-2.653797-2.274684-1.743924-1.440633-0.758228-0.682405-0.682405-0.606582-1.668101-1.213164-1.668101-1.213165-1.819747-1.36481-1.668101-0.985696-1.213165-0.682405-1.516456-0.834051-1.061518-0.454936-1.516456-0.682405-1.516456-0.606583H468.632729l-1.592278-0.454936H456.046147l-2.123038 0.606582a20.017214 20.017214 0 0 0-2.881265 1.36481L429.963111 667.253816a17.590885 17.590885 0 0 1 2.957088-1.36481l2.274684-0.682405h0.530759a17.666708 17.666708 0 0 1 2.881266 0h3.866962l3.184556 0.53076 3.336203 0.909873 3.639493 1.516456c1.213164 0.606582 2.502152 1.213164 3.791139 1.971392a54.819871 54.819871 0 0 1 7.582278 5.307594 80.675439 80.675439 0 0 1 7.051519 6.52076 91.669742 91.669742 0 0 1 6.444936 7.582278 84.618223 84.618223 0 0 1 5.535063 8.416328v0.454937a99.100375 99.100375 0 0 1 4.549367 8.947088 94.399362 94.399362 0 0 1 3.487848 9.402025 70.8943 70.8943 0 0 1 3.563671 10.008607 56.563795 56.563795 0 0 1 0.758228 9.326202 40.868479 40.868479 0 0 1-0.758228 8.264683 30.329112 30.329112 0 0 1-2.123038 6.748228 22.746834 22.746834 0 0 1-2.881266 4.473544 8.71962 8.71962 0 0 1-1.061519 1.288987 18.197467 18.197467 0 0 1-4.170253 3.487848l19.486455-11.297594a20.017214 20.017214 0 0 0 4.170253-3.487848c0-0.379114 0.682405-0.834051 1.061519-1.288988a15.164556 15.164556 0 0 0 1.36481-1.743923 28.206074 28.206074 0 0 0 1.440633-2.577975c0-0.682405 0.606582-1.288987 0.83405-1.971392l0.682405-2.047215 0.53076-1.89557v-0.834051a3.26038 3.26038 0 0 1 0-0.83405v-3.715316-1.743924a15.846961 15.846961 0 0 0 0-1.89557z" fill="#CDD2DC" /><path d="M457.259312 669.907613a84.163287 84.163287 0 0 1 37.91139 66.193288c0 24.26329-17.211771 34.120251-38.366327 21.912784a84.163287 84.163287 0 0 1-37.91139-66.193288c-0.075823-24.566581 17.135948-34.120251 38.366327-21.912784z" fill="#ADAFBD" /><path d="M461.277919 794.181151a24.490758 24.490758 0 0 1 11.145949 19.334809c0 7.051519-5.004304 9.932784-11.221772 6.369114a24.718227 24.718227 0 0 1-11.145948-19.334809c0-7.051519 5.080126-9.932784 11.221771-6.369114zM459.837286 839.978111a15.846961 15.846961 0 0 1 7.127342 12.434936c0 4.549367-3.184557 6.369114-7.582278 4.09443a15.771138 15.771138 0 0 1-7.127342-12.359113c0.379114-4.62519 3.639493-6.444936 7.582278-4.170253z" fill="#272D35" /><path d="M657.128162 667.784576c6.672405 3.26038 10.08443 11.44924 10.387721 24.490758v63.008731a73.396452 73.396452 0 0 1-34.044429 60.658224 24.642404 24.642404 0 0 1-23.505062 2.805443c-6.975696-3.032911-10.539367-11.145949-10.691012-24.187467v-63.008731a68.847085 68.847085 0 0 1 10.539367-36.54658 67.103161 67.103161 0 0 1 23.505062-24.111644 24.642404 24.642404 0 0 1 23.808353-3.108734z m-6.596582 96.294931v-60.658224q-0.530759-21.154556-17.060126-12.055823a34.878479 34.878479 0 0 0-16.832657 31.693923v60.658225q0 21.53367 16.984303 12.055822a34.726834 34.726834 0 0 0 16.984303-31.6181M731.51031 615.466857l0.379114 142.698473-17.211771 9.932785-0.303291-121.088981-17.060126 24.718226-0.075823-21.761138 17.060126-24.566581 17.211771-9.932784zM782.23575 663.159386l17.135949-9.932784 0.075823 20.396328-17.135949 9.856961-0.075823-20.320505zM782.387396 729.049383l-0.075823-20.396328 17.211771-9.856962 0.075823 20.320505-17.211771 9.932785zM853.054228 544.11762c10.994303-6.217468 19.713923-7.051519 26.158859-2.653797a26.613796 26.613796 0 0 1 9.477848 22.746834 64.373541 64.373541 0 0 1-2.502152 17.287594 68.695439 68.695439 0 0 1-10.615189 19.789746 15.164556 15.164556 0 0 1 11.373417 7.582278 32.679619 32.679619 0 0 1 3.336202 15.164556 73.62392 73.62392 0 0 1-10.387721 37.911391 72.107465 72.107465 0 0 1-26.007214 27.068732 24.490758 24.490758 0 0 1-21.836961 3.184557c-6.293291-2.577975-10.387721-9.250379-12.28329-20.093037l17.211771-9.932784a13.496455 13.496455 0 0 0 6.520759 7.582278 12.28329 12.28329 0 0 0 11.44924-1.971392 34.575188 34.575188 0 0 0 12.738227-13.572278 38.821264 38.821264 0 0 0 5.459241-19.6381c0-7.203164-1.971392-11.752531-5.535063-13.723924a13.344809 13.344809 0 0 0-13.268987 1.819747l-7.582278 4.246076v-17.818354l5.914177-3.412025a36.167466 36.167466 0 0 0 13.723923-13.723923 34.423542 34.423542 0 0 0 4.852658-17.363417 13.344809 13.344809 0 0 0-5.080126-11.979999 12.662404 12.662404 0 0 0-12.586582 1.440632 30.329112 30.329112 0 0 0-10.160252 10.08443 40.716833 40.716833 0 0 0-6.369114 16.756835l-17.287594 10.008607a77.490882 77.490882 0 0 1 10.766835-33.058733 63.084554 63.084554 0 0 1 22.519366-23.73253zM944.875615 491.117496c10.311898-5.838354 18.728227-6.748227 25.173164-2.805443s9.856962 11.600885 9.856961 23.353417a67.254807 67.254807 0 0 1-7.203164 29.267593L934.412072 620.926097l45.948605-26.537973v20.320505L911.665237 654.363943v-19.258986L958.599539 538.355089a54.137466 54.137466 0 0 0 3.715316-10.008607 47.237592 47.237592 0 0 0 0.606582-6.824051 14.330506 14.330506 0 0 0-4.246076-11.600885c-2.957088-2.350506-7.051519-1.971392-12.434936 0.985696A32.148859 32.148859 0 0 0 934.412072 523.190533a43.446453 43.446453 0 0 0-5.762532 18.576581L911.665237 551.396607a77.035945 77.035945 0 0 1 10.008607-35.257593 63.994427 63.994427 0 0 1 23.201771-25.021518z" fill="#FFFFFF" /></svg>