<?xml version="1.0" standalone="no"?><!DOCTYPE svg PUBLIC "-//W3C//DTD SVG 1.1//EN" "http://www.w3.org/Graphics/SVG/1.1/DTD/svg11.dtd"><svg class="icon" width="200px" height="200.00px" viewBox="0 0 1024 1024" version="1.1" xmlns="http://www.w3.org/2000/svg"><path d="M699.292825 11.15928c32.116951-4.49093 58.041863 19.868961 57.973819 54.43551l-1.565021 836.945977c0 34.634594-26.129045 66.343279-58.177952 70.834208l-353.21842 49.672404c-32.116951 4.49093-58.041863-19.937006-57.973818-54.435511l1.56502-836.945977C287.964498 97.031298 314.365721 65.322613 346.074405 60.763639z" fill="#3F3F3F" /><path d="M705.620953 10.682969a26.129045 26.129045 0 0 1 3.266131 0H715.079123l3.742442 0.748488h0.680444l4.218752 1.360888 1.224799 0.476311 2.925908 1.292843a20.413316 20.413316 0 0 1 2.449598 1.156755L710.792327 5.851817 709.023173 4.899196h-0.680444l-2.993953-1.565021-1.156755-0.476311c-1.428932-0.476311-2.857864-0.952621-4.286796-1.292843h-0.680444c-1.224799 0-2.449598-0.544355-3.742441-0.816533h-4.558974L689.2903 0h-4.763107l-4.831152 0.408266L326.477622 50.148714 321.170159 51.16938l-1.565021 0.408266-3.87853 1.224799-1.360887 0.476311c-1.633065 0.612399-3.198086 1.224799-4.763108 1.973287l-1.292843 0.680444c-1.292843 0.680444-2.517642 1.292843-3.742441 2.041332a16.73892 16.73892 0 0 0-1.837199 1.156754c-0.816533 0.476311-1.633065 0.952621-2.381553 1.496977L299.327911 61.239949l-1.292844 0.952622-3.26613 2.585687-0.816533 0.952621-0.544355 0.544355-0.952622 0.884577c-1.428932 1.360888-2.78982 2.721776-4.150707 4.218752l-1.156755 0.884577s-0.408266 0.544355-0.680444 0.748489c-1.428932 1.70111-2.78982 3.402219-4.014619 5.171373l-0.544355 0.680444c-1.496977 2.17742-2.857864 4.49093-4.150707 6.804439l-0.476311 0.748488c-0.408266 0.748488-0.748488 1.496977-1.08871 2.245465l-0.952622 1.905243c-0.612399 1.360888-1.224799 2.78982-1.769154 4.218752l-0.476311 1.224799c-0.408266 1.020666-0.748488 2.109376-1.08871 3.198086L270.885356 102.066582c0 1.224799-0.544355 2.449598-0.816532 3.674397l-0.6124 2.449598c0 1.428932-0.408266 2.857864-0.544355 4.218753s0 1.428932 0 2.109376v6.396172L266.734649 958.269121a62.464748 62.464748 0 0 0 1.08871 12.043857 52.394179 52.394179 0 0 0 1.905243 7.484882 36.335703 36.335703 0 0 0 1.224799 3.538309c0.952621 2.245465 1.973287 4.49093 3.130042 6.804438a60.695594 60.695594 0 0 0 3.946574 5.987907 48.923915 48.923915 0 0 0 15.650209 13.608877l19.596784 10.682969a54.435511 54.435511 0 0 1-27.217755-49.196093l1.565021-836.945976v-6.396173-2.109376c0-0.680444 0.340222-2.857864 0.612399-4.218752s0.408266-1.633065 0.544356-2.449598 0.544355-2.517642 0.884577-3.742441l0.816532-2.517642a34.566549 34.566549 0 0 1 1.156755-3.470264 5.919862 5.919862 0 0 1 0.476311-1.156755c0.544355-1.496977 1.156755-2.857864 1.769154-4.286796s0.612399-1.224799 0.952621-1.837199 1.020666-2.041332 1.565021-2.993953c1.292843-2.313509 2.653731-4.627018 4.150708-6.804439l0.612399-0.816532c1.292843-1.769154 2.653731-3.538308 4.082663-5.171374l2.31351-2.313509c1.360888-1.428932 2.721776-2.857864 4.150707-4.150708l1.496977-1.428932 1.156755-0.952621c1.020666-0.884577 2.109376-1.769154 3.26613-2.585687l1.224799-0.952622c1.020666-0.748488 2.109376-1.428932 3.198086-2.109376l1.769154-1.156754L327.974598 66.683501l1.292844-0.680444a45.317563 45.317563 0 0 1 4.96724-2.109376l1.360888-0.476311 3.946574-1.156755 1.496977-0.408266c1.769154-0.408266 3.538308-0.816533 5.375506-1.08871l352.878198-49.604359 4.831152-0.476311z" fill="#28282B" /><path d="M694.529718 36.471792c23.271181-3.266131 42.119476 14.629543 42.119476 40.0101l-1.496976 820.615324c0 25.380557-18.984384 48.651738-42.32361 51.917868l-345.393315 49.060004c-23.271181 3.334175-42.119476-14.561499-42.051432-39.942056l1.496977-820.615323c0-25.380557 18.91634-48.651738 42.255565-51.985913z" fill="#FFFFFF" /><path d="M633.221724 36.948103v18.576118a36.063526 36.063526 0 0 1-29.191042 35.587215l-140.851884 19.800917A29.122998 29.122998 0 0 1 430.041181 79.952156V65.458702z" fill="#3F3F3F" /><path d="M581.644078 59.947106a5.57964 5.57964 0 0 1 6.396172 6.055951 7.961193 7.961193 0 0 1-6.396172 7.825104 5.647684 5.647684 0 0 1-6.396173-6.05595 7.893149 7.893149 0 0 1 6.396173-7.825105zM554.086101 67.2959a2.313509 2.313509 0 0 1 2.585686 2.449598v1.70111a3.198086 3.198086 0 0 1-2.585686 3.130042l-44.773208 6.260083a2.313509 2.313509 0 0 1-2.585687-2.381553v-1.70111a3.266131 3.266131 0 0 1 2.653731-3.130042z" fill="#67676B" /><path d="M599.335619 936.835139a4.49093 4.49093 0 0 1 4.96724 4.695062 6.328128 6.328128 0 0 1-4.96724 6.123995L464.063375 966.638581a4.422885 4.422885 0 0 1-4.967241-4.695063 6.123995 6.123995 0 0 1 5.035285-6.055951z" fill="#232326" /><path d="M268.163581 185.693136l19.596784 4.286796v7.212705l-19.596784-4.35484v-7.144661z" fill="#3F3F3F" /><path d="M279.731127 270.88471a6.804439 6.804439 0 0 1 2.857864 5.035285v38.853345c0 1.837198-1.292843 2.585687-2.857864 1.633066l-3.40222-1.905243a6.804439 6.804439 0 0 1-2.789819-5.035285v-38.785301c0-1.837198 1.292843-2.653731 2.857864-1.70111z" fill="#FF0000" /><path d="M275.036064 270.136222a3.130042 3.130042 0 0 1 1.496977 2.585686v43.140143c0 0.952621-0.612399 1.360888-1.496977 0.816532l-2.653731-1.496976a3.470264 3.470264 0 0 1-1.496977-2.653731V269.455778c0-0.952621 0.680444-1.360888 1.496977-0.884577z" fill="#28282B" /><path d="M279.595038 270.88471h-1.496976l-2.721776-1.565021h-1.020666l-3.061997 1.769154a0.680444 0.680444 0 0 1 0.47631 0h0.6124l2.653731 1.565021 0.6124 0.476311 0.47631 0.612399a2.857864 2.857864 0 0 1 0 0.680444 3.061997 3.061997 0 0 1 0 0.748488v43.140143a1.292843 1.292843 0 0 1 0 0.544355 0.816533 0.816533 0 0 1 0 0.340222l2.993953-1.769154v-43.140143z" fill="#3F3F3F" /><path d="M619.476758 589.740714h2.653731a7.961193 7.961193 0 0 1 1.633065 0.612399 6.396173 6.396173 0 0 1 1.020666 0.408266l-5.57964-2.993953h-0.952621l-1.633066-0.612399h-3.470263a13.608878 13.608878 0 0 0-2.857865 0L476.175276 605.595056a17.011097 17.011097 0 0 0-3.334175 0.748488l-1.020666 0.408267-1.428932 0.544355h-0.6124l-1.156754 0.680444-0.884577 0.47631-0.952622 0.748489-0.544355 0.47631a0.680444 0.680444 0 0 0-0.340222 0 15.514121 15.514121 0 0 0-1.496976 1.496977L464.063375 612.399495l-0.680444 0.816533-0.952621 1.496976v0.340222a15.650209 15.650209 0 0 0-1.156755 2.653731c0 0.816533-0.476311 1.633065-0.680444 2.517643s0 0.816533 0 1.224799a25.924912 25.924912 0 0 0-0.408266 4.082663 19.392651 19.392651 0 0 0 1.905243 8.777726 12.860389 12.860389 0 0 0 5.239417 5.511595l5.511596 2.993954a15.378032 15.378032 0 0 1-6.804439-14.289322 27.217755 27.217755 0 0 1 0.340222-4.082663 8.233371 8.233371 0 0 1 0-1.224799 15.105854 15.105854 0 0 1 0.6124-2.517643 23.747492 23.747492 0 0 1 1.360887-2.993953 20.413316 20.413316 0 0 1 1.565021-2.381553l0.340222-0.476311 2.109376-2.109376 0.6124-0.408266a12.588212 12.588212 0 0 1 1.837198-1.292844l1.156755-0.680444a14.153233 14.153233 0 0 1 2.041331-0.884577l0.952622-0.340222a26.469267 26.469267 0 0 1 3.334175-0.816532l134.183534-18.848296a19.596784 19.596784 0 0 1 2.78982 0zM574.159195 481.686225l48.651738-6.872483-5.57964-2.993953-48.583693 6.872483 5.511595 2.993953zM459.232223 512.170111a20.00505 20.00505 0 0 0 0.340222 3.470264v1.020666a17.283275 17.283275 0 0 0 1.496977 4.082663 4.082663 4.082663 0 0 0 0.408266 0.748488 17.623497 17.623497 0 0 0 2.041332 3.130042l0.748488 1.020666a23.203136 23.203136 0 0 0 3.470264 3.334175l53.550933 37.764635 2.449598 1.428933 5.57964 3.061997a21.297894 21.297894 0 0 1-2.449598-1.496977l-53.618978-37.696591a26.809489 26.809489 0 0 1-3.402219-3.402219l-0.816533-0.952621a22.999003 22.999003 0 0 1-2.041331-3.198087L466.78515 523.94179a23.067048 23.067048 0 0 1-1.428932-4.150708 5.443551 5.443551 0 0 1 0-1.020665 20.413316 20.413316 0 0 1-0.408266-3.470264 5.851817 5.851817 0 0 1 0-1.08871 18.984384 18.984384 0 0 1 0.476311-4.354841v-0.748489a26.265134 26.265134 0 0 1 1.292843-3.674396l0.408266-1.020666a34.566549 34.566549 0 0 1 2.381554-4.014619l0.476311-0.544355a26.809489 26.809489 0 0 1 3.538308-3.87853l50.352847-6.804439V349.748156a15.378032 15.378032 0 0 1 0.6124-3.606353 10.138614 10.138614 0 0 1 1.633065-2.925908 10.070569 10.070569 0 0 1 2.449598-2.041332 12.792345 12.792345 0 0 1 3.334175-1.08871l34.226327-5.715729a9.049904 9.049904 0 0 1 3.061998 0 8.301415 8.301415 0 0 1 1.837198 0.6124l-5.57964-2.993953-1.292843-0.476311a9.117948 9.117948 0 0 0-3.061997 0l-33.545884 4.695063a10.002525 10.002525 0 0 0-2.857864 0.884577h-0.408266l-0.6124 0.340222-0.952621 0.680444a3.87853 3.87853 0 0 1-0.748489 0.748488l-0.408266 0.544355-0.6124 0.952621-0.612399 1.360888a10.274703 10.274703 0 0 0-0.6124 3.606353v139.422951l-50.284802 6.804439a26.19709 26.19709 0 0 0-2.381554 2.381554 12.520167 12.520167 0 0 0-1.156755 1.496976l-0.47631 0.544356v0.408266a22.182471 22.182471 0 0 0-1.633066 2.721775l-0.408266 0.816533-0.476311 1.08871a7.348794 7.348794 0 0 0-0.544355 1.292844 13.608878 13.608878 0 0 0-0.680444 2.381553v0.748489a31.572596 31.572596 0 0 0-0.47631 4.35484 6.260084 6.260084 0 0 0-1.973288 2.381554z" fill="#3F59F5" /><path d="M615.870405 589.808758l-134.183534 18.848296a19.528739 19.528739 0 0 0-16.806963 20.413316 14.085188 14.085188 0 0 0 16.738919 15.718254L615.802361 626.008373a20.821583 20.821583 0 0 0 16.806964-20.413317 14.833677 14.833677 0 0 0-16.73892-15.786298zM473.4535 532.039072l53.618978 37.696591a31.912818 31.912818 0 0 0 22.386604 4.967241 36.199615 36.199615 0 0 0 21.229849-11.091235l53.755067-52.802446c11.703635-12.520167 11.771679-28.782776-1.633065-35.927437l-48.651738 6.804439V342.263273A6.804439 6.804439 0 0 0 566.129957 334.370124l-33.477839 4.695063a9.934481 9.934481 0 0 0-8.437504 10.274703v139.422951l-50.352847 6.804439a22.930959 22.930959 0 0 0-0.408267 36.471792z" fill="#3FA9F5" /></svg>