<?xml version="1.0" standalone="no"?><!DOCTYPE svg PUBLIC "-//W3C//DTD SVG 1.1//EN" "http://www.w3.org/Graphics/SVG/1.1/DTD/svg11.dtd"><svg class="icon" width="200px" height="200.00px" viewBox="0 0 1024 1024" version="1.1" xmlns="http://www.w3.org/2000/svg"><path d="M876.410762 37.038335c46.213588-6.746509 83.521783 28.672664 83.454318 78.461902l-1.349301 712.836156c0 49.856703-37.578056 95.530569-83.724179 102.007218l-660.483245 92.831966c-46.146123 6.746509-83.521783-28.672664-83.386853-78.461902l1.281837-712.903621c0-49.789237 37.578056-95.463104 83.791643-101.939753z" fill="#3FA9F5" /><path d="M885.51855 36.363684h7.016369l4.452696 0.472256h2.158883c1.821557 0 3.57565 0.674651 5.397207 1.079441h0.944512c2.091418 0.539721 4.115371 1.214372 6.139323 1.956488l1.686627 0.674651a40.479055 40.479055 0 0 1 4.250301 1.821557 33.732546 33.732546 0 0 1 3.508185 1.754093l-66.722976-36.363684-2.563673-1.281837-0.944511 0.26986q-2.091418-1.079441-4.115371-1.889022l-1.754092-0.674651c-2.023953-0.742116-4.047905-1.416767-6.139324-1.956488h-0.809581c-1.754092-0.404791-3.57565-0.809581-5.397207-1.079441l-2.091418-0.337326c-1.484232 0-2.968464 0-4.452696-0.40479H816.906552c-2.226348 0-4.587626 0-6.74651 0.67465l-660.9555 92.427176c-2.563673 0.404791-5.127347 0.944511-7.691021 1.551697l-2.158883 0.539721c-1.889023 0.539721-3.778045 1.079441-5.667067 1.754092l-2.023953 0.674651c-2.293813 0.877046-4.655091 1.821557-6.746509 2.833534l-1.889023 1.011976a52.757701 52.757701 0 0 0-5.464672 2.900999l-2.631139 1.686627c-1.146907 0.674651-2.293813 1.349302-3.373254 2.091418l-0.742116 0.607186a95.93536 95.93536 0 0 0-8.837927 6.746509l-0.539721 0.404791c-0.472256 0.404791-0.877046 0.877046-1.349302 1.349301-2.023953 1.889023-4.047905 3.912975-5.936928 6.004394-0.404791 0.472256-0.877046 0.809581-1.281837 1.281836l-0.877046 1.146907a88.581665 88.581665 0 0 0-5.869463 7.42116s-0.539721 0.607186-0.742116 0.944511a96.542546 96.542546 0 0 0-6.004393 9.714973c0 0.404791-0.472256 0.742116-0.674651 1.079442s-1.079441 2.158883-1.619162 3.238324l-1.349302 2.698604c-0.877046 2.023953-1.754092 4.047905-2.563673 6.139323l-0.674651 1.686627c-0.539721 1.551697-1.011976 3.103394-1.484232 4.655092L69.190943 168.662729c-0.472256 1.754092-0.809581 3.57565-1.214371 5.329742s-0.607186 2.361278-0.809581 3.57565-0.607186 4.047905-0.877047 6.071858c0 1.011976 0 1.956488-0.40479 2.968464 0 3.035929-0.404791 6.139323-0.404791 9.242717L64.131061 908.349991a78.192041 78.192041 0 0 0 38.792428 70.838346l66.722975 36.296219A78.124576 78.124576 0 0 1 130.921502 944.51128l1.281837-712.903621c0-3.103394 0-6.139323 0.472255-9.175253 0-1.011976 0-2.023953 0.404791-3.035929s0.472256-4.047905 0.877046-6.071858 0.539721-2.361278 0.809581-3.508185 0.742116-3.57565 1.214372-5.329742 0.809581-2.496208 1.214371-3.71058 0.944511-3.305789 1.551698-4.924952l0.742116-1.754092c0.809581-2.091418 1.619162-4.115371 2.563673-6.139323 0.404791-0.877046 0.877046-1.754092 1.349302-2.631139s1.416767-2.900999 2.226348-4.317766c1.889023-3.373255 3.84551-6.746509 6.004393-9.782438l0.944511-1.214372c1.821557-2.563673 3.778045-4.992417 5.801998-7.42116l2.226348-2.428743c1.889023-2.091418 3.84551-4.047905 5.936928-6.004393l1.821558-1.754092a99.241149 99.241149 0 0 1 8.905392-6.74651l4.11537-2.698603 2.563674-1.686628 5.464672-2.900998 1.889023-1.011977c2.361278-1.079441 4.722556-2.023953 7.1513-2.968464l2.023952-0.674651c1.821557-0.607186 3.71058-1.214372 5.599603-1.686627l2.226348-0.607186a70.433555 70.433555 0 0 1 7.69102-1.484232L876.410762 37.038335c2.361278 0 4.655091-0.539721 6.746509-0.674651z" fill="#3F59F5" /><path d="M271.923543 342.587734a17.743319 17.743319 0 0 1 20.239527 18.890226l-0.944511 534.93071a25.097014 25.097014 0 0 1-20.239527 24.624758l-20.914179 2.968464a17.810784 17.810784 0 0 1-20.239527-18.957691l1.011976-534.998175a25.029549 25.029549 0 0 1 20.239528-24.557293zM469.393866 314.859582a17.743319 17.743319 0 0 1 20.239527 18.890225l-1.011976 534.93071a25.029549 25.029549 0 0 1-20.239528 24.624759l-20.914178 2.900999a17.810784 17.810784 0 0 1-20.239527-18.957691L428.442555 342.317874a25.029549 25.029549 0 0 1 20.239528-24.557293zM666.864188 287.063964a17.743319 17.743319 0 0 1 20.239528 18.890226l-0.944512 534.998175a25.029549 25.029549 0 0 1-20.239527 24.557293l-20.914178 2.968464a17.810784 17.810784 0 0 1-20.239528-18.957691l1.011977-534.93071a24.962084 24.962084 0 0 1 20.239527-24.557293zM864.267046 259.335811a17.810784 17.810784 0 0 1 20.239527 18.890226l-1.011976 534.93071a24.962084 24.962084 0 0 1-20.239528 24.624758l-20.846713 2.968464a17.810784 17.810784 0 0 1-20.239527-18.95769l1.011976-534.998175a25.029549 25.029549 0 0 1 20.239528-24.557294z" fill="#313D44" /><path d="M321.240525 458.290366a13.493018 13.493018 0 0 1 15.382041 14.43753v29.617175a19.025156 19.025156 0 0 1-15.449506 18.755295l-103.896241 14.639925a13.493018 13.493018 0 0 1-15.314576-14.504995v-29.54971a19.160086 19.160086 0 0 1 15.382041-18.82276z" fill="#FFFFFF" /><path d="M325.895616 458.762622a13.493018 13.493018 0 0 1 3.57565 1.281836l-16.731343-9.107787h-0.472255a12.885832 12.885832 0 0 0-2.428744-0.877046h-1.416766a12.548507 12.548507 0 0 0-3.912976 0l-103.76131 13.695413a15.989227 15.989227 0 0 0-3.980441 1.214372h-0.472255l-0.877047 0.472256-1.079441 0.674651h-0.539721l-1.349302 1.079441h-0.40479l-1.551697 1.619162h-0.337326l-0.40479 0.607186-0.674651 0.809581a9.445113 9.445113 0 0 0-0.674651 1.079442l-0.404791 0.674651v0.337325a19.699807 19.699807 0 0 0-0.944511 2.091418v0.40479a11.26667 11.26667 0 0 0-0.539721 2.023953A7.353695 7.353695 0 0 0 185.568226 479.002149a19.092621 19.092621 0 0 0-0.337325 3.373255v29.54971A14.504995 14.504995 0 0 0 192.314735 525.215737l16.663878 9.107787a14.504995 14.504995 0 0 1-7.1513-13.088228v-29.54971a18.485435 18.485435 0 0 1 0-3.373254 7.353695 7.353695 0 0 1 0.337326-1.146907 12.211182 12.211182 0 0 1 0.607185-2.091418v-0.40479a20.239527 20.239527 0 0 1 1.146907-2.428743l0.40479-0.674651a20.239527 20.239527 0 0 1 1.349302-1.956488l0.472256-0.539721c0.607186-0.742116 1.281837-1.416767 1.956488-2.091418h0.472255a18.14811 18.14811 0 0 1 1.821558-1.349301l1.079441-0.607186a11.873856 11.873856 0 0 1 1.349302-0.607186 13.493018 13.493018 0 0 1 3.98044-1.214372l103.828776-14.572459a15.179646 15.179646 0 0 1 3.912975 0z" fill="#DDDDDD" /><path d="M922.35449 454.444856a13.493018 13.493018 0 0 1 15.449505 14.504995v29.54971a19.160086 19.160086 0 0 1-15.449505 18.82276l-103.828776 14.57246a13.493018 13.493018 0 0 1-15.382041-14.504995v-29.54971a19.227551 19.227551 0 0 1 15.449506-18.82276z" fill="#FFFFFF" /><path d="M927.077046 454.647251a10.86188 10.86188 0 0 1 3.508185 1.214372L914.191213 446.753835h-0.472255a15.11218 15.11218 0 0 0-2.428743-0.944511H909.873448a18.890226 18.890226 0 0 0-3.912976 0l-103.828775 14.639925a16.731343 16.731343 0 0 0-3.980441 1.146907h-0.472255l-0.809582 0.53972-1.146906 0.607186h-0.539721l-1.281837 1.011976-0.40479 0.337326a17.608389 17.608389 0 0 0-1.619162 1.551697v0.404791l-0.472256 0.53972-0.607186 0.877046a5.801998 5.801998 0 0 0-0.674651 1.079442l-0.40479 0.607186a11.671461 11.671461 0 0 0-0.944512 2.091418v0.472255c0 0.674651 0 1.416767-0.53972 2.091418s0 0.742116 0 1.146907a18.350505 18.350505 0 0 0-0.337326 3.305789v29.617175a14.504995 14.504995 0 0 0 7.1513 13.088228l16.731343 9.040322a14.504995 14.504995 0 0 1-7.218765-13.088227v-29.077455a18.41797 18.41797 0 0 1 0-3.373254v-1.079442a20.239527 20.239527 0 0 1 0.607186-2.158883v-0.40479a26.986037 26.986037 0 0 1 1.146906-2.428744l0.404791-0.674651a19.092621 19.092621 0 0 1 1.349302-1.889022l0.40479-0.607186a19.092621 19.092621 0 0 1 2.023953-2.023953h0.40479a12.076251 12.076251 0 0 1 1.889023-1.349302l1.079442-0.67465 1.349301-0.607186a15.989227 15.989227 0 0 1 3.980441-1.214372l103.76131-14.57246a12.548507 12.548507 0 0 1 3.912976 0z" fill="#DDDDDD" /><path d="M518.710848 591.264061a13.493018 13.493018 0 0 1 15.38204 14.504995v29.54971a19.160086 19.160086 0 0 1-15.516971 19.092621L414.949537 668.713986A13.493018 13.493018 0 0 1 399.432566 654.411387v-29.752105A19.160086 19.160086 0 0 1 414.949537 605.836521z" fill="#FFFFFF" /><path d="M523.365939 591.398991a13.493018 13.493018 0 0 1 3.57565 1.281837l-16.731343-9.107787h-0.472256a12.953298 12.953298 0 0 0-2.428743-0.944511h-1.416767a12.615972 12.615972 0 0 0-3.912975 0l-103.828776 14.167669a13.493018 13.493018 0 0 0-3.912975 1.146906h-0.472256a3.84551 3.84551 0 0 0-0.877046 0.539721l-1.079441 0.607186-0.539721 0.337325c-0.472256 0-0.877046 0.674651-1.349302 1.011977h-0.404791a16.866273 16.866273 0 0 0-1.551697 1.551697v0.40479l-0.40479 0.539721-0.674651 0.809581-0.674651 1.146907-0.404791 0.607186a19.699807 19.699807 0 0 0-0.944511 2.091417v0.472256a18.890226 18.890226 0 0 0-0.607186 2.091418v1.079441a19.699807 19.699807 0 0 0-0.337325 3.373255v29.617175a14.43753 14.43753 0 0 0 7.218765 13.020763l16.663877 9.107787A14.504995 14.504995 0 0 1 399.432566 654.411387v-29.752105a18.485435 18.485435 0 0 1 0-3.373255 5.059882 5.059882 0 0 1 0-1.079442 11.334135 11.334135 0 0 1 0.607186-2.158882v-0.404791a20.239527 20.239527 0 0 1 1.146906-2.428743l0.404791-0.674651a19.092621 19.092621 0 0 1 1.349302-1.889023l0.472255-0.607186a18.620365 18.620365 0 0 1 1.956488-2.023952h0.472256a9.107787 9.107787 0 0 1 1.821557-1.349302l1.079441-0.674651 1.349302-0.607186a15.989227 15.989227 0 0 1 4.857487-1.551697l103.828776-14.57246a12.683437 12.683437 0 0 1 3.912975 0z" fill="#DDDDDD" /><path d="M716.113705 733.008218a13.493018 13.493018 0 0 1 15.382041 14.43753v29.617175a19.227551 19.227551 0 0 1-15.449506 19.025156l-103.828776 14.57246A13.493018 13.493018 0 0 1 597.105284 796.088079v-29.68464a19.160086 19.160086 0 0 1 15.382041-18.822761z" fill="#FFFFFF" /><path d="M720.768796 733.143149a12.548507 12.548507 0 0 1 3.57565 1.281836l-16.663877-9.107787h-0.472256a18.013179 18.013179 0 0 0-2.428743-0.944511H703.362803a12.683437 12.683437 0 0 0-3.912976 0l-103.828775 14.639924a14.100204 14.100204 0 0 0-3.980441 1.146907h-0.472255l-0.877046 0.539721-1.079442 0.607186h-0.539721a9.377648 9.377648 0 0 0-1.281836 1.011976h-0.472256l-1.551697 1.551697v0.404791a1.821557 1.821557 0 0 0-0.472256 0.53972l-0.674651 0.809581-0.674651 1.146907-0.40479 0.607186v0.337325a11.671461 11.671461 0 0 0-0.944511 2.091418v0.472256c0 0.674651 0 1.349302-0.539721 2.091418s0 0.742116 0 1.079441a18.957691 18.957691 0 0 0 0 3.373255v29.617175a14.370064 14.370064 0 0 0 7.1513 13.020762l15.044715 9.580043a14.504995 14.504995 0 0 1-6.746509-12.953297v-29.68464a18.41797 18.41797 0 0 1 0-3.373255v-1.079441a20.239527 20.239527 0 0 1 0.607186-2.158883v-0.404791a13.493018 13.493018 0 0 1 1.146906-2.428743l0.404791-0.674651a12.076251 12.076251 0 0 1 1.349302-1.889023l0.40479-0.607185a19.632342 19.632342 0 0 1 2.023953-2.091418h0.40479a15.786831 15.786831 0 0 1 1.821558-1.349302l1.146906-0.674651 1.349302-0.607186a15.516971 15.516971 0 0 1 3.912975-1.214372l103.828776-14.572459a12.615972 12.615972 0 0 1 3.912976 0z" fill="#DDDDDD" /><path d="M394.710009 186.473513a11.738926 11.738926 0 0 1 13.493019 12.481042v38.050311a16.528947 16.528947 0 0 1-13.493019 16.259087l-35.284242 4.992417a11.806391 11.806391 0 0 1-13.493019-12.548507v-38.050312a16.461482 16.461482 0 0 1 13.493019-16.191622z" fill="#F74848" /><path d="M398.82538 186.608443a15.314576 15.314576 0 0 1 3.103394 1.079441l-16.731342-9.040322h-0.404791a11.199205 11.199205 0 0 0-2.091418-0.809581h-1.214371a11.334135 11.334135 0 0 0-3.373255 0l-35.216778 4.317766a13.020763 13.020763 0 0 0-3.508185 1.011976h-0.40479l-0.742116 0.404791-0.944511 0.607186h-0.472256l-1.079441 0.877046h-0.404791l-1.349302 1.349302v0.472255l-1.349302 2.023953a4.317766 4.317766 0 0 0-0.53972 0.944511l-0.404791 0.539721a13.897809 13.897809 0 0 0-0.809581 1.754092v0.404791a18.080645 18.080645 0 0 0-0.472256 1.821557v0.944512a13.493018 13.493018 0 0 0 0 2.900999v38.050311a12.413577 12.413577 0 0 0 6.206789 11.26667l16.663877 9.040323a12.481042 12.481042 0 0 1-6.206788-11.266671v-37.645521a21.116574 21.116574 0 0 1 0-2.900999v-0.944511a9.310183 9.310183 0 0 1 0.539721-1.821557v-0.404791a20.239527 20.239527 0 0 1 1.011976-2.091418v-0.53972l1.146907-1.686628 0.40479-0.472255a20.711783 20.711783 0 0 1 1.686627-1.754093l0.404791-0.337325a13.965274 13.965274 0 0 1 1.619162-1.146907l0.944511-0.53972 1.146907-0.539721a11.941321 11.941321 0 0 1 3.44072-1.011977l35.284242-4.992416a13.965274 13.965274 0 0 1 3.373255 0z" fill="#EA8B8B" /><path d="M571.401084 168.662729a11.806391 11.806391 0 0 1 13.493018 12.548507v38.050311a16.461482 16.461482 0 0 1-13.493018 16.191622l-35.014383 4.790022a11.738926 11.738926 0 0 1-13.493018-12.481042v-38.050312a16.528947 16.528947 0 0 1 13.493018-16.259087z" fill="#FFFFFF" /><path d="M575.448989 168.662729a11.469066 11.469066 0 0 1 3.03593 1.011976l-16.663878-9.040322h-0.404791a13.493018 13.493018 0 0 0-2.091417-0.809581h-1.214372a11.334135 11.334135 0 0 0-3.373255 0l-35.284242 4.924951a12.008786 12.008786 0 0 0-3.44072 1.079442h-0.404791l-0.742116 0.472255-0.944511 0.539721h-0.472256l-1.146906 0.877046h-0.337326l-1.349301 1.349302v0.337326l-0.404791 0.472255s-0.404791 0.472256-0.539721 0.742116l-0.607186 0.944511v0.539721a10.72695 10.72695 0 0 0-0.809581 1.821558v0.40479a18.620365 18.620365 0 0 0-0.53972 1.821558 4.722556 4.722556 0 0 0 0 0.944511 13.493018 13.493018 0 0 0 0 2.900999v38.050311a12.481042 12.481042 0 0 0 6.206788 11.266671l16.731343 9.107787A12.413577 12.413577 0 0 1 522.893683 227.762149v-38.050312a13.493018 13.493018 0 0 1 0-2.900999v-1.011976a18.080645 18.080645 0 0 1 0.472256-1.821558v-0.40479a11.334135 11.334135 0 0 1 1.011976-2.023953 2.766069 2.766069 0 0 1 0.337326-0.607186 13.965274 13.965274 0 0 1 1.146906-1.619162v-0.539721l1.754093-1.754092h0.40479l1.551697-1.146907 0.944512-0.53972 1.146906-0.539721a13.020763 13.020763 0 0 1 3.508185-1.011976l36.228754-5.127347a14.032739 14.032739 0 0 1 3.373254 0z" fill="#DDDDDD" /><path d="M729.539258 145.926993a11.806391 11.806391 0 0 1 13.493019 12.548507v38.050311a16.461482 16.461482 0 0 1-13.493019 16.191622l-35.216778 4.992417a11.738926 11.738926 0 0 1-13.493018-12.481042v-38.050311a16.528947 16.528947 0 0 1 13.493018-16.259087z" fill="#FFFFFF" /><path d="M733.587164 146.129388a9.580043 9.580043 0 0 1 3.035929 1.079441l-16.663878-9.107787h-0.40479a13.493018 13.493018 0 0 0-2.091418-0.809581h-1.214372a9.445113 9.445113 0 0 0-3.373254 0l-35.284243 4.385231a14.57246 14.57246 0 0 0-3.44072 1.079441h-0.40479a4.047905 4.047905 0 0 0-0.742116 0.404791l-0.944512 0.539721h-0.472255l-1.146907 0.877046a0.674651 0.674651 0 0 1-0.337325 0l-1.349302 1.349302v0.337325l-0.404791 0.472256s-0.404791 0.472256-0.53972 0.742116l-0.607186 0.944511v0.539721a10.72695 10.72695 0 0 0-0.809581 1.821557v0.404791a13.493018 13.493018 0 0 0-0.539721 1.754092v0.944512a21.116574 21.116574 0 0 0 0 2.900998v38.050312a12.481042 12.481042 0 0 0 6.206788 11.26667l16.731343 9.107788a12.413577 12.413577 0 0 1-6.206788-11.266671v-36.768474a13.493018 13.493018 0 0 1 0-2.900999v-0.944512a15.449506 15.449506 0 0 1 0.472255-1.889022v-0.404791c0-0.674651 0.607186-1.349302 0.944512-2.023953l0.40479-0.53972a14.84232 14.84232 0 0 1 1.146907-1.686628v-0.472255a15.044715 15.044715 0 0 1 1.754092-1.821558h0.404791a8.365671 8.365671 0 0 1 1.551697-1.146906l0.944511-0.607186 1.146906-0.539721a13.020763 13.020763 0 0 1 3.508185-1.011976l35.216778-4.992417a14.032739 14.032739 0 0 1 3.373255 0z" fill="#DDDDDD" /></svg>