<?xml version="1.0" standalone="no"?><!DOCTYPE svg PUBLIC "-//W3C//DTD SVG 1.1//EN" "http://www.w3.org/Graphics/SVG/1.1/DTD/svg11.dtd"><svg class="icon" width="200px" height="200.00px" viewBox="0 0 1024 1024" version="1.1" xmlns="http://www.w3.org/2000/svg"><path d="M542.541489 33.319584A61.933441 61.933441 0 0 1 590.054153 45.539295c1.517976 1.138482 149.596584 113.165148 307.086645 91.07859a60.71906 60.71906 0 0 1 70.737705 62.540631l-0.379494 219.119907c0 198.475427-67.17046 326.364947-337.825669 553.454231-12.523306 10.549937-50.852213 46.222384-89.029322 51.535302s-76.809611-19.809593-88.801625-26.48869c-273.235769-151.79765-336.307693-260.332969-335.8523-458.808396L116.673183 318.775064a85.613874 85.613874 0 0 1 71.117199-82.502022C345.811735 213.958787 492.827759 60.71906 495.028824 58.593893a80.908147 80.908147 0 0 1 47.512665-25.274309z" fill="#3FA9F5" /><path d="M897.140798 136.617885c2.049268 0 4.098537-0.455393 6.147805-0.607191h8.121174c1.366179 0 2.732358 0 4.022638 0.455393h1.821572a53.129177 53.129177 0 0 1 5.237019 1.062584c1.821572 0.455393 3.643144 1.062584 5.388816 1.669774l1.593876 0.683089 3.567244 1.517977a22.769647 22.769647 0 0 1 3.035953 1.517976l-60.03597-32.712393a18.519313 18.519313 0 0 0-2.125167-1.062584l-0.834887-0.379494-3.643144-1.593875-1.593875-0.607191a56.468726 56.468726 0 0 0-10.549937-2.732358h-1.821572l-4.022637-0.455393h-8.197073c-2.049268 0-4.098537 0-6.147805 0.607191-6.071906 0.834887-12.067913 1.442078-18.139819 1.897471h-5.996007c-4.022638 0-7.589882 0.531292-11.916116 0.60719h-17.836224l-7.589882-0.455393c-3.339548 0-6.679097-0.379494-9.942746-0.683089l-7.589883-0.834887q-4.781626-0.455393-9.563252-1.138483l-7.589882-1.138482-9.487353-1.593875-7.589883-1.442078-8.956061-1.897471-7.589883-1.821571-9.107859-2.352864-5.464715-1.517976-9.790948-2.884156-5.16112-1.593875q-5.464715-1.745673-10.929431-3.643144l-3.26365-1.138482c-4.705727-1.669774-9.259657-3.339548-13.737687-5.085221L646.44698 75.898825l-9.942746-4.022638-4.55393-1.973369-8.272972-3.567245-4.47803-2.049268L611.154026 60.71906l-3.794941-1.897471-7.589882-3.87084-3.87084-1.821572c-3.719042-1.897471-7.589882-3.719042-10.625836-5.616513l59.960072 32.636495c3.415447 1.897471 6.982692 3.794941 10.701734 5.616513 1.138482 0.683089 2.428762 1.29028 3.643144 1.897471l6.4514 3.263649 1.366179 0.68309 3.794941 1.745672 8.045275 3.870841 4.478031 1.973369 8.272972 3.643144 4.553929 1.973369 9.866848 4.022638 3.339548 1.29028c4.553929 1.745673 9.107859 3.491346 13.737687 5.085221l3.339548 1.138482q5.312918 1.897471 10.929431 3.643144c1.669774 0.607191 3.415447 1.062584 5.085221 1.593875l9.790949 2.884156 5.540614 1.517976 3.794941 1.062584 5.312918 1.29028 7.589882 1.821572 8.956062 1.89747 7.589882 1.517977 9.259657 1.517976 7.589882 1.138483q4.781626 0.683089 9.563252 1.138482l7.589883 0.834887c3.263649 0 6.603198 0.455393 9.942746 0.683089l7.589882 0.455393h17.760325c4.022638 0 7.969377 0 11.992015-0.531291h5.996007c6.299602-0.910786 12.143812-1.517976 18.443414-2.201066zM554.533503 32.712393H556.886367a41.820252 41.820252 0 0 1 4.326233 0.455393h1.517976a48.651147 48.651147 0 0 1 5.768311 1.214382h1.138482l4.250334 1.366178 1.821572 0.68309 3.415447 1.442078c1.062584 0.531292 2.125167 0.986685 3.111852 1.593875L521.897008 7.589882 519.695943 6.223704 518.936954 5.768311l-3.643143-1.442078-1.821572-0.758988-4.250334-1.29028h-0.986685a50.776314 50.776314 0 0 0-5.84421-1.517977h-1.593875A41.820252 41.820252 0 0 0 496.167307 0h-7.589883c-1.973369 0-3.946739 0-5.920108 0.531292s-4.022638 0.683089-5.996007 1.138482l-2.125167 0.607191-4.022638 1.062583-2.276965 0.834887a35.52065 35.52065 0 0 0-3.643143 1.366179l-2.276965 0.986685-1.669774 1.062583-1.593875 0.834888-2.960055 1.517976-3.035953 1.821572c-0.986685 0.531292-1.897471 1.138482-2.808256 1.745673l-1.366179 0.834887-0.910786 0.758988a96.012013 96.012013 0 0 0-7.589882 6.071906 66.031978 66.031978 0 0 0-5.237019 5.085221l-0.607191 0.68309v0.379494a16.014652 16.014652 0 0 0-1.138482 1.138482l-0.68309 0.68309-2.201066 1.214381-1.214381 1.138482-1.89747 1.97337-1.669775 1.593875-2.276964 2.201066-1.97337 1.897471-2.732357 2.504661c-0.683089 0.758988-1.517976 1.442078-2.276965 2.201066l-3.111852 2.884155-2.656459 2.428762-3.415447 3.111852-2.808257 2.504661-4.402131 3.870841c-0.986685 0.910786-2.049268 1.897471-3.187751 2.808256l-4.705727 4.098537-3.415447 2.960054-5.237019 4.402132-3.643144 3.035953-5.996007 4.857524-3.415447 2.808257-7.589882 6.223704-2.201066 1.745673-10.625836 8.121174-2.960054 2.201066c-2.656459 1.973369-5.388817 4.022638-8.197073 5.996007-1.366179 1.062584-2.808257 2.049268-4.250334 3.035953s-4.933424 3.567245-7.589883 5.312918l-3.415447 2.352863c-5.996007 4.098537-12.067913 8.197073-18.367516 12.219711l-1.442077 0.910786q-9.335555 6.071906-19.126504 11.840217l-2.049268 1.214381c-6.527299 3.87084-13.282294 7.589882-20.03729 11.233026l-3.567245 1.89747c-6.679097 3.567245-13.509991 6.982692-20.492682 10.322241l-6.071906 2.808256-6.147805 2.808257-7.589883 3.18775-6.223703 2.58056c-2.504661 1.062584-5.009322 2.049268-7.589883 2.960054l-6.223704 2.428763-7.589882 2.732358L184.982125 189.747062l-8.045275 2.428762c-2.049268 0.607191-4.098537 1.29028-6.147805 1.821572s-5.616513 1.517976-8.500668 2.276965l-5.768311 1.442078c-3.111852 0.758988-6.299602 1.442078-9.487353 2.049268l-4.857525 1.062583c-4.781626 0.910786-9.639151 1.745673-14.496676 2.428763-2.201066 0-4.402132 0.758988-6.527298 1.214381l-1.97337 0.531292a46.52598 46.52598 0 0 0-4.629828 1.366179l-2.049268 0.683089-4.781626 1.973369-1.442078 0.607191q-2.125167 0.986685-4.326233 2.276965l-1.593875 0.834887a69.902818 69.902818 0 0 0-5.920109 3.719042H93.903535a84.095898 84.095898 0 0 0-7.589882 6.071906l-0.986685 0.758989-0.910786 0.986684q-2.732358 2.504661-5.237019 5.237019a12.067913 12.067913 0 0 1-0.986684 0.986685 69.902818 69.902818 0 0 0-5.540614 6.982692l-0.455393 0.531292a10.625835 10.625835 0 0 1-0.758989 1.214381c-1.366179 2.049268-2.656459 4.174435-3.946739 6.375501l-0.758988 1.29028-0.683089 1.442078-1.138483 2.201066-1.821571 4.174435-1.366179 3.339548-0.455393 1.062584-0.910786 2.960054c0 0.910786-0.683089 1.897471-0.910786 2.884155s-0.758988 2.808257-1.062584 4.174436-0.455393 1.821572-0.60719 2.808256a46.829575 46.829575 0 0 0-0.68309 4.705727v9.942746L55.954123 505.106679C55.49873 703.582106 118.191159 812.117425 391.806423 963.915075l9.411454 5.464715 4.250334 2.276965 60.339566 32.712393c-5.996007-3.263649-10.701734-6.071906-13.661789-7.589882-273.235769-151.79765-336.307693-260.332969-335.852299-458.808396L116.673183 318.775064v-7.589882-2.352864c0-0.834887 0.455393-3.187751 0.758988-4.705727s0-1.897471 0.607191-2.808257a42.047949 42.047949 0 0 1 1.062583-4.174435c0-0.986685 0.607191-1.897471 0.910786-2.884155a41.896151 41.896151 0 0 1 1.366179-4.022638l1.29028-1.821572a39.619187 39.619187 0 0 1 1.593875-4.250334l1.062584-2.276965c0.531292-0.910786 1.062584-1.821572 1.517976-2.732357 1.214381-2.125167 2.58056-4.326233 3.946739-6.375502l1.138483-1.745673a82.881517 82.881517 0 0 1 5.540614-6.982692l1.214381-1.366178q2.504661-2.732358 5.237019-5.237019l1.897471-1.745673a97.074597 97.074597 0 0 1 7.589882-6.071906c1.973369-1.366179 3.946739-2.656459 5.996007-3.794942l1.593876-0.834887 4.705727-2.428762 1.442077-0.607191c1.593875-0.683089 3.187751-1.366179 4.781626-1.89747l2.049269-0.758988 4.553929-1.366179 1.97337-0.531292c2.201066-0.455393 4.402132-0.910786 6.603197-1.214381 4.857525-0.683089 9.639151-1.517976 14.496676-2.428763l4.857525-0.986684 9.487353-2.125167 5.76831-1.442078c2.884155-0.758988 5.692412-1.442078 8.500669-2.276965l6.147805-1.821572 8.045275-2.428762 6.147805-2.125167 7.589882-2.732358 6.223704-2.352863 7.589882-2.960055 6.223704-2.656458c2.504661-1.062584 4.933424-2.049268 7.589883-3.187751l6.223703-2.808257 4.402132-1.973369 1.669774-0.834887c6.906793-3.339548 13.737687-6.754995 20.492683-10.32224l3.567245-1.897471c6.754995-3.643144 13.434092-7.589882 20.037289-11.233026l2.049269-1.214381q9.790948-5.768311 19.126503-11.840217l1.442078-0.910786c6.299602-4.022638 12.371508-8.121174 18.367516-12.219711l1.669774-1.138482 1.745673-1.214381 7.589882-5.237019 4.250335-3.111852c2.808257-1.973369 5.540614-4.022638 8.272971-6.071906l2.884156-2.125167L420.268482 124.398174l2.049268-1.593875 8.045276-6.375502 3.567245-2.58056 5.996007-4.857525 3.643143-3.035953 5.16112-4.402131 3.491346-2.960055 4.705727-4.098536 3.187751-2.732358 4.402132-3.946739 1.821572-1.593875 0.910786-0.910786 3.491346-3.111852 2.656458-2.428762 3.111852-2.884155 2.276965-2.125168 2.732358-2.58056 1.973369-1.89747 2.276965-2.201066 1.593875-1.593875 1.97337-1.897471c0-0.455393 0.834887-0.834887 1.214381-1.214381l1.442077-1.442078a10.32224 10.32224 0 0 1 0.910786-1.214381l0.986685-1.062584 0.455393-0.455393 0.683089-0.683089c1.669774-1.745673 3.415447-3.491346 5.237019-5.085221a94.94943 94.94943 0 0 1 7.589883-6.071906l2.276965-1.593876 2.884155-1.745673c0.986685-0.607191 1.973369-1.214381 3.035953-1.745673l2.884155-1.593875 3.339549-1.517976 2.276964-0.986685a35.52065 35.52065 0 0 1 3.643144-1.366179l2.276965-0.758988a39.922782 39.922782 0 0 1 4.022637-1.138483l1.97337-0.531291a53.812267 53.812267 0 0 1 5.920108-1.062584c2.049268 0 4.022638-0.455393 5.996007-0.607191h6.071906z" fill="#3F59F5" /><path d="M557.94895 130.545979a39.011996 39.011996 0 0 1 28.234363 6.375501c0.986685 0.758988 92.824263 62.920126 198.323629 48.119855a227.241081 227.241081 0 0 0 31.498013-6.830894 67.398156 67.398156 0 0 1 7.589882-1.593876c25.881499-3.643144 45.539295 15.179765 45.539295 44.704408L868.071548 398.46883c-0.607191 160.526014-50.852213 270.882906-253.80567 483.020121-9.411454 9.790948-37.949412 42.65514-66.790966 51.00401a60.71906 60.71906 0 0 1-8.045275 1.745673c-25.729702 3.567245-50.320921-10.170443-58.442095-13.889485-204.926827-93.962745-251.452807-175.02269-250.466122-335.472805l0.683089-177.147857c0-32.408798 24.059927-65.652483 53.129178-74.229051 118.629863-34.609864 228.910856-173.73241 230.58063-175.857577a71.572592 71.572592 0 0 1 35.596548-25.426106 53.812267 53.812267 0 0 1 7.438085-1.669774z" fill="#FFFFFF" /><path d="M830.653428 176.237071a42.882836 42.882836 0 0 1 5.540614 0.531292h0.834887a29.524643 29.524643 0 0 1 3.719042 0.910786 27.77897 27.77897 0 0 1 4.402132 1.669774 18.443414 18.443414 0 0 1 2.808257 1.214381l-15.179765-8.197073-1.29028-0.683089-1.442078-0.531292a28.38616 28.38616 0 0 0-4.478031-1.593875 5.085221 5.085221 0 0 0-1.138482-0.455393l-2.504661-0.531292h-0.834887a34.306269 34.306269 0 0 0-5.616513-0.455393h-1.29028a41.061264 41.061264 0 0 0-5.996007 0.379494 45.539295 45.539295 0 0 0-7.589883 1.593875 216.387549 216.387549 0 0 1-31.194417 6.754996c-4.781626 0.683089-9.563252 1.214381-14.268979 1.517976h-4.781626l-9.259657 0.379494h-19.581896c-2.58056 0-5.16112 0-7.589883-0.455393l-5.920108-0.683089-7.589883-0.834887c-1.973369 0-3.87084-0.607191-5.844209-0.910786s-4.629828-0.683089-6.906793-1.138482l-5.768311-1.138483-6.603198-1.366179-5.540614-1.366178-6.603198-1.821572-4.022637-1.062584-6.982692-2.125167-3.643144-1.062583-7.589882-2.58056-2.504661-0.834887c-3.187751-1.138482-6.375501-2.276965-9.411455-3.491346l-2.125167-0.834888-6.830894-2.732357-2.428762-1.29028-5.388817-2.352864-2.960054-1.366179-5.009323-2.352863-2.352863-1.138483-4.705727-2.352863-2.352864-1.138483c-2.049268-0.986685-3.946739-2.049268-5.768311-3.035953l15.179765 8.197074 6.071906 3.18775 2.125167 1.062584 3.87084 1.973369 0.910786 0.455393 2.352864 1.138483 5.009322 2.352863 2.884156 1.29028 5.388816 2.352864 3.035953 1.29028 6.830895 2.732357 2.049268 0.910786 9.487353 3.491346 2.504661 0.834887 7.589883 2.504662 3.719042 1.138482 6.982692 2.049268 4.022638 1.138483 2.58056 0.683089 3.946739 0.986685 5.616513 1.29028 6.603197 1.442077 5.768311 1.138483 6.906793 1.138482 5.84421 0.910786 7.589882 0.834887 5.920108 0.607191 7.589883 0.531291h19.657795l9.335556-0.455392h4.781626c4.705727 0 9.487353-0.910786 14.268979-1.517977a227.241081 227.241081 0 0 0 31.498012-6.830894 67.398156 67.398156 0 0 1 7.589883-1.593876 54.115862 54.115862 0 0 1 5.996007-0.379494zM570.624054 130.621877h0.607191a35.824245 35.824245 0 0 1 4.098536 0.986685q2.125167 0.683089 4.326233 1.593876c0.986685 0.455393 1.973369 0.758988 2.884155 1.29028l-15.179765-8.121175-1.366178-0.683089a9.942746 9.942746 0 0 0-1.517977-0.455393 26.640488 26.640488 0 0 0-4.326233-1.593875l-1.062583-0.379495a20.492683 20.492683 0 0 0-2.960055-0.60719h-0.683089a34.078572 34.078572 0 0 0-5.540614-0.455393h-1.366179a37.418121 37.418121 0 0 0-5.768311 0.379494 41.744354 41.744354 0 0 0-7.589882 1.593875c-1.517976 0.455393-3.111852 0.986685-4.629829 1.593876l-1.442077 0.60719a26.48869 26.48869 0 0 0-2.58056 1.138483h-0.455393l-2.58056 1.366178-2.201066 1.214382-2.58056 1.669774c-0.607191 0.379494-1.214381 0.683089-1.821572 1.138482a70.434109 70.434109 0 0 0-6.603198 5.16112l-0.758988 0.607191-0.531292 0.60719c-1.973369 1.745673-3.87084 3.719042-5.76831 5.768311-1.214381 1.29028-2.276965 2.656459-3.415448 4.022638l-0.455393 0.531292-0.834887 0.986684-0.455393 0.607191-1.138482 1.29028-0.683089 0.834887-1.366179 1.669774-0.986685 1.214381-1.593875 1.897471c-0.455393 0.455393-0.834887 0.986685-1.29028 1.517977l-1.821572 2.125167-1.517977 1.745673-2.201065 2.504661-1.593876 1.821572-1.821572 2.049268-3.263649 3.719042c-0.683089 0.758988-1.442078 1.517976-2.125167 2.352864l-3.719043 4.022638c-0.683089 0.758988-1.442078 1.517976-2.125167 2.352863l-4.553929 4.781626-1.97337 2.656459c-2.201066 2.276965-4.478031 4.705727-6.906793 7.13449l-1.214381 1.29028-6.223703 6.299602-2.58056 2.58056-5.388817 5.312918-3.111852 2.884155-5.464715 5.312918-3.187751 2.960054-6.375501 5.768311-2.58056 2.428762c-3.87084 3.491346-7.589882 6.906793-11.916116 10.398139l-2.656459 2.352864-12.826901 10.625835-0.683089 0.455393c-4.174435 3.415447-8.500668 6.679097-12.826902 10.018645l-2.884155 2.125167c-4.478031 3.339548-9.03196 6.679097-13.661789 9.866847l-3.111851 2.125167c-2.960054 2.049268-5.996007 4.022638-9.031961 5.996008l-3.794941 2.504661q-5.009322 3.187751-10.018645 6.147805l-2.504661 1.517976c-4.098537 2.428762-8.348871 4.781626-12.523306 6.982692l-3.263649 1.745673-9.71505 4.857525-5.085221 2.428762-4.098537 1.821572-6.375501 2.732358-4.022638 1.593875-6.982692 2.58056-3.415447 1.29028c-3.491346 1.214381-6.906793 2.276965-10.398139 3.339548a55.785636 55.785636 0 0 0-7.589882 2.884156h-0.910786l-1.062584 0.60719-2.276964 1.138483-2.732358 1.593875-2.201066 1.366179-1.214381 0.834887a2.960054 2.960054 0 0 0-0.758989 0.60719 63.375519 63.375519 0 0 0-6.679096 5.237019h-0.455393c-1.821572 1.745673-3.643144 3.567245-5.388817 5.464716l-0.758988 0.834887-0.531292 0.60719c-1.821572 2.125167-3.567245 4.326233-5.16112 6.603198a4.022638 4.022638 0 0 1-0.455393 0.758988c-1.593875 2.352864-3.111852 4.857525-4.47803 7.589883l-0.455393 0.758988c-0.455393 0.834887-0.834887 1.669774-1.214381 2.504661s-1.062584 2.049268-1.442078 3.035953-0.758988 1.745673-1.062584 2.656459-0.758988 1.593875-1.062583 2.352864a2.201066 2.201066 0 0 1 0 0.683089c-0.455393 1.138482-0.758988 2.276965-1.138483 3.415447s-0.531292 1.745673-0.758988 2.656459l-0.910786 3.643144c-0.303595 1.214381-0.379494 1.669774-0.531292 2.504661s-0.379494 2.732358-0.60719 4.098536 0 1.442078 0 2.125168a57.075916 57.075916 0 0 0-0.379494 6.223703L215.341655 576.831068c-0.607191 141.854904 35.900144 221.700467 185.800323 303.5953l15.179765 8.121174C266.345665 806.500912 229.838331 726.655349 230.52142 584.876344l0.683089-177.147857v-6.299603-2.125167a37.949412 37.949412 0 0 1 0.607191-4.098536c0-0.834887 0.379494-1.669774 0.531292-2.504662s0.531292-2.428762 0.834887-3.643143 0.531292-1.745673 0.834887-2.58056 0.683089-2.352864 1.138482-3.491346 0.758988-2.049268 1.138483-3.035953 0.683089-1.745673 1.062583-2.58056 0.986685-2.049268 1.442078-3.035953l1.29028-2.504661a8.272972 8.272972 0 0 1 0.607191-1.138483c1.442078-2.58056 2.960054-5.009322 4.553929-7.589882l0.68309-1.062584a77.037307 77.037307 0 0 1 5.237018-6.603198 11.688419 11.688419 0 0 1 1.29028-1.442077c1.745673-1.897471 3.491346-3.719042 5.388817-5.464716l0.531292-0.531291c2.201066-1.897471 4.402132-3.643144 6.679096-5.312918l2.049269-1.366179a22.010659 22.010659 0 0 1 2.201066-1.442078 23.300939 23.300939 0 0 1 2.732357-1.517976 20.416784 20.416784 0 0 1 2.201066-1.214381l2.049268-0.910786a59.125185 59.125185 0 0 1 7.589883-2.960054c3.491346-0.986685 6.982692-2.125167 10.474038-3.339549l3.415447-1.214381 6.982692-2.58056 3.946739-1.669774 6.4514-2.656459 4.022637-1.897471 2.960055-1.29028 2.201066-1.138482c3.263649-1.517976 6.4514-3.187751 9.715049-4.857525l3.26365-1.669774q6.223704-3.415447 12.523306-7.058591l2.504661-1.442077 9.942746-6.147805 3.87084-2.504661 9.487353-5.388817 2.276965-1.517976 0.910786-0.607191c4.629828-3.263649 9.183758-6.527299 13.661788-9.866847l2.808257-2.201066c4.402132-3.263649 8.652466-6.603198 12.826901-9.942746l0.68309-0.531292c4.402132-3.491346 8.652466-7.058591 12.826901-10.625835l2.732358-2.276965c4.022638-3.491346 8.045275-6.982692 11.840216-10.398139l0.531292-0.455393 2.201066-1.973369 6.223704-5.768311 3.263649-3.035953 5.464715-5.237019 3.111852-2.960054 5.312918-5.237019 2.656459-2.656459 6.223703-6.299602 1.214382-1.214382 6.906793-7.210388 1.89747-2.049268c1.593875-1.593875 3.111852-3.263649 4.55393-4.781626l2.201066-2.428763 3.719042-4.022637 2.049268-2.276965 3.415448-3.794941a9.259657 9.259657 0 0 1 1.138482-1.29028l0.531292-0.68309 1.669774-1.821572 2.201066-2.58056c0.455393-0.531292 0.986685-1.062584 1.442077-1.669774l1.897471-2.201066 1.29028-1.517976c0.531292-0.607191 0.986685-1.214381 1.517977-1.745673l1.062583-1.366179c0.455393-0.531292 0.910786-0.986685 1.29028-1.517976l0.834887-0.986685 0.910786-1.138483 0.607191-0.758988 0.683089-0.834887v-0.379494l0.455393-0.531292c1.138482-1.517976 2.352864-2.960054 3.567245-4.326233s3.794941-3.946739 5.692412-5.76831l1.366179-1.138483a82.122528 82.122528 0 0 1 6.527298-5.237019l1.97337-1.29028 2.656459-1.669774 2.125167-1.138482 2.656459-1.366179 3.035953-1.366179 1.442077-0.607191a35.596549 35.596549 0 0 1 4.55393-1.517976 53.812267 53.812267 0 0 1 7.589882-1.669774c1.897471 0 3.87084 0 5.768311-0.379494h1.29028a45.539295 45.539295 0 0 1 5.692412 0.075898z" fill="#DDDDDD" /><path d="M636.656032 592.010833a112.254362 112.254362 0 0 1 18.139819 12.29561l5.616513 4.933424 5.692412 3.111851a114.455428 114.455428 0 0 0-23.832231-17.229033zM734.337819 508.522126a208.494072 208.494072 0 0 0-32.712393-22.769647l-5.692412-3.111852A204.926827 204.926827 0 0 1 739.043546 514.138639l5.692412 3.035953c-3.567245-3.111852-6.906793-6.071906-10.398139-8.652466zM666.408371 537.667275l-5.768311-2.960054-6.830894-3.111852-2.125167-0.834887-4.857525-1.97337-2.504661-0.910786-4.705727-1.593875-2.504662-0.834887-5.237018-1.745673h-2.049269c-2.428762-0.683089-4.933424-1.214381-7.589882-1.745673h-1.745673l-5.84421-1.062583h-2.58056l-5.312917-0.68309h-2.504662l-6.375501-0.455393h-26.868184l-7.589882 0.910786-8.42477 1.442078-2.58056 0.531292-5.996007 1.29028-2.808257 0.683089-6.527299 1.745673-1.89747 0.531292-8.348871 2.656459-1.973369 0.758988-6.375502 2.352863-2.656459 1.138483-5.920108 2.504661-2.504661 1.138482a4.629828 4.629828 0 0 0-1.062584 0.531292c-1.593875 0.683089-3.111852 1.517976-4.705727 2.276965l-2.808256 1.366179-7.969377 4.402132c-2.808257 1.593875-5.540614 3.263649-8.272972 5.009322l-2.656459 1.745673-4.553929 3.035953-0.68309 0.455393c-3.567245 2.504661-7.058591 5.085221-10.474037 7.589882l-2.276965 1.821572c-2.808257 2.276965-5.540614 4.553929-8.272972 6.982692l-1.593875 1.366179-1.214382 1.138482c-2.58056 2.352864-5.16112 4.781626-7.589882 7.589883l-1.442078 1.442077c-3.035953 3.035953-5.920108 6.147805-8.804263 9.335556a3.263649 3.263649 0 0 1-0.68309 0.758988l-5.616513 6.603198L465.807777 637.701926l5.616513 3.035953-39.998681-37.342222c2.049268-2.504661 4.174435-4.933424 6.299603-7.589882s5.768311-6.375501 8.728365-9.335556l1.517976-1.442078c2.504661-2.504661 5.085221-5.009322 7.589883-7.589882l2.808256-2.504661c2.732358-2.352864 5.464715-4.705727 8.197073-6.906793l2.352864-1.897471c3.415447-2.656459 6.906793-5.312918 10.474038-7.589882l5.237018-3.491346 2.656459-1.745673 8.197073-5.085222 8.272972-4.250334 2.808257-1.366179 5.768311-2.884155 2.504661-1.062583 5.844209-2.58056 2.732358-1.062584 6.375501-2.428762 1.97337-0.68309c2.732358-0.986685 5.540614-1.821572 8.34887-2.656459l1.897471-0.60719 6.527299-1.745673 2.732358-0.607191 6.071906-1.366179 2.504661-0.531292 8.500668-1.366178q3.87084-0.531292 7.589883-0.910786h2.428762l5.540614-0.379494h19.809594q3.187751 0 6.375501 0.455393h2.504661c1.745673 0 3.567245 0.379494 5.312918 0.683089h2.504661l5.920108 1.062584h1.669775c2.504661 0.455393 5.009322 1.062584 7.589882 1.669774l1.973369 0.531291 5.237019 1.517977 2.504662 0.834887a47.512664 47.512664 0 0 1 4.629828 1.593875l2.58056 0.910786 4.857525 1.897471 2.125167 0.910786 6.754995 3.111852c1.973369 0.986685 3.946739 1.973369 5.84421 3.035953zM363.875655 517.629985c0.683089-0.834887 1.442078-1.593875 2.201066-2.428762 3.035953-3.339548 6.147805-6.679097 9.335556-9.866848l1.442077-1.593875c3.491346-3.567245 7.058591-6.982692 10.701735-10.32224l2.352863-2.352864c3.187751-2.960054 6.375501-5.84421 9.639151-8.576567l1.897471-1.669774c3.719042-3.187751 7.589882-6.299602 11.384823-9.259657l2.960054-2.276964c3.035953-2.352864 6.147805-4.629828 9.259657-6.830895l3.035953-2.201065c2.884155-2.049268 5.84421-3.946739 8.728365-5.920109 1.442078-0.910786 2.808257-1.897471 4.250334-2.732357 4.174435-2.732358 8.42477-5.312918 12.675104-7.589883 4.326233-2.504661 8.728365-4.933424 13.130496-7.589882l4.402132-2.201066 9.107859-4.478031 3.87084-1.669774c3.035953-1.442078 6.147805-2.732358 9.259657-4.022638l4.250334-1.745673 9.942746-3.719042L511.347072 417.443536c4.326233-1.517976 8.728365-2.960054 13.054598-4.250334l3.035953-0.834887 10.246341-2.504661 4.326233-1.062584c3.187751-0.758988 6.299602-1.442078 9.487353-2.049268l4.022638-0.834887c4.402132-0.834887 8.804264-1.593875 13.206395-2.201066s8.197073-1.442078 12.29561-1.442078h3.794941l8.652466-0.60719H624.208624c3.339548 0 6.679097 0.455393 10.018645 0.758988l3.946739 0.379494 8.272972 1.062584 4.022638 0.60719 9.259656 1.669774 2.656459 0.455393q5.84421 1.214381 11.61252 2.732358l3.187751 0.834887 8.121174 2.352864 3.946739 1.29028c2.504661 0.758988 4.933424 1.593875 7.589883 2.504661l3.946738 1.442078 7.589883 3.035953 3.339548 1.366178c3.567245 1.593875 7.13449 3.187751 10.625836 4.933424s6.223704 3.111852 9.259656 4.781626l-5.692412-3.111852-9.03196-4.705727c-3.567245-1.669774-7.13449-3.339548-10.701734-4.857525-1.062584-0.531292-2.201066-0.910786-3.263649-1.366179l-7.589883-3.111851-4.022638-1.442078-7.589882-2.504661-4.022638-1.214381c-2.656459-0.834887-5.388817-1.669774-8.121174-2.352864l-2.428762-0.683089h-0.68309c-3.87084-0.986685-7.589882-1.821572-11.688419-2.656459l-2.656459-0.531292c-3.035953-0.607191-6.147805-1.138482-9.259656-1.593875l-3.946739-0.607191-8.121175-1.745673-3.946738-0.455393-10.018645-0.758988h-31.04262l-8.652466 0.60719h-3.794941c-4.098537 0.379494-8.121174 0.834887-12.219711 1.366179l-13.282294 2.201066-4.022638 0.834887c-3.187751 0.607191-6.299602 1.366179-9.487353 2.049269l-4.326233 1.062583c-3.415447 0.834887-6.830894 1.821572-10.246341 2.808257l-3.035953 0.834887c-4.326233 1.29028-8.652466 2.656459-13.054598 4.174435l-3.111852 1.138482c-3.339548 1.214381-6.679097 2.428762-9.942746 3.794942l-4.326233 1.669774-9.259657 4.326233-3.87084 1.745673-1.669774 0.758988-7.589882 3.719042-4.326233 2.125168c-4.402132 2.276965-8.804264 4.705727-13.206396 7.210388-4.250334 2.504661-8.42477 5.085221-12.675104 7.589882l-4.174435 2.808257-7.058591 4.629828-1.745673 1.214381c-0.986685 0.758988-1.973369 1.517976-3.035953 2.201066-3.111852 2.201066-6.147805 4.553929-9.259656 6.830895l-2.960054 2.276964c-3.794941 3.035953-7.589882 6.071906-11.384824 9.259657l-1.897471 1.669774-6.375501 5.540614-3.263649 3.035953-2.504662 2.352864c-3.567245 3.339548-7.13449 6.830894-10.625835 10.398139a14.344878 14.344878 0 0 0-1.517977 1.517976c-3.111852 3.187751-6.223704 6.527299-9.259656 9.866848l-2.276965 2.504661-1.517976 1.669774c-3.035953 3.415447-6.071906 6.982692-9.031961 10.549937l39.087895 36.81093 5.616513 3.035953-39.011996-36.735032c3.263649-3.87084 6.830894-7.969377 10.398139-11.992014z" fill="#3F59F5" /><path d="M431.425609 603.395657a219.347604 219.347604 0 0 1 137.149177-80.376855 163.106574 163.106574 0 0 1 136.617884 41.896151l-39.239692 47.740361a116.732393 116.732393 0 0 0-97.757686-30.35953 156.882871 156.882871 0 0 0-97.909484 57.45541z" fill="#3FA9F5" /><path d="M568.726583 403.554051a256.38623 256.38623 0 0 1 214.945472 65.88018l-39.163793 47.740361A209.860251 209.860251 0 0 0 568.574786 462.982831c-63.755013 8.956061-127.510026 44.173116-176.237071 103.450098l-39.011996-36.735031C412.6786 457.518116 490.854389 414.483482 568.726583 403.554051zM509.5255 676.865719a93.735049 93.735049 0 0 1 58.74569-34.533965A69.75102 69.75102 0 0 1 626.865083 660.319776l-57.075916 69.599222a2.504661 2.504661 0 0 1-3.643144 0z" fill="#3FA9F5" /><path d="M568.195292 730.829784l-58.669792-53.964065c1.214381-1.517976 2.58056-2.884155 3.87084-4.326233s3.643144-3.87084 5.616513-5.692411l2.352864-2.125167a85.386178 85.386178 0 0 1 8.804263-7.058591c2.201066-1.517976 4.326233-2.884155 6.603198-4.174436 2.428762-1.366179 4.857525-2.656459 7.589883-3.794941l1.517976-0.60719c1.821572-0.834887 3.719042-1.593875 5.540614-2.276965l2.352864-0.758988c1.669774-0.607191 3.415447-1.062584 5.085221-1.517977l2.201066-0.60719c2.428762-0.531292 4.781626-1.062584 7.589883-1.366179a64.210406 64.210406 0 0 1 6.679096-0.607191h8.956061q2.352864 0 4.781626 0.455393h1.821572a59.42878 59.42878 0 0 1 6.375501 1.366179h1.214382l4.933423 1.517976 1.97337 0.834887 3.946739 1.669775 3.567244 1.745673-5.616513-3.035953-2.504661-1.29028-1.442078-0.075899c-1.366179-0.683089-2.656459-1.214381-3.946738-1.745673l-2.049269-0.758988c-1.669774-0.607191-3.263649-1.138482-4.933423-1.593876h-0.986685a60.71906 60.71906 0 0 0-6.4514-1.29028h-1.821572l-4.781626-0.531292h-9.107859c-2.201066 0-4.478031 0-6.679096 0.607191s-4.781626 0.834887-7.589883 1.442078l-2.125167 0.531291-5.16112 1.517977-2.352864 0.834887a54.798951 54.798951 0 0 0-5.464715 2.201066l-1.593875 0.683089h-0.455393c-2.276965 1.138482-4.553929 2.276965-6.754996 3.567245h-0.455393q-3.187751 1.821572-6.147805 3.87084a109.597903 109.597903 0 0 0-8.880162 7.058591l-0.834887 0.683089c-0.531292 0.455393-0.986685 1.062584-1.517977 1.517977-1.897471 1.745673-3.794941 3.643144-5.616513 5.616513l-1.442077 1.517976-2.428763 2.808257" fill="#3F59F5" /></svg>