<?xml version="1.0" standalone="no"?><!DOCTYPE svg PUBLIC "-//W3C//DTD SVG 1.1//EN" "http://www.w3.org/Graphics/SVG/1.1/DTD/svg11.dtd"><svg class="icon" width="200px" height="190.16px" viewBox="0 0 1077 1024" version="1.1" xmlns="http://www.w3.org/2000/svg"><path d="M933.037978 34.047597c74.339732-10.407562 134.629255 46.164974 134.480576 126.377545l-1.040757 594.271819c0 80.36125-60.661221 153.957585-135.075293 164.365147l-736.409387 103.703927c-74.339732 10.407562-134.629255-46.164974-134.480575-126.377545l1.115096-594.271819c0-80.36125 60.586882-153.957585 135.000954-164.365147z" fill="#3FA9F5" /><path d="M947.682905 32.932501h7.433974a32.783822 32.783822 0 0 1 3.865666 0c2.378871 0 4.832083 0 7.433973 0.743398l3.493967 0.446038a84.449936 84.449936 0 0 1 8.623409 1.784154h1.561135c3.345288 0.892077 6.690576 1.932833 9.887184 3.122268 0.966417 0 1.858493 0.743397 2.75057 1.115096 2.378871 0.892077 4.609063 1.858493 6.839255 2.89925s3.865666 1.784154 5.72416 2.82491l-60.512542-32.932502-4.088685-2.155852a9.887184 9.887184 0 0 1-1.561135-0.669057c-2.304532-1.040756-4.534724-2.007173-6.839255-2.89925L929.246652 6.690576c-3.196608-1.189436-6.541896-2.230192-9.887185-3.122269h-1.338115c-2.82491-0.669058-5.724159-1.263775-8.623409-1.784153l-3.419627-0.446039c-2.378871 0-4.757743-0.594718-7.433974-0.743397h-14.793606a94.188441 94.188441 0 0 0-11.15096 1.040756L136.11605 104.670343c-4.163025 0.594718-8.25171 1.412455-12.340396 2.378871l-3.568307 0.966417c-3.047929 0.817737-6.095858 1.709814-9.143787 2.75057l-3.196609 1.115096c-3.791326 1.412455-7.433973 2.89925-11.150959 4.609063-1.040756 0.446038-2.007173 1.040756-3.04793 1.561135-2.973589 1.486795-5.872839 3.047929-8.772088 4.683403l-4.163025 2.67623c-1.858493 1.189436-3.716987 2.230192-5.50114 3.493968l-1.858493 1.338115-2.89925 2.155852c-2.601891 1.932833-5.129442 3.940006-7.433973 6.095858l-3.122269 2.75057-1.338115 1.115096c-2.67623 2.453211-5.278121 4.906422-7.433973 7.433973l-1.561135 1.709814c-1.486795 1.561134-2.973589 3.047929-4.386044 4.683403l-2.82491 3.345288-2.007172 2.453211q-3.791326 4.683403-7.433974 9.589826v0.594718c0 0.223019-0.743397 1.115096-1.189435 1.709813-2.007173 3.047929-4.014346 6.170198-5.872839 9.292467l-2.453211 2.67623c-0.594718 0.966417-1.189436 1.932833-1.709814 2.97359s-1.709814 3.493967-2.601891 5.203781-1.486795 2.89925-2.155852 4.386044c-1.486795 3.196608-2.82491 6.467557-4.163025 9.812845l-1.115096 2.82491a1.040756 1.040756 0 0 0 0 0.446038c-0.966417 2.453211-1.635474 4.906422-2.453211 7.433973S7.433973 223.019196 7.433973 225.249388s-1.338115 5.64982-1.932833 8.47473-0.966417 3.865666-1.338115 5.798499c-0.594718 3.270948-0.966417 6.467557-1.338115 9.738505 0 1.635474-0.520378 3.270948-0.669058 4.906422a141.245491 141.245491 0 0 0-0.743397 14.867947L0 863.307309c0 52.037812 24.829471 93.668062 62.519715 114.185829l60.512542 32.858162c-37.690244-20.443426-62.594054-62.371035-62.519715-114.111489l1.115096-594.271819c0-4.980762 0-9.961524 0.669058-14.867946 0-1.635474 0.520378-3.270948 0.743397-4.980763 0-3.196608 0.743397-6.467557 1.338115-9.664165 0.371699-1.932833 0.892077-3.865666 1.338115-5.798499s1.189436-5.724159 1.932833-8.474729 1.338115-4.014346 1.932833-6.021519 1.635474-5.352461 2.601891-7.954351l1.115096-2.75057c1.338115-3.345288 2.67623-6.616236 4.163025-9.812845 0.669058-1.486795 1.412455-2.89925 2.155852-4.386044 1.338115-2.75057 2.75057-5.50114 4.237365-8.17737l1.932833-3.270949c1.858493-3.196608 3.791326-6.318877 5.872839-9.292466l1.189435-1.784154c2.378871-3.493967 4.980762-6.839255 7.433974-10.110203l2.007172-2.453211c2.304532-2.75057 4.683403-5.4268 7.433974-8.028691l1.561134-1.784154c2.973589-2.973589 5.947179-5.798499 9.069447-8.549069l2.676231-2.230192q3.642647-3.122269 7.433973-6.021519L133.811518 163.547411c2.378871-1.709814 4.832083-3.270948 7.433973-4.832083s2.82491-1.858493 4.237365-2.67623c2.89925-1.709814 5.798499-3.196608 8.772088-4.683403l3.047929-1.635474c3.791326-1.784154 7.433973-3.345288 11.522659-4.757743 1.040756-0.446038 2.155852-0.743397 3.196608-1.115096 3.047929-1.040756 6.095858-1.932833 9.143787-2.82491l3.493968-0.892077a117.902815 117.902815 0 0 1 12.414735-2.378871l735.963348-103.703927c3.791326-0.520378 7.433973-0.817737 11.15096-1.040756z" fill="#3F59F5" /><path d="M1070.492143 285.91061l-0.892077 465.812761c0 80.36125-60.586882 153.957585-135.000954 164.439488l-736.483726 103.480907c-74.339732 10.481902-134.629255-46.164974-134.480575-126.377545V688.906298l177.746299-25.05249L360.399021 483.208259l237.143746 77.387661 203.096148-236.772047z" fill="#79CAF2" /><path d="M615.161283 960.989717l13.232473-1.858493V524.689829l-13.232473 15.462665v420.837223zM825.022347 931.551183l13.306812-1.858493V318.545752l-13.306812 1.858494v611.146937zM1034.883411 853.568804a170.981384 170.981384 0 0 0 13.306812-20.592105V289.032879l-13.306812 1.858493zM929.990049 916.757577l4.609063-0.594718c2.89925-0.446038 5.798499-1.115096 8.623409-1.709814V303.752146l-13.232472 1.858493zM720.128985 417.789295v528.481155l13.232473-1.858493V402.32663l-13.232473 15.462665zM90.471454 976.675401a112.327335 112.327335 0 0 0 13.306812 14.867946V683.182138l-13.306812 1.858494zM195.439156 670.321365v349.396741h2.67623l10.556242-1.486795v-349.396741zM510.267921 532.272482v443.510842l13.232473-1.858493V536.584187l-13.232473-4.311705zM405.30022 990.502591l13.232472-1.858493V502.38791l-13.232472-4.386044v492.500725zM300.332518 574.42311v430.798748l13.306812-1.858493V554.277043l-13.306812 20.146067z" fill="#99D8F2" /><path d="M1062.760811 243.536962l-278.030599 39.02836-199.304821 232.386003-239.150919-78.056719-122.660558 185.99801-162.432314 26.687963L0.446038 640.065094l-0.074339 39.623077 63.263112 15.388325 0.371698 5.649819-0.371698-41.332891 175.070069-28.249098 122.660558-185.99801 239.225258 78.056719 199.230482-232.386003 278.030598-39.102699-15.090965-8.177371z" fill="#DDDDDD" /><path d="M1077.851776 251.714333l-0.074339 44.678179-261.527178 36.723828L609.214105 574.646129 374.151872 497.927526 258.776608 672.923255 60.95858 701.172354 0.446038 689.575355 0 650.398316l60.512542 9.515486 178.192338-28.769476 122.660558-185.99801 239.225258 78.056719 199.230482-232.386003 278.030598-39.102699z" fill="#FFFFFF" /><path d="M52.037812 658.575687l8.47473 1.338115 9.738505-1.412455v41.332891l-9.292467 1.338116-7.880011-1.486795L52.037812 658.575687z" fill="#F9F9F9" /><path d="M611.221278 493.91318H616.648078a23.193996 23.193996 0 0 1 3.270948 0.669058h0.594718a35.237033 35.237033 0 0 1 3.716987 1.115096l1.040756 0.446038a15.388325 15.388325 0 0 1 2.527551 1.115096l2.155852 1.040757-9.515486-5.203782-1.561134-0.817737h-0.594718c-0.817737-0.446038-1.709814-0.743397-2.527551-1.115096l-1.040756-0.446038a31.817405 31.817405 0 0 0-3.791326-1.115096h-0.520378l-3.270949-0.669058h-9.515485l-4.237365 0.371699a46.016294 46.016294 0 0 0-4.609063 0.966416L587.283884 490.642232l-3.419628 1.040756-1.189435 0.446039-4.163025 1.709814-1.189436 0.594717c-1.115096 0.594718-2.230192 1.115096-3.270948 1.784154l-1.561135 0.966417-2.081512 1.338115h-0.446039c-1.784154 1.338115-3.642647 2.75057-5.35246 4.237364a8.474729 8.474729 0 0 0-0.817737 0.817738 41.258551 41.258551 0 0 0-3.568308 3.642646l-0.743397 0.743398-0.594718 0.669057-3.493967 4.460384-0.520378 0.669058a59.471786 59.471786 0 0 0-3.642647 5.872839 3.047929 3.047929 0 0 1 0 0.669057 15.611344 15.611344 0 0 0-0.966417 1.932833c0 0.594718-0.594718 1.115096-0.817737 1.635474a39.548737 39.548737 0 0 0-1.561134 3.716987l-0.446039 1.040756-0.892076 2.75057c0 0.817737-0.520378 1.561134-0.669058 2.304532s-0.520378 2.081512-0.743397 3.122269 0 1.486795-0.520378 2.304531-0.371699 2.378871-0.520378 3.568308a15.834363 15.834363 0 0 0 0 1.858493 47.13139 47.13139 0 0 0 0 5.64982 52.85555 52.85555 0 0 0 6.393216 25.795887 42.894025 42.894025 0 0 0 17.023799 16.949459l9.589826 5.203781a47.354409 47.354409 0 0 1-23.491356-42.819686 46.685352 46.685352 0 0 1 0-5.57548v-1.858493c0-1.189436 0-2.378871 0.520378-3.642647s0-1.412455 0.520378-2.155852 0.446038-2.155852 0.743398-3.196609l0.669057-2.230192c0-0.966417 0.669058-2.007173 1.040757-2.973589a5.798499 5.798499 0 0 1 0-1.040756l1.561134-3.716987c0-0.520378 0.520378-1.115096 0.817737-1.635474l1.338115-2.601891c1.115096-2.007173 2.378871-4.014346 3.642647-5.947178a2.89925 2.89925 0 0 0 0.594718-0.743397c1.115096-1.561134 2.304532-3.047929 3.493967-4.460384l1.338116-1.486795c1.189436-1.263775 2.378871-2.453211 3.642646-3.642647l1.115096-1.040756q2.601891-2.230192 5.352461-4.237365l2.453211-1.635474 1.561135-0.966416 3.270948-1.784154 1.189436-0.594718a43.786102 43.786102 0 0 1 4.311704-1.784153l1.189436-0.446039 3.419627-1.040756h1.338116a47.428749 47.428749 0 0 1 4.683403-0.892077 37.690244 37.690244 0 0 1 4.163025 0h4.088685z" fill="#D57883" /><path d="M602.969567 494.284879c27.8774-3.940006 50.476678 17.321158 50.476679 47.503089s-22.747958 57.761972-50.699698 61.701978-50.551018-17.395497-50.476678-47.503089 22.747958-57.910651 50.699697-61.701978z" fill="#D5525E" /><path d="M819.075169 255.579999H824.501969a23.193996 23.193996 0 0 1 3.270948 0.669058h0.594718l3.716987 1.189435 1.040756 0.446039a15.388325 15.388325 0 0 1 2.527551 1.115096l2.155852 1.040756-9.515485-5.203781-1.561135-0.817737h-0.594718c-0.817737-0.446038-1.709814-0.743397-2.527551-1.115096l-1.040756-0.446039a35.237033 35.237033 0 0 0-3.716986-1.115096h-0.594718l-3.270949-0.669057h-13.75285c-1.561134 0-3.047929 0.594718-4.609063 0.966416h-1.338116l-3.419627 1.040757-1.189436 0.446038-4.163025 1.709814-1.189436 0.594718c-1.115096 0.594718-2.230192 1.115096-3.270948 1.784153l-1.561134 0.966417-2.081513 1.338115c-1.858493 1.338115-3.642647 2.75057-5.4268 4.237365a8.474729 8.474729 0 0 0-0.817737 0.817737c-1.189436 1.115096-2.453211 2.378871-3.568307 3.642647a6.987935 6.987935 0 0 0-0.743398 0.743397l-0.594718 0.669057-3.493967 4.460384-0.446038 0.669058c-1.263775 1.858493-2.527551 3.865666-3.642647 5.872839a3.047929 3.047929 0 0 1 0 0.669057 15.611344 15.611344 0 0 0-0.966417 1.932833c0 0.594718-0.520378 1.115096-0.817737 1.635475l-1.561134 3.716986-0.446039 1.040756c0 0.892077-0.594718 1.858493-0.892076 2.750571s-0.520378 1.561134-0.743398 2.304531-0.520378 2.081512-0.743397 3.122269-0.371699 1.486795-0.520378 2.304532 0 2.378871-0.520378 3.568307v1.858493a46.685352 46.685352 0 0 0 0 5.57548 52.929889 52.929889 0 0 0 6.393217 25.870227 43.117045 43.117045 0 0 0 17.098138 16.949459l9.515486 5.203781a47.354409 47.354409 0 0 1-23.491356-42.819686v-7.433973c0-1.189436 0-2.453211 0.520379-3.642647s0-1.412455 0.520378-2.155852 0.446038-2.155852 0.743397-3.196609 0.446038-1.486795 0.743397-2.230192 0.594718-2.007173 0.966417-2.973589a5.798499 5.798499 0 0 1 0-1.040756l1.561134-3.716987c0-0.520378 0.520378-1.115096 0.817737-1.635474l1.412455-2.60189c1.115096-2.007173 2.304532-4.014346 3.642647-5.947179a6.393217 6.393217 0 0 0 0.520378-0.743397 52.037812 52.037812 0 0 1 3.568307-4.460384c0-0.520378 0.817737-0.966417 1.263776-1.486795s2.378871-2.453211 3.642647-3.642647l1.115096-1.040756q2.601891-2.230192 5.35246-4.237365l2.453212-1.635474 1.561134-0.966416 3.270948-1.784154 1.189436-0.594718a43.786102 43.786102 0 0 1 4.311704-1.784153l1.189436-0.446039 3.419628-1.040756 1.338115-0.371699 4.683403-0.892076a39.325718 39.325718 0 0 1 4.163025 0h1.263775a17.915875 17.915875 0 0 1 1.858494 0.966416z" fill="#D57883" /><path d="M810.823458 255.951698c27.8774-3.940006 50.551018 17.321158 50.476679 47.503089s-22.747958 57.761972-50.699698 61.701977-50.476678-17.395497-50.476678-47.503089 22.747958-57.464613 50.699697-61.701977z" fill="#D5525E" /><path d="M375.489987 419.722128H380.916787l3.270949 0.669057h0.520378a30.702309 30.702309 0 0 1 3.716986 1.115096l1.115096 0.446039c0.817737 0 1.709814 0.669058 2.527551 1.115096l2.155853 1.040756-9.589826-5.203781-1.486795-0.817737h-0.594717l-2.601891-1.115096h-1.040756a30.925329 30.925329 0 0 0-3.716987-1.189436h-0.520378l-2.973589-0.743397h-9.589826l-4.163025 0.446038-4.683403 0.892077h-1.263775c-1.189436 0.371699-2.304532 0.669058-3.419628 1.115096h-1.263775l-4.163025 1.709814-1.115096 0.669057-3.270949 1.709814a12.191716 12.191716 0 0 0-1.635474 1.040756l-2.007173 1.263776-0.594717 0.594718a47.800448 47.800448 0 0 0-5.352461 4.237364 8.474729 8.474729 0 0 0-0.817737 0.817737c-1.263775 1.189436-2.453211 2.378871-3.642647 3.642647l-0.743397 0.743398-0.520378 0.743397a51.294415 51.294415 0 0 0-3.493968 4.460384l-0.520378 0.594718a59.471786 59.471786 0 0 0-3.642647 5.872838 3.047929 3.047929 0 0 0 0 0.669058l-1.040756 2.007173-0.743397 1.561134c-0.594718 1.263775-1.115096 2.527551-1.561135 3.716987l-0.446038 1.040756-0.892077 2.82491c0 0.743397-0.520378 1.486795-0.743397 2.304532s-0.446038 2.007173-0.743398 3.047929 0 1.561134-0.446038 2.304531 0 2.378871-0.520378 3.568307 0 1.263775 0 1.932833v5.57548a52.037812 52.037812 0 0 0 6.393217 25.795887 43.563083 43.563083 0 0 0 17.023798 17.023799l9.515486 5.129442a47.13139 47.13139 0 0 1-23.417015-42.819686v-5.57548-1.784154c0-0.594718 0-2.453211 0.520378-3.642646l0.446038-2.155853c0-1.115096 0.520378-2.155852 0.743397-3.270948s0.520378-1.486795 0.743398-2.230192 0.594718-2.007173 0.966416-2.973589l0.446039-0.966417a40.812513 40.812513 0 0 1 1.561134-3.791326c0-0.520378 0.520378-1.040756 0.817737-1.635474s0.892077-1.709814 1.338115-2.601891a59.471786 59.471786 0 0 1 3.642647-5.872839l0.594718-0.817737 3.493967-4.460384 1.338116-1.412454a41.258551 41.258551 0 0 1 3.568307-3.642647l1.115096-1.115096q2.527551-2.230192 5.35246-4.237365l2.527551-1.635474 1.561135-0.966417c1.040756-0.669058 2.155852-1.189436 3.270948-1.784153l1.189436-0.594718a43.786102 43.786102 0 0 1 4.311704-1.784154l1.189436-0.446038 3.419627-1.040756h1.338116a46.016294 46.016294 0 0 1 4.609063-0.966417h8.32605z" fill="#D57883" /><path d="M367.163937 420.093826c27.951739-3.865666 50.551018 17.395497 50.476678 47.503089s-22.747958 57.761972-50.699697 61.701978-50.476678-17.395497-50.402339-47.503089 22.673618-58.059331 50.625358-61.701978z" fill="#D5525E" /><path d="M251.416974 600.962395H256.769435L260.189062 602.15183h0.520379a30.925329 30.925329 0 0 1 3.716986 1.189436h1.115096l2.527551 1.115096 2.155852 1.040756-9.589825-5.203781-1.486795-0.743397h-0.594718l-2.60189-1.115096h-1.040756l-3.716987-1.189436h-0.669058a22.30192 22.30192 0 0 0-3.196608-0.669058H237.887143a41.184212 41.184212 0 0 0-4.163025 0q-2.378871 0-4.683403 0.892077l-1.263776 0.371699-3.419627 1.040756h-1.263776c-1.412455 0.520378-2.75057 1.115096-4.163025 1.784154l-1.115096 0.594718-3.270948 1.709813-1.635474 1.040757-2.007173 1.263775h-0.446038a47.800448 47.800448 0 0 0-5.352461 4.237365 8.474729 8.474729 0 0 1-0.817737 0.817737c-1.263775 1.189436-2.453211 2.378871-3.642647 3.642647l-0.743397 0.743397-0.520378 0.743397a51.294415 51.294415 0 0 0-3.493968 4.460384l-0.520378 0.594718a60.586882 60.586882 0 0 0-3.642647 5.947179 1.635474 1.635474 0 0 0-0.371698 0.594718l-1.040757 2.007172c0 0.520378-0.520378 1.040756-0.743397 1.635474a32.709482 32.709482 0 0 0-1.561134 3.716987l-0.446039 0.966417L185.84933 639.321696c0 0.743397-0.520378 1.486795-0.743397 2.304532s-0.446038 2.081512-0.669058 3.122269a12.117376 12.117376 0 0 0-0.520378 2.230192c0 1.189436-0.371699 2.378871-0.520378 3.568307s0 1.263775 0 1.932833v5.57548a52.037812 52.037812 0 0 0 5.947179 25.870227 43.563083 43.563083 0 0 0 17.023798 17.023798L215.585223 706.227455a47.28007 47.28007 0 0 1-23.417015-42.819685v-5.57548-1.858494c0-0.594718 0-2.453211 0.520378-3.642646l0.446038-2.155853c0-1.115096 0.520378-2.155852 0.743397-3.196608s0.520378-1.486795 0.743398-2.230192 0.594718-2.081512 0.966416-3.047929l0.446039-0.966417a40.812513 40.812513 0 0 1 1.561134-3.791326 15.760023 15.760023 0 0 1 0.817737-1.561134l1.338115-2.676231a59.471786 59.471786 0 0 1 3.642647-5.872839l0.594718-0.743397c1.115096-1.561134 2.304532-3.047929 3.493967-4.460384l1.338116-1.486794c1.115096-1.263775 2.304532-2.453211 3.568307-3.642647l1.115096-1.040757a47.800448 47.800448 0 0 1 5.35246-4.237364l2.527551-1.635474 1.561135-1.040757 3.270948-1.709814 1.189436-0.669057a43.786102 43.786102 0 0 1 4.311704-1.784154l1.189436-0.371698c1.115096-0.446038 2.230192-0.743397 3.419627-1.115096h1.338116a45.941954 45.941954 0 0 1 4.609063-0.892077 40.961192 40.961192 0 0 1 4.237365-0.446039h4.088685z" fill="#D57883" /><path d="M243.090924 601.408433c27.951739-3.940006 50.551018 17.321158 50.476678 47.503089a62.668394 62.668394 0 0 1-50.699697 61.627638c-27.8774 3.940006-50.476678-17.321158-50.402338-47.428749s22.673618-57.836312 50.625357-61.701978z" fill="#D5525E" /></svg>