<?xml version="1.0" standalone="no"?><!DOCTYPE svg PUBLIC "-//W3C//DTD SVG 1.1//EN" "http://www.w3.org/Graphics/SVG/1.1/DTD/svg11.dtd"><svg class="icon" width="200px" height="200.00px" viewBox="0 0 1024 1024" version="1.1" xmlns="http://www.w3.org/2000/svg"><path d="M477.256179 955.096677a15.566104 15.566104 0 0 1-4.6487-11.269577v-49.304401a18.383498 18.383498 0 0 1 0.352174-3.380873v-1.056523a14.086972 14.086972 0 0 1 0.633914-2.32435 27.39916 27.39916 0 0 1 1.338262-2.958264 2.887829 2.887829 0 0 0 0.352174-0.633914c0.563479-0.845218 1.126958-1.690437 1.760872-2.46522l22.32785-34.65395-35.217429-33.879167a14.086972 14.086972 0 0 1-3.873918-5.634789 15.566104 15.566104 0 0 1-0.915653-4.366961v-1.056523a18.031324 18.031324 0 0 1 0-4.366961 16.481757 16.481757 0 0 1 1.408697-4.085222v-0.774783a21.130457 21.130457 0 0 1 2.535655-3.944352l31.836556-38.739172-30.991337-30.075685a15.354799 15.354799 0 0 1-4.648701-11.621751l0.352174-186.58194-54.65745-29.72351v2.46522C358.503008 463.743106 320.961229 416.129142 311.100349 358.513428c-0.986088-5.423484-1.901741-10.987838-1.901741-16.481757 0-1.760871 0-3.592178-0.42261-5.353049 0-3.803482-0.633914-7.53653-0.774783-11.340012v-6.268702-17.045236c0-3.733047 0.422609-7.466095 0.774783-11.269577 0-1.831306 0-3.733047 0.493044-5.634789 0.493044-4.860005 1.197393-9.790445 1.972176-14.65045a17.890454 17.890454 0 0 1 0-2.042611c0.915653-5.564354 2.042611-11.128708 3.310439-16.693062l1.267827-5.212179c0.915653-3.873917 1.972176-7.747834 3.028699-11.551317l1.901741-6.057398c1.056523-3.521743 2.253915-7.043486 3.451308-10.494794l2.113046-5.775658c1.972176-5.07131 4.014787-10.14262 6.198268-15.143495 0.422609-0.845218 0.704349-1.760871 1.126957-2.606089q3.873917-8.663488 8.452183-17.115671l3.028699-5.493919c1.690437-3.028699 3.380873-6.057398 5.21218-9.015662s2.394785-3.944352 3.662612-5.846093 3.662613-5.705224 5.564354-8.522618 2.394785-3.521743 3.662613-5.212179c3.944352-5.564354 8.029574-11.058273 12.396535-16.340887 2.394785-2.887829 4.860005-5.705224 7.043486-8.522618s7.043486-7.53653 10.494794-11.199143l0.986088-0.915653q4.860005-4.860005 9.931315-9.508706l3.240003-2.817394c3.240003-2.887829 6.480007-5.634789 9.790445-8.311313l2.88783-2.394785c4.155657-3.169569 8.311313-6.268702 12.607839-9.226967l1.972176-1.338262c5.564354-3.803482 11.128708-7.39566 16.833931-10.706099h0.422609c5.705224-3.240003 11.551317-6.268702 17.39741-9.086096l2.46522-1.197393c4.860005-2.253915 9.72001-4.296526 14.650451-6.268702l3.240003-1.197393c4.507831-1.690437 9.086097-3.240003 13.664363-4.648701l1.901741-0.633913c5.000875-1.479132 10.00175-2.817394 15.07306-3.944352l3.521743-0.774784c5.141745-1.056523 10.283489-2.042611 15.425234-2.746959s9.579141-1.126958 14.086971-1.479132h3.240004c4.719136 0 9.367836-0.422609 14.086971 0h2.042611c4.296526 0 8.522618 0 12.74871 0.563479h2.746959c4.648701 0.493044 9.226966 1.056523 14.086972 1.760871l2.887829 0.563479c4.155657 0.704349 8.381748 1.549567 12.537405 2.60609l1.690436 0.422609c4.437396 1.126958 8.874792 2.46522 13.312188 3.944352l2.817395 0.915653c4.366961 1.549567 8.733922 3.240003 12.960014 5.07131l1.760871 0.845218c4.437396 1.972176 8.874792 4.085222 13.171319 6.409572l-54.375711-30.075684-7.043486-3.592178c-2.042611-1.056523-4.155657-1.972176-6.268702-2.887829l-1.690437-0.845218c-4.296526-1.831306-8.593053-3.521743-13.030448-5.000875l-2.74696-0.986088c-4.226091-1.408697-8.381748-2.676525-12.678274-3.803483h-0.704349l-1.620002-0.563479c-4.155657-0.986088-8.311313-1.901741-12.537405-2.606089l-2.817394-0.493044c-4.578266-0.774783-9.156532-1.338262-14.086971-1.760872h-2.817395c-4.155657 0-8.452183-0.563479-12.678274-0.633914h-2.113046c-4.648701 0-9.367836 0-14.086972 0.42261L499.372725 0.633914c-4.78957 0.352174-9.649576 0.774783-14.086972 1.479132s-10.283489 1.690437-15.354799 2.746959l-4.085222 0.774784c-5.000875 1.197393-10.072185 2.46522-15.073059 3.944352l-1.901742 0.633913c-4.578266 1.408697-9.086097 2.958264-13.664362 4.648701l-3.240004 1.267828c-4.860005 1.901741-9.790445 3.944352-14.65045 6.268702h-0.915653l-1.549567 1.126958c-5.846093 2.817394-11.692186 5.846093-17.39741 9.156531h-0.422609c-5.705224 3.310438-11.340012 7.043486-16.833931 10.706099l-1.338263 0.774783-0.704348 0.563479c-4.226091 2.958264-8.381748 6.057398-12.537405 9.297401l-2.817394 2.324351c-3.310438 2.676525-6.620877 5.423484-9.860881 8.311313-0.633914 0.563479-1.338262 1.056523-1.972176 1.690436l-1.267827 1.126958c-3.310438 3.099134-6.691312 6.268702-9.931315 9.508706l-0.986088 0.986088c-3.521743 3.592178-7.043486 7.043486-10.424359 11.199142a13.030449 13.030449 0 0 0-0.986088 0.986089c-2.183481 2.46522-4.296526 4.93044-6.409572 7.466094-4.366961 5.282614-8.452183 10.776533-12.396535 16.340888l-1.549567 2.04261c-0.704349 0.986088-1.338262 2.113046-2.042611 3.169569-1.972176 2.817394-3.803482 5.634789-5.634789 8.522618l-3.662612 6.127833c-1.760871 2.958264-3.521743 5.986963-5.141745 9.015661l-2.46522 3.873918c0 0.493044-0.493044 1.056523-0.774783 1.549567q-4.437396 8.452183-8.452183 17.11567l-1.056523 2.60609c-2.253915 5.000875-4.296526 10.072185-6.198268 15.213929-0.352174 0.774783-0.704349 1.620002-0.986088 2.394785s-0.704349 2.253915-1.126957 3.380874c-1.267827 3.451308-2.394785 7.043486-3.521743 10.424359-0.633914 2.042611-1.267827 4.014787-1.831307 6.057397-1.126958 3.873917-2.113046 7.6774-3.099133 11.551317-0.352174 1.690437-0.845218 3.380873-1.197393 5.000875-1.267827 5.564354-2.394785 11.128708-3.310438 16.693061 0 0.704349 0 1.338262-0.352175 2.042611-0.774783 4.93044-1.408697 9.790445-1.901741 14.720886 0 1.831306 0 3.733047-0.493044 5.634788 0 3.733047-0.633914 7.466095-0.774783 11.199143v23.313938c0 3.803482 0.422609 7.606965 0.704348 11.340012 0 1.831306 0 3.592178 0.493044 5.353049 0.563479 5.564354 1.267827 11.058273 2.183481 16.481757C267.642041 394.435206 314.269917 446.486566 369.209107 476.350946l35.710473 19.440021-0.352174 183.130631A15.566104 15.566104 0 0 0 409.216106 690.26161l31.695686 29.793945-31.766121 38.739173-0.986088 1.267827a12.3261 12.3261 0 0 0-1.267827 2.042611v1.408697c0 0.422609-0.422609 0.774783-0.563479 1.267827a19.369586 19.369586 0 0 0-0.774783 2.88783 18.453933 18.453933 0 0 0 0 4.366961 6.057398 6.057398 0 0 0 0 1.126958 13.593928 13.593928 0 0 0 4.78957 9.931315l34.724385 33.949601-22.32785 34.65395-0.845218 1.126958a14.93219 14.93219 0 0 0-0.845219 1.408697 1.549567 1.549567 0 0 0-0.352174 0.563479 23.877417 23.877417 0 0 0-1.267827 2.74696c0 0.774783-0.422609 1.549567-0.633914 2.32435s0 0.704349 0 1.056523a18.524368 18.524368 0 0 0 0 3.451308v49.304401a15.706973 15.706973 0 0 0 4.648701 11.551316l71.702685 65.081809a12.678274 12.678274 0 0 0 2.74696 2.042611l54.587015 29.723511a12.678274 12.678274 0 0 1-2.74696-2.042611z" fill="#3F59F5" /><path d="M576.851069 488.395307l-54.65745-29.72351a7.466095 7.466095 0 0 1 3.662612 6.550441l-0.774783 415.565664a10.635664 10.635664 0 0 1-0.563479 3.592178 2.535655 2.535655 0 0 1 0 0.774783v0.422609a9.508706 9.508706 0 0 1-1.056523 1.831307 12.3261 12.3261 0 0 1-1.620002 1.690436 8.240878 8.240878 0 0 1-1.972176 1.197393 7.888704 7.888704 0 0 1-2.18348 0.704348 9.649576 9.649576 0 0 1-2.46522 0 6.339137 6.339137 0 0 1-1.620002-0.563478h-0.493044l54.65745 29.72351a3.451308 3.451308 0 0 0 1.197393 0.422609 7.043486 7.043486 0 0 0 2.394785 0 6.339137 6.339137 0 0 0 2.253915-0.633914 5.705224 5.705224 0 0 0 1.267828-0.704348l0.563479-0.42261h0.352174l0.845218-0.845218 0.422609-0.563479 0.633914-1.056523v-0.986088a0.986088 0.986088 0 0 0 0-0.422609 10.706098 10.706098 0 0 0 0.633914-3.592178l0.774783-415.565663a7.53653 7.53653 0 0 0-2.253915-7.39566zM689.546842 255.6081a21.130457 21.130457 0 0 0 0.633914-2.253915v-1.056523a18.524368 18.524368 0 0 0 0-3.451308 147.913202 147.913202 0 0 0-44.303526-109.526204 123.120132 123.120132 0 0 0-26.413072-19.158282l-54.587015-29.72351a128.121007 128.121007 0 0 1 26.413072 19.158281 147.913202 147.913202 0 0 1 44.303525 109.526205 19.933065 19.933065 0 0 1-0.352174 3.521743v1.126958c0 0.422609 0 1.479132-0.633914 2.18348v0.422609a14.086972 14.086972 0 0 1-1.197392 2.535655 6.550442 6.550442 0 0 0 0 0.704349l-1.408697 1.972176-0.493044 0.633914a28.948727 28.948727 0 0 1-2.042611 2.113045h-0.422609a19.933065 19.933065 0 0 1-1.972176 1.408697l-1.126958 0.633914-1.408697 0.704349a16.059148 16.059148 0 0 1-4.085222 1.197392L348.642128 276.879428a18.946977 18.946977 0 0 1-4.014787 0h-0.774783a12.537405 12.537405 0 0 1-3.662613-1.267828l54.587015 29.72351h0.493044a9.86088 9.86088 0 0 0 2.535655 0.915654h1.408697a15.284364 15.284364 0 0 0 4.014787 0L675.45987 268.35681a14.439146 14.439146 0 0 0 4.085222-1.267828h0.493044l0.915653-0.493044 1.126958-0.633913 0.493044-0.352175 1.408697-1.056523h0.422609l1.620002-1.620001 0.352174-0.422609 0.422609-0.563479 0.704349-0.845219a7.043486 7.043486 0 0 0 0.704349-1.197392l0.422609-0.633914 0.986088-2.253915a0.986088 0.986088 0 0 0 0-0.42261z" fill="#3F59F5" /><path d="M703.633814 81.986175c52.121795 49.304401 76.140082 125.796657 64.588765 206.092395S710.677299 443.035258 630.240691 502.552713L629.606778 915.653157a35.217429 35.217429 0 0 1-6.480007 19.933065l-51.487882 81.211391a18.594803 18.594803 0 0 1-11.410447 7.043486 13.523493 13.523493 0 0 1-11.340012-3.521743l-71.632251-65.222679a15.566104 15.566104 0 0 1-4.6487-11.269577v-49.304401a20.566979 20.566979 0 0 1 4.719135-12.819144l22.32785-34.65395-35.499168-33.879167a14.086972 14.086972 0 0 1-3.873918-5.634789 19.580891 19.580891 0 0 1 3.592178-18.876542l31.836556-38.739172-31.554816-29.793945a15.354799 15.354799 0 0 1-4.648701-11.621751l0.352174-186.58194c-69.3079-24.088722-134.953188-84.52183-148.476681-163.408871s10.424359-165.169743 64.51833-230.9559c45.078309-54.79832 104.314025-87.409659 163.549741-95.720972A195.597601 195.597601 0 0 1 703.633814 81.986175zM675.45987 268.35681a19.933065 19.933065 0 0 0 15.918278-19.510456 147.913202 147.913202 0 0 0-44.303526-109.526204 126.782745 126.782745 0 0 0-107.624463-32.963514c-83.817481 11.973926-151.857554 94.805319-152.139294 185.173242a14.086972 14.086972 0 0 0 15.918278 15.002625L675.45987 268.35681m-95.650537 642.084167l0.774783-415.565663a7.043486 7.043486 0 0 0-8.029574-7.043486 9.790445 9.790445 0 0 0-7.888704 9.438271l-0.774783 415.565663a7.043486 7.043486 0 0 0 3.803482 7.043486 7.043486 7.043486 0 0 0 4.085222 0.633914 7.606965 7.606965 0 0 0 4.155657-1.831306 10.635664 10.635664 0 0 0 3.873917-8.452183" fill="#3FA9F5" /></svg>