<?xml version="1.0" standalone="no"?><!DOCTYPE svg PUBLIC "-//W3C//DTD SVG 1.1//EN" "http://www.w3.org/Graphics/SVG/1.1/DTD/svg11.dtd"><svg class="icon" width="200px" height="176.70px" viewBox="0 0 1159 1024" version="1.1" xmlns="http://www.w3.org/2000/svg"><path d="M772.360272 729.87005a587.90103 587.90103 0 0 1-123.953739-2.368543L90.722366 654.579099c-80.315133-10.550782-113.187636-35.887012-73.4966-57.41922l276.186444-145.55772c19.881405-10.550782 54.189388-17.943506 93.306231-21.532207a592.70989 592.70989 0 0 1 123.95374 2.296768l557.684166 72.994183c80.315133 10.479007 113.187636 35.887012 73.424826 57.060349l-275.899348 146.060139c-19.881405 10.550782-54.189388 17.943506-93.521553 21.388659z" fill="#f8f8f8" /><path d="M1158.935165 543.760006l-0.430644 291.976729c0 6.387888-5.454826 12.775776-16.866896 18.804794l0.35887-291.976729c11.483844-6.029018 16.866896-12.416906 16.93867-18.804794z" fill="#EDEDED" /><path d="M1141.637625 854.541529l0.35887-291.976729 2.368543-1.291933-0.35887 291.97673-2.368543 1.291932" fill="#EDEDED" /><path d="M1144.006168 853.249597l0.35887-291.97673a36.820074 36.820074 0 0 0 3.732249-2.296768l-0.430644 291.976729c-1.148384 0.789514-2.368543 1.579029-3.660475 2.296769M1147.666643 850.952828l0.717741-291.976729a38.327329 38.327329 0 0 0 3.086283-2.296769v291.976729l-3.158057 2.296769" fill="#EDEDED" /><path d="M1150.8247 848.656059V556.67933l2.583865-2.296769-0.430644 291.97673-2.512091 2.296768M1153.336791 846.359291l0.430644-291.97673a22.034625 22.034625 0 0 0 2.081447-2.440317l-0.287096 291.97673a16.364477 16.364477 0 0 1-2.081447 2.440317" fill="#EDEDED" /><path d="M1155.561786 843.918974V551.942244a17.65641 17.65641 0 0 0 1.579028-2.440316l-0.430644 291.976729a12.84755 12.84755 0 0 1-1.579028 2.440317M1156.997266 841.478657l0.430645-291.976729a12.775776 12.775776 0 0 0 1.004836-2.583865l-0.35887 291.976729a19.737857 19.737857 0 0 1-1.076611 2.583865M1158.073877 838.894792l0.35887-291.976729a9.474171 9.474171 0 0 0 0.430644-2.799187l-0.35887 291.976729a12.632228 12.632228 0 0 1-0.430644 2.799187" fill="#EDEDED" /><path d="M1158.504521 836.095605l0.35887-291.976729-0.430644 291.976729" fill="#EDEDED" /><path d="M81.032873 653.143618l-3.732249-0.645966-5.5266-0.861288-4.80886-0.933063-4.449989-0.861288-7.177403-1.579028-2.296768-0.502419c-3.588701-0.933062-7.177402-1.794351-10.33546-2.799187l-2.583865-0.789514c-2.224995-0.645966-4.306441-1.291932-6.24434-2.009673l-2.368542-0.789514c-2.583865-0.933062-5.095956-1.937899-7.177403-2.942735h-0.574192a54.691806 54.691806 0 0 1-5.813696-2.799187l-1.722577-0.933062-3.875797-2.368543-1.43548-0.933062a40.83942 40.83942 0 0 1-4.09112-3.301605A22.680592 22.680592 0 0 1 3.445153 624.434009a9.330623 9.330623 0 0 1-0.71774-1.076611 20.886241 20.886241 0 0 1-1.291933-2.512091l-0.430644-1.07661a11.627392 11.627392 0 0 1-0.574192-3.516927L0 908.300273a11.555618 11.555618 0 0 0 0.574192 3.445154l0.430644 1.07661a14.354805 14.354805 0 0 0 1.363707 2.512091l0.645966 1.07661a23.18301 23.18301 0 0 0 2.870961 3.229831 42.203126 42.203126 0 0 0 4.162893 3.301605l1.363707 0.933063 3.875797 2.368542 1.794351 0.933063a53.399874 53.399874 0 0 0 5.741922 2.799187h0.645966c2.296769 1.004836 4.737086 2.009673 7.177402 2.942735l2.296769 0.789514 6.24434 2.009673 1.579029 0.502418h1.07661c3.301605 1.004836 6.674984 1.866125 10.335459 2.799187l2.081447 0.430644 7.177403 1.579028h1.004836l3.516927 0.645967 4.737086 0.933062h1.220158l4.521764 0.71774 3.732249 0.645966h0.861288l8.756431 1.220159 0.430644-291.97673zM865.522955 1000.529894l0.35887-292.048503 276.11467-145.916591-0.35887 291.976729-276.11467 145.988365zM90.291722 946.555828l0.430644-291.976729 557.684167 72.922408-0.358871 291.976729-557.75594-72.922408z" fill="#EDEDED" /><path d="M858.130231 712.141866l-1.435481 0.574192c-2.153221 0.861288-4.449989 1.722577-7.177402 2.512091l-2.727413 0.933062-6.459662 2.009673-3.804024 1.07661-4.665311 1.148385-7.966917 1.866124-8.038691 1.650803-2.87096 0.574192c-3.875797 0.645966-7.895143 1.363706-11.986262 1.937899s-6.316114 0.861288-9.545946 1.291932l-4.593537 0.574192-14.857223 1.579029c-9.545945 0.789514-19.378986 1.363706-29.42735 1.722576h-1.794351c-9.904815 0-20.024953 0.430644-30.216864 0-10.263685 0-20.527371-0.645966-30.719282-1.363706h-1.220158c-10.191911-0.71774-20.312049-1.722577-30.216864-3.014509v292.048503l8.828205 1.076611 8.75643 0.861288 8.684657 0.789514H683.432256l8.756431 0.502418h54.978903l14.785448-0.789514 10.191912-0.789514c5.024182-0.430644 9.904815-1.004836 14.785449-1.507255l4.737085-0.645966c3.158057-0.430644 6.387888-0.789514 9.474172-1.291932h0.574192l11.340296-1.866125 2.942735-0.574192 6.24434-1.220158 1.722576-0.430645c2.799187-0.574192 5.454826-1.220158 8.038691-1.866124l3.588701-0.861288h1.07661l3.804024-1.148385 4.593537-1.291932 1.794351-0.645966 2.799187-0.933063 2.799187-0.933062 3.947571-1.579029 1.507255-0.574192h0.645966l5.095955-2.296769 2.009673-1.07661V708.194295a78.090138 78.090138 0 0 1-7.536272 3.947571z" fill="#EDEDED" /><path d="M809.826312 724.917642l-8.469334 1.363707c-3.086283 0.502418-6.316114 0.861288-9.545946 1.291932l-4.593537 0.574192-14.857223 1.579029c-9.545945 0.789514-19.378986 1.363706-29.42735 1.722576H739.272447v292.048504h7.67982l14.785449-0.789514 10.191912-0.789515c5.024182-0.430644 9.904815-1.004836 14.785449-1.507254l4.737085-0.645966c3.158057-0.430644 6.387888-0.789514 9.474171-1.291933h0.574193l8.254012-1.363706zM13.924161 633.262213l-1.937899-1.220158-1.43548-0.933062a40.83942 40.83942 0 0 1-4.09112-3.301605A22.680592 22.680592 0 0 1 3.445153 624.434009a9.330623 9.330623 0 0 1-0.71774-1.076611 20.886241 20.886241 0 0 1-1.291933-2.512091l-0.430644-1.07661a11.627392 11.627392 0 0 1-0.574192-3.516927L0 908.300273a11.555618 11.555618 0 0 0 0.574192 3.445154l0.430644 1.07661a14.354805 14.354805 0 0 0 1.363707 2.512091l0.645966 1.07661a23.18301 23.18301 0 0 0 2.870961 3.229831 42.203126 42.203126 0 0 0 4.162893 3.301605l1.363707 0.933063 2.368543 1.43548z" fill="#EAEAEA" /><path d="M1158.863391 617.256606v1.794351a8.684657 8.684657 0 0 1 0 1.004836 17.010444 17.010444 0 0 1-1.148384 2.583865 7.177402 7.177402 0 0 1-0.861289 1.220158 12.704002 12.704002 0 0 1-0.861288 1.220159c-0.35887 0.35887-0.645966 0.789514-1.07661 1.148384l-1.148385 1.220159-1.291932 1.148384a11.196748 11.196748 0 0 1-1.435481 1.148384l-1.579028 1.148385a17.871732 17.871732 0 0 1-1.722577 1.220158l-1.866124 1.148384-3.086283 1.794351-276.186445 145.844817c-2.368543 1.291932-5.024182 2.512091-7.751594 3.660475l-1.435481 0.574192c-2.153221 0.861288-4.449989 1.722577-7.177402 2.512091l-2.799187 1.004836-6.387888 1.937899-3.804023 1.07661-4.737086 1.148385c-2.583865 0.645966-5.16773 1.291932-7.966917 1.866124l-7.895142 1.650803-2.942735 0.574192c-3.875797 0.71774-7.895143 1.363706-11.986262 1.937899s-6.24434 0.861288-9.474171 1.291932l-4.737086 0.645966c-4.80886 0.574192-9.761267 1.07661-14.785449 1.507255-9.545945 0.789514-19.378986 1.43548-29.42735 1.794351h-1.79435c-9.976589 0-20.096727 0.430644-30.216864 0-10.263685 0-20.527371-0.645966-30.719283-1.291933h-1.220158c-10.191911-0.71774-20.312049-1.722577-30.216864-3.014509L90.79414 727.070863l-9.617719-1.363707-3.804023-0.645966-5.670148-0.933062-4.80886-0.933062-4.378215-0.861289-7.177403-1.579028-2.368542-0.502418c-3.588701-0.861288-7.177402-1.794351-10.263686-2.799187l-2.655639-0.789515-6.24434-2.009672-2.368543-0.789515c-2.583865-0.933062-5.095956-1.937899-7.177402-2.942735H23.685428l-5.813696-2.799186-1.722577-1.004837-3.875797-2.368543-1.650802-1.363706a32.800729 32.800729 0 0 1-4.09112-3.301605 23.18301 23.18301 0 0 1-2.870961-3.229831A9.330623 9.330623 0 0 1 2.799187 696.208033a16.5798 16.5798 0 0 1-1.291932-2.512091l-0.430645-1.004837A12.416906 12.416906 0 0 1 0.502418 689.03063v87.564309a11.555618 11.555618 0 0 0 0.574192 3.445154l0.430645 1.07661a20.886241 20.886241 0 0 0 1.291932 2.512091 9.330623 9.330623 0 0 0 0.71774 1.07661 22.680592 22.680592 0 0 0 2.799187 3.158057 40.83942 40.83942 0 0 0 4.091119 3.301605l1.435481 0.933063 3.875797 2.368542 1.722577 0.933063a54.691806 54.691806 0 0 0 5.813696 2.799187h0.574192c2.296769 1.004836 4.80886 2.009673 7.177402 2.942735l2.368543 0.789514 6.24434 2.009673 1.507255 0.502418h1.07661c3.301605 1.004836 6.746758 1.866125 10.33546 2.799187l2.081446 0.430644 7.177403 1.579028h1.004836l3.516927 0.645966 4.737086 0.933063h1.220158l4.521764 0.71774 3.732249 0.645966h0.861288l8.756431 1.220159 557.684166 72.922408 8.828205 1.07661 8.756431 0.861289 8.684657 0.789514H682.858064l8.756431 0.502418h54.907128l14.785449-0.789514 10.120138-0.789514 14.785449-1.579029 4.593537-0.574192c3.229831-0.430644 6.459662-0.789514 9.617719-1.291933h0.574193l11.340295-1.866124 3.014509-0.574192 6.172566-1.220159 1.722577-0.430644c2.799187-0.574192 5.383052-1.220158 8.038691-1.866125l3.516927-0.861288h1.148384l3.804023-1.148384c1.507255-0.430644 3.086283-0.789514 4.521764-1.291933l1.866125-0.645966 2.799187-0.933062 2.799186-0.933063 4.019346-1.579028 1.43548-0.574192h0.574192c1.794351-0.71774 3.516927-1.507255 5.095956-2.296769l2.081447-1.07661 276.186444-145.916591 2.296769-1.220158 0.789514-0.574193a16.220929 16.220929 0 0 0 1.866125-1.148384l1.07661-0.645966 0.645966-0.502418a8.325787 8.325787 0 0 0 1.507255-1.148385l0.933062-0.645966 0.574192-0.502418 1.291933-1.148385 0.71774-0.645966 0.430644-0.574192c0.430644 0 0.71774-0.789514 1.076611-1.148384l0.574192-0.645967a2.153221 2.153221 0 0 0 0-0.574192l0.861288-1.220158s0-0.430644 0.430644-0.71774 0 0 0-0.430645a11.986262 11.986262 0 0 0 0.574192-1.43548v-0.71774a13.421742 13.421742 0 0 0 0-1.794351V615.677578a5.5266 5.5266 0 0 1 2.081447 1.579028z" fill="#3EA9F5" /><path d="M787.217495 800.854559c-4.80886 0.574192-9.761267 1.07661-14.785449 1.507255-9.545945 0.789514-19.378986 1.43548-29.42735 1.794351H739.272447v87.564309h8.038691l14.785449-0.789514 10.120137-0.789515 14.785449-1.579028 4.593537-0.574192c3.229831-0.430644 6.459662-0.789514 9.61772-1.291933h0.574192l7.966916-1.291932v-87.56431l-8.39756 1.363707c-3.086283 0.502418-6.24434 0.861288-9.474172 1.291932zM11.914488 792.098129l2.009673 1.220158V705.682204a16.220929 16.220929 0 0 1-1.866125-1.148385l-1.43548-1.148384a32.800729 32.800729 0 0 1-4.09112-3.301605 23.18301 23.18301 0 0 1-2.870961-3.229831A9.330623 9.330623 0 0 1 2.799187 696.208033a16.5798 16.5798 0 0 1-1.291932-2.512091l-0.430645-1.004837A12.416906 12.416906 0 0 1 0.502418 689.03063v87.564309a11.555618 11.555618 0 0 0 0.574192 3.445154l0.430645 1.07661a20.886241 20.886241 0 0 0 1.291932 2.512091 9.330623 9.330623 0 0 0 0.71774 1.07661 22.680592 22.680592 0 0 0 2.799187 3.158057 40.83942 40.83942 0 0 0 4.091119 3.301605z" fill="#4AB3F4" /><path d="M111.967477 598.092942a68.615967 27.345903 0 1 0 137.231934 0 68.615967 27.345903 0 1 0-137.231934 0Z" fill="#3EA9F5" /><path d="M111.967477 598.092942c0 11.196748 16.93867 20.814467 41.19829 25.049134a32.585407 32.585407 0 0 0 20.958015-28.709609 29.714446 29.714446 0 0 0-11.842714-22.82414c-28.996706 3.373379-50.313591 13.924161-50.313591 26.484615z" fill="#46B5F9" /><path d="M617.68725 584.671199a56.486157 56.486157 0 0 0 54.763581-15.359641 29.857994 29.857994 0 0 0 5.239503-28.709609L596.872783 249.055863l-79.669166 22.178174L597.87762 562.277704a30.647508 30.647508 0 0 0 19.80963 22.393495z" fill="#3EA9F5" /><path d="M663.048433 576.919605L573.618 255.515525l14.354804-3.875797 87.061891 314.011355a16.795122 16.795122 0 0 1-2.583864 3.660475 62.371627 62.371627 0 0 1-9.402398 7.608047z" fill="#42B0F4" /><path d="M529.333427 315.016191L516.772973 268.43485l79.669166-22.178174 12.919325 46.437794a75.290951 75.290951 0 0 1-79.669167 22.321721z" fill="#37A7ED" /><path d="M528.113268 156.826242m-156.826242 0a156.826242 156.826242 0 1 0 313.652485 0 156.826242 156.826242 0 1 0-313.652485 0Z" fill="#f8f8f8" /><path d="M377.028948 198.88582a156.96979 156.96979 0 0 1 66.390972-174.052008 165.797995 165.797995 0 0 0 88.569146 288.603351 156.826242 156.826242 0 0 1-154.960118-114.551343z" fill="#EDEDED" /></svg>