<?xml version="1.0" standalone="no"?><!DOCTYPE svg PUBLIC "-//W3C//DTD SVG 1.1//EN" "http://www.w3.org/Graphics/SVG/1.1/DTD/svg11.dtd"><svg class="icon" width="200px" height="189.63px" viewBox="0 0 1080 1024" version="1.1" xmlns="http://www.w3.org/2000/svg"><path d="M257.238959 597.282126l-69.586586 36.276286 50.041501 32.017434-1.444967 29.888009-127.081077-81.298426-69.586586 36.200234 142.747565 91.48925 52.931436-27.606482-2.889935 59.623916-1.901272 39.394374-0.912611 17.871964 69.586586-36.276285 0.912611-17.871965 1.901272-39.318323 5.323564-108.372552-50.041501-32.017434z" fill="#E6E6E6" /><path d="M237.693874 665.575846l-5.323564 108.296501-1.977323 39.394374-0.83656 17.871964L36.76736 707.632002l2.813884-57.266339 142.747565 91.48925 5.323564-108.296501 50.041501 32.017434z" fill="#F2F2F2" /><path d="M755.828749 984.68548c-1.749171 36.352337-28.214889 49.889399-58.939458 30.420366L145.063861 661.69725a71.487859 71.487859 0 0 1-29.659856-57.342389l1.444967-28.671195z" fill="#E6E6E6" /><path d="M841.842333 966.281159L737.804683 1020.657562c10.571077-5.475666 17.567761-17.871965 18.404321-35.972082l104.493955-54.376403c-1.216815 18.100117-8.28955 30.496416-18.860626 35.972082z" fill="#B3B3B3" /><path d="M755.828749 984.68548l104.493956-54.376403-104.493956 54.604556M755.828749 984.913633l104.417905-54.452454v2.813883l-104.417905 54.376404v-2.737833" fill="#B3B3B3" /><path d="M755.676648 987.651466l104.417904-54.376404v2.661782l-104.417904 54.376404v-2.661782" fill="#B3B3B3" /><path d="M755.372444 990.313248l104.113701-54.376404c0 0.912611 0 1.825222-0.380255 2.737833l-104.417904 54.376404v-2.737833M754.992189 993.051081l104.493956-54.376404c0 0.912611 0 1.825222-0.532357 2.737833l-104.417904 54.376404c0-0.912611 0-1.749171 0.532356-2.737833" fill="#B3B3B3" /><path d="M754.459833 995.788914l104.417904-54.376404-0.684458 2.737833-104.493955 54.452454c0-0.912611 0.532356-1.825222 0.760509-2.813883M753.699324 998.602797l104.493955-54.452454-0.912611 2.889935L753.014866 1001.492732c0-0.988662 0.608407-1.901273 0.83656-2.889935M753.014866 1001.492732l104.417904-54.452454-1.140764 2.965986-104.417904 54.452454 1.140764-2.965986" fill="#B3B3B3" /><path d="M751.722 1004.458718l104.417905-54.452454a31.104824 31.104824 0 0 1-1.521019 3.194138l-104.417904 54.452454 1.521018-3.194138M750.200982 1007.652856l104.417904-54.452454c-0.760509 1.368916-1.521018 2.661782-2.357578 3.878596L747.843403 1011.531453c0.83656-1.216815 1.597069-2.50968 2.357579-3.802546M747.843403 1011.531453l104.417905-54.376404a29.203551 29.203551 0 0 1-10.418975 9.202161L737.804683 1020.657562a29.203551 29.203551 0 0 0 10.03872-9.126109" fill="#B3B3B3" /><path d="M116.848972 575.303412l104.417905-54.376404 639.055828 409.382069-104.417905 54.376403-639.055828-409.382068z" fill="#3F59F5" /><path d="M38.136277 149.570397L316.558672 4.541304c15.210183-7.605091 35.896031-5.627768 58.255 8.745855L96.391277 158.316252C74.032308 144.01868 53.346459 141.661102 38.136277 149.570397z" fill="#FCFCFC" /><path d="M38.136277 149.570397L316.558672 4.541304a51.486469 51.486469 0 0 1 6.69248-2.737833L44.828757 146.908615a39.622526 39.622526 0 0 0-6.69248 2.661782" fill="#FCFCFC" /><path d="M44.828757 146.908615L323.251152 1.803471a47.45577 47.45577 0 0 1 5.703819-1.216814L50.456525 145.615749a35.515777 35.515777 0 0 0-5.627768 1.292866" fill="#FCFCFC" /><path d="M50.456525 145.615749L328.954971 0.586657a47.151567 47.151567 0 0 1 4.715156-0.532357L55.247732 145.159444c-1.67312 0-3.194138 0-4.791207 0.456305" fill="#FCFCFC" /><path d="M55.247732 145.159444L333.670127 0.0543h4.258852L59.430533 145.159444h-4.182801" fill="#FCFCFC" /><path d="M59.430533 145.159444L337.928979 0.0543a33.3103 33.3103 0 0 1 3.802545 0L63.233078 145.463647h-3.802545" fill="#FCFCFC" /><path d="M63.233078 145.463647L341.731524 0.434555a30.420365 30.420365 0 0 1 3.650444 0.532356L66.959573 145.996004l-3.726495-0.532357" fill="#FCFCFC" /><path d="M66.959573 145.996004L345.381968 0.966911l3.574393 0.760509L70.457915 146.756513l-3.498342-0.760509" fill="#FCFCFC" /><path d="M70.457915 146.756513L348.956361 1.72742a28.443042 28.443042 0 0 1 3.422291 0.912611L73.880206 147.669124l-3.422291-0.912611" fill="#FCFCFC" /><path d="M73.880206 147.669124L352.378652 2.640031l3.34624 1.064713-278.422395 145.105144-3.422291-1.140764" fill="#FCFCFC" /><path d="M77.302497 148.809888L355.724892 3.704744l3.27019 1.292866-278.422395 145.029092-3.27019-1.216814" fill="#FCFCFC" /><path d="M80.572687 150.026702L358.995082 4.99761l3.34624 1.368916L83.766825 151.47167l-3.270189-1.444968" fill="#FCFCFC" /><path d="M83.766825 151.47167L362.341322 6.366526l3.270189 1.597069-278.498446 145.029093-3.270189-1.521018" fill="#FCFCFC" /><path d="M87.113065 152.992688L365.611511 7.659392l3.270189 1.749171-278.422395 145.333296-3.34624-1.749171" fill="#FCFCFC" /><path d="M90.459305 154.741859L368.8817 9.712766l3.346241 1.901273L93.805546 156.719183l-3.346241-1.977324" fill="#FCFCFC" /><path d="M93.805546 156.719183L372.227941 11.614039l2.585731 1.67312-278.422395 145.029093-2.585731-1.597069" fill="#FCFCFC" /><path d="M801.611399 610.13473l-91.261096 399.799654-635.785639-407.252643C31.063542 574.847106-2.170708 512.105102 0.11082 462.519907L13.267628 197.786676c2.433629-49.585196 39.622526-67.229008 83.123649-39.394373z" fill="#E6E6E6" /><path d="M801.611399 610.13473l278.498446-145.029092-91.489249 399.723602-278.498446 145.029093 91.489249-399.723603z" fill="#B3B3B3" /><path d="M96.391277 158.316252L374.813672 13.287159l705.296173 451.818479-278.498446 145.029092-705.220122-451.818478z" fill="#FFFFFF" /><path d="M93.501342 223.415834a58.787356 58.787356 0 0 1 24.488394 47.531821c-0.83656 17.035405-13.156808 23.27158-27.530431 14.069419a58.939458 58.939458 0 0 1-24.640496-47.531821c0.83656-16.883303 13.156808-23.347631 27.682533-14.069419z" fill="#00FF00" /><path d="M216.779873 448.906793l-0.076051 1.292866-23.34763 24.944699 20.914001 54.0722v0.912611l-20.914001-13.384961-5.77987-15.134132-6.844582-19.849288-8.365601 10.266873-6.768531 6.920633-20.914001-13.384961v-0.91261l24.792598-24.868649-19.469034-52.323029v-1.292865l20.761899 13.308909 5.703819 16.274896 5.627767 18.32827 7.072735-10.342924 6.844583-8.137448 20.761899 13.30891zM244.158202 466.474554l-3.954648 80.309765-19.16483-12.320248 3.954648-80.233714 19.16483 12.244197zM474.972725 614.393581l-0.076051 0.988662-29.279602 29.96406-1.597069 32.017435-19.240881-12.320248 1.597069-32.017435-23.499732-63.958818v-0.912611l21.67451 13.917317 12.700503 36.504439 16.046743-18.100118 21.67451 13.917317zM367.20858 543.362028A76.050914 76.050914 0 0 1 403.180663 609.602374c-1.292866 26.922023-17.49171 32.245587-39.850679 17.948015A76.050914 76.050914 0 0 1 327.129749 561.157942c1.521018-26.389667 17.871965-32.017435 40.078831-17.795914zM364.090493 608.46161c11.255535 7.605091 18.936678 2.433629 19.621136-10.875281A39.318322 39.318322 0 0 0 366.295969 562.831062c-11.027382-6.996684-19.088779-2.433629-19.697186 10.79923a40.383035 40.383035 0 0 0 17.49171 34.831318M299.523267 501.990331l26.465718 99.778799-20.609797-13.156808-3.802546-16.046743-30.420366-19.545085-4.867258 10.266873-20.381645-13.080757 34.451064-60.840731z m-20.914001 36.200235l17.415659 11.103433-7.605091-31.104824-9.96267 20.001391M499.689272 630.13612l-3.954647 80.309765-19.164831-12.244197 3.954648-80.309765 19.16483 12.244197zM577.337255 679.949469l-3.954648 80.613968-16.350946-10.418975-26.237565-61.829393-0.608408 17.719863-1.216814 25.705209L509.651942 719.343842 513.454487 638.881976l16.350947 10.418975 26.61782 62.361749v-16.807252l1.368916-27.530431z" fill="#EFEFEF" /><path d="M839.636856 841.937915c0.456305-2.661782 0.912611-5.399615 1.444968-8.213499s1.216815-6.008022 1.977323-9.126109 0.912611-4.106749 1.521019-6.160124 1.140764-3.878597 1.67312-5.855921 1.67312-5.399615 2.585731-8.061396 1.140764-3.118087 1.67312-4.715157c1.140764-3.042037 2.281527-6.084073 3.498342-9.050059 0.532356-1.292866 0.988662-2.50968 1.521018-3.726495 1.825222-4.1828 3.726495-8.28955 5.703819-12.396299l0.684458-1.368916c1.901273-3.726495 3.802546-7.605091 5.779869-10.951332l1.977324-3.422291c1.901273-3.34624 3.954648-6.768531 6.008022-10.03872l1.216815-1.977324c2.50968-3.878597 5.171462-7.605091 7.605091-11.483688l2.357579-3.194138c1.977324-2.661782 4.030698-5.323564 6.084073-7.605092l3.422291-4.258851c1.749171-2.129426 3.650444-4.258851 5.475666-6.388277s3.118087-3.498342 4.715156-5.171462 3.118087-3.270189 4.639106-4.791207c2.661782-2.737833 5.323564-5.323564 7.605091-7.605092l5.171463-4.639105 4.030698-3.422292c2.205476-1.901273 4.487004-3.650444 6.768531-5.399614l4.030699-3.042037a167.31201 167.31201 0 0 1 7.605091-5.171462l3.574393-2.357578c3.726495-2.281527 7.605091-4.487004 11.255535-6.464328s7.605091-3.498342 10.875281-4.94331l2.737833-1.140763 5.85592-2.053375c2.737833-0.912611 5.475666-1.67312 8.213499-2.357578s3.498342-0.912611 5.171462-1.216815 3.194138-0.608407 4.791208-0.760509l6.084073-0.684458h12.776553A57.342389 57.342389 0 0 1 1026.798155 654.092158l2.053375 0.532357a60.232324 60.232324 0 0 1 6.236175 2.129425l1.901272 0.760509a52.779334 52.779334 0 0 1 7.605092 3.954648l-65.936142-42.588512h-0.608408a51.106214 51.106214 0 0 0-5.703818-3.042036 4.487004 4.487004 0 0 0-1.064713-0.456306l-1.901273-0.760509a24.336292 24.336292 0 0 0-2.965986-1.216815c-1.064713 0-2.205476-0.608407-3.34624-0.912611l-1.977323-0.608407h-1.064713c-2.281527-0.456305-4.563055-0.83656-6.920633-1.140764h-16.731201c-1.140764 0-1.901273 0-2.889935 0.456306l-4.715157 0.83656-2.585731 0.380255a27.150176 27.150176 0 0 1-2.661782 0.760509c-2.661782 0.684458-5.399615 1.521018-8.213499 2.433629l-2.889934 0.912611c-0.988662 0-1.977324 0.760509-2.889935 1.140764l-2.813884 1.064712c-3.574393 1.521018-7.148786 3.118087-10.79923 5.019361s-7.605091 4.1828-11.255535 6.464327l-3.574393 2.357579c-2.585731 1.67312-5.01936 3.34624-7.605091 5.095411l-4.030699 3.118087c-2.357578 1.749171-4.563055 3.498342-6.844582 5.399615l-4.030698 3.422291-2.50968 2.129426c-0.912611 0.760509-1.749171 1.67312-2.585731 2.50968q-4.106749 3.802546-7.605092 7.605091l-2.585731 2.509681-2.053374 2.281527-4.715157 5.247513-3.118088 3.422291-2.433629 2.965986-3.34624 4.1828-2.357578 2.889935c-1.292866 1.67312-2.50968 3.422291-3.726495 5.095411l-2.433629 3.194138-0.988662 1.368917c-2.129426 3.042037-4.258851 6.236175-6.388277 9.430313v0.684458a17.187506 17.187506 0 0 0-1.216815 1.977324c-1.444967 2.205476-2.889935 4.487004-4.258851 6.768531l-1.825222 3.27019-1.901273 3.422291-1.67312 2.889935c-1.444967 2.661782-2.737833 5.323564-4.106749 7.605091l-0.684458 1.368916c-1.67312 3.422291-3.194138 6.768531-4.715157 10.190823a18.556423 18.556423 0 0 1-0.760509 1.825222c-0.532356 1.292866-1.064713 2.50968-1.521018 3.802545l-2.129426 5.019361-1.368916 4.030698c-0.608407 1.521018-1.140764 3.118087-1.67312 4.639106s-0.760509 1.977324-1.064713 2.889935-0.988662 3.498342-1.521018 5.247513-1.216815 3.878597-1.749172 5.779869a20.990052 20.990052 0 0 1-0.608407 2.053375c0 1.368916-0.532356 2.813884-0.912611 4.1828-0.684458 3.042037-1.368916 6.084073-1.977324 9.12611 0 0.83656-0.380255 1.67312-0.532356 2.50968s-0.532356 3.802546-0.83656 5.703818-0.456305 2.737833-0.608407 4.10675c-0.532356 4.258851-0.912611 8.441651-1.064713 12.700502-1.597069 36.276286 10.038721 62.361749 30.420365 75.366456l66.012193 42.512461c-20.153492-12.928655-31.789282-39.09017-30.420365-75.366456 0-4.1828 0.608407-8.441651 1.140764-12.700503-0.912611-1.368916-0.684458-2.737833-0.532357-4.106749z" fill="#6B7179" /><path d="M961.850675 665.347693c65.251684-33.766606 115.521338-1.901273 112.40325 71.183656s-58.635254 159.706919-123.886938 193.397473-115.597389 1.825222-112.403251-71.183655 58.635254-159.630868 123.886939-193.397474z" fill="#272D35" /><path d="M961.850675 665.347693c65.251684-33.766606 115.521338-1.901273 112.40325 71.183656s-58.635254 159.706919-123.886938 193.397473-115.597389 1.825222-112.403251-71.183655 58.635254-159.630868 123.886939-193.397474z" fill="#272D35" /><path d="M977.973468 704.818118c46.238956-23.956038 81.906834-1.368916 79.625307 50.345705s-41.523799 113.087709-87.762754 136.891644-81.754732 1.292866-79.549256-50.421756 41.523799-112.935607 87.686703-136.815593z" fill="#394149" /><path d="M995.693331 728.546003c4.487004-2.281527 7.605091 0 7.605092 4.867258a17.339608 17.339608 0 0 1-8.441652 13.232859c-4.487004 2.357578-7.605091 0-7.605091-4.867258a17.49171 17.49171 0 0 1 8.441651-13.232859zM918.273501 813.799077c4.487004-2.281527 7.605091 0 7.605091 4.867259a17.187506 17.187506 0 0 1-8.441651 13.232859c-4.487004 2.281527-7.605091 0-7.605091-4.867259a16.959354 16.959354 0 0 1 8.441651-13.232859zM981.623912 862.471662c4.487004-2.357578 7.605091 0 7.605092 4.867258a17.643812 17.643812 0 0 1-8.441652 13.232859c-4.487004 2.281527-7.605091 0-7.605091-4.867258a16.959354 16.959354 0 0 1 8.441651-13.232859zM989.913462 778.967759c11.939993-6.160124 21.142154 0 20.533747 13.004706a46.315006 46.315006 0 0 1-22.815275 35.363675c-11.863943 6.160124-21.066103 0-20.533746-13.004707a46.391057 46.391057 0 0 1 22.815274-35.363674z" fill="#493334" /></svg>