<?xml version="1.0" standalone="no"?><!DOCTYPE svg PUBLIC "-//W3C//DTD SVG 1.1//EN" "http://www.w3.org/Graphics/SVG/1.1/DTD/svg11.dtd"><svg class="icon" width="200px" height="200.00px" viewBox="0 0 1024 1024" version="1.1" xmlns="http://www.w3.org/2000/svg"><path d="M895.838266 119.849311c27.036958-3.77936 48.840956 16.789079 48.768276 45.933757l-1.30824 721.276266c0 29.071998-21.803998 55.890916-49.058996 59.670276l-546.4082 76.822754c-27.036958 3.77936-48.913636-16.789079-48.840956-45.933757l1.30824-721.276266c0-29.071998 21.803998-55.890916 49.058996-59.670276z" fill="#3EA9F5" /><path d="M899.835665 119.485911h1.23556a17.515879 17.515879 0 0 1 2.76184 0H909.066025a21.803998 21.803998 0 0 1 3.12524 0.65412h0.581439l3.634 1.16288 1.01752 0.3634 2.47112 1.0902 2.03504 1.01752L702.36412 4.94224l-1.4536-0.79948h-0.58144c-0.79948-0.43608-1.67164-0.7268-2.47112-1.0902L697.203841 2.39844c-1.16288 0-2.39844-0.79948-3.634-1.0902h-0.43608L689.935841 0.50876h-9.303039a37.139477 37.139477 0 0 0-3.9974 0L129.791123 77.186154c-1.52628 0-2.97988 0.58144-4.50616 0.94484h-1.30824l-3.2706 1.01752-1.16288 0.79948a39.828637 39.828637 0 0 0-4.070079 1.67164l-1.0902 0.58144-3.19792 1.67164-1.52628 0.94484-1.96236 1.30824h-0.43608c-1.74432 1.30824-3.48864 2.61648-5.160279 4.142759h-0.3634L101.227885 91.576793a39.537917 39.537917 0 0 0-3.48864 3.48864l-0.7268 0.7268-0.58144 0.7268c-1.16288 1.38092-2.32576 2.83452-3.41596 4.28812l-0.79948 0.944839c-1.30824 1.88968-2.47112 3.77936-3.561319 5.74172a2.5438 2.5438 0 0 1-0.3634 0.58144c0 0.65412-0.58144 1.30824-0.94484 1.96236l-0.7268 1.52628a38.665757 38.665757 0 0 0-1.52628 3.633999L84.584166 116.287991l-0.87216 2.76184a17.879279 17.879279 0 0 0-0.65412 2.10772c0 1.01752-0.50876 2.10772-0.7268 3.19792s0 1.30824-0.50876 1.96236 0 2.47112-0.50876 3.706679v7.04996L79.423886 858.132696a45.715717 45.715717 0 0 0 22.676159 41.427597l219.566263 119.485911a45.788397 45.788397 0 0 1-22.676158-41.427597l1.30824-721.276266v-7.12264c0-1.23556 0-2.39844 0.50876-3.561319s0-1.38092 0.50876-2.10772 0.43608-2.03504 0.7268-3.12524 0.43608-1.38092 0.65412-2.10772 0.58144-1.96236 0.94484-2.907199l0.43608-1.01752c0.43608-1.23556 0.94484-2.39844 1.4536-3.56132s0.58144-1.0902 0.79948-1.59896l1.308239-2.5438a57.053796 57.053796 0 0 1 3.56132-5.669039 6.25048 6.25048 0 0 1 0.50876-0.7268c1.0902-1.52628 2.25308-2.97988 3.41596-4.3608l1.30824-1.38092c1.0902-1.23556 2.25308-2.39844 3.48864-3.56132l1.090199-1.01752a58.143996 58.143996 0 0 1 5.16028-4.142759l2.39844-1.52628 1.52628-1.01752 3.19792-1.67164 1.090199-0.58144a42.808517 42.808517 0 0 1 4.21544-1.74432l1.16288-0.43608 3.2706-1.01752h1.30824a44.916237 44.916237 0 0 1 4.506159-0.87216l546.48088-76.822754-72.679995-40.192037 73.188755 39.828637a37.139477 37.139477 0 0 1 3.997399-0.29072z" fill="#3F59F5" /><path d="M869.382748 167.163988c24.275118-3.41596 43.607997 15.190119 43.607996 41.572956l-1.235559 652.448312c0 26.382838-19.696279 50.875996-43.607997 54.001236l-489.935844 69.482075c-24.202438 3.41596-43.607997-15.190119-43.607997-41.572957L335.475507 290.719978c0-26.382838 19.768959-50.875996 43.971397-54.001236z" fill="#4D4D4D" /><path d="M862.914228 179.010827c23.402958-3.34328 42.299757 14.535999 42.299757 40.264717l-1.16288 632.315953c0 25.510678-19.042159 48.986316-42.445117 52.329596l-473.074085 67.301675c-23.402958 3.34328-42.299757-14.535999-42.227076-40.264717l1.16288-632.315953a52.983716 52.983716 0 0 1 42.445116-52.329596z" fill="#3FA9F5" /><path d="M101.954685 90.559273h-0.3634L101.227885 91.576793a39.537917 39.537917 0 0 0-3.48864 3.48864l-0.7268 0.7268-0.58144 0.7268c-1.16288 1.38092-2.32576 2.83452-3.41596 4.28812l-0.79948 0.944839a52.620316 52.620316 0 0 0-3.488639 5.74172l-0.43608 0.58144c0 0.65412-0.58144 1.30824-0.94484 1.96236l-0.7268 1.52628a38.665757 38.665757 0 0 0-1.52628 3.633999l230.613623 100.734473a11.192719 11.192719 0 0 1 1.23556-1.38092c1.0902-1.23556 2.25308-2.39844 3.48864-3.56132l1.090199-1.01752a58.143996 58.143996 0 0 1 5.16028-4.142759l2.39844-1.52628 1.52628-1.01752 3.19792-1.67164 1.090199-0.58144a42.808517 42.808517 0 0 1 4.21544-1.74432l1.16288-0.43608 3.2706-1.01752h1.30824l2.834519-0.58144-244.931581-107.348352z" fill="#4E6EF4" /><path d="M925.927784 625.702073c4.43348-1.01752 8.067479 4.50616 8.067479 12.28292v52.038876c0 7.849439-3.634 15.044759-8.140159 16.062279l-78.421715 17.879278c-4.50616 1.01752-8.140159-4.50616-8.140159-12.355599v-52.038876c0-7.849439 3.634-15.044759 8.140159-16.062279z" fill="#FFFFFF" /><path d="M927.599423 625.629393h1.30824a2.83452 2.83452 0 0 1 0.79948 0.43608h0.50876l-6.686559-5.887079-0.79948-0.50876h-0.43608a1.96236 1.96236 0 0 0-0.87216 0h-1.74432l-78.421714 17.879279-1.52628 0.58144H838.85715l-0.43608 0.43608-0.58144 0.508759a9.084999 9.084999 0 0 0-0.65412 0.87216l-0.79948 1.38092V644.017432a16.934439 16.934439 0 0 0-0.50876 1.817 14.535999 14.535999 0 0 1 0 1.74432 3.70668 3.70668 0 0 1 0 0.94484V703.396988a15.262799 15.262799 0 0 0 3.77936 11.192719l6.686559 5.887079a15.190119 15.190119 0 0 1-3.779359-11.120039v-49.785796-3.77936a15.771559 15.771559 0 0 1 0-1.817 17.879279 17.879279 0 0 1 0.65412-2.107719 1.38092 1.38092 0 0 0 0-0.50876c0-0.58144 0.50876-1.16288 0.7268-1.67164v-0.50876L842.56383 646.851952c0-0.43608 0.65412-0.79948 0.94484-1.16288l0.58144-0.50876 0.94484-0.7268h0.436079a5.23296 5.23296 0 0 1 1.4536-0.65412l78.494395-17.806599a3.9974 3.9974 0 0 1 1.308239 0z" fill="#DDDDDD" /><path d="M926.945303 755.217824c4.50616-1.01752 8.140159 4.50616 8.06748 12.282919v52.038876c0 7.849439-3.70668 15.044759-8.14016 16.062279l-78.494394 17.806599c-4.43348 1.0902-8.067479-4.43348-8.067479-12.28292v-52.038876c0-7.849439 3.634-15.044759 8.067479-16.062278z" fill="#FFFFFF" /><path d="M928.689623 755.145144h1.30824l0.79948 0.43608h0.50876l-6.759239-5.88708-0.87216-0.50876a1.52628 1.52628 0 0 0-0.87216 0h-1.67164l-78.494394 17.879279-1.4536 0.58144h-0.94484l-0.43608 0.43608-0.58144 0.50876a4.50616 4.50616 0 0 0-0.65412 0.87216l-0.87216 1.38092v0.43608a2.25308 2.25308 0 0 1 0 0.7268V773.533182l-0.50876 1.817a14.535999 14.535999 0 0 0 0 1.74432 5.01492 5.01492 0 0 0 0 0.94484 18.896799 18.896799 0 0 0 0 2.9072v51.966196a15.262799 15.262799 0 0 0 3.77936 11.192719l6.759239 5.88708a14.899399 14.899399 0 0 1-3.779359-11.120039v-52.038876a19.478239 19.478239 0 0 1 0-2.9072 3.634 3.634 0 0 1 0-0.87216v-1.88968c0-0.65412 0 0 0 0a17.806599 17.806599 0 0 1 0.58144-2.10772v-0.50876a11.628799 11.628799 0 0 1 0.7268-1.67164v-0.50876a13.663839 13.663839 0 0 1 1.017519-1.74432 7.267999 7.267999 0 0 1 0.94484-1.162879l0.58144-0.50876 0.94484-0.7268 1.4536-0.65412 78.494394-17.806599a3.9974 3.9974 0 0 1 1.30824 0z" fill="#DDDDDD" /><path d="M821.559311 310.343577a20.059679 20.059679 0 0 1 22.676159 21.295238v158.078989a28.272518 28.272518 0 0 1-22.821519 27.691078l-324.298136 45.570356a20.059679 20.059679 0 0 1-22.676158-21.367918V383.605011A28.054478 28.054478 0 0 1 497.479215 356.131974z" fill="#FFFFFF" /><path d="M826.428871 310.270897l2.39844 0.3634h1.16288l2.325759 0.87216a11.846839 11.846839 0 0 1 1.38092 0.65412l-6.541199-3.56132h-1.38092l-2.25308-0.79948h-4.79688a21.803998 21.803998 0 0 0-3.706679 0l-324.080096 44.552837a21.803998 21.803998 0 0 0-4.14276 1.01752l-1.0902 0.43608-1.38092 0.50876-1.23556 0.7268-1.671639 0.94484a2.97988 2.97988 0 0 0-0.79948 0.508759l-1.88968 1.4536-0.65412 0.50876a24.275118 24.275118 0 0 0-2.32576 2.39844v0.50876a3.48864 3.48864 0 0 0-0.65412 0.79948 15.190119 15.190119 0 0 0-1.01752 1.23556l-1.01752 1.59896s0 0.65412-0.50876 0.94484v0.43608a31.107038 31.107038 0 0 0-1.4536 3.19792v0.581439c0 1.01752-0.58144 2.03504-0.87216 3.05256a14.535999 14.535999 0 0 1-0.43608 1.67164 27.763758 27.763758 0 0 0-0.43608 4.94224V537.83196a23.766358 23.766358 0 0 0 2.83452 11.628799 20.277718 20.277718 0 0 0 3.34328 4.43348 15.190119 15.190119 0 0 0 2.03504 1.74432 15.553519 15.553519 0 0 0 2.32576 1.4536l6.468519 3.561319a21.149878 21.149878 0 0 1-10.465919-19.260198V383.386972a29.071998 29.071998 0 0 1 0.43608-5.01492c0-0.50876 0-1.01752 0.43608-1.59896s0.50876-2.10772 0.87216-3.12524 0 0 0-0.58144a23.402958 23.402958 0 0 1 1.67164-3.633999 4.14276 4.14276 0 0 0 0.58144-0.94484c0.65412-0.94484 1.30824-1.96236 2.03504-2.83452a3.19792 3.19792 0 0 1 0.581439-0.79948 29.580758 29.580758 0 0 1 2.97988-3.05256l0.65412-0.58144c0.87216-0.65412 1.74432-1.30824 2.68916-1.88968l1.59896-0.94484a21.222558 21.222558 0 0 1 2.61648-1.23556l1.16288-0.43608a16.425679 16.425679 0 0 1 4.142759-1.017519l324.080096-45.570357a15.844239 15.844239 0 0 1 3.70668 0z" fill="#DDDDDD" /><path d="M705.27132 339.270215a13.227759 13.227759 0 0 1 14.972079 14.027239v85.180953a18.678759 18.678759 0 0 1-15.044759 18.242679l-191.075706 26.891598a13.155079 13.155079 0 0 1-14.535999-14.099919V384.404491a18.460719 18.460719 0 0 1 14.972079-18.242678z" fill="#333333" /><path d="M702.50948 343.267614a12.573639 12.573639 0 0 1 14.535999 13.227759v80.456755a17.661239 17.661239 0 0 1-14.535999 17.297838L519.065174 479.687964a12.500959 12.500959 0 0 1-14.535999-13.300439V385.930771a17.515879 17.515879 0 0 1 14.535999-17.225158z" fill="#4D4D4D" /><path d="M550.026851 490.081204a3.48864 3.48864 0 0 1 3.92472 3.706679v11.774159a4.94224 4.94224 0 0 1-3.9974 4.79688l-10.829319 1.52628a3.56132 3.56132 0 0 1-3.997399-3.70668v-11.701479a4.94224 4.94224 0 0 1 3.997399-4.86956z" fill="#272D35" /><path d="M551.843851 490.444604l-3.561319-1.96236h-0.65412a3.41596 3.41596 0 0 0-1.23556 0l-10.901999 1.52628H533.964573l-0.50876 0.43608-0.3634 0.581439v0.58144a6.1778 6.1778 0 0 0 0 1.67164v11.701479a3.70668 3.70668 0 0 0 1.817 3.34328l3.633999 1.96236a3.634 3.634 0 0 1-1.88968-3.34328v-10.465919a4.65152 4.65152 0 0 1 0-1.74432 9.303039 9.303039 0 0 1 0.79948-1.4536 7.776759 7.776759 0 0 1 1.16288-1.01752 4.94224 4.94224 0 0 1 1.4536-0.50876l10.901999-1.526279a3.41596 3.41596 0 0 1 1.23556 0z" fill="#6B7179" /><path d="M596.178648 485.429684a3.56132 3.56132 0 0 1 3.92472 3.70668v11.774159a4.94224 4.94224 0 0 1-3.9974 4.796879l-10.829319 1.52628a3.48864 3.48864 0 0 1-3.9974-3.706679v-11.70148a5.01492 5.01492 0 0 1 3.9974-4.869559z" fill="#272D35" /><path d="M598.286368 485.793084l-3.56132-1.88968a1.16288 1.16288 0 0 0-0.65412 0 3.92472 3.92472 0 0 0-1.30824 0l-10.829319 1.52628a3.05256 3.05256 0 0 0-1.16288 0 1.30824 1.30824 0 0 0-0.50876 0h-0.3634v0.50876a2.1804 2.1804 0 0 1 0 0.58144 4.28812 4.28812 0 0 0 0 1.67164V501.491963a3.70668 3.70668 0 0 0 1.817 3.343279l3.56132 1.96236a3.70668 3.70668 0 0 1-1.817-3.343279v-11.6288a7.267999 7.267999 0 0 1 0-1.744319 4.07008 4.07008 0 0 1 0.79948-1.4536 3.12524 3.12524 0 0 1 1.16288-1.01752 4.94224 4.94224 0 0 1 1.4536-0.50876l10.901999-1.52628a3.56132 3.56132 0 0 1 1.23556 0z" fill="#6B7179" /><path d="M642.621165 480.124044a3.48864 3.48864 0 0 1 3.997399 3.70668v11.701479a4.86956 4.86956 0 0 1-3.924719 4.86956l-10.902 1.52628a3.48864 3.48864 0 0 1-3.924719-3.70668v-11.774159a4.94224 4.94224 0 0 1 3.997399-4.79688z" fill="#272D35" /><path d="M644.728884 480.487444l-3.561319-1.96236h-0.65412a3.41596 3.41596 0 0 0-1.23556 0l-11.047359 1.16288h-1.23556l-0.50876 0.43608h-0.43608v1.16288a4.28812 4.28812 0 0 0 0 1.67164v11.701479a3.70668 3.70668 0 0 0 1.88968 3.34328l3.561319 1.96236a3.85204 3.85204 0 0 1-1.816999-3.34328v-10.175199a4.28812 4.28812 0 0 1 0-1.67164 4.86956 4.86956 0 0 1 0.872159-1.4536l1.23556-1.01752a4.94224 4.94224 0 0 1 1.4536-0.50876l10.829319-1.52628a3.9974 3.9974 0 0 1 1.30824 0z" fill="#6B7179" /><path d="M686.083801 475.472525a3.56132 3.56132 0 0 1 3.9974 3.706679v11.77416a5.01492 5.01492 0 0 1-3.9974 4.796879l-10.901999 1.52628a3.48864 3.48864 0 0 1-3.92472-3.70668V481.868364a4.94224 4.94224 0 0 1 3.9974-4.869559z" fill="#272D35" /><path d="M688.264201 475.835925l-3.634-1.96236H682.667842l-10.82932 1.52628H670.312243l-0.50876 0.43608h-0.43608a1.30824 1.30824 0 0 0 0 0.50876 4.28812 4.28812 0 0 0 0 0.58144 4.28812 4.28812 0 0 0 0 1.671639v11.70148a3.56132 3.56132 0 0 0 1.816999 3.343279l3.56132 1.96236a3.70668 3.70668 0 0 1-1.817-3.34328V481.868364a7.267999 7.267999 0 0 1 0-1.74432 4.07008 4.07008 0 0 1 0.79948-1.4536 3.70668 3.70668 0 0 1 1.16288-0.94484 4.94224 4.94224 0 0 1 1.4536-0.508759l10.901999-1.52628a3.56132 3.56132 0 0 1 1.23556 0z" fill="#6B7179" /><path d="M550.026851 523.295961a3.48864 3.48864 0 0 1 3.92472 3.70668v11.774159a4.94224 4.94224 0 0 1-3.9974 4.79688l-10.829319 1.526279a3.56132 3.56132 0 0 1-3.997399-3.706679V529.837161a4.94224 4.94224 0 0 1 3.997399-4.86956z" fill="#272D35" /><path d="M551.843851 523.804721l-3.561319-1.96236h-1.96236l-10.901999 1.52628-1.01752-0.07268h-0.3634l-0.50876 0.43608-0.3634 0.50876v0.58144a6.1778 6.1778 0 0 0 0 1.67164v11.701479a3.70668 3.70668 0 0 0 1.817 3.34328L537.307852 545.099959a3.634 3.634 0 0 1-1.889679-3.343279V529.837161a5.01492 5.01492 0 0 1 0-1.74432 9.303039 9.303039 0 0 1 0.799479-1.4536 4.7242 4.7242 0 0 1 1.16288-0.94484 4.94224 4.94224 0 0 1 1.4536-0.50876l10.901999-1.52628a3.41596 3.41596 0 0 1 1.23556 0z" fill="#6B7179" /><path d="M596.178648 518.789801a3.56132 3.56132 0 0 1 3.92472 3.70668v11.774159a4.94224 4.94224 0 0 1-3.9974 4.79688l-10.829319 1.52628a3.48864 3.48864 0 0 1-3.9974-3.70668v-11.701479a5.01492 5.01492 0 0 1 3.9974-4.86956z" fill="#272D35" /><path d="M598.286368 519.153201l-3.56132-1.889679h-0.65412a2.68916 2.68916 0 0 0-1.30824 0l-10.829319 1.526279a2.1804 2.1804 0 0 0-1.16288 0 1.30824 1.30824 0 0 0-0.50876 0l-0.3634 0.43608v0.50876a2.1804 2.1804 0 0 1 0 0.58144 4.28812 4.28812 0 0 0 0 1.67164v12.937039a3.70668 3.70668 0 0 0 1.817 3.34328l3.56132 1.96236a3.70668 3.70668 0 0 1-1.817-3.34328v-11.701479a7.267999 7.267999 0 0 1 0-1.74432 3.2706 3.2706 0 0 1 0.79948-1.38092 3.12524 3.12524 0 0 1 1.16288-1.01752 3.634 3.634 0 0 1 1.4536-0.58144l10.901999-1.52628h1.23556z" fill="#6B7179" /><path d="M642.621165 513.484162a3.56132 3.56132 0 0 1 3.997399 3.70668v11.774159a4.86956 4.86956 0 0 1-3.924719 4.796879l-10.902 1.52628a3.48864 3.48864 0 0 1-3.924719-3.70668v-11.701479a4.94224 4.94224 0 0 1 3.997399-4.869559z" fill="#272D35" /><path d="M644.728884 513.847562l-3.561319-1.96236h-0.65412a3.41596 3.41596 0 0 0-1.23556 0l-10.829319 1.52628h-1.23556l-0.50876 0.43608h-0.43608v0.58144L624.523846 516.027962a4.28812 4.28812 0 0 0 0 1.67164v11.701479a3.70668 3.70668 0 0 0 1.88968 3.343279l3.56132 1.96236a3.70668 3.70668 0 0 1-1.817-3.343279v-11.48344a4.65152 4.65152 0 0 1 0-1.74432 5.95976 5.95976 0 0 1 0.87216-1.453599l1.235559-1.01752a4.94224 4.94224 0 0 1 1.4536-0.50876l10.82932-1.52628a3.9974 3.9974 0 0 1 1.308239 0z" fill="#6B7179" /><path d="M686.083801 508.759962a3.56132 3.56132 0 0 1 3.9974 3.70668v11.774159a5.01492 5.01492 0 0 1-3.9974 4.79688L675.399842 530.563961a3.48864 3.48864 0 0 1-3.92472-3.70668v-11.628799a5.01492 5.01492 0 0 1 3.9974-4.86956z" fill="#272D35" /><path d="M688.264201 509.196042l-3.634-1.88968h-0.65412a3.92472 3.92472 0 0 0-1.308239 0l-10.97468 1.4536a3.05256 3.05256 0 0 0-1.16288 0 1.30824 1.30824 0 0 0-0.508759 0h-0.43608a1.30824 1.30824 0 0 0 0 0.50876v0.58144a4.28812 4.28812 0 0 0 0 1.67164v11.701479a3.56132 3.56132 0 0 0 1.816999 3.34328l3.56132 1.96236a3.70668 3.70668 0 0 1-1.817-3.34328v-9.957159a7.267999 7.267999 0 0 1 0-1.74432 4.07008 4.07008 0 0 1 0.79948-1.4536 3.12524 3.12524 0 0 1 1.16288-1.01752 4.94224 4.94224 0 0 1 1.4536-0.50876l10.901999-1.52628a3.56132 3.56132 0 0 1 1.23556 0z" fill="#6B7179" /><path d="M564.99893 410.20589l-13.300439 9.884479 13.227759 6.032439-3.706679 8.06748-12.937039-6.75924 0.43608 16.571039-8.43088 1.16288 0.50876-16.643719-12.937039 10.393239-3.70668-7.049959 13.227759-9.811799-13.227759-6.10512 3.77936-7.994799 12.937039 6.759239-0.50876-16.498359 8.43088-1.16288-0.50876 16.643719 13.009719-10.393239 3.706679 6.9046zM618.709446 404.60953l-13.300439 9.884479 13.227759 6.03244-3.706679 8.067479-12.937039-6.759239 0.43608 16.571038-8.43088 1.16288 0.50876-16.643718-12.937039 10.393239-3.70668-7.04996 13.227759-9.811799-13.227759-6.10512 3.77936-7.994799 12.937039 6.75924-0.50876-16.498359 8.43088-1.16288-0.50876 16.643719 13.009719-10.39324 3.706679 6.9046z" fill="#00FF00" /><path d="M806.223832 396.542051a19.260199 19.260199 0 0 1 21.803999 20.568438v23.984398a27.109638 27.109638 0 0 1-21.803999 26.673558l-22.240078 3.12524a19.332879 19.332879 0 0 1-21.803998-20.495758v-23.984399a27.254998 27.254998 0 0 1 21.803998-26.746238z" fill="#434343" /><path d="M782.021394 428.811968a18.896799 18.896799 0 0 0-1.30824 7.268 9.448399 9.448399 0 0 1-1.59896 4.506159 1.01752 1.01752 0 0 1-0.7268 0.50876h-0.436079a0.87216 0.87216 0 0 1 0-1.23556 7.267999 7.267999 0 0 0 1.162879-3.343279 22.458118 22.458118 0 0 1 1.59896-8.14016 15.190119 15.190119 0 0 1 2.68916-4.796879H784.419834v1.308239a14.535999 14.535999 0 0 0-2.39844 3.92472zM804.043433 439.423247a0.94484 0.94484 0 0 1 0 1.23556c-0.65412 1.52628-1.38092 3.05256-2.10772 4.57884s-1.74432 2.76184-3.12524 4.65152h-1.30824v-1.30824a36.848757 36.848757 0 0 0 2.9072-4.50616c0.65412-1.16288 1.30824-2.61648 2.03504-4.28812 0 0 0.50876-0.65412 0.79948-0.65412zM796.339353 431.791848a18.896799 18.896799 0 0 1-1.52628 8.939639 20.859158 20.859158 0 0 1-6.323159 8.57624 0.79948 0.79948 0 0 1-0.50876 0 0.87216 0.87216 0 0 1-0.7268 0 1.23556 1.23556 0 0 1 0-1.38092 17.661239 17.661239 0 0 0 5.669039-7.70408 16.062279 16.062279 0 0 0 1.38092-7.849439 1.0902 1.0902 0 0 1 0.79948-1.16288 0.7268 0.7268 0 0 1 1.23556 0.58144zM789.071354 442.911887a23.693678 23.693678 0 0 1-1.817 2.9072 21.803998 21.803998 0 0 1-2.25308 2.1804 0.79948 0.79948 0 0 1-0.50876 0 0.7268 0.7268 0 0 1-0.7268 0 1.01752 1.01752 0 0 1 0-1.30824 9.157679 9.157679 0 0 0 1.88968-1.88968 17.007119 17.007119 0 0 0 1.67164-2.5438 0.87216 0.87216 0 0 1 0.65412-0.50876 0.58144 0.58144 0 0 1 0.50876 0 0.87216 0.87216 0 0 1 0.58144 1.16288z" fill="#00FF00" /><path d="M801.717673 434.626368a31.179718 31.179718 0 0 1-2.47112 7.267999 38.738437 38.738437 0 0 1-5.59636 7.6314h-1.23556v-1.30824a35.758557 35.758557 0 0 0 5.23296-7.268 26.019438 26.019438 0 0 0 2.25308-6.831919 21.803998 21.803998 0 0 0 0-3.56132 3.34328 3.34328 0 0 0-3.9974-3.634c-2.76184 0.3634-4.21544 3.05256-4.21544 6.1778a14.899399 14.899399 0 0 1-0.654119 4.07008c0 0.43608-0.50876 1.4536-0.58144 1.453599a1.01752 1.01752 0 0 1-0.79948 0.87216 0.87216 0.87216 0 0 1-0.58144-1.0902l0.58144-1.671639a10.683959 10.683959 0 0 0 0.50876-3.34328 7.704079 7.704079 0 0 1 6.032439-8.3582 4.94224 4.94224 0 0 1 5.66904 5.37832 26.092118 26.092118 0 0 1-0.14536 4.21544z" fill="#00FF00" /><path d="M805.278992 424.741888a15.698879 15.698879 0 0 1 0.58144 12.500959 1.16288 1.16288 0 0 1-0.79948 0.7268 0.87216 0.87216 0 0 1-0.581439-1.162879 13.591159 13.591159 0 0 0-0.58144-10.97468 7.631399 7.631399 0 0 0-8.86696-4.288119c-0.50876 0-0.87216 0-0.87216-0.87216a1.23556 1.23556 0 0 1 0.94484-1.01752 9.157679 9.157679 0 0 1 10.175199 5.087599zM785.946114 433.318128a22.240078 22.240078 0 0 1-0.94484 5.959759 12.718999 12.718999 0 0 1-3.41596 5.451h-1.23556V443.347967a10.465919 10.465919 0 0 0 2.83452-4.43348 22.530798 22.530798 0 0 0 0.94484-5.450999 11.556119 11.556119 0 0 1 2.39844-7.268 16.498359 16.498359 0 0 1 3.85204-3.924719 0.79948 0.79948 0 0 1 0.79948 0.43608 1.16288 1.16288 0 0 1 0 1.308239 12.428279 12.428279 0 0 0-3.34328 3.41596 9.157679 9.157679 0 0 0-1.88968 5.88708z" fill="#00FF00" /><path d="M789.216714 419.726969a0.7268 0.7268 0 0 1-0.79948-0.43608 1.16288 1.16288 0 0 1 0.50876-1.30824 21.803998 21.803998 0 0 1 6.904599-2.47112 14.535999 14.535999 0 0 1 6.39584 0.58144 13.663839 13.663839 0 0 1 8.576239 8.285519 0.94484 0.94484 0 0 1-0.43608 1.23556 0.7268 0.7268 0 0 1-0.79948-0.43608 12.210239 12.210239 0 0 0-7.704079-7.267999 11.483439 11.483439 0 0 0-5.66904-0.58144 18.460719 18.460719 0 0 0-6.323159 2.25308zM811.384112 426.994968a0.79948 0.79948 0 0 1 0.87216 0.79948 41.064197 41.064197 0 0 1-0.94484 9.811799 34.959077 34.959077 0 0 1-3.34328 7.84944 0.94484 0.94484 0 0 1-0.7268 0.58144h-0.50876a0.94484 0.94484 0 0 1 0-1.23556 37.430197 37.430197 0 0 0 3.12524-7.268 36.339997 36.339997 0 0 0 0.87216-9.230359 1.0902 1.0902 0 0 1 0.65412-1.30824z" fill="#00FF00" /></svg>