<?xml version="1.0" standalone="no"?><!DOCTYPE svg PUBLIC "-//W3C//DTD SVG 1.1//EN" "http://www.w3.org/Graphics/SVG/1.1/DTD/svg11.dtd"><svg class="icon" width="200px" height="169.68px" viewBox="0 0 1207 1024" version="1.1" xmlns="http://www.w3.org/2000/svg"><path d="M633.942252 1012.365624l-51.786093-68.319152a46.537502 46.537502 0 0 0-15.045959-13.034L447.529814 866.017427a46.10012 46.10012 0 0 1 15.045959 12.946523l51.786093 68.319153a27.5551 27.5551 0 0 0 9.359986 8.135315l119.580386 65.082522a29.217154 29.217154 0 0 1-9.359986-8.135316zM1071.937126 65.169998h13.034q4.198872 0 8.135315 0.787289l3.936443 0.524859c3.236631 0.524859 6.560738 1.224671 9.797369 2.01196h1.662054c3.848966 1.049718 7.52298 2.186913 11.196993 3.49906l3.149154 1.312148c2.624295 0.962242 5.161114 2.099436 7.697932 3.324107s4.286349 2.01196 6.385786 3.149154l-119.842816-64.470186-4.636255-2.449342-1.74953-0.699812a86.689219 86.689219 0 0 0-7.785409-3.324108l-3.149155-1.312147c-3.586537-1.312148-7.348027-2.449342-11.196993-3.499061h-1.4871c-3.236631-0.787289-6.473262-1.399624-9.797369-2.011959l-3.936443-0.524859c-2.624295 0-5.336067-0.612336-8.047839-0.787289h-16.708013a122.467111 122.467111 0 0 0-12.596617 0.612336L153.346318 111.270118c-4.723731 0.699812-9.359986 1.662054-13.996241 2.711772l-3.936443 1.049718c-3.49906 0.962242-6.910644 2.01196-10.322228 3.149154l-3.586537 1.224671q-6.385785 2.361866-12.596617 5.248591l-3.49906 1.837006c-3.324107 1.662054-6.648215 3.411584-9.797369 5.248591-1.662054 0.962242-3.236631 2.099436-4.811208 3.061677s-4.198872 2.536819-6.210832 3.936443l-2.01196 1.487101-3.848966 2.624295c-2.886725 2.186913-5.77345 4.461302-8.747651 6.910644l-2.974201 2.449343-1.487101 1.224671c-2.974201 2.711772-5.948403 5.598496-8.74765 8.74765l-1.837007 1.924484-4.986161 5.336067-1.662054 2.099436c-3.674013 4.286349-7.26055 8.747651-10.584657 13.471382 0 0.612336-0.962242 1.137195-1.399624 1.837007v0.612335l-1.312148 1.662054c-2.361866 3.411584-4.548778 6.998121-6.648214 10.584657l-2.099437 3.674014-1.924483 3.324107c-1.049718 1.924483-2.01196 3.936443-2.974201 5.948402s-1.662054 3.236631-2.361866 4.898685c-1.74953 3.586537-3.236631 7.348027-4.723731 11.109516l-1.312148 3.149155a1.224671 1.224671 0 0 1 0 0.524859c-1.049718 2.711772-1.837007 5.598496-2.711772 8.74765S8.747651 244.934222 7.697933 247.558517s-1.487101 6.123356-2.27439 9.709892-1.049718 4.286349-1.4871 6.385785c-0.612336 3.674013-1.049718 7.348027-1.487101 11.02204 0 1.837007-0.612336 3.674013-0.787288 5.51102Q0.874765 288.672476 0.874765 297.420126L0 755.097215c0 58.434307 28.079959 105.846574 70.681018 129.027849l119.580386 65.082522c-42.513583-23.181275-70.768495-70.593542-70.593541-129.027849l0.787288-458.114471c0-5.598496 0-11.196993 0.874765-16.79549 0-1.837007 0.524859-3.674013 0.699812-5.598496 0.524859-3.586537 0.874765-7.26055 1.574577-10.847087s1.049718-4.373825 1.487101-6.560738 1.399624-6.473262 2.274389-9.622416 1.399624-4.461302 2.099437-6.735691 1.837007-6.035879 2.974201-8.747651c0-1.049718 0.874765-2.099436 1.312147-3.149154 1.399624-3.76149 2.974201-7.52298 4.636255-11.109517 0.787289-1.662054 1.662054-3.324107 2.449343-4.898684 1.574577-3.149154 3.149154-6.298309 4.811207-9.27251 0.699812-1.224671 1.399624-2.449342 2.186913-3.674013 2.099436-3.586537 4.286349-7.085597 6.648215-10.584658 0.437383-0.612336 0.787289-1.312148 1.312147-1.924483s1.224671-1.574577 1.749531-2.449342c3.411584-4.636255 6.910644-8.747651 10.672133-13.471382 2.186913-2.536819 4.373825-5.073637 6.648215-7.435504l1.74953-1.924483c3.324107-3.411584 6.735691-6.648215 10.322228-9.709892l2.886725-2.536819q4.198872-3.49906 8.747651-6.823167l3.23663-2.449343c2.711772-1.924483 5.51102-3.674013 8.222792-5.423543s3.236631-2.099436 4.811208-3.061678c3.236631-1.837007 6.560738-3.586537 9.884845-5.24859l3.499061-1.837007c4.198872-2.01196 8.747651-3.76149 12.946523-5.423544L244.934222 183.700666c3.324107-1.137195 6.823168-2.186913 10.234751-3.149154l4.02392-1.049718c4.636255-1.049718 9.27251-2.01196 13.996241-2.711772l782.214932-110.395353c4.286349-0.612336 8.747651-0.962242 12.596617-1.137194z" fill="#3F59F5" /><path d="M1055.404066 66.394669c84.064924-11.809329 152.034171 52.485905 151.946694 142.936614l-0.874765 458.114471c0 90.713139-68.406629 173.903297-152.559029 185.712626l-268.815309 37.789852a66.044763 66.044763 0 0 0-46.012643 32.103878l-48.724415 80.828293a40.676576 40.676576 0 0 1-28.429865 19.594738 29.392107 29.392107 0 0 1-27.992482-11.371946l-51.786093-68.319153a47.237314 47.237314 0 0 0-45.225354-18.195113L271.177174 963.116351c-83.977447 11.809329-152.034171-52.485905-151.859217-142.936614l0.787288-458.114471c0-90.713139 68.494106-173.903297 152.55903-185.712626z" fill="#3FA9F5" /><path d="M627.73142 360.140783a55.1102 55.1102 0 0 1 36.040321 7.085597l164.893217 97.536306c37.877328 22.393986 37.789851 82.490347 0 115.556467L663.159405 724.305484a69.981206 69.981206 0 0 1-36.127797 17.495302c-33.590979 4.723731-64.820092-19.682214-64.732616-61.233556V439.132069a80.303434 80.303434 0 0 1 65.432428-78.991286z" fill="#FFFFFF" /><path d="M563.086281 431.784042v-2.449342c0-0.787289 0-3.236631 0.699812-4.811208s0.437383-1.837007 0.612335-2.799248 0.612336-2.799248 1.049718-4.111396 0.612336-1.924483 0.874765-2.886725l1.224671-3.674013a88.438749 88.438749 0 0 1 4.198873-9.27251c0-0.699812 0.699812-1.399624 1.137194-2.099436A53.535623 53.535623 0 0 1 577.344951 393.644285l0.962242-1.574577c1.662054-2.274389 3.411584-4.461302 5.161114-6.560738l1.312147-1.312148a61.233555 61.233555 0 0 1 4.723732-4.811208l1.74953-1.574577a71.030924 71.030924 0 0 1 7.085597-5.598496c1.74953-1.224671 3.586537-2.361866 5.423544-3.499061 1.74953-1.049718 3.49906-1.924483 5.336067-2.799248a72.255595 72.255595 0 0 1 8.222791-3.149154l1.924484-0.612336a75.40475 75.40475 0 0 1 8.74765-1.924483 56.772254 56.772254 0 0 1 7.697933-0.437383h1.74953a55.810012 55.810012 0 0 1 7.610456 0.612336h1.137195a66.657099 66.657099 0 0 1 6.910644 1.74953h1.224671a57.909448 57.909448 0 0 1 7.960362 3.49906L638.578507 353.580044l-2.01196-1.049718a55.547582 55.547582 0 0 0-5.860926-2.449342L629.830856 349.906031l-3.149154-1.049718-3.76149-0.787289h-1.137195a55.984965 55.984965 0 0 0-7.610456-0.699812H612.335554a58.171878 58.171878 0 0 0-7.785409 0.524859 47.58722 47.58722 0 0 0-8.747651 1.924484l-1.837006 0.087476a72.867931 72.867931 0 0 0-8.222792 3.236631c-1.74953 0.874765-3.49906 1.74953-5.161114 2.711772-1.74953 1.049718-3.586537 2.099436-5.24859 3.324107a86.514266 86.514266 0 0 0-7.085598 5.598496l-0.787288 0.699812-0.962242 0.874766-4.723731 4.811207-0.962242 0.962242v0.437383q-2.799248 3.149154-5.24859 6.560738l-0.699812 1.137194c-1.312148 2.01196-2.624295 4.023919-3.76149 6.123356l-0.699812 1.137194v0.874766a89.838373 89.838373 0 0 0-4.198872 9.359986v0.437382l-1.049719 3.149155c0 0.962242-0.612336 1.924483-0.874765 2.886724s-0.699812 2.799248-1.049718 4.198873 0 1.837007-0.612335 2.799248 0 3.149154-0.699812 4.811208a21.694174 21.694174 0 0 0 0 2.361866 69.281394 69.281394 0 0 0 0 7.435503l-0.437383 241.522638a59.921408 59.921408 0 0 0 27.117718 55.372629l23.268751 12.596617a59.658978 59.658978 0 0 1-29.82949-54.672817v-241.435161c0.699812-2.536819 0.874765-4.986161 1.049719-7.435504z" fill="#DDDDDD" /></svg>