<?xml version="1.0" standalone="no"?><!DOCTYPE svg PUBLIC "-//W3C//DTD SVG 1.1//EN" "http://www.w3.org/Graphics/SVG/1.1/DTD/svg11.dtd"><svg class="icon" width="200px" height="193.03px" viewBox="0 0 1061 1024" version="1.1" xmlns="http://www.w3.org/2000/svg"><path d="M583.428153 785.155629L597.011671 919.717353l-125.152307 18.606589 11.602588-138.099098 99.966201-15.069215z" fill="#CCCCCC" /><path d="M483.461952 800.224844l-6.438022-3.466627 99.895454-15.139962 6.508769 3.537374-99.966201 15.069215z" fill="#CCCCCC" /><path d="M1006.002903 17.969862c30.562915-4.244849 55.253789 18.960327 55.183041 51.928657l-1.202707 642.953177c0 32.897582-24.832369 63.10676-55.395284 67.422357L87.488258 909.175977c-30.562915 4.244849-55.253789-18.960327-55.183041-51.857909l1.202707-642.953177c0-32.96833 24.832369-63.177507 55.395284-67.493105z" fill="#3F3F3F" /><path d="M1013.219147 17.545377h1.41495a51.645667 51.645667 0 0 1 6.650264 0.636728h1.13196a48.603525 48.603525 0 0 1 5.730546 1.556444h0.990465a39.618594 39.618594 0 0 1 6.367274 2.8299L1003.314499 5.518304l-1.69794-0.84897a39.477099 39.477099 0 0 0-4.740082-1.980929h-0.990465l-3.042142-1.273455-2.334667-0.56598h-1.13196a51.645667 51.645667 0 0 0-6.650264-0.636728h-1.414949a61.40882 61.40882 0 0 0-7.074749 0.424485l21.224246 11.744084-21.224246-11.744084L56.642353 129.326409a64.946195 64.946195 0 0 0-7.074749 1.627193l-1.839435 0.565979a56.597991 56.597991 0 0 0-6.508769 2.54691h-0.424485l-1.273455 0.636727-4.103354 2.193173c-0.56598 0-1.13196 0.707475-1.69794 1.061212l-2.263919 1.41495-0.495233 0.353737c-1.98093 1.485697-3.961859 2.971395-5.872041 4.669334l-0.84897 0.919718c-1.344202 1.273455-2.688405 2.54691-3.961859 3.961859a9.621658 9.621658 0 0 0-0.84897 0.84897l-0.56598 0.707475c-1.344202 1.627192-2.688405 3.254384-3.891112 4.952324l-0.778222 0.919717a75.48757 75.48757 0 0 0-4.032607 6.438022 2.334667 2.334667 0 0 1-0.424485 0.707475s0 0.636727-0.353738 0.919717a72.374681 72.374681 0 0 0-3.749617 8.277456c-0.353737 0.990465-0.636727 1.98093-0.990464 2.971395s-0.56598 1.69794-0.778223 2.546909-0.56598 2.26392-0.778222 3.39588-0.424485 1.627192-0.56598 2.476162a39.477099 39.477099 0 0 0-0.56598 4.032607v1.98093a57.446961 57.446961 0 0 0 0 6.084284L0.044362 839.772691a51.574919 51.574919 0 0 0 25.681338 46.76409l32.190108 17.545377a51.645667 51.645667 0 0 1-25.610591-46.76409l1.202707-642.953177a57.446961 57.446961 0 0 1 0-6.084284v-1.98093a39.477099 39.477099 0 0 1 0.56598-4.032607c0-0.84897 0.353737-1.627192 0.56598-2.476162s0.495232-2.26392 0.778222-3.395879 0.56598-1.69794 0.778222-2.54691 0.636727-2.051677 1.061213-3.11289a72.374681 72.374681 0 0 1 3.749617-8.277456 16.979397 16.979397 0 0 1 1.485697-1.627192 75.48757 75.48757 0 0 1 4.032607-6.438021 5.376809 5.376809 0 0 1 0.56598-0.778223c1.202707-1.69794 2.54691-3.325132 3.891112-4.952324l1.414949-1.556445a52.353142 52.353142 0 0 1 3.96186-3.961859l1.202707-1.202707a73.860378 73.860378 0 0 1 5.872042-4.669335l2.617657-1.627192 1.697939-1.061212c1.13196-0.707475 2.405415-1.344202 3.608122-1.98093l1.273455-0.636727h0.56598c2.122425-0.919717 4.315597-1.768687 6.508769-2.476162l1.839435-0.56598a64.946195 64.946195 0 0 1 7.074749-1.627193L1006.002903 17.969862a62.611527 62.611527 0 0 1 7.216244-0.424485z" fill="#CCCCCC" /><path d="M471.930111 938.1117l16.271923 79.661672c0.707475 4.032607 6.650264 7.074749 12.805295 6.013537l181.750298-21.224247c8.348204-1.13196 11.319598-7.852971 5.306062-11.744083L596.940924 919.717353z" fill="#E6E6E6" /><path d="M996.52274 28.794228a47.117827 47.117827 0 0 1 54.192576 49.02801l-1.13196 607.93317a65.653669 65.653669 0 0 1-54.404819 63.672739L93.784784 871.396818a47.188575 47.188575 0 0 1-54.263324-49.02801l1.202708-607.93317a65.582922 65.582922 0 0 1 54.475566-63.67274z"  /><path d="M1059.983237 712.851696v-63.67274L32.658954 793.645328V863.119362c2.8299 29.643198 26.318066 49.523242 54.900051 45.773625L1004.658701 780.274053c30.492168-4.315597 55.253789-34.524774 55.324536-67.422357z" fill="#FFFFFF" /><path d="M547.063944 765.41708h-0.495232a14.92772 14.92772 0 0 1 2.900647-9.621659 14.149498 14.149498 0 0 1 8.135961-5.589051 15.21071 15.21071 0 0 1-2.900647 9.904648 12.239316 12.239316 0 0 1-7.640729 5.306062zM561.637927 781.19377a10.895113 10.895113 0 0 0 7.074749 11.036608 41.387281 41.387281 0 0 1-3.891112 8.984931c-2.26392 3.961859-4.598587 7.923719-8.348204 8.489699-3.678869 0.495232-4.881577-1.627192-8.984931-1.061212s-5.589052 3.042142-9.055678 3.678869c-3.537374 0.495232-6.225779-3.11289-8.489699-6.296527a31.83637 31.83637 0 0 1-3.466627-29.501702 16.201175 16.201175 0 0 1 11.248851-9.055679c3.678869-0.495232 7.074749 1.627192 9.055678 1.344202s5.730547-3.608122 9.692406-4.174101h0.919718a11.036608 11.036608 0 0 1 10.046143 4.457091 16.271922 16.271922 0 0 0-5.801294 12.097821z" fill="#999999" /><path d="M205.212079 769.308192l191.654947-659.437342-91.193513 12.310063-191.867189 659.861827 91.405755-12.734548z" fill="#2B2B2B" /></svg>