<svg xmlns="http://www.w3.org/2000/svg" xmlns:xlink="http://www.w3.org/1999/xlink" width="1080" zoomAndPan="magnify" viewBox="0 0 810 809.999993" height="1080" preserveAspectRatio="xMidYMid meet" version="1.0"><defs><clipPath id="4672c41191"><path d="M 222.484375 124.753906 L 587.734375 124.753906 L 587.734375 609 L 222.484375 609 Z M 222.484375 124.753906 " clip-rule="nonzero"/></clipPath></defs><g clip-path="url(#4672c41191)"><path fill="#fcf9f5" d="M 261.574219 124.789062 L 274.429688 124.789062 C 274.5 125.558594 275.054688 125.585938 275.652344 125.65625 C 279.847656 126.199219 283.789062 127.621094 287.648438 129.269531 C 291.113281 130.75 294.363281 132.644531 297.578125 134.597656 C 302.589844 137.648438 307.128906 141.289062 311.359375 145.285156 C 314.566406 148.3125 317.71875 151.40625 320.597656 154.789062 C 322.945312 157.546875 325.257812 160.339844 327.445312 163.210938 C 330.5 167.226562 333.261719 171.457031 335.976562 175.710938 C 340.539062 182.859375 344.425781 190.371094 348.390625 197.839844 C 352.632812 205.824219 356.566406 213.980469 360.109375 222.324219 C 363.199219 229.59375 366.03125 236.964844 368.640625 244.417969 C 370.210938 248.914062 371.542969 253.480469 373.035156 258.003906 C 374.902344 263.679688 376.625 269.390625 378.1875 275.15625 C 378.734375 277.160156 379.0625 277.484375 381.207031 277.222656 C 384.09375 276.875 386.984375 276.609375 389.871094 276.304688 C 393.335938 275.941406 396.800781 275.734375 400.269531 275.582031 C 404.027344 275.414062 407.796875 275.582031 411.566406 275.921875 C 414.816406 276.207031 418.078125 276.476562 421.273438 277.054688 C 424.222656 277.589844 427.195312 277.644531 430.144531 278.070312 C 432.019531 278.339844 432.074219 278.132812 432.617188 276.304688 C 433.082031 274.734375 433.582031 273.183594 434.058594 271.613281 C 435.609375 266.4375 437.273438 261.304688 438.871094 256.148438 C 441.335938 248.191406 444.132812 240.355469 447.167969 232.613281 C 449.292969 227.175781 451.652344 221.84375 454.082031 216.53125 C 457.226562 209.664062 460.546875 202.882812 464.191406 196.269531 C 467.730469 189.855469 471.078125 183.339844 475.054688 177.167969 C 479.332031 170.519531 483.949219 164.148438 488.996094 158.082031 C 492.148438 154.296875 495.675781 150.863281 499.222656 147.464844 C 501.429688 145.355469 503.8125 143.429688 506.191406 141.519531 C 510.136719 138.34375 514.433594 135.695312 518.910156 133.339844 C 522.300781 131.554688 525.847656 130.117188 529.546875 129.027344 C 532.628906 128.128906 535.789062 127.789062 538.933594 127.246094 C 542.480469 126.628906 545.863281 127.21875 549.285156 127.671875 C 553.125 128.179688 556.679688 129.699219 560.261719 131.0625 C 563.121094 132.152344 565.878906 133.542969 568.347656 135.335938 C 571.8125 137.863281 574.792969 140.949219 577.375 144.375 C 579.636719 147.375 582.136719 150.210938 583.707031 153.707031 C 584.933594 156.449219 586.011719 159.222656 586.71875 162.132812 C 586.851562 162.695312 586.863281 163.300781 587.636719 163.34375 L 587.636719 180.476562 C 587.03125 180.539062 586.84375 180.914062 586.78125 181.492188 C 586.449219 184.179688 585.683594 186.765625 584.898438 189.355469 C 583.117188 195.253906 580.351562 200.722656 577.574219 206.183594 C 575.1875 210.875 572.507812 215.371094 569.425781 219.664062 C 565.871094 224.597656 561.675781 228.933594 557.574219 233.351562 C 552.636719 238.679688 547.320312 243.632812 541.835938 248.421875 C 538.148438 251.644531 534.539062 254.980469 530.726562 258.050781 C 526.839844 261.179688 523.160156 264.519531 519.605469 268 C 515.066406 272.441406 510.609375 276.964844 506.117188 281.460938 C 505.714844 281.863281 505.289062 282.246094 504.921875 282.683594 C 501.5 286.859375 497.945312 290.921875 494.820312 295.328125 C 493.085938 297.765625 491.371094 300.210938 489.703125 302.679688 C 488.835938 303.972656 488.933594 304.285156 490.078125 305.4375 C 490.328125 305.6875 490.59375 305.929688 490.863281 306.160156 C 492.640625 307.675781 494.542969 309.085938 496.1875 310.738281 C 499.542969 314.121094 503.011719 317.402344 506.164062 321.007812 C 510.003906 325.398438 513.613281 329.964844 516.953125 334.730469 C 522.4375 342.554688 527.285156 350.746094 531.136719 359.527344 C 532.96875 363.703125 534.726562 367.894531 536.234375 372.195312 C 538.351562 378.238281 540.023438 384.402344 541.28125 390.683594 C 542.308594 395.832031 543.121094 401.027344 543.433594 406.246094 C 543.746094 411.4375 543.585938 416.667969 543.460938 421.867188 C 543.417969 423.625 543.238281 425.417969 542.960938 427.160156 C 542.398438 430.71875 541.730469 434.269531 540.996094 437.8125 C 539.738281 443.925781 537.566406 449.6875 534.871094 455.265625 C 532.386719 460.398438 529.484375 465.269531 525.75 469.621094 C 522.300781 473.628906 518.660156 477.429688 514.441406 480.613281 C 511.726562 482.667969 508.871094 484.550781 505.789062 486.074219 C 504.796875 486.566406 503.886719 487.246094 502.796875 487.921875 C 504.429688 489.339844 505.894531 490.660156 507.367188 491.964844 C 509.289062 493.652344 510.949219 495.621094 512.65625 497.542969 C 516.371094 501.71875 519.425781 506.3125 522.105469 511.175781 C 525.019531 516.4375 527.089844 522.042969 528.699219 527.816406 C 530.164062 533.089844 531.117188 538.460938 531.089844 543.972656 C 531.089844 545.410156 530.824219 546.792969 530.679688 548.203125 C 530.324219 551.925781 529.421875 555.476562 527.761719 558.8125 C 525.847656 562.648438 523.464844 566.136719 520.632812 569.394531 C 518.175781 572.222656 515.480469 574.6875 512.386719 576.730469 C 510.996094 577.648438 510.003906 578.503906 510.871094 580.316406 C 511.039062 580.671875 510.898438 581.164062 510.933594 581.59375 C 511.101562 583.574219 511.261719 585.554688 511.449219 587.527344 C 511.78125 590.917969 512.246094 594.289062 512.21875 597.707031 C 512.21875 598.277344 512.21875 598.855469 512.316406 599.410156 C 512.886719 602.382812 512.71875 605.363281 512.40625 608.332031 C 511.816406 607.421875 511.699219 606.34375 511.273438 605.371094 C 505.136719 591.488281 495.175781 581.867188 480.367188 577.628906 C 479.851562 577.480469 479.144531 577.585938 478.894531 576.933594 C 478.402344 575.621094 477.277344 575.460938 476.125 575.3125 C 472.363281 574.820312 469.023438 573.292969 465.925781 571.152344 C 461.878906 568.359375 458.511719 564.90625 455.859375 560.777344 C 455.617188 560.410156 455.101562 560.078125 455.476562 559.382812 C 456.914062 559.605469 458.40625 559.742188 459.84375 560.089844 C 460.734375 560.304688 461.53125 560.527344 462.191406 559.75 C 462.863281 558.957031 462.53125 558.152344 462.101562 557.367188 C 462.21875 555.984375 461.15625 555.839844 460.21875 555.503906 C 456.992188 554.359375 453.921875 552.949219 451.445312 550.488281 C 451.132812 549.183594 451.492188 547.550781 449.714844 546.964844 C 449.5625 544.574219 449.882812 542.269531 450.980469 540.109375 C 451.214844 540.296875 451.457031 540.484375 451.6875 540.664062 C 450.882812 543.027344 451.589844 543.964844 453.957031 543.5 C 455.699219 543.152344 457.457031 543.171875 459.207031 543.039062 C 461.496094 542.851562 461.941406 541.894531 460.753906 539.824219 C 461.585938 537.878906 461.164062 537.070312 459.191406 537.191406 C 456.941406 537.335938 454.699219 537.667969 452.445312 537.90625 C 453.964844 535.257812 456.027344 533.070312 458.394531 531.171875 C 458.753906 531.804688 459.164062 532.445312 459.957031 532.480469 C 462.164062 532.589844 464.363281 532.667969 466.550781 533.042969 C 467.308594 533.179688 467.953125 532.785156 468.195312 531.984375 C 468.460938 531.109375 468.105469 530.4375 467.34375 530.011719 C 466.855469 529.734375 466.308594 529.574219 465.605469 529.289062 C 468.667969 528.144531 471.660156 527.582031 474.714844 527.351562 C 482.117188 526.789062 489.371094 527.707031 496.488281 529.726562 C 502.160156 531.332031 507.492188 533.652344 511.761719 537.925781 C 511.816406 537.976562 511.871094 538.023438 511.925781 538.066406 C 512.886719 538.808594 513.78125 538.871094 514.425781 538.238281 C 515.058594 537.621094 515.015625 536.640625 514.265625 535.757812 C 513.941406 535.375 513.578125 535.035156 513.210938 534.695312 C 509.503906 531.277344 505.109375 529.074219 500.394531 527.476562 C 499.195312 527.066406 497.980469 526.71875 496.839844 526.183594 C 499.179688 519.820312 501.089844 513.351562 501.9375 506.597656 C 502.160156 504.804688 501.820312 503.074219 501.625 501.304688 C 501.410156 499.335938 501.484375 497.328125 501.097656 495.355469 C 499.957031 489.476562 497.230469 484.542969 492.507812 480.757812 C 487.363281 476.636719 481.339844 474.804688 474.917969 474.28125 C 468.050781 473.71875 461.246094 474.378906 454.546875 475.992188 C 450.042969 477.074219 445.640625 478.472656 441.308594 480.070312 C 438.578125 481.078125 435.996094 482.488281 433.34375 483.71875 C 432.992188 483.382812 432.582031 483.085938 432.316406 482.695312 C 431.539062 481.542969 430.464844 481.050781 429.109375 481.105469 C 428.839844 480.402344 428.234375 479.992188 427.722656 479.5 C 421.945312 473.851562 415.292969 469.472656 407.941406 466.195312 C 402.597656 463.824219 397.027344 462.039062 391.253906 461.039062 C 385.066406 459.96875 378.832031 459.585938 372.515625 459.976562 C 367.863281 460.261719 363.238281 460.84375 358.804688 462.066406 C 352.484375 463.804688 346.273438 465.917969 340.585938 469.488281 C 331.144531 475.414062 323.328125 482.765625 318.121094 492.714844 C 318.007812 492.742188 317.890625 492.742188 317.78125 492.730469 C 315.933594 492.230469 314.066406 491.777344 312.226562 491.234375 C 307.296875 489.75 302.617188 487.691406 298.203125 485.066406 C 294.722656 482.996094 291.21875 480.890625 288.308594 478.054688 C 285.351562 475.179688 282.316406 472.371094 279.707031 469.132812 C 276.019531 464.5625 273.042969 459.574219 270.550781 454.292969 C 267.90625 448.679688 265.898438 442.847656 264.628906 436.75 C 263.621094 431.890625 262.65625 426.992188 262.46875 422.046875 C 262.128906 413.089844 262.121094 404.105469 263.746094 395.242188 C 264.988281 388.472656 266.453125 381.742188 268.648438 375.195312 C 270.488281 369.726562 272.625 364.378906 274.953125 359.097656 C 277.785156 352.691406 281.226562 346.632812 284.914062 340.707031 C 287.773438 336.121094 290.933594 331.742188 294.292969 327.496094 C 296.578125 324.601562 298.902344 321.703125 301.417969 319.019531 C 307.226562 312.835938 313.441406 307.089844 320.160156 301.894531 C 321.007812 301.234375 321.105469 300.683594 320.417969 299.78125 C 319.203125 298.203125 318.183594 296.488281 317.015625 294.875 C 312.558594 288.707031 307.902344 282.695312 302.507812 277.304688 C 298.015625 272.808594 293.523438 268.320312 289.03125 263.832031 C 288.628906 263.429688 288.246094 262.992188 287.800781 262.636719 C 284.761719 260.183594 282.019531 257.371094 278.910156 254.988281 C 276.597656 253.214844 274.453125 251.234375 272.257812 249.324219 C 268.765625 246.296875 265.265625 243.273438 261.933594 240.089844 C 256.421875 234.824219 251.105469 229.363281 246.125 223.574219 C 242.960938 219.90625 240.050781 216.085938 237.460938 212 C 234.664062 207.59375 232.539062 202.835938 230.144531 198.214844 C 228.671875 195.359375 227.492188 192.378906 226.445312 189.355469 C 224.980469 185.117188 223.765625 180.816406 223.402344 176.320312 C 223.355469 175.738281 223.152344 175.371094 222.542969 175.300781 L 222.542969 163.308594 C 223.015625 163.246094 223.402344 163.015625 223.363281 162.507812 C 223.292969 161.480469 223.695312 160.542969 223.855469 159.570312 C 224.679688 154.554688 226.820312 150.105469 229.777344 146.019531 C 231.019531 144.304688 232.589844 142.832031 233.914062 141.207031 C 238.933594 135.042969 245.570312 131.320312 252.609375 128.109375 C 255.207031 126.921875 257.949219 126.164062 260.746094 125.601562 C 261.253906 125.503906 261.476562 125.226562 261.539062 124.753906 Z M 552.152344 191.523438 C 552.0625 186.492188 550.207031 181.71875 545.355469 178.203125 C 539.808594 174.167969 533.921875 171.9375 526.964844 173.152344 C 522.042969 174.007812 517.488281 175.585938 513.425781 178.613281 C 507.324219 183.152344 501.894531 188.390625 497.007812 194.191406 C 490.566406 201.828125 484.28125 209.574219 478.734375 217.898438 C 471.425781 228.871094 464.71875 240.195312 458.617188 251.882812 C 456.089844 256.730469 453.535156 261.574219 451.5 266.652344 C 449.730469 271.085938 448.042969 275.554688 446.355469 280.027344 C 445.945312 281.113281 446.238281 281.75 447.285156 282.328125 C 447.714844 282.570312 448.203125 282.722656 448.667969 282.890625 C 451.484375 283.925781 454.277344 285.003906 456.992188 286.28125 C 458.332031 286.914062 459.707031 287.441406 460.941406 288.351562 C 461.949219 289.101562 463.34375 289.117188 464.515625 289.679688 C 467.980469 291.367188 471.363281 293.214844 474.632812 295.25 C 476.609375 296.480469 476.625 296.46875 477.804688 294.375 C 478.574219 293.007812 479.351562 291.644531 480.1875 290.3125 C 485.808594 281.375 492.050781 272.851562 498.402344 264.421875 C 503.804688 257.238281 509.269531 250.109375 515.605469 243.691406 C 518.960938 240.292969 522.292969 236.867188 525.714844 233.539062 C 527.347656 231.941406 528.75 230.148438 530.464844 228.625 C 536.34375 223.386719 541.773438 217.703125 546.042969 211.0625 C 549.707031 205.363281 552.152344 199.160156 552.152344 191.523438 Z M 283.859375 167.894531 C 278.054688 167.867188 273.339844 169.664062 269.238281 173.054688 C 267.121094 174.800781 265.460938 177.03125 264.53125 179.558594 C 263.761719 181.65625 263.300781 183.929688 263.238281 186.222656 C 263.128906 189.71875 263.199219 193.199219 263.699219 196.679688 C 264.136719 199.742188 264.976562 202.738281 266.34375 205.425781 C 267.613281 207.921875 269.222656 210.3125 270.863281 212.632812 C 274.625 217.925781 278.742188 222.9375 282.742188 228.042969 C 285.332031 231.34375 288.183594 234.421875 290.585938 237.882812 C 292.148438 240.152344 293.960938 242.285156 295.910156 244.230469 C 298.625 246.941406 301.042969 249.914062 303.472656 252.855469 C 308.832031 259.363281 313.46875 266.390625 317.855469 273.574219 C 322.042969 280.4375 326.75 287.011719 330.039062 294.402344 C 330.429688 295.273438 331 295.605469 331.902344 295.113281 C 332.277344 294.910156 332.652344 294.703125 333.039062 294.507812 C 340.03125 290.839844 347.050781 287.226562 354.3125 284.113281 C 356.109375 283.335938 356.261719 282.980469 355.539062 281.230469 C 353.671875 276.761719 352.160156 272.15625 350.6875 267.550781 C 347.339844 257.113281 343.882812 246.726562 339.996094 236.476562 C 335.699219 225.109375 330.351562 214.257812 324.222656 203.773438 C 320.6875 197.722656 316.488281 192.148438 312.496094 186.410156 C 308.65625 180.886719 303.964844 176.265625 298.238281 172.742188 C 293.703125 169.9375 288.933594 167.726562 283.859375 167.894531 Z M 317.523438 396.714844 C 313.15625 396.652344 308.796875 397.019531 304.535156 397.804688 C 299.640625 398.707031 294.808594 400.089844 290.328125 402.355469 C 285.90625 404.59375 281.589844 407.023438 278.832031 411.382812 C 277.957031 412.757812 276.769531 414.0625 276.339844 415.570312 C 275.507812 418.515625 275.195312 421.59375 275.882812 424.660156 C 277.019531 429.738281 280.164062 433.460938 284.15625 436.519531 C 287.308594 438.9375 290.800781 440.792969 294.523438 442.246094 C 297.070312 443.246094 299.679688 444.058594 302.285156 444.808594 C 304.4375 445.425781 306.777344 445.398438 309.019531 445.738281 C 314.773438 446.59375 320.542969 446.566406 326.292969 445.914062 C 332.394531 445.226562 338.351562 443.84375 344.007812 441.375 C 347.964844 439.640625 351.492188 437.214844 354.511719 434.164062 C 361.441406 427.160156 361.59375 417.96875 355.699219 410.8125 C 352.402344 406.816406 348.203125 404.03125 343.523438 401.960938 C 335.253906 398.3125 326.519531 396.859375 317.523438 396.707031 Z M 492.140625 396.714844 C 490.203125 396.644531 488.289062 396.894531 486.371094 397.019531 C 479.652344 397.472656 473.125 398.679688 466.933594 401.417969 C 465.578125 402.015625 464.023438 402.183594 462.824219 403.121094 C 460.21875 405.148438 457.214844 406.621094 454.9375 409.128906 C 452.625 411.671875 450.667969 414.328125 449.804688 417.710938 C 449.195312 420.09375 448.964844 422.464844 449.527344 424.894531 C 450.722656 430.023438 453.707031 433.886719 457.878906 436.992188 C 461.933594 440.015625 466.453125 442.058594 471.257812 443.496094 C 479.109375 445.84375 487.113281 446.734375 495.320312 446.175781 C 501.910156 445.71875 508.304688 444.539062 514.503906 442.246094 C 519.792969 440.292969 524.527344 437.484375 528.457031 433.40625 C 531.476562 430.273438 533.394531 426.578125 533.671875 422.207031 C 533.96875 417.488281 532.253906 413.417969 529.152344 409.902344 C 525.734375 406.03125 521.4375 403.417969 516.738281 401.398438 C 508.886719 398.027344 500.597656 396.929688 492.148438 396.714844 Z M 405.351562 408.902344 C 405.75 409.625 406.109375 410.242188 406.449219 410.859375 C 407.691406 413.132812 409.332031 414.882812 411.664062 416.246094 C 418.808594 420.441406 427.582031 418.703125 432.566406 412.277344 C 432.824219 411.9375 433.09375 411.597656 433.289062 411.214844 C 433.84375 410.164062 433.691406 409.261719 432.878906 408.761719 C 431.984375 408.21875 431.234375 408.546875 430.601562 409.242188 C 430.3125 409.554688 430.101562 409.9375 429.839844 410.269531 C 427.761719 412.9375 424.972656 414.535156 421.675781 415.015625 C 413.664062 416.175781 407.492188 409.714844 407.671875 402.792969 C 407.691406 401.988281 407.90625 401.488281 408.636719 400.890625 C 411.148438 398.867188 413.15625 396.421875 413.96875 393.15625 C 414.703125 390.230469 413.65625 388.078125 410.824219 387.089844 C 410.558594 387 410.28125 386.910156 410.003906 386.855469 C 405.261719 385.9375 400.597656 386.597656 396.0625 387.910156 C 393.648438 388.605469 393.238281 389.78125 393.613281 392.175781 C 394.058594 394.976562 395.507812 397.394531 397.695312 399.230469 C 398.875 400.222656 400.257812 400.988281 401.589844 401.792969 C 403.082031 402.695312 403.199219 402.710938 402.929688 404.433594 C 401.964844 410.714844 397.527344 414.578125 391.425781 415.078125 C 386.886719 415.453125 383.289062 413.492188 380.554688 409.894531 C 379.484375 408.484375 378.652344 408.164062 377.769531 408.761719 C 376.796875 409.421875 376.832031 410.464844 377.867188 411.945312 C 377.949219 412.0625 378.035156 412.179688 378.125 412.285156 C 380.402344 415.085938 383.179688 417.167969 386.753906 418.023438 C 392.558594 419.40625 397.597656 417.988281 401.894531 413.839844 C 403.347656 412.4375 404.296875 410.699219 405.351562 408.894531 Z M 367.070312 377.566406 C 366.953125 369.441406 360.246094 365.246094 354.894531 365.363281 C 347.703125 365.511719 342.667969 370.589844 342.71875 377.425781 C 342.78125 384.757812 347.167969 389.453125 354.804688 389.675781 C 362.253906 389.890625 367.023438 383.824219 367.070312 377.566406 Z M 452.457031 366.246094 C 446.882812 365.761719 440.039062 371.0625 440.113281 378.351562 C 440.183594 385.679688 446.292969 390.675781 452.410156 390.566406 C 459.226562 390.453125 464.308594 385.492188 464.566406 378.515625 C 464.816406 371.820312 459.191406 366.261719 452.445312 366.246094 Z M 452.457031 366.246094 " fill-opacity="1" fill-rule="nonzero"/></g><path fill="#fcf9f5" d="M 338.699219 684.988281 C 338.636719 684.378906 338.253906 684.21875 337.691406 684.121094 C 332.324219 683.183594 327.3125 681.335938 322.542969 678.667969 C 318.40625 676.359375 314.664062 673.59375 311.332031 670.246094 C 304.492188 663.375 300 655.183594 297.605469 645.816406 C 296.328125 640.8125 296 635.699219 296.347656 630.585938 C 296.613281 626.703125 297.292969 622.832031 298.660156 619.164062 C 299.152344 617.835938 299.292969 616.566406 299.285156 615.210938 C 300.320312 614.683594 300.730469 613.75 301.089844 612.695312 C 303.632812 605.101562 307.734375 598.472656 313.726562 593.144531 C 324.355469 583.695312 336.773438 580.441406 350.714844 582.949219 C 354.511719 583.632812 358.28125 584.507812 361.34375 587.125 C 361.601562 587.347656 362.058594 587.640625 362.28125 587.550781 C 363.851562 586.925781 364.871094 588.050781 365.988281 588.703125 C 369.078125 590.503906 371.9375 592.644531 374.5 595.152344 C 385.808594 606.199219 391.121094 619.644531 390.59375 635.421875 C 390.566406 636.347656 390.480469 637.277344 390.503906 638.195312 C 390.53125 639.078125 391.042969 639.660156 391.917969 639.847656 C 392.710938 640.015625 393.550781 639.453125 393.835938 638.507812 C 393.980469 638.035156 393.996094 637.527344 394.035156 637.027344 C 394.953125 623.234375 391.253906 610.777344 383.074219 599.640625 C 382.527344 598.890625 381.992188 598.144531 381.449219 597.382812 C 381.949219 597.339844 382.441406 597.257812 382.941406 597.269531 C 391.371094 597.332031 399.714844 596.386719 408.03125 595.082031 C 415.308594 593.941406 422.402344 592.109375 429.261719 589.417969 C 434.636719 587.300781 439.746094 584.617188 444.945312 582.125 C 445.773438 581.726562 446.589844 581.242188 447.570312 581.351562 C 446.078125 582.296875 444.542969 583.1875 443.09375 584.207031 C 425.707031 596.527344 418.058594 613.605469 418.523438 634.617188 C 418.558594 636.035156 418.730469 637.472656 418.960938 638.875 C 419.121094 639.839844 420.007812 640.460938 420.800781 640.292969 C 421.738281 640.097656 422.320312 639.527344 422.277344 638.5 C 422.257812 638.070312 422.230469 637.644531 422.175781 637.214844 C 421.445312 631.273438 421.8125 625.375 423.160156 619.566406 C 426.375 605.710938 433.566406 594.457031 445.585938 586.632812 C 455.136719 580.421875 465.621094 578.128906 476.882812 580.34375 C 488.488281 582.625 497.355469 589.070312 503.910156 598.785156 C 508.378906 605.414062 510.886719 612.785156 511.824219 620.707031 C 512.085938 622.875 512.351562 623.152344 514.378906 623.277344 C 515.191406 627.292969 515.050781 631.398438 514.71875 635.394531 C 514.183594 641.917969 512.566406 648.226562 509.671875 654.175781 C 507.707031 658.226562 505.429688 662.0625 502.617188 665.554688 C 501.5 666.9375 500.070312 668.050781 498.917969 669.40625 C 496.277344 672.511719 493.230469 675.164062 489.738281 677.222656 C 484.261719 680.453125 478.464844 682.90625 472.070312 683.746094 C 470.585938 683.941406 469.121094 684.113281 467.632812 684.113281 C 467.007812 684.113281 466.488281 684.21875 466.398438 684.96875 L 462.539062 684.96875 C 462.449219 684.21875 461.925781 684.113281 461.308594 684.113281 C 459.816406 684.113281 458.351562 683.988281 456.859375 683.738281 C 450.957031 682.730469 445.4375 680.738281 440.371094 677.582031 C 436.449219 675.136719 432.804688 672.371094 429.769531 668.78125 C 426.546875 664.980469 424.054688 660.816406 422.214844 656.238281 C 420.515625 652 420 647.441406 418.925781 643.03125 C 418.472656 641.148438 418.328125 641.070312 416.363281 641.460938 C 414.34375 641.863281 412.324219 642.246094 410.246094 642.15625 C 408.539062 642.085938 406.816406 642.175781 405.109375 642.132812 C 402.984375 642.078125 400.867188 642.167969 398.722656 641.808594 C 397.070312 641.535156 395.347656 641.410156 393.648438 641.300781 C 391.996094 641.203125 391.898438 641.335938 391.855469 642.890625 C 391.792969 645.246094 391.316406 647.546875 390.765625 649.804688 C 388.121094 660.546875 382.414062 669.34375 373.554688 675.972656 C 367.960938 680.160156 361.648438 682.890625 354.726562 684.09375 C 354.160156 684.191406 353.777344 684.34375 353.714844 684.960938 L 338.71875 684.960938 Z M 336.796875 618.914062 C 333.171875 618.878906 329.777344 619.699219 326.832031 621.714844 C 319.640625 626.632812 316.855469 633.628906 318.132812 642.085938 C 319.570312 651.6875 324.890625 658.546875 333.84375 662.402344 C 338.886719 664.570312 344.121094 664.832031 349.214844 662.589844 C 356.957031 659.191406 360.511719 652.855469 360.898438 644.683594 C 361.121094 639.964844 359.769531 635.5 357.339844 631.449219 C 352.679688 623.714844 345.945312 619.324219 336.808594 618.90625 Z M 487.941406 635.839844 C 488.050781 632.183594 486.71875 628.480469 485.003906 625.355469 C 479.464844 615.300781 467.855469 613.863281 459.746094 619.90625 C 455.484375 623.074219 452.554688 627.222656 450.867188 632.183594 C 448.160156 640.113281 448.382812 647.894531 452.992188 655.148438 C 456.199219 660.199219 460.949219 662.921875 466.898438 662.984375 C 471.464844 663.027344 475.527344 661.214844 478.921875 658.148438 C 485.039062 652.625 487.90625 645.65625 487.941406 635.839844 Z M 487.941406 635.839844 " fill-opacity="1" fill-rule="nonzero"/><path fill="#fcf9f5" d="M 353.699219 684.988281 C 353.761719 684.382812 354.144531 684.222656 354.707031 684.121094 C 361.628906 682.917969 367.945312 680.1875 373.535156 676.003906 C 382.394531 669.375 388.101562 660.574219 390.746094 649.832031 C 391.300781 647.566406 391.773438 645.273438 391.835938 642.917969 C 391.878906 641.367188 391.980469 641.230469 393.632812 641.328125 C 395.328125 641.429688 397.050781 641.5625 398.703125 641.839844 C 400.847656 642.195312 402.964844 642.105469 405.089844 642.160156 C 406.804688 642.203125 408.519531 642.113281 410.226562 642.1875 C 412.308594 642.277344 414.328125 641.890625 416.34375 641.492188 C 418.308594 641.097656 418.453125 641.179688 418.910156 643.0625 C 419.980469 647.46875 420.5 652.019531 422.195312 656.265625 C 424.035156 660.851562 426.527344 665.011719 429.75 668.8125 C 432.796875 672.398438 436.433594 675.164062 440.355469 677.609375 C 445.417969 680.769531 450.9375 682.757812 456.839844 683.765625 C 458.332031 684.015625 459.796875 684.148438 461.289062 684.140625 C 461.914062 684.140625 462.433594 684.246094 462.523438 684.996094 L 353.6875 684.996094 Z M 353.699219 684.988281 " fill-opacity="1" fill-rule="nonzero"/><path fill="#ffe363" d="M 447.5625 581.351562 C 446.578125 581.246094 445.765625 581.726562 444.9375 582.128906 C 439.738281 584.617188 434.628906 587.3125 429.25 589.417969 C 422.390625 592.113281 415.300781 593.941406 408.019531 595.082031 C 399.707031 596.386719 391.363281 597.332031 382.929688 597.269531 C 382.429688 597.269531 381.941406 597.347656 381.441406 597.386719 C 380.902344 596.824219 380.339844 596.277344 379.824219 595.699219 C 376.222656 591.691406 372.132812 588.257812 367.445312 585.625 C 352.027344 576.996094 336.351562 576.28125 320.472656 584.375 C 319.140625 585.054688 317.871094 585.839844 316.578125 586.578125 C 311.683594 584.546875 307.046875 581.976562 302.269531 579.691406 C 301.152344 579.058594 300.097656 578.28125 298.847656 577.898438 C 298.722656 577.371094 298.890625 576.933594 299.25 576.53125 C 299.917969 575.792969 300.625 575.113281 301.394531 574.472656 C 302.570312 573.492188 303.921875 572.625 304.421875 571.027344 L 304.394531 571.0625 L 304.867188 570.625 L 304.839844 570.644531 L 305.152344 570.359375 C 305.769531 569.769531 306.386719 569.179688 306.992188 568.59375 C 311.164062 564.566406 314.164062 559.792969 316.058594 554.332031 C 318.746094 546.605469 318.757812 538.871094 316.191406 531.109375 C 318.828125 531.179688 321.410156 531.820312 324.015625 532.027344 C 327.625 532.3125 331.214844 532.839844 334.84375 533.035156 C 339.378906 533.285156 343.910156 533.785156 348.472656 533.792969 C 359.101562 533.820312 369.730469 534.015625 380.339844 533.304688 C 382.679688 533.140625 385.03125 533.089844 387.363281 532.855469 C 390.890625 532.519531 394.410156 531.992188 397.9375 531.695312 C 400.707031 531.464844 403.4375 531.011719 406.171875 530.617188 C 411.09375 529.902344 415.988281 529.003906 420.800781 527.761719 C 423.285156 527.121094 425.847656 527.046875 428.324219 526.324219 C 431.617188 525.371094 434.796875 524.128906 438.023438 522.996094 C 440.566406 522.105469 443.03125 520.945312 445.445312 519.722656 C 451.4375 516.6875 457.074219 513.074219 462.261719 508.820312 C 466.398438 505.417969 470.355469 501.832031 472.929688 496.996094 C 473.265625 496.363281 473.652344 495.765625 473.660156 495.015625 C 473.679688 494.277344 473.660156 493.507812 472.828125 493.230469 C 471.953125 492.945312 471.132812 493.0625 470.640625 494.007812 C 470.210938 494.828125 469.773438 495.648438 469.285156 496.425781 C 466.84375 500.273438 463.46875 503.234375 460.03125 506.125 C 455.152344 510.21875 449.832031 513.636719 444.203125 516.589844 C 439.703125 518.957031 434.851562 520.402344 430.011719 521.875 C 424.429688 523.578125 418.785156 525.03125 413.039062 526.066406 C 408.78125 526.835938 404.5 527.519531 400.222656 528.144531 C 397.417969 528.554688 394.585938 528.886719 391.753906 529.039062 C 389.34375 529.171875 386.933594 529.414062 384.53125 529.617188 C 380.277344 529.976562 376.007812 530.199219 371.757812 530.3125 C 364.835938 530.492188 357.90625 530.289062 350.980469 530.414062 C 346.265625 530.5 341.59375 529.886719 336.886719 529.914062 C 336.601562 529.914062 336.324219 529.859375 336.039062 529.832031 C 333.566406 529.582031 331.101562 529.269531 328.625 529.109375 C 326.632812 528.984375 324.6875 528.546875 322.703125 528.40625 C 320.007812 528.207031 317.40625 527.308594 314.683594 527.351562 C 314.265625 526.699219 313.835938 526.039062 313.414062 525.390625 C 308.457031 517.554688 301.4375 512.941406 292.175781 511.941406 C 278.554688 510.480469 264.890625 519.207031 259.136719 533.242188 C 258.46875 534.863281 258.671875 535.257812 260.308594 536.335938 C 259.894531 537.335938 259.949219 538.53125 259.039062 539.324219 C 257.289062 535.910156 255.5 532.5 254.375 528.804688 C 252.695312 523.308594 252.214844 517.75 253.75 512.175781 C 256.019531 503.921875 261.734375 498.710938 269.300781 495.347656 C 274.945312 492.839844 280.9375 491.695312 287.121094 491.304688 C 295.570312 490.761719 303.867188 491.632812 312.101562 493.464844 C 313.691406 493.820312 315.289062 494.160156 316.890625 494.5 C 316.816406 494.703125 316.792969 494.925781 316.683594 495.097656 C 313.53125 499.976562 312.148438 505.480469 310.976562 511.066406 C 310.753906 512.128906 311.308594 512.960938 312.253906 513.210938 C 313.261719 513.46875 313.933594 513.085938 314.328125 511.953125 C 314.515625 511.414062 314.613281 510.855469 314.71875 510.300781 C 315.503906 506.160156 316.753906 502.171875 318.710938 498.425781 C 319.273438 497.355469 320.035156 496.398438 320.640625 495.355469 C 321.472656 493.917969 320.917969 492.894531 319.238281 492.695312 C 318.890625 492.652344 318.523438 492.707031 318.167969 492.722656 C 323.375 482.773438 331.1875 475.421875 340.628906 469.496094 C 346.320312 465.929688 352.527344 463.8125 358.851562 462.074219 C 363.28125 460.851562 367.90625 460.273438 372.5625 459.984375 C 378.867188 459.601562 385.101562 459.984375 391.300781 461.046875 C 397.070312 462.046875 402.644531 463.832031 407.984375 466.207031 C 415.335938 469.480469 422 473.851562 427.769531 479.507812 C 428.269531 480 428.886719 480.410156 429.152344 481.113281 C 428.277344 482.792969 429.0625 484.050781 430.101562 485.335938 C 433.429688 489.476562 435.960938 494.070312 437.746094 499.074219 C 438.289062 500.609375 438.746094 502.191406 439.378906 503.6875 C 439.90625 504.9375 440.828125 505.339844 441.71875 504.945312 C 442.640625 504.546875 442.945312 503.699219 442.542969 502.421875 C 441.542969 499.226562 440.433594 496.078125 438.960938 493.0625 C 437.363281 489.789062 435.414062 486.734375 433.378906 483.730469 C 436.03125 482.496094 438.613281 481.089844 441.34375 480.078125 C 445.675781 478.484375 450.089844 477.082031 454.582031 476.003906 C 461.289062 474.386719 468.09375 473.726562 474.957031 474.289062 C 481.378906 474.816406 487.398438 476.644531 492.542969 480.765625 C 497.257812 484.550781 499.992188 489.476562 501.132812 495.363281 C 501.519531 497.335938 501.445312 499.34375 501.660156 501.316406 C 501.859375 503.082031 502.195312 504.804688 501.972656 506.605469 C 501.132812 513.359375 499.214844 519.828125 496.875 526.191406 C 496.25 526.074219 495.613281 525.96875 495 525.824219 C 487.101562 524.023438 479.136719 523.03125 471.085938 524.453125 C 467.15625 525.148438 462.960938 525.496094 460.191406 529.066406 C 460.074219 529.214844 459.816406 529.261719 459.621094 529.332031 C 458.753906 529.652344 458.511719 530.367188 458.421875 531.179688 C 456.054688 533.089844 454 535.265625 452.484375 537.914062 C 451.457031 538.289062 451.410156 539.324219 451.007812 540.121094 C 449.910156 542.277344 449.589844 544.582031 449.742188 546.972656 C 448.027344 547.640625 447.882812 547.765625 447.917969 549.355469 C 448 553.15625 449.464844 556.527344 451.257812 559.792969 C 453.671875 564.191406 456.867188 567.976562 460.484375 571.421875 C 457.644531 573.757812 454.582031 575.800781 451.546875 577.871094 C 450.542969 578.550781 449.570312 579.238281 449.25 580.503906 L 449.277344 580.476562 C 448.910156 580.496094 448.554688 580.519531 448.382812 580.933594 L 448.429688 580.90625 C 448.078125 580.957031 447.675781 580.90625 447.535156 581.359375 L 447.570312 581.332031 Z M 447.5625 581.351562 " fill-opacity="1" fill-rule="nonzero"/><path fill="#f99785" d="M 552.152344 191.523438 C 552.152344 199.160156 549.707031 205.371094 546.042969 211.066406 C 541.78125 217.703125 536.34375 223.386719 530.464844 228.625 C 528.75 230.148438 527.347656 231.953125 525.714844 233.539062 C 522.292969 236.878906 518.960938 240.292969 515.605469 243.695312 C 509.269531 250.109375 503.804688 257.238281 498.402344 264.421875 C 492.050781 272.851562 485.816406 281.367188 480.1875 290.316406 C 479.359375 291.644531 478.582031 293.007812 477.804688 294.375 C 476.625 296.472656 476.609375 296.480469 474.632812 295.25 C 471.355469 293.214844 467.980469 291.367188 464.515625 289.679688 C 463.351562 289.121094 461.949219 289.101562 460.941406 288.351562 C 459.71875 287.441406 458.34375 286.914062 456.992188 286.28125 C 454.277344 284.996094 451.484375 283.925781 448.667969 282.890625 C 448.203125 282.722656 447.714844 282.570312 447.285156 282.328125 C 446.238281 281.75 445.945312 281.105469 446.355469 280.027344 C 448.042969 275.558594 449.730469 271.085938 451.5 266.652344 C 453.527344 261.566406 456.082031 256.730469 458.617188 251.886719 C 464.71875 240.195312 471.417969 228.875 478.734375 217.898438 C 484.28125 209.574219 490.566406 201.820312 497.007812 194.191406 C 501.902344 188.390625 507.324219 183.15625 513.425781 178.613281 C 517.480469 175.589844 522.035156 174.007812 526.964844 173.152344 C 533.921875 171.949219 539.808594 174.167969 545.355469 178.203125 C 550.207031 181.726562 552.0625 186.492188 552.152344 191.523438 Z M 552.152344 191.523438 " fill-opacity="1" fill-rule="nonzero"/><path fill="#f99785" d="M 283.859375 167.898438 C 288.933594 167.71875 293.703125 169.941406 298.238281 172.742188 C 303.964844 176.265625 308.65625 180.886719 312.496094 186.410156 C 316.480469 192.148438 320.675781 197.726562 324.222656 203.773438 C 330.359375 214.257812 335.699219 225.097656 339.996094 236.476562 C 343.871094 246.726562 347.339844 257.121094 350.6875 267.554688 C 352.160156 272.15625 353.679688 276.761719 355.539062 281.230469 C 356.261719 282.972656 356.109375 283.335938 354.3125 284.113281 C 347.050781 287.238281 340.03125 290.839844 333.039062 294.507812 C 332.664062 294.703125 332.277344 294.910156 331.902344 295.113281 C 331 295.605469 330.429688 295.277344 330.039062 294.402344 C 326.742188 287.011719 322.042969 280.4375 317.855469 273.574219 C 313.46875 266.394531 308.832031 259.363281 303.472656 252.859375 C 301.042969 249.914062 298.625 246.941406 295.910156 244.230469 C 293.960938 242.285156 292.148438 240.152344 290.585938 237.886719 C 288.183594 234.421875 285.332031 231.335938 282.742188 228.042969 C 278.734375 222.941406 274.625 217.925781 270.863281 212.632812 C 269.21875 210.316406 267.613281 207.914062 266.34375 205.425781 C 264.976562 202.75 264.136719 199.742188 263.699219 196.679688 C 263.199219 193.210938 263.128906 189.722656 263.238281 186.222656 C 263.308594 183.929688 263.761719 181.65625 264.53125 179.558594 C 265.460938 177.023438 267.113281 174.804688 269.238281 173.054688 C 273.339844 169.671875 278.054688 167.878906 283.859375 167.898438 Z M 283.859375 167.898438 " fill-opacity="1" fill-rule="nonzero"/><path fill="#f99785" d="M 317.515625 396.714844 C 326.5 396.867188 335.246094 398.324219 343.515625 401.972656 C 348.195312 404.035156 352.394531 406.816406 355.6875 410.824219 C 361.585938 417.980469 361.433594 427.167969 354.5 434.175781 C 351.484375 437.226562 347.964844 439.652344 343.996094 441.382812 C 338.34375 443.855469 332.386719 445.238281 326.285156 445.925781 C 320.535156 446.566406 314.765625 446.59375 309.011719 445.746094 C 306.769531 445.417969 304.429688 445.433594 302.277344 444.820312 C 299.667969 444.070312 297.0625 443.257812 294.515625 442.257812 C 290.78125 440.792969 287.300781 438.9375 284.144531 436.53125 C 280.164062 433.476562 277.019531 429.75 275.875 424.671875 C 275.1875 421.601562 275.5 418.523438 276.332031 415.578125 C 276.757812 414.070312 277.949219 412.769531 278.824219 411.394531 C 281.582031 407.023438 285.898438 404.605469 290.316406 402.363281 C 294.800781 400.097656 299.632812 398.707031 304.527344 397.8125 C 308.789062 397.039062 313.148438 396.671875 317.515625 396.726562 Z M 317.515625 396.714844 " fill-opacity="1" fill-rule="nonzero"/><path fill="#f99785" d="M 492.132812 396.726562 C 500.582031 396.949219 508.871094 398.039062 516.71875 401.410156 C 521.410156 403.425781 525.707031 406.039062 529.136719 409.914062 C 532.234375 413.429688 533.949219 417.496094 533.65625 422.21875 C 533.378906 426.589844 531.457031 430.285156 528.4375 433.414062 C 524.507812 437.492188 519.785156 440.304688 514.488281 442.257812 C 508.289062 444.550781 501.894531 445.730469 495.300781 446.183594 C 487.09375 446.746094 479.089844 445.863281 471.238281 443.507812 C 466.433594 442.070312 461.914062 440.027344 457.859375 437.003906 C 453.6875 433.898438 450.707031 430.035156 449.507812 424.902344 C 448.945312 422.484375 449.179688 420.101562 449.785156 417.71875 C 450.652344 414.339844 452.609375 411.679688 454.921875 409.136719 C 457.199219 406.628906 460.199219 405.15625 462.808594 403.132812 C 464.003906 402.203125 465.558594 402.035156 466.917969 401.429688 C 473.105469 398.6875 479.636719 397.484375 486.351562 397.027344 C 488.273438 396.894531 490.183594 396.65625 492.121094 396.726562 Z M 492.132812 396.726562 " fill-opacity="1" fill-rule="nonzero"/><path fill="#5f3630" d="M 460.496094 571.429688 C 456.878906 567.984375 453.679688 564.203125 451.269531 559.804688 C 449.480469 556.539062 448.007812 553.164062 447.929688 549.363281 C 447.890625 547.777344 448.035156 547.652344 449.75 546.980469 C 451.527344 547.570312 451.160156 549.203125 451.484375 550.507812 C 451.359375 551.390625 451.785156 552.167969 451.945312 552.996094 C 452.257812 554.628906 453.199219 555.359375 454.921875 555.734375 C 457.324219 556.261719 459.886719 556.171875 462.136719 557.378906 C 462.566406 558.152344 462.898438 558.964844 462.226562 559.757812 C 461.566406 560.535156 460.773438 560.3125 459.878906 560.097656 C 458.441406 559.75 456.949219 559.617188 455.511719 559.394531 C 455.136719 560.089844 455.652344 560.410156 455.894531 560.785156 C 458.546875 564.917969 461.914062 568.371094 465.960938 571.164062 C 469.058594 573.296875 472.402344 574.828125 476.160156 575.320312 C 477.3125 575.472656 478.4375 575.632812 478.929688 576.945312 C 479.179688 577.597656 479.886719 577.488281 480.402344 577.640625 C 495.210938 581.878906 505.171875 591.496094 511.308594 605.378906 C 511.738281 606.34375 511.863281 607.433594 512.441406 608.34375 C 513.601562 612.019531 514.613281 615.738281 515.121094 619.566406 C 515.292969 620.878906 515.648438 622.253906 514.398438 623.296875 C 512.371094 623.164062 512.101562 622.894531 511.84375 620.726562 C 510.90625 612.804688 508.40625 605.433594 503.929688 598.804688 C 497.382812 589.097656 488.503906 582.644531 476.902344 580.363281 C 465.640625 578.148438 455.152344 580.441406 445.605469 586.652344 C 433.582031 594.476562 426.394531 605.71875 423.179688 619.585938 C 421.828125 625.394531 421.464844 631.292969 422.195312 637.234375 C 422.25 637.664062 422.277344 638.089844 422.292969 638.519531 C 422.339844 639.554688 421.757812 640.117188 420.820312 640.3125 C 420.015625 640.480469 419.140625 639.859375 418.980469 638.894531 C 418.746094 637.492188 418.578125 636.054688 418.542969 634.636719 C 418.078125 613.625 425.714844 596.539062 443.113281 584.226562 C 444.558594 583.199219 446.097656 582.316406 447.589844 581.371094 L 447.550781 581.398438 C 447.929688 581.398438 448.277344 581.335938 448.445312 580.941406 L 448.402344 580.96875 C 448.765625 580.949219 449.125 580.925781 449.292969 580.511719 L 449.265625 580.539062 C 449.945312 580.574219 450.480469 580.175781 451.0625 579.925781 C 454.527344 578.417969 458.136719 577.410156 461.851562 576.765625 C 463.539062 576.472656 465.253906 576.328125 466.953125 576.125 C 464.664062 574.605469 462.664062 572.910156 460.503906 571.457031 Z M 460.496094 571.429688 " fill-opacity="1" fill-rule="nonzero"/><path fill="#5f3630" d="M 405.339844 408.910156 C 404.285156 410.714844 403.339844 412.453125 401.882812 413.855469 C 397.589844 418.003906 392.550781 419.429688 386.746094 418.039062 C 383.171875 417.183594 380.402344 415.113281 378.117188 412.300781 C 378.027344 412.195312 377.9375 412.078125 377.859375 411.960938 C 376.820312 410.480469 376.785156 409.4375 377.757812 408.777344 C 378.644531 408.179688 379.476562 408.5 380.546875 409.910156 C 383.28125 413.507812 386.878906 415.46875 391.417969 415.09375 C 397.515625 414.59375 401.964844 410.730469 402.921875 404.449219 C 403.179688 402.726562 403.074219 402.703125 401.582031 401.808594 C 400.25 401.007812 398.867188 400.238281 397.6875 399.25 C 395.507812 397.410156 394.050781 394.992188 393.605469 392.191406 C 393.230469 389.800781 393.640625 388.621094 396.050781 387.925781 C 400.589844 386.613281 405.25 385.953125 409.996094 386.871094 C 410.269531 386.925781 410.546875 387.015625 410.816406 387.105469 C 413.648438 388.09375 414.703125 390.234375 413.960938 393.171875 C 413.136719 396.4375 411.136719 398.882812 408.628906 400.90625 C 407.886719 401.503906 407.679688 401.996094 407.664062 402.808594 C 407.484375 409.730469 413.65625 416.191406 421.667969 415.03125 C 424.964844 414.550781 427.742188 412.953125 429.832031 410.285156 C 430.089844 409.945312 430.304688 409.570312 430.589844 409.257812 C 431.226562 408.5625 431.976562 408.234375 432.867188 408.777344 C 433.679688 409.277344 433.832031 410.179688 433.28125 411.230469 C 433.082031 411.605469 432.816406 411.953125 432.554688 412.292969 C 427.5625 418.726562 418.800781 420.464844 411.65625 416.261719 C 409.332031 414.898438 407.679688 413.148438 406.441406 410.875 C 406.101562 410.25 405.742188 409.632812 405.339844 408.921875 Z M 405.339844 408.910156 " fill-opacity="1" fill-rule="nonzero"/><path fill="#5f3630" d="M 367.058594 377.578125 C 367.015625 383.824219 362.246094 389.898438 354.796875 389.683594 C 347.160156 389.460938 342.773438 384.777344 342.710938 377.433594 C 342.65625 370.589844 347.695312 365.511719 354.886719 365.371094 C 360.234375 365.265625 366.941406 369.457031 367.058594 377.578125 Z M 367.058594 377.578125 " fill-opacity="1" fill-rule="nonzero"/><path fill="#5f3630" d="M 452.445312 366.261719 C 459.191406 366.277344 464.808594 371.839844 464.566406 378.53125 C 464.308594 385.507812 459.226562 390.46875 452.410156 390.585938 C 446.292969 390.691406 440.175781 385.6875 440.113281 378.371094 C 440.039062 371.078125 446.882812 365.769531 452.457031 366.261719 Z M 452.445312 366.261719 " fill-opacity="1" fill-rule="nonzero"/><path fill="#5f3630" d="M 458.421875 531.179688 C 458.511719 530.367188 458.761719 529.644531 459.621094 529.332031 C 459.816406 529.261719 460.074219 529.207031 460.191406 529.0625 C 462.960938 525.496094 467.148438 525.148438 471.085938 524.449219 C 479.136719 523.03125 487.101562 524.023438 495 525.824219 C 495.625 525.96875 496.25 526.066406 496.875 526.191406 C 498.027344 526.726562 499.230469 527.082031 500.429688 527.484375 C 505.152344 529.089844 509.546875 531.292969 513.246094 534.703125 C 513.613281 535.042969 513.976562 535.382812 514.300781 535.765625 C 515.042969 536.65625 515.085938 537.628906 514.460938 538.246094 C 513.816406 538.878906 512.914062 538.816406 511.960938 538.074219 C 511.90625 538.03125 511.851562 537.988281 511.800781 537.933594 C 507.539062 533.660156 502.207031 531.339844 496.527344 529.734375 C 489.414062 527.726562 482.15625 526.796875 474.75 527.359375 C 471.695312 527.589844 468.703125 528.152344 465.640625 529.296875 C 466.335938 529.582031 466.890625 529.742188 467.382812 530.019531 C 468.140625 530.445312 468.496094 531.117188 468.230469 531.992188 C 467.988281 532.785156 467.34375 533.175781 466.585938 533.050781 C 464.398438 532.675781 462.199219 532.597656 459.996094 532.488281 C 459.199219 532.453125 458.789062 531.8125 458.429688 531.179688 Z M 458.421875 531.179688 " fill-opacity="1" fill-rule="nonzero"/><path fill="#eba837" d="M 433.378906 483.71875 C 435.414062 486.726562 437.363281 489.777344 438.960938 493.050781 C 440.433594 496.074219 441.542969 499.21875 442.542969 502.410156 C 442.945312 503.6875 442.640625 504.535156 441.71875 504.9375 C 440.816406 505.328125 439.90625 504.925781 439.378906 503.679688 C 438.746094 502.179688 438.289062 500.601562 437.746094 499.066406 C 435.960938 494.058594 433.429688 489.464844 430.101562 485.324219 C 429.0625 484.039062 428.277344 482.773438 429.152344 481.105469 C 430.511719 481.058594 431.582031 481.542969 432.359375 482.691406 C 432.628906 483.085938 433.039062 483.378906 433.386719 483.71875 Z M 433.378906 483.71875 " fill-opacity="1" fill-rule="nonzero"/><path fill="#eba837" d="M 318.167969 492.714844 C 318.523438 492.707031 318.882812 492.652344 319.238281 492.6875 C 320.917969 492.882812 321.472656 493.902344 320.640625 495.347656 C 320.042969 496.390625 319.273438 497.347656 318.710938 498.417969 C 316.753906 502.15625 315.503906 506.152344 314.71875 510.292969 C 314.613281 510.847656 314.515625 511.417969 314.328125 511.941406 C 313.933594 513.078125 313.253906 513.46875 312.253906 513.203125 C 311.308594 512.953125 310.753906 512.121094 310.976562 511.058594 C 312.15625 505.484375 313.539062 499.96875 316.683594 495.089844 C 316.792969 494.917969 316.828125 494.6875 316.890625 494.492188 C 317.265625 494.277344 317.292969 493.882812 317.382812 493.527344 C 317.496094 493.402344 317.605469 493.269531 317.71875 493.132812 C 317.757812 492.992188 317.792969 492.859375 317.828125 492.714844 C 317.945312 492.722656 318.058594 492.714844 318.167969 492.695312 Z M 318.167969 492.714844 " fill-opacity="1" fill-rule="nonzero"/><path fill="#5f3630" d="M 460.78125 539.824219 C 461.96875 541.902344 461.523438 542.859375 459.234375 543.035156 C 457.484375 543.179688 455.726562 543.160156 453.984375 543.5 C 451.617188 543.964844 450.910156 543.027344 451.714844 540.664062 C 454.671875 539.636719 457.707031 539.566406 460.78125 539.816406 Z M 460.78125 539.824219 " fill-opacity="1" fill-rule="nonzero"/><path fill="#f99785" d="M 460.78125 539.824219 C 457.707031 539.574219 454.664062 539.644531 451.714844 540.671875 C 451.484375 540.484375 451.242188 540.304688 451.007812 540.117188 C 451.402344 539.316406 451.457031 538.289062 452.484375 537.914062 C 454.726562 537.671875 456.964844 537.34375 459.21875 537.199219 C 461.191406 537.074219 461.609375 537.878906 460.78125 539.832031 Z M 460.78125 539.824219 " fill-opacity="1" fill-rule="nonzero"/><path fill="#f99785" d="M 462.128906 557.375 C 459.878906 556.171875 457.316406 556.261719 454.914062 555.734375 C 453.1875 555.359375 452.257812 554.628906 451.9375 552.996094 C 451.777344 552.164062 451.347656 551.390625 451.472656 550.503906 C 453.949219 552.960938 457.019531 554.371094 460.246094 555.519531 C 461.183594 555.859375 462.253906 556.003906 462.128906 557.386719 Z M 462.128906 557.375 " fill-opacity="1" fill-rule="nonzero"/><path fill="#fcf9f5" d="M 259.046875 539.34375 C 259.957031 538.550781 259.90625 537.355469 260.316406 536.355469 C 261.511719 536.097656 262.023438 535.214844 262.441406 534.179688 C 263.753906 530.984375 265.640625 528.148438 267.90625 525.542969 C 273.3125 519.339844 279.992188 515.636719 288.308594 515.246094 C 291.21875 515.113281 294.148438 515.191406 296.863281 516.546875 C 294.953125 517.753906 293.835938 519.644531 292.683594 521.480469 C 291.691406 523.070312 292.140625 523.890625 294.121094 524.375 C 295.578125 525.917969 296.132812 525.933594 297.578125 524.488281 C 298.6875 523.382812 299.492188 522.007812 300.730469 521.019531 C 302.382812 519.707031 303.761719 519.679688 305.3125 521.054688 C 308.734375 524.070312 311.332031 527.664062 312.808594 532.011719 C 310.941406 534.707031 310.183594 537.953125 308.421875 540.726562 C 307.726562 541.835938 308.316406 542.65625 309.734375 543.109375 C 311.558594 543.90625 311.871094 543.832031 312.996094 542.421875 C 313.449219 541.851562 313.746094 541.121094 314.46875 540.710938 C 314.585938 540.996094 314.683594 541.113281 314.683594 541.238281 C 314.835938 552.371094 310.636719 561.480469 301.910156 568.460938 C 301.464844 568.816406 300.980469 569.148438 300.625 569.566406 C 300.125 570.164062 300.035156 570.859375 300.527344 571.539062 C 301.0625 572.261719 301.777344 572.492188 302.589844 572.101562 C 303.222656 571.796875 303.8125 571.394531 304.429688 571.03125 C 303.929688 572.625 302.582031 573.492188 301.402344 574.472656 C 300.632812 575.117188 299.917969 575.792969 299.257812 576.535156 C 298.902344 576.9375 298.730469 577.363281 298.855469 577.898438 C 298.847656 578.542969 298.453125 578.890625 297.945312 579.238281 C 295.371094 581.003906 292.480469 582.03125 289.46875 582.585938 C 279.722656 584.378906 271.585938 581.238281 265.164062 573.910156 C 261.066406 569.234375 258.539062 563.722656 257.628906 557.457031 C 257.332031 555.414062 257.691406 553.316406 256.9375 551.347656 C 257.519531 547.375 257.046875 543.234375 258.886719 539.480469 C 258.914062 539.417969 258.992188 539.390625 259.046875 539.34375 Z M 259.046875 539.34375 " fill-opacity="1" fill-rule="nonzero"/><path fill="#5f3630" d="M 316.585938 586.589844 C 317.882812 585.847656 319.148438 585.0625 320.480469 584.382812 C 336.359375 576.292969 352.027344 577.003906 367.453125 585.632812 C 372.152344 588.257812 376.230469 591.699219 379.832031 595.707031 C 380.351562 596.285156 380.914062 596.832031 381.449219 597.394531 C 381.984375 598.144531 382.519531 598.902344 383.074219 599.652344 C 391.246094 610.785156 394.945312 623.234375 394.035156 637.035156 C 393.996094 637.535156 393.980469 638.042969 393.835938 638.515625 C 393.550781 639.453125 392.710938 640.023438 391.917969 639.855469 C 391.042969 639.667969 390.53125 639.097656 390.503906 638.207031 C 390.480469 637.277344 390.566406 636.347656 390.59375 635.429688 C 391.128906 619.65625 385.808594 606.207031 374.5 595.164062 C 371.9375 592.65625 369.078125 590.515625 365.988281 588.710938 C 364.871094 588.058594 363.851562 586.9375 362.28125 587.558594 C 362.058594 587.648438 361.601562 587.355469 361.34375 587.132812 C 358.28125 584.519531 354.511719 583.644531 350.714844 582.957031 C 336.773438 580.449219 324.367188 583.707031 313.726562 593.15625 C 307.726562 598.492188 303.625 605.109375 301.089844 612.703125 C 300.730469 613.757812 300.328125 614.695312 299.285156 615.21875 C 297.292969 614.738281 297.007812 614.320312 297.523438 612.445312 C 298.285156 609.6875 299.625 607.164062 300.667969 604.511719 C 301.117188 603.800781 301.589844 603.105469 302.007812 602.371094 C 304.742188 597.679688 308.171875 593.566406 312.296875 590.039062 C 313.691406 588.84375 315.15625 587.738281 316.59375 586.597656 Z M 316.585938 586.589844 " fill-opacity="1" fill-rule="nonzero"/><path fill="#fcf9f5" d="M 316.585938 586.589844 C 315.148438 587.730469 313.683594 588.839844 312.289062 590.035156 C 308.164062 593.558594 304.734375 597.671875 302 602.363281 C 301.582031 603.085938 301.105469 603.792969 300.660156 604.507812 C 299.777344 603.765625 300.035156 602.757812 300.257812 601.925781 C 300.5625 600.792969 300.464844 599.671875 300.578125 598.546875 C 300.875 595.796875 300.855469 593.023438 301.339844 590.292969 C 301.597656 588.828125 301.570312 587.320312 301.714844 585.847656 C 301.910156 583.804688 302.464844 581.78125 302.269531 579.710938 C 307.046875 581.996094 311.683594 584.554688 316.578125 586.597656 Z M 316.585938 586.589844 " fill-opacity="1" fill-rule="nonzero"/><path fill="#ffe363" d="M 317.710938 493.152344 C 317.59375 493.285156 317.488281 493.410156 317.371094 493.542969 C 317.328125 493.273438 317.46875 493.167969 317.710938 493.152344 Z M 317.710938 493.152344 " fill-opacity="1" fill-rule="nonzero"/><path fill="#f99785" d="M 336.796875 618.914062 C 345.9375 619.324219 352.671875 623.714844 357.332031 631.457031 C 359.769531 635.507812 361.109375 639.972656 360.886719 644.691406 C 360.503906 652.871094 356.949219 659.199219 349.203125 662.597656 C 344.113281 664.839844 338.871094 664.578125 333.832031 662.410156 C 324.882812 658.558594 319.570312 651.695312 318.121094 642.09375 C 316.855469 633.636719 319.640625 626.640625 326.820312 621.722656 C 329.777344 619.699219 333.164062 618.878906 336.789062 618.921875 Z M 336.796875 618.914062 " fill-opacity="1" fill-rule="nonzero"/><path fill="#f99785" d="M 487.941406 635.839844 C 487.90625 645.65625 485.039062 652.625 478.921875 658.148438 C 475.519531 661.21875 471.464844 663.039062 466.898438 662.984375 C 460.941406 662.921875 456.199219 660.199219 452.992188 655.148438 C 448.382812 647.886719 448.160156 640.117188 450.867188 632.183594 C 452.554688 627.222656 455.484375 623.074219 459.746094 619.90625 C 467.855469 613.875 479.476562 615.3125 485.003906 625.359375 C 486.71875 628.472656 488.050781 632.183594 487.941406 635.839844 Z M 487.941406 635.839844 " fill-opacity="1" fill-rule="nonzero"/><path fill="#eba837" d="M 314.691406 527.363281 C 317.417969 527.316406 320.015625 528.21875 322.714844 528.414062 C 324.695312 528.558594 326.644531 528.984375 328.636719 529.121094 C 331.109375 529.28125 333.574219 529.59375 336.046875 529.84375 C 336.335938 529.871094 336.621094 529.921875 336.898438 529.921875 C 341.605469 529.894531 346.273438 530.511719 350.992188 530.421875 C 357.914062 530.289062 364.84375 530.503906 371.765625 530.324219 C 376.019531 530.207031 380.289062 529.996094 384.539062 529.628906 C 386.941406 529.421875 389.351562 529.183594 391.765625 529.046875 C 394.597656 528.898438 397.425781 528.558594 400.230469 528.15625 C 404.519531 527.539062 408.789062 526.84375 413.050781 526.078125 C 418.792969 525.042969 424.4375 523.589844 430.019531 521.882812 C 434.859375 520.410156 439.710938 518.964844 444.210938 516.601562 C 449.839844 513.648438 455.164062 510.230469 460.039062 506.136719 C 463.488281 503.246094 466.855469 500.28125 469.292969 496.4375 C 469.785156 495.660156 470.222656 494.832031 470.648438 494.019531 C 471.148438 493.074219 471.964844 492.957031 472.839844 493.242188 C 473.679688 493.519531 473.679688 494.296875 473.667969 495.027344 C 473.652344 495.777344 473.265625 496.375 472.9375 497.007812 C 470.375 501.835938 466.417969 505.429688 462.273438 508.832031 C 457.082031 513.09375 451.445312 516.707031 445.453125 519.734375 C 443.042969 520.957031 440.578125 522.117188 438.03125 523.007812 C 434.808594 524.140625 431.628906 525.382812 428.332031 526.335938 C 425.855469 527.050781 423.292969 527.128906 420.8125 527.773438 C 415.996094 529.011719 411.101562 529.914062 406.179688 530.628906 C 403.449219 531.019531 400.714844 531.484375 397.945312 531.707031 C 394.410156 532.003906 390.898438 532.527344 387.371094 532.867188 C 385.039062 533.089844 382.691406 533.152344 380.351562 533.3125 C 369.738281 534.027344 359.109375 533.832031 348.480469 533.804688 C 343.925781 533.796875 339.398438 533.296875 334.851562 533.046875 C 331.226562 532.851562 327.644531 532.332031 324.027344 532.039062 C 321.410156 531.832031 318.835938 531.199219 316.203125 531.117188 C 315.691406 529.871094 315.183594 528.613281 314.675781 527.363281 Z M 314.691406 527.363281 " fill-opacity="1" fill-rule="nonzero"/><path fill="#5f3630" d="M 314.691406 527.359375 C 315.203125 528.609375 315.710938 529.867188 316.21875 531.117188 C 318.78125 538.871094 318.765625 546.617188 316.085938 554.34375 C 314.183594 559.804688 311.191406 564.574219 307.019531 568.601562 C 306.402344 569.1875 305.789062 569.777344 305.179688 570.367188 L 304.867188 570.652344 L 304.894531 570.632812 C 304.644531 570.6875 304.484375 570.824219 304.421875 571.074219 L 304.449219 571.035156 C 303.839844 571.394531 303.242188 571.792969 302.609375 572.105469 C 301.785156 572.5 301.070312 572.277344 300.542969 571.546875 C 300.054688 570.875 300.140625 570.171875 300.644531 569.574219 C 301 569.144531 301.480469 568.8125 301.929688 568.464844 C 310.65625 561.488281 314.851562 552.386719 314.703125 541.242188 C 314.703125 541.117188 314.601562 541.003906 314.488281 540.71875 C 313.761719 541.117188 313.46875 541.859375 313.011719 542.429688 C 311.886719 543.839844 311.574219 543.910156 309.753906 543.117188 C 309.414062 542.089844 309.683594 541.207031 310.316406 540.351562 C 311.234375 539.101562 312.074219 537.808594 312.789062 536.417969 C 313.566406 534.90625 313.699219 533.488281 312.816406 532.015625 C 311.34375 527.664062 308.742188 524.078125 305.324219 521.058594 C 303.761719 519.6875 302.382812 519.703125 300.742188 521.023438 C 299.5 522.007812 298.695312 523.390625 297.589844 524.496094 C 296.148438 525.941406 295.585938 525.914062 294.132812 524.378906 C 294.105469 523.460938 294.578125 522.78125 295.167969 522.140625 C 295.890625 521.363281 296.570312 520.542969 297.230469 519.714844 C 297.863281 518.917969 298.882812 518.4375 299.328125 517.449219 C 298.515625 516.867188 297.738281 516.554688 296.863281 516.5625 C 294.160156 515.207031 291.21875 515.125 288.308594 515.261719 C 279.992188 515.652344 273.3125 519.347656 267.90625 525.558594 C 265.640625 528.164062 263.753906 531 262.441406 534.195312 C 262.011719 535.230469 261.503906 536.121094 260.316406 536.371094 C 258.679688 535.292969 258.476562 534.898438 259.144531 533.273438 C 264.898438 519.238281 278.5625 510.515625 292.183594 511.976562 C 301.445312 512.96875 308.46875 517.589844 313.425781 525.425781 C 313.84375 526.085938 314.273438 526.734375 314.691406 527.386719 Z M 314.691406 527.359375 " fill-opacity="1" fill-rule="nonzero"/><path fill="#fcf9f5" d="M 460.496094 571.429688 C 462.65625 572.882812 464.65625 574.578125 466.945312 576.09375 C 465.246094 576.308594 463.53125 576.453125 461.84375 576.738281 C 458.128906 577.378906 454.519531 578.386719 451.054688 579.894531 C 450.480469 580.144531 449.9375 580.546875 449.257812 580.511719 C 449.582031 579.246094 450.554688 578.558594 451.554688 577.878906 C 454.589844 575.808594 457.65625 573.765625 460.496094 571.429688 Z M 460.496094 571.429688 " fill-opacity="1" fill-rule="nonzero"/><path fill="#fcf9f5" d="M 449.277344 580.496094 C 449.105469 580.90625 448.75 580.933594 448.382812 580.949219 C 448.554688 580.539062 448.910156 580.511719 449.277344 580.496094 Z M 449.277344 580.496094 " fill-opacity="1" fill-rule="nonzero"/><path fill="#fcf9f5" d="M 448.429688 580.914062 C 448.25 581.304688 447.910156 581.367188 447.535156 581.367188 C 447.675781 580.914062 448.078125 580.964844 448.429688 580.914062 Z M 448.429688 580.914062 " fill-opacity="1" fill-rule="nonzero"/><path fill="#fcf9f5" d="M 304.851562 570.65625 L 305.164062 570.371094 Z M 304.851562 570.65625 " fill-opacity="1" fill-rule="nonzero"/><path fill="#fcf9f5" d="M 304.402344 571.070312 C 304.464844 570.820312 304.625 570.679688 304.875 570.632812 Z M 304.402344 571.070312 " fill-opacity="1" fill-rule="nonzero"/><path fill="#f99785" d="M 296.875 516.546875 C 297.757812 516.539062 298.527344 516.851562 299.339844 517.429688 C 298.890625 518.429688 297.875 518.902344 297.238281 519.695312 C 296.578125 520.527344 295.890625 521.347656 295.175781 522.121094 C 294.578125 522.765625 294.105469 523.445312 294.140625 524.363281 C 292.15625 523.878906 291.703125 523.058594 292.703125 521.472656 C 293.855469 519.632812 294.972656 517.742188 296.882812 516.539062 Z M 296.875 516.546875 " fill-opacity="1" fill-rule="nonzero"/><path fill="#f99785" d="M 312.808594 532.019531 C 313.691406 533.492188 313.558594 534.910156 312.78125 536.417969 C 312.066406 537.808594 311.21875 539.105469 310.308594 540.351562 C 309.671875 541.21875 309.40625 542.09375 309.742188 543.117188 C 308.324219 542.65625 307.734375 541.832031 308.429688 540.738281 C 310.183594 537.96875 310.949219 534.722656 312.816406 532.019531 Z M 312.808594 532.019531 " fill-opacity="1" fill-rule="nonzero"/></svg>