<?xml version="1.0" standalone="no"?><!DOCTYPE svg PUBLIC "-//W3C//DTD SVG 1.1//EN" "http://www.w3.org/Graphics/SVG/1.1/DTD/svg11.dtd"><svg t="1676300373133" class="icon" viewBox="0 0 1024 1024" version="1.1" xmlns="http://www.w3.org/2000/svg" p-id="10618" xmlns:xlink="http://www.w3.org/1999/xlink" width="200" height="200"><path d="M558.056748 908.762135c-57.469605 1.023957-99.409191-17.44994-101.969085-67.666514-0.938628-18.857881-0.639973-38.910379 0.298654-51.027207 5.546436-73.383609 56.872297-126.160077 107.51552-136.31432 63.016041-12.628807 104.955627 16.212658 104.955627 98.683888 0 55.720345-15.44469 154.660222-110.800716 156.324153zM509.632099 0C227.531853 0 0 226.422566 0 522.55956c0 153.50827 82.129911 301.854089 197.623766 390.981042 22.228407 17.151285 48.723303 15.615349 63.912003 0.853298 12.799467-12.372818 11.732844-42.23824-12.074163-63.144035-92.32682-81.191284-156.153494-204.108829-156.153494-326.855715 0-220.534811 195.789175-406.041748 416.323987-406.041748 268.447481 0 412.014833 218.017583 412.014832 402.756552 0 112.933961-55.208366 249.248281-154.873547 336.199325 0.127995-0.383984 20.692471-40.787634 20.692472-119.461689 0-134.010416-84.903129-206.583392-183.416358-206.583393-71.250365 0-114.000583 25.470939-143.055373 49.235282 0-54.568393 1.83459-156.494813 1.83459-156.494812 0-67.239865-23.551019-121.082955-105.680929-122.277572-47.571351-0.682638-82.812549 21.11912-104.827633 70.397067-7.935669 18.516562-5.034457 38.611725 10.666223 47.699345 12.970126 7.50902 34.302571 1.91992 44.840798-12.159493 7.039707-8.788967 11.007541-10.666222 17.10862-9.983584 10.111579 1.066622 10.495563 17.321945 10.879547 27.732178 0.298654 7.978334 8.106329 123.941502 3.83984 421.955752C339.612516 929.539936 404.036498 1023.957335 558.483397 1023.957335c66.429232 0 117.456439-18.559227 191.608016-60.712137C862.940044 899.162535 1023.957335 756.917795 1023.957335 516.373151 1023.957335 215.799008 780.554144 0 509.632099 0z" fill="#EE6123" p-id="10619"></path></svg>