<?xml version="1.0" standalone="no"?><!DOCTYPE svg PUBLIC "-//W3C//DTD SVG 1.1//EN" "http://www.w3.org/Graphics/SVG/1.1/DTD/svg11.dtd"><svg t="1676300384261" class="icon" viewBox="0 0 1024 1024" version="1.1" xmlns="http://www.w3.org/2000/svg" p-id="11234" xmlns:xlink="http://www.w3.org/1999/xlink" width="200" height="200"><path d="M521.824427 42.666667h-2.517334l-17.621333 0.170666c-22.698667 0-68.181333 3.157333-117.034667 24.149334a261.418667 261.418667 0 0 0-74.666666 48.298666 272.512 272.512 0 0 0-62.421334 87.466667c-22.869333 50.005333-17.450667 134.272-13.098666 201.984v0.085333l1.450666 22.186667a40.96 40.96 0 0 1-16.853333 3.114667c-12.885333 0-28.245333-4.010667-45.610667-11.946667a41.685333 41.685333 0 0 0-17.365333-3.498667c-10.325333 0-21.205333 2.986667-30.634667 8.405334-11.904 6.784-19.584 16.384-21.674666 27.050666-1.365333 7.082667-1.28 20.992 14.592 35.157334 8.704 7.765333 21.546667 14.933333 38.101333 21.333333 4.352 1.664 9.514667 3.242667 14.976 4.949333 18.986667 5.888 47.658667 14.762667 55.168 31.914667 3.797333 8.704 2.133333 20.181333-4.864 34.005333l-0.512 1.152a328.405333 328.405333 0 0 1-51.541333 77.994667c-19.029333 21.632-39.978667 39.68-62.208 53.717333a232.32 232.32 0 0 1-87.381334 33.28 23.509333 23.509333 0 0 0-20.053333 24.32c0.213333 3.456 1.024 6.912 2.474667 10.24 4.906667 11.178667 16.256 20.650667 34.688 29.013334 22.528 10.24 56.234667 18.773333 100.138666 25.514666 2.218667 4.096 4.522667 14.421333 6.101334 21.504 1.706667 7.552 3.413333 15.274667 5.888 23.466667 2.688 8.96 9.642667 19.584 27.477333 19.584 6.741333 0 14.506667-1.493333 23.552-3.2 13.184-2.56 31.189333-5.973333 53.717333-5.973333 12.458667 0 25.386667 1.066667 38.4 3.2 25.130667 4.053333 46.762667 18.944 71.765334 36.224 36.650667 25.216 78.08 53.802667 141.44 53.802666 1.706667 0 3.498667-0.042667 5.205333-0.170666 2.090667 0.085333 4.693333 0.170667 7.424 0.170666 63.36 0 104.832-28.586667 141.397333-53.802666l0.085334-0.042667c25.002667-17.237333 46.634667-32.128 71.68-36.181333 13.056-2.133333 25.984-3.2 38.442666-3.2 21.504 0 38.528 2.688 53.76 5.546666 9.898667 1.92 17.578667 2.858667 23.509334 2.858667h1.194666c13.056 0 22.613333-6.997333 26.282667-19.2 2.432-8.064 4.181333-15.616 5.888-23.253333 1.493333-6.656 3.84-17.28 6.101333-21.418667 43.946667-6.741333 77.610667-15.317333 100.138667-25.514667 18.389333-8.32 29.696-17.749333 34.645333-28.885333A29.312 29.312 0 0 0 1024.011093 768a23.509333 23.509333 0 0 0-20.096-24.405333c-136.917333-21.973333-198.570667-159.146667-201.130666-164.949334a16.512 16.512 0 0 0-0.512-1.109333c-6.997333-13.866667-8.618667-25.301333-4.821334-34.048 7.466667-17.152 36.138667-26.026667 55.082667-31.872 5.546667-1.706667 10.666667-3.285333 15.018667-4.949333 18.645333-7.210667 32-15.018667 40.832-23.893334 10.496-10.538667 12.544-20.650667 12.416-27.306666-0.298667-16-12.885333-30.250667-32.853334-37.205334a60.117333 60.117333 0 0 0-22.314666-4.181333c-5.333333 0-13.226667 0.725333-20.693334 4.138667-16.042667 7.296-30.378667 11.306667-42.666666 11.861333a39.424 39.424 0 0 1-14.122667-3.029333c0.341333-6.272 0.768-12.672 1.194667-19.370667l0.170666-2.858667c4.394667-67.754667 9.813333-152.106667-13.056-202.154666a272.896 272.896 0 0 0-62.634666-87.68c-21.674667-20.053333-46.933333-36.266667-74.922667-48.298667A304.768 304.768 0 0 0 521.824427 42.666667" fill="#FFFC00" p-id="11235"></path></svg>