<?xml version="1.0" standalone="no"?><!DOCTYPE svg PUBLIC "-//W3C//DTD SVG 1.1//EN" "http://www.w3.org/Graphics/SVG/1.1/DTD/svg11.dtd"><svg t="1676300386614" class="icon" viewBox="0 0 1024 1024" version="1.1" xmlns="http://www.w3.org/2000/svg" p-id="11388" xmlns:xlink="http://www.w3.org/1999/xlink" width="200" height="200"><path d="M0.009813 703.445333c0 13.354667 4.608 23.466667 13.824 30.293334 9.216 6.826667 19.072 9.258667 29.525334 7.253333 9.856-2.005333 16.768-5.674667 20.736-11.008 3.968-5.333333 5.973333-14.208 5.973333-26.538667V558.08a36.736 36.736 0 0 0-10.24-26.325333 33.194667 33.194667 0 0 0-25.045333-10.794667 32.682667 32.682667 0 0 0-24.533334 10.794667 36.736 36.736 0 0 0-10.24 26.325333v145.322667z m109.610667 62.122667c0 9.685333 3.242667 16.938667 9.770667 21.76 6.485333 4.864 14.848 7.296 25.002666 7.296 10.496 0 18.986667-2.432 25.472-7.253333 6.528-4.864 9.813333-12.117333 9.813334-21.802667v-338.773333a36.138667 36.138667 0 0 0-10.24-25.813334 33.194667 33.194667 0 0 0-25.045334-10.752 32.682667 32.682667 0 0 0-24.533333 10.752 36.138667 36.138667 0 0 0-10.24 25.813334v338.773333z m109.098667 16.042667c0 9.685333 3.328 16.938667 10.026666 21.76 6.656 4.864 15.232 7.296 25.728 7.296 10.154667 0 18.474667-2.432 25.002667-7.253334 6.528-4.864 9.770667-12.117333 9.770667-21.802666v-309.205334c0-10.368-3.413333-19.2-10.24-26.538666a32.341333 32.341333 0 0 0-24.533334-11.050667 33.578667 33.578667 0 0 0-25.258666 11.050667 37.162667 37.162667 0 0 0-10.496 26.538666v309.205334z m109.610666 1.493333c0 18.346667 11.733333 27.562667 35.242667 27.562667 23.509333 0 35.285333-9.173333 35.285333-27.562667V281.984c0-28.074667-8.106667-43.946667-24.32-47.616-10.496-2.645333-20.821333 0.512-30.976 9.514667-10.154667 9.045333-15.232 21.76-15.232 38.101333v501.12z m111.488 14.506667V252.458667c0-17.365333 4.906667-27.733333 14.762667-31.061334a268.373333 268.373333 0 0 1 199.168 28.074667 285.696 285.696 0 0 1 101.76 98.474667c25.898667 41.557333 40.874667 87.424 45.013333 137.557333a149.717333 149.717333 0 0 1 61.952-13.056c44.458667 0 82.517333 16.554667 114.133334 49.621333 31.573333 33.066667 47.402667 72.832 47.402666 119.253334 0 46.762667-15.786667 86.698667-47.402666 119.765333-31.616 33.066667-69.504 49.621333-113.664 49.621333l-414.549334-0.512a11.306667 11.306667 0 0 1-6.4-5.504 15.36 15.36 0 0 1-2.133333-6.997333z" fill="#FF4300" p-id="11389"></path></svg>