<svg width="28.000000" height="28.000000" viewBox="0 0 28 28" fill="none" xmlns="http://www.w3.org/2000/svg" xmlns:xlink="http://www.w3.org/1999/xlink">
	<desc>
			Created with Pixso.
	</desc>
	<g id="download-alt 1">
		<g clip-path="url(#clip1_523)">
			<g id="Vector">
				<path d="M9.67166 15.505C9.56232 15.6135 9.47552 15.7425 9.41629 15.8847C9.35706 16.0269 9.32657 16.1793 9.32657 16.3333C9.32657 16.4874 9.35706 16.6399 9.41629 16.782C9.47552 16.9242 9.56232 17.0532 9.67166 17.1617L13.1717 20.6617C13.2801 20.771 13.4091 20.8578 13.5513 20.9171C13.6935 20.9763 13.846 21.0068 14 21.0068C14.154 21.0068 14.3065 20.9763 14.4487 20.9171C14.5909 20.8578 14.7199 20.771 14.8283 20.6617L18.3283 17.1617C18.548 16.942 18.6714 16.644 18.6714 16.3333C18.6714 16.0227 18.548 15.7247 18.3283 15.505C18.1086 15.2853 17.8107 15.1619 17.5 15.1619C17.1893 15.1619 16.8914 15.2853 16.6717 15.505L15.1667 17.0217L15.1667 3.5C15.1667 3.19058 15.0438 2.89386 14.825 2.67505C14.6062 2.45627 14.3094 2.33334 14 2.33334C13.6906 2.33334 13.3938 2.45627 13.175 2.67505C12.9562 2.89386 12.8333 3.19058 12.8333 3.5L12.8333 17.0217L11.3283 15.505C11.2199 15.3957 11.0909 15.3089 10.9487 15.2496C10.8065 15.1904 10.654 15.1599 10.5 15.1599C10.346 15.1599 10.1935 15.1904 10.0513 15.2496C9.90915 15.3089 9.78012 15.3957 9.67166 15.505L9.67166 15.505ZM21 10.5L18.6667 10.5C18.3572 10.5 18.0605 10.6229 17.8417 10.8417C17.6229 11.0605 17.5 11.3573 17.5 11.6667C17.5 11.9761 17.6229 12.2729 17.8417 12.4916C18.0605 12.7104 18.3572 12.8333 18.6667 12.8333L21 12.8333C21.3094 12.8333 21.6062 12.9563 21.825 13.175C22.0438 13.3939 22.1667 13.6906 22.1667 14L22.1667 22.1667C22.1667 22.4761 22.0438 22.7729 21.825 22.9916C21.6062 23.2104 21.3094 23.3333 21 23.3333L7 23.3333C6.69058 23.3333 6.39383 23.2104 6.17505 22.9916C5.95624 22.7729 5.83334 22.4761 5.83334 22.1667L5.83334 14C5.83334 13.6906 5.95624 13.3939 6.17505 13.175C6.39383 12.9563 6.69058 12.8333 7 12.8333L9.33334 12.8333C9.64276 12.8333 9.93951 12.7104 10.1583 12.4916C10.3771 12.2729 10.5 11.9761 10.5 11.6667C10.5 11.3573 10.3771 11.0605 10.1583 10.8417C9.93951 10.6229 9.64276 10.5 9.33334 10.5L7 10.5C6.07175 10.5 5.18152 10.8688 4.52512 11.5251C3.86874 12.1815 3.5 13.0717 3.5 14L3.5 22.1667C3.5 23.0949 3.86874 23.9852 4.52512 24.6415C5.18152 25.2979 6.07175 25.6667 7 25.6667L21 25.6667C21.9283 25.6667 22.8185 25.2979 23.4749 24.6415C24.1313 23.9852 24.5 23.0949 24.5 22.1667L24.5 14C24.5 13.0717 24.1313 12.1815 23.4749 11.5251C22.8185 10.8688 21.9283 10.5 21 10.5Z" fill-rule="nonzero" fill="#000000"/>
			</g>
		</g>
	</g>
	<defs>
		<clipPath id="clip1_523">
			<rect width="28.000000" height="28.000000" fill="white"/>
		</clipPath>
	</defs>
</svg>
