<svg width="80.544891" height="13.921875" viewBox="0 0 80.5449 13.9219" fill="none" xmlns="http://www.w3.org/2000/svg" xmlns:xlink="http://www.w3.org/1999/xlink">
	<desc>
			Created with Pixso.
	</desc>
	<g id="Statistics">
		<path d="M38.5754 1.26123C38.5754 1.95117 37.9777 2.51367 37.2394 2.51367C36.5012 2.51367 35.8991 1.95117 35.8991 1.26123C35.8991 0.5625 36.5012 0 37.2394 0C37.9777 0 38.5754 0.5625 38.5754 1.26123ZM59.9886 1.26123C59.9886 1.95117 59.3909 2.51367 58.6526 2.51367C57.9144 2.51367 57.3123 1.95117 57.3123 1.26123C57.3123 0.5625 57.9144 0 58.6526 0C59.3909 0 59.9886 0.5625 59.9886 1.26123ZM9.87012 4.23193L7.58936 4.23193C7.46631 3.12012 6.53467 2.46094 5.11963 2.46094C3.63867 2.46094 2.75537 3.18164 2.75098 4.16602C2.73779 5.26025 3.89795 5.71289 4.97461 5.97217L6.20068 6.27539C8.16943 6.74561 10.0415 7.77832 10.0503 10.0503C10.0415 12.3574 8.22217 13.9219 5.08447 13.9219C2.03467 13.9219 0.0966797 12.4585 0 9.85693L2.3335 9.85693C2.43018 11.2324 3.58154 11.896 5.0625 11.896C6.60938 11.896 7.67285 11.1489 7.67725 10.0283C7.67285 9.01318 6.73682 8.57373 5.32617 8.21338L3.83643 7.83105C1.68311 7.27295 0.347168 6.19629 0.347168 4.31543C0.338379 1.99951 2.40381 0.452637 5.15479 0.452637C7.94092 0.452637 9.82617 2.02148 9.87012 4.23193ZM15.0201 3.90674L16.958 3.90674L16.958 5.69531L15.0201 5.69531L15.0201 10.771C15.0201 11.7026 15.4903 11.9092 16.0703 11.9092C16.356 11.9092 16.6197 11.8521 16.7471 11.8213L17.1382 13.6274C16.8877 13.7109 16.4351 13.8384 15.7759 13.8604C14.0357 13.9087 12.6953 13.0034 12.7085 11.1533L12.7085 5.69531L11.3155 5.69531L11.3155 3.90674L12.7085 3.90674L12.7085 1.55566L15.0201 1.55566L15.0201 3.90674ZM32.2018 3.90674L34.1397 3.90674L34.1397 5.69531L32.2018 5.69531L32.2018 10.771C32.2018 11.7026 32.672 11.9092 33.252 11.9092C33.5377 11.9092 33.8014 11.8521 33.9288 11.8213L34.3199 13.6274C34.0694 13.7109 33.6168 13.8384 32.9576 13.8604C31.2174 13.9087 29.877 13.0034 29.8902 11.1533L29.8902 5.69531L28.4972 5.69531L28.4972 3.90674L29.8902 3.90674L29.8902 1.55566L32.2018 1.55566L32.2018 3.90674ZM53.615 3.90674L55.5529 3.90674L55.5529 5.69531L53.615 5.69531L53.615 10.771C53.615 11.7026 54.0852 11.9092 54.6653 11.9092C54.9509 11.9092 55.2146 11.8521 55.342 11.8213L55.7331 13.6274C55.4826 13.7109 55.03 13.8384 54.3708 13.8604C52.6306 13.9087 51.2903 13.0034 51.3034 11.1533L51.3034 5.69531L49.9104 5.69531L49.9104 3.90674L51.3034 3.90674L51.3034 1.55566L53.615 1.55566L53.615 3.90674ZM24.6017 12.375C24.1798 13.2012 23.2614 13.9219 21.7189 13.9219C19.8468 13.9219 18.4362 12.8979 18.4362 10.9688C18.4362 8.7583 20.2555 8.18701 22.1627 7.98486C23.8942 7.80029 24.5929 7.76514 24.5929 7.10156L24.5929 7.06201C24.5929 6.09961 24.004 5.55029 22.9274 5.55029C21.798 5.55029 21.1476 6.12598 20.9147 6.79395L18.757 6.48633C19.2667 4.69775 20.8531 3.7793 22.9142 3.7793C24.7906 3.7793 26.9044 4.55713 26.9044 7.1543L26.9044 13.7241L24.6808 13.7241L24.6808 12.375L24.6017 12.375ZM44.5767 3.7793C46.8794 3.7793 48.2109 4.83838 48.5273 6.49951L46.418 6.73242C46.2422 6.08643 45.6797 5.50195 44.6118 5.50195C43.645 5.50195 42.9111 5.96338 42.9155 6.62695C42.9111 7.19824 43.3066 7.54102 44.3042 7.76514L45.9785 8.12549C47.833 8.52539 48.7339 9.38232 48.7383 10.7842C48.7339 12.6431 47.0024 13.9175 44.5459 13.9175C42.1377 13.9175 40.6216 12.8496 40.3359 11.0479L42.5903 10.8281C42.7881 11.7114 43.478 12.1729 44.5415 12.1729C45.6401 12.1729 46.3696 11.6675 46.3696 10.9951C46.3696 10.437 45.9478 10.0723 45.0469 9.87451L43.3726 9.52295C41.4829 9.13623 40.604 8.18701 40.6084 6.75879C40.604 4.93945 42.2124 3.7793 44.5767 3.7793ZM70.67 10.3667C70.5031 12.4541 68.9342 13.9175 66.4645 13.9175C63.5289 13.9175 61.7623 11.8257 61.7623 8.85498C61.7623 5.85352 63.5773 3.7793 66.4513 3.7793C68.8507 3.7793 70.5118 5.17676 70.67 7.30811L68.4596 7.30811C68.2794 6.35889 67.5983 5.64258 66.4821 5.64258C65.0582 5.64258 64.1046 6.8335 64.1046 8.81543C64.1046 10.8237 65.0406 12.0322 66.4821 12.0322C67.5016 12.0322 68.2618 11.4214 68.4596 10.3667L70.67 10.3667ZM76.3833 3.7793C78.686 3.7793 80.0175 4.83838 80.334 6.49951L78.2246 6.73242C78.0488 6.08643 77.4863 5.50195 76.4184 5.50195C75.4516 5.50195 74.7177 5.96338 74.7221 6.62695C74.7177 7.19824 75.1133 7.54102 76.1108 7.76514L77.7851 8.12549C79.6396 8.52539 80.5405 9.38232 80.5449 10.7842C80.5405 12.6431 78.8091 13.9175 76.3525 13.9175C73.9443 13.9175 72.4282 12.8496 72.1425 11.0479L74.3969 10.8281C74.5947 11.7114 75.2846 12.1729 76.3481 12.1729C77.4467 12.1729 78.1762 11.6675 78.1762 10.9951C78.1762 10.437 77.7544 10.0723 76.8535 9.87451L75.1792 9.52295C73.2895 9.13623 72.4106 8.18701 72.415 6.75879C72.4106 4.93945 74.019 3.7793 76.3833 3.7793ZM38.3908 13.7241L36.0793 13.7241L36.0793 3.90674L38.3908 3.90674L38.3908 13.7241ZM59.804 13.7241L57.4925 13.7241L57.4925 3.90674L59.804 3.90674L59.804 13.7241ZM20.6642 10.9292C20.6642 11.7817 21.3585 12.2212 22.3209 12.2212C23.714 12.2212 24.5973 11.2939 24.5973 10.2041L24.5973 9.04395C24.2985 9.29004 23.0812 9.43945 22.4747 9.52295C21.4376 9.67236 20.6642 10.0415 20.6642 10.9292Z" fill="#222222FF"/>
	</g>
	<defs/>
</svg>
