<?xml version="1.0" standalone="no"?><!DOCTYPE svg PUBLIC "-//W3C//DTD SVG 1.1//EN" "http://www.w3.org/Graphics/SVG/1.1/DTD/svg11.dtd"><svg t="1677325537947" class="icon" viewBox="0 0 1024 1024" version="1.1" xmlns="http://www.w3.org/2000/svg" p-id="5844" xmlns:xlink="http://www.w3.org/1999/xlink" width="128" height="128"><path d="M896.512 172.544H121.856c-46.592 0-84.992 41.984-84.992 93.696v518.656c0 51.712 37.888 93.696 84.992 93.696h775.168c46.592 0 84.992-41.984 84.992-93.696V266.24c-0.512-51.712-38.912-93.696-85.504-93.696z m37.376 292.864l-0.512 58.88h0.512v271.872c0 18.944-11.776 34.816-25.6 34.816H110.08c-13.824 0-25.6-15.872-25.6-34.816V406.528h849.92v58.88h-0.512z m0-146.432v28.672h-849.92V254.464c0-18.944 11.776-34.816 25.6-34.816h797.696c13.824 0 25.6 15.872 25.6 34.816v64.512h1.024z" fill="#666666" p-id="5845"></path><path d="M863.232 612.864H686.08c-11.264 0-21.504 6.144-26.624 16.384L600.576 747.52c-4.608 9.216-4.096 19.968 1.536 28.672 5.632 8.704 14.848 13.824 25.088 13.824H803.84c11.264 0 21.504-6.144 26.624-16.384l58.88-118.272c4.608-9.216 4.096-19.968-1.536-28.672-5.12-8.192-14.336-13.824-24.576-13.824z m-77.312 118.272h-111.104l29.696-58.88h111.104l-29.696 58.88zM243.2 465.408H184.32c-16.384 0-29.696 13.312-29.696 29.696 0 16.384 13.312 29.696 29.696 29.696h58.88c16.384 0 29.696-13.312 29.696-29.696 0-16.384-13.312-29.696-29.696-29.696zM420.352 465.408H361.472c-16.384 0-29.696 13.312-29.696 29.696 0 16.384 13.312 29.696 29.696 29.696h58.88c16.384 0 29.696-13.312 29.696-29.696 0-16.384-13.312-29.696-29.696-29.696zM627.2 495.104c0-16.384-13.312-29.696-29.696-29.696h-58.88c-16.384 0-29.696 13.312-29.696 29.696 0 16.384 13.312 29.696 29.696 29.696h58.88c16.384-0.512 29.696-13.312 29.696-29.696z" fill="#666666" p-id="5846"></path></svg>