<?xml version="1.0" standalone="no"?><!DOCTYPE svg PUBLIC "-//W3C//DTD SVG 1.1//EN" "http://www.w3.org/Graphics/SVG/1.1/DTD/svg11.dtd"><svg t="1676211981828" class="icon" viewBox="0 0 1024 1024" version="1.1" xmlns="http://www.w3.org/2000/svg" p-id="7022" xmlns:xlink="http://www.w3.org/1999/xlink" width="200" height="200"><path d="M321.203419 85.77094l1.459856 1.024L655.535043 320.328205l152.287179-89.271795L473.490598 0l-150.914844 84.999002z" fill="#8CF0FB" p-id="7023"></path><path d="M321.203419 85.77094v861.210257l89.271795 33.258119V486.618803l134.782906 87.521368v428.854701l106.583521 20.217436L807.822222 924.225641V231.05641l-152.287179 89.271795z" fill="#35D5E8" p-id="7024"></path><path d="M651.841641 317.790085l151.362954-90.147008L807.822222 231.05641l-152.287179 89.271795z" fill="#BCF8FF" p-id="7025"></path><path d="M323.776547 84.321586L471.687658 1.015248c1.424848-1.016998 2.524116-0.801696 3.744164 0l3.007234 2.384082-151.238673 86.686414-3.483351-2.508363-0.115528-0.08227a1.886961 1.886961 0 0 1 0.176793-3.175275z" fill="#5AEDFD" p-id="7026"></path><path d="M410.475214 980.239316l113.777777-68.266666h21.005129V574.140171l-134.782906-87.521368z" fill="#007AA3" p-id="7027"></path><path d="M410.475214 868.497285C450.11014 905.650106 476.391056 924.225641 489.317962 924.225641c4.878441 0 7.917183 1.080014 9.112725 3.240041L410.475214 980.239316v-111.742031z" fill="#006A8F" p-id="7028"></path><path d="M523.355022 560.04573l1.452855 0.864711v351.049956H524.252991l-0.381593 0.210051z" fill="#0A82AC" p-id="7029"></path><path d="M655.135945 319.312957l-2.490858 703.251693L807.822222 924.225641V231.05641z" fill="#199DB1" p-id="7030"></path><path d="M651.841641 317.790085a7.101484 7.101484 0 0 0 6.459077-0.252061l0.374591-0.210051-3.539364 703.873094-2.490858 1.361832-1.409094 0.647658 0.607398-705.422222z" fill="#187787" p-id="7031"></path><path d="M321.203419 85.77094v4.316554L651.841641 319.400479v-1.610394z" fill="#BCF8FF" p-id="7032"></path><path d="M321.203419 388.594872l-105.025641 29.757265-131.282052 80.519658 218.803419-56.013675 17.504274-12.252992z" fill="#2860BA" p-id="7033"></path><path d="M84.895726 498.871795v396.541812a5.251282 5.251282 0 0 0 4.222031 5.149757l1.685662 0.337833L321.203419 946.981197V430.605128l-17.504274 12.252992L84.895726 498.871795z" fill="#518FE9" p-id="7034"></path><path d="M157.708253 601.674393l78.389388 15.916636a5.251282 5.251282 0 0 1 4.206277 5.146256v104.010394a5.251282 5.251282 0 0 1-6.492335 5.102495l-78.389388-19.063904A5.251282 5.251282 0 0 1 151.411966 707.683774V606.82065a5.251282 5.251282 0 0 1 6.296287-5.146257z" fill="#0F147F" p-id="7035"></path><path d="M206.091815 675.84l0.451611 0.084021 33.758742 7.166249v42.920479l-0.052513 0.488369a18.151932 18.151932 0 0 1-0.467364 2.532868 5.251282 5.251282 0 0 1-5.968958 2.818188L155.420444 712.78627A5.251282 5.251282 0 0 1 151.411966 707.683774v-1.172786l47.412075-28.764773 1.172786-0.710673a9.01295 9.01295 0 0 1 6.094988-1.195542z" fill="#2657C6" p-id="7036"></path><path d="M157.708253 755.712l78.389388 15.916636a5.251282 5.251282 0 0 1 4.206277 5.146256v104.010393a5.251282 5.251282 0 0 1-6.492335 5.102496l-78.389388-19.063904A5.251282 5.251282 0 0 1 151.411966 861.721381V760.858256a5.251282 5.251282 0 0 1 6.296287-5.146256z" fill="#0F147F" p-id="7037"></path><path d="M208.325361 830.33972l0.782441 0.16629 31.194366 6.621867v42.920479l-0.052513 0.488369a18.151932 18.151932 0 0 1-0.467364 2.532868 5.251282 5.251282 0 0 1-5.968958 2.818188L155.420444 866.823877A5.251282 5.251282 0 0 1 151.411966 861.721381v-1.172786l47.026981-28.531966a13.613074 13.613074 0 0 1 9.886414-1.676909z" fill="#2657C6" p-id="7038"></path><path d="M84.895726 498.871795v3.950714l228.162954-59.897873v-6.712889l-4.176519 2.548622-6.826667 4.164267z" fill="#8DBCFF" p-id="7039"></path><path d="M321.203419 430.605128l-8.144739 5.606619v508.68119L321.203419 946.981197z" fill="#085AC0" p-id="7040"></path><path d="M933.947515 554.173046l3.436088 285.953313v1.452855a7.071726 7.071726 0 0 1-3.36082 6.019719L807.822222 924.225641V637.155556l4.691146 4.593121 121.434147-87.575631z" fill="#54C1A4" p-id="7041"></path><path d="M807.822222 637.155556l6.774154 3.112259-0.630154 280.168151L807.822222 924.225641z" fill="#36B191" p-id="7042"></path><path d="M807.822222 470.864957l121.969778 79.929764 3.514858 2.303563a1.750427 1.750427 0 0 1 0.064766 2.882954l-2.692157 1.948225-115.283146 83.372855-0.297572 0.215303c-1.43535 1.038003-3.44134 0.735179-4.5056-0.680917L807.822222 637.155556v-166.290599z" fill="#ABFBEB" p-id="7043"></path><path d="M313.05868 436.211747L321.203419 430.605128v3.875446l-8.144739 8.444062z" fill="#186CD4" p-id="7044"></path><path d="M321.203419 85.77094l5.995213 4.316554-0.306324 859.293538L321.203419 946.981197z" fill="#5AEDFD" p-id="7045"></path></svg>