<?xml version="1.0" standalone="no"?><!DOCTYPE svg PUBLIC "-//W3C//DTD SVG 1.1//EN" "http://www.w3.org/Graphics/SVG/1.1/DTD/svg11.dtd"><svg t="1676212005845" class="icon" viewBox="0 0 1024 1024" version="1.1" xmlns="http://www.w3.org/2000/svg" p-id="7370" xmlns:xlink="http://www.w3.org/1999/xlink" width="200" height="200"><path d="M807.8 226.208l-0.024 0.8c0.48-24.976-8.288-50-26.272-73.2-1.64-39.096-28.144-77.944-79.464-107.776-105.6-61.376-276.24-61.376-381.144 0C270.368 75.6 244.312 114 242.672 152.736 225.088 175.32 216.296 199.68 216.32 224.048v-0.424l-0.144 48.936c0 2.776 0.104 5.552 0.32 8.328 1.328 16.64 6.76 33.2 16.312 49.12 0.24 0.416 0.512 0.824 0.76 1.232l61.088 566.008c0.176 32.44 21.576 64.88 64.16 89.624 85.144 49.496 222.76 49.496 307.36 0 42.304-24.752 63.336-57.184 63.16-89.624l60.976-565a129.248 129.248 0 0 0 7.12-13.208c6.784-14.64 10.2-29.712 10.24-44.784l0.136-48.936-0.016 0.88z" fill="#A66206" p-id="7371"></path><path d="M807.776 227c0.872-44.968-28.224-90.152-87.256-124.464-115.88-67.352-303.136-67.352-418.256 0C244.88 136.104 216.272 180.064 216.32 224.056v-0.424l-0.144 48.936c-0.12 44.424 29 88.912 87.312 122.8 115.864 67.352 303.12 67.352 418.24 0 57.192-33.456 85.816-77.248 85.944-121.104l0.136-48.928c0 0.56-0.032 1.112-0.04 1.664z" fill="#57565C" p-id="7372"></path><path d="M807.816 225.336l-0.136 48.928c-0.128 43.856-28.752 87.648-85.944 121.112-115.12 67.344-302.376 67.344-418.24 0C245.184 361.48 216.056 316.992 216.192 272.576l0.136-48.944c-0.128 44.424 28.992 88.912 87.304 122.808 115.872 67.352 303.12 67.352 418.24 0 57.192-33.464 85.824-77.256 85.944-121.104z" fill="#3E3D43" p-id="7373"></path><path d="M678.048 127.384c92.256 53.624 92.744 140.576 1.072 194.208-91.656 53.624-240.76 53.624-333.016 0-92.272-53.632-92.752-140.576-1.096-194.208 91.664-53.632 240.768-53.632 333.04 0z" fill="#2E2E30" p-id="7374"></path><path d="M721.096 157.76l-0.168 58.728c0.088-31.392-20.496-62.832-61.704-86.792-81.888-47.6-214.224-47.6-295.576 0-40.424 23.656-60.648 54.6-60.736 85.592l0.16-58.72c0.088-31 20.32-61.944 60.736-85.592 81.36-47.6 213.696-47.6 295.584 0 41.208 23.96 61.792 55.4 61.704 86.792z" fill="#2E2E30" p-id="7375"></path><path d="M353.72 227.216l0.16-58.72c0.072-23.464 15.392-46.88 45.976-64.784l-0.16 58.72c-30.6 17.904-45.912 41.328-45.976 64.784z" fill="#010101" p-id="7376"></path><path d="M624.312 234.176l-0.168 58.72-224.448-130.464 0.16-58.72z" fill="#1D1D1F" p-id="7377"></path><path d="M655.856 84.832c79.92 46.448 80.344 121.776 0.936 168.232-79.4 46.456-208.56 46.448-288.48 0-79.92-46.456-80.352-121.776-0.944-168.232s208.56-46.456 288.488 0zM400.592 234.184c61.976 36.024 162.136 36.024 223.72-0.008L399.856 103.712c-61.584 36.032-61.256 94.44 0.736 130.472z" fill="#3E3D43" p-id="7378"></path><path d="M781.592 157.936l-0.168 58.72c-0.112 39.968-26.2 79.872-78.32 110.36-104.896 61.376-275.552 61.376-381.136 0-53.136-30.88-79.68-71.424-79.56-111.904l0.16-58.72c-0.112 40.48 26.424 81.024 79.568 111.904 105.584 61.376 276.24 61.376 381.136 0 52.12-30.488 78.208-70.4 78.32-110.352z" fill="#3E3D43" p-id="7379"></path><path d="M702.032 46.032c105.6 61.376 106.152 160.896 1.248 222.264-104.904 61.376-275.552 61.376-381.144 0C216.536 206.928 216 107.424 320.896 46.048c104.904-61.384 275.544-61.384 381.136 0zM364.776 243.36c81.888 47.6 214.224 47.6 295.584 0 81.36-47.6 80.92-124.776-0.968-172.368-81.888-47.6-214.232-47.6-295.584 0-81.36 47.6-80.92 124.768 0.96 172.368z" fill="#57565C" p-id="7380"></path><path d="M388.288 265.28a15.856 15.856 0 0 0-2.368-1.112 210.08 210.08 0 0 1-31.496-14.832 154.688 154.688 0 0 1-25.536-18.32 11.648 11.648 0 0 0-1.92-1.376c-5.4-3.144-14.336-3.32-19.96-0.032-4.704 2.752-5.432 7.048-1.776 10.32 8.312 7.448 18.08 14.512 29.312 21.04a241.168 241.168 0 0 0 36.168 17.024c5.616 2.12 12.992 1.68 17.688-1.072 5.616-3.28 5.288-8.496-0.112-11.64" fill="#2E2E30" p-id="7381"></path><path d="M354.864 82.424c-0.016 0.056-0.04 0.12-0.04 0.16a1.92 1.92 0 0 0-0.016-0.832c-0.024-0.064-0.024-0.104-0.064-0.12a2.104 2.104 0 0 0-0.44-0.736 3.624 3.624 0 0 0-0.912-0.728l-13.656-7.92a7.864 7.864 0 0 0-7.16 0 3.168 3.168 0 0 0-1.104 0.96 2.056 2.056 0 0 0-0.352 1.104V74.608l-0.544 184 1.496 0.904a212.312 212.312 0 0 0 13.656 7.52c2.824 1.44 5.712 2.824 8.616 4.136l0.544-188.896c0 0.048 0 0.112-0.024 0.152z" fill="#ACABB1" p-id="7382"></path><path d="M332.6 76.424L332.08 259.52c-0.504-0.288-1-0.6-1.504-0.896l0.544-184v-0.256a1.736 1.736 0 0 0 0.232 0.88 3.176 3.176 0 0 0 1.248 1.184z" fill="#E0E0E2" p-id="7383"></path><path d="M346.248 84.344l-0.52 182.696a212.312 212.312 0 0 1-13.656-7.52l0.52-183.096 13.656 7.92z" fill="#D8D8DA" p-id="7384"></path><path d="M354.88 82.272l-0.536 188.904a203.36 203.36 0 0 1-8.616-4.144l0.52-182.688a7.864 7.864 0 0 0 7.16 0 3.384 3.384 0 0 0 1.104-0.96 2.288 2.288 0 0 0 0.352-0.84v-0.12c0.024-0.04 0.024-0.104 0.024-0.152z" fill="#C6C5CB" p-id="7385"></path><path d="M353.384 80.168c1.984 1.152 1.992 3.024 0.024 4.176a7.84 7.84 0 0 1-7.16 0l-13.64-7.928c-1.984-1.152-2-3.024-0.024-4.176a7.84 7.84 0 0 1 7.16 0l13.64 7.936z" fill="#ACABB1" p-id="7386"></path></svg>