<?xml version="1.0" standalone="no"?><!DOCTYPE svg PUBLIC "-//W3C//DTD SVG 1.1//EN" "http://www.w3.org/Graphics/SVG/1.1/DTD/svg11.dtd"><svg t="1676212016475" class="icon" viewBox="0 0 1409 1024" version="1.1" xmlns="http://www.w3.org/2000/svg" p-id="7545" xmlns:xlink="http://www.w3.org/1999/xlink" width="275.1953125" height="200"><path d="M1406.623656 367.241634v-2.367311c-0.264258-47.070968-15.987613-92.963785-46.740645-136.401205-31.876129-44.978925-78.506667-85.333333-138.625377-119.918107-60.12972-34.595785-130.169118-61.384946-208.202322-79.629764-75.346581-17.617204-154.877247-26.535914-236.422882-26.535914-81.534624 0-160.977204 8.91871-236.114581 26.535914-77.824 18.244817-147.566108 45.033978-207.29944 79.629764l-0.440431 154.282666 67.374796 38.75785c207.13428-119.962151 545.252473-119.962151 753.752086 0 70.589935 40.618667 117.374624 89.869763 140.376086 141.89557-22.880344 50.935742-68.674065 99.096774-137.480258 138.933677v154.282667l67.352774 38.757849c59.733333-34.595785 105.483011-74.939183 136.819613-119.929118 29.894194-42.886882 45.089032-88.163097 45.221162-134.606452l0.44043-154.282666-0.022022 0.59458z" fill="#2E2E30" p-id="7546"></path><path d="M400.582194 147.323871l-0.440431 154.282667-67.363785-38.75785 0.440431-154.293677zM1224.153462 621.182624v154.282666l-67.352774-38.757849V582.435785z" fill="#1D1D1F" p-id="7547"></path><path d="M1221.257634 108.555011c60.11871 34.595785 106.749247 74.939183 138.625377 119.918107 30.753032 43.437419 46.476387 89.319226 46.740645 136.401205 0.264258 47.059957-14.941591 92.952774-45.210151 136.379182-31.347613 44.989935-77.515699 85.333333-137.260043 119.929119l-67.352774-38.75785c207.13428-119.962151 206.011183-315.160774-2.455398-435.111914-208.488602-119.962151-546.617806-119.962151-753.752086 0l-67.374795-38.757849c59.733333-34.595785 129.486452-61.384946 207.29944-79.629764 75.137376-17.617204 154.590968-26.535914 236.114581-26.535914 81.545634 0 161.087312 8.91871 236.422882 26.535914 78.033204 18.244817 148.072602 45.033978 208.213333 79.629764z" fill="#3E3D43" p-id="7548"></path><path d="M1170.982538 613.541161l-146.002581 84.562581v105.538064l31.854108 18.498065 146.29987-84.562581v-105.527053z" fill="#77767E" p-id="7549"></path><path d="M1203.133935 632.050237l-146.00258 84.56258-32.151398-18.498064 146.002581-84.562581z" fill="#ACABB1" p-id="7550"></path><path d="M352.355097 134.243097l-146.002581 84.56258v105.538065l31.865118 18.498064 146.299871-84.56258v-105.527054z" fill="#77767E" p-id="7551"></path><path d="M384.517505 152.752172l-146.00258 84.562581-32.151398-18.498065 146.002581-84.56258z" fill="#ACABB1" p-id="7552"></path><path d="M522.922667 283.152516c-9.017806-34.408602-27.130495-59.392-51.618409-73.44172l0.352344 0.176172-43.382365-25.115527a279.012473 279.012473 0 0 0-148.535054-42.545549C125.258323 142.225892 0 267.054796 0 420.996129c0 113.719054 68.354753 211.560602 166.32843 254.898925l24.917333 14.424086c23.221677 13.532215 52.246022 17.132731 84.738753 9.414193 17.837419-4.184086 36.687828-11.814538 56.209893-23.034494 109.259699-62.849376 197.532903-215.260215 197.158537-340.353377-0.055054-19.632172-2.268215-37.392516-6.430279-53.181935z" fill="#898890" p-id="7553"></path><path d="M415.876129 177.603441c-35.961118-20.832344-85.773763-17.892473-140.750452 13.741419-109.248688 62.860387-197.532903 215.238194-197.169548 340.342366 0.176172 62.155699 22.186667 105.890409 57.696344 126.458494l55.780473 32.294538c-35.509677-20.568086-57.531183-64.302796-57.707355-126.447484-0.363355-125.104172 87.92086-277.492989 197.169549-340.342365 54.976688-31.644903 104.789333-34.573763 140.761462-13.752431L415.876129 177.603441z" fill="#1D1D1F" p-id="7554"></path><path d="M330.89514 223.628387c109.259699-62.860387 198.105462-12.387097 198.468817 112.728086 0.352344 125.104172-87.931871 277.492989-197.180559 340.342366-109.248688 62.871398-198.105462 12.409118-198.457807-112.706065-0.352344-125.115183 87.92086-277.492989 197.169549-340.353376z" fill="#3E3D43" p-id="7555"></path><path d="M1085.406968 551.374452c-0.341333-0.396387-0.660645-0.825806-1.001979-1.233205l-0.539527-0.616602a104.833376 104.833376 0 0 0-5.307182-6.166021l-0.781764-0.913893c0-0.022022-0.033032-0.022022-0.033032-0.022021-0.814796-0.858839-1.651613-1.673634-2.499441-2.499441-0.28628-0.275269-0.561548-0.572559-0.858839-0.847828a97.257978 97.257978 0 0 0-6.309161-5.505376 95.022796 95.022796 0 0 0-5.241118-3.919828c-0.330323-0.242237-0.682667-0.44043-1.024-0.682667a97.004731 97.004731 0 0 0-5.10899-3.21514c-0.242237-0.14314-0.462452-0.308301-0.704688-0.44043l0.352344 0.187183-50.231053-29.090409a96.300043 96.300043 0 0 0-5.516387-3.424344l0.341333 0.187183-55.769462-32.305548c-35.972129-20.832344-85.773763-17.892473-140.750452 13.741419-109.259699 62.871398-197.532903 215.249204-197.180559 340.353376 0.187183 62.155699 22.197677 105.890409 57.707355 126.447484l50.319139 29.134452c1.651613 1.112086 3.35828 2.202151 5.086968 3.193118l54.756473 31.710968 0.308301 0.187183 0.704688 0.407397-0.253247-0.15415c4.173075 2.433376 8.544344 4.53643 13.080774 6.320172l0.044043 0.022021c0.660645 0.253247 1.31028 0.528516 1.981936 0.770753l0.341333 0.088086a105.813333 105.813333 0 0 0 32.856086 6.166022c0.110108 0 0.198194 0.022022 0.297291 0.044043h0.088086c12.023742 1.541505 24.27871 2.312258 36.742881 2.312258 159.655914 0 289.142366-129.024 289.142366-288.17342a286.378667 286.378667 0 0 0-65.040516-182.062795z" fill="#2E2E30" p-id="7556"></path><path d="M1150.425462 733.448258c0 159.149419-129.46443 288.173419-289.131354 288.173419-12.453161 0-24.71914-0.770753-36.742882-2.312258h-0.088086a281.104516 281.104516 0 0 1-33.49471-6.29815c-44.120086-16.218839-72.373677-62.992516-72.549849-133.40628-0.374366-125.104172 87.931871-277.504 197.158537-340.353376 66.945376-38.515613 126.194237-34.507699 162.166366 3.171097a240.93729 240.93729 0 0 1 6.661505 7.718537c0.341333 0.407398 0.660645 0.836817 1.001979 1.233205a286.312602 286.312602 0 0 1 65.018494 182.073806z" fill="#898890" p-id="7557"></path><path d="M941.606538 667.141505a74.377634 66.978409 90 1 0 133.956817 0 74.377634 66.978409 90 1 0-133.956817 0Z" fill="#ACABB1" p-id="7558"></path><path d="M408.13557 318.838366L352.344086 286.532817c19.422968 11.241978 31.44671 35.146323 31.545806 69.125506 0.198194 68.376774-48.061935 151.684129-107.773247 186.037677-30.059355 17.286882-57.277935 18.905462-76.94314 7.509333l55.769463 32.305549c19.665204 11.385118 46.894796 9.777548 76.94314-7.509334 59.722323-34.353548 107.971441-117.660903 107.773247-186.048688-0.088086-33.968172-12.133849-57.872516-31.534796-69.114494z" fill="#2E2E30" p-id="7559"></path><path d="M415.88714 177.603441c-35.972129-20.832344-85.773763-17.892473-140.761463 13.741419-109.248688 62.860387-197.532903 215.238194-197.169548 340.342366 0.176172 62.155699 22.197677 105.890409 57.696344 126.458494l55.780473 32.294538c-35.509677-20.568086-57.531183-64.302796-57.707355-126.447484-0.352344-125.104172 87.92086-277.492989 197.18056-340.342365 54.976688-31.644903 104.778323-34.573763 140.750451-13.752431l-55.769462-32.294537z" fill="#2E2E30" p-id="7560"></path><path d="M330.89514 223.628387c109.248688-62.849376 198.105462-12.387097 198.468817 112.728086 0.352344 125.104172-87.931871 277.492989-197.180559 340.342366-109.248688 62.871398-198.105462 12.409118-198.457807-112.706065-0.352344-125.115183 87.92086-277.492989 197.169549-340.353376z m0.990968 350.362151c59.733333-34.353548 107.982452-117.649892 107.795268-186.037678-0.198194-68.376774-48.777634-95.96972-108.488946-61.605161-59.722323 34.353548-107.971441 117.649892-107.784258 186.037677 0.198194 68.387785 48.777634 95.96972 108.488946 61.605162z" fill="#1D1D1F" p-id="7561"></path></svg>