<svg width="437.402588" height="173.677002" viewBox="0 0 437.403 173.677" fill="none" xmlns="http://www.w3.org/2000/svg" xmlns:xlink="http://www.w3.org/1999/xlink">
	<desc>
			Created with Pixso.
	</desc>
	<g id="button/light/primary" filter="url(#filter_1_692_dd)">
		<g id="button/light/primary (style)" filter="url(#filter_1_693_dd)">
			<rect x="60.000000" y="20.000000" rx="26.838497" width="317.402588" height="53.676994" fill="#191C32"/>
		</g>
		<g id="注册">
			<path d="M214.668 49.6309L214.668 53.0286L218.624 53.0286L218.624 54.334L209.117 54.334L209.117 53.0286L213.248 53.0286L213.248 49.6309L210.126 49.6309L210.126 48.3254L213.248 48.3254L213.248 45.3677L209.571 45.3677L209.571 44.0802L213.702 44.0802C213.513 43.4471 213.026 42.4529 212.576 41.7053L213.82 41.2655C214.289 41.9987 214.815 42.9644 215.036 43.5938L213.745 44.0802L218.259 44.0802L218.259 45.3677L214.668 45.3677L214.668 48.3254L217.744 48.3254L217.744 49.6309L214.668 49.6309ZM206.742 41.5159C207.636 41.9092 208.881 42.5565 209.496 42.9929L208.706 44.123C208.119 43.6545 206.903 42.95 205.981 42.4957L206.742 41.5159ZM231.74 47.038L233.221 47.038L233.221 48.3397L231.74 48.3397L231.74 53.2039C231.74 53.9084 231.594 54.2875 231.154 54.5093C230.714 54.7274 230.027 54.756 228.987 54.756C228.929 54.4055 228.754 53.819 228.561 53.4828C229.237 53.4971 229.895 53.4971 230.099 53.4971C230.321 53.4828 230.392 53.4113 230.392 53.1895L230.392 48.3397L228.386 48.3397C228.268 50.4965 227.903 53.0571 226.701 54.8312C226.483 54.5664 225.954 54.0693 225.675 53.894C225.589 54.1587 225.428 54.334 225.192 54.4341C224.766 54.6559 224.094 54.6844 223.1 54.6844C223.053 54.3483 222.849 53.776 222.674 53.4685C223.318 53.4971 223.99 53.4971 224.169 53.4828C224.373 53.4685 224.444 53.4113 224.444 53.1895L224.444 48.3397L222.674 48.3397C222.556 50.525 222.13 53.1179 220.782 54.8883C220.593 54.6129 220.081 54.0836 219.802 53.9084C220.961 52.3419 221.297 50.2317 221.383 48.3397L219.831 48.3397L219.831 47.038L221.412 47.038L221.412 42.249L225.764 42.249L225.764 47.038L227.098 47.038L227.098 42.249L231.74 42.249L231.74 47.038ZM222.717 46.8341L222.717 47.038L224.444 47.038L224.444 43.5222L222.717 43.5222L222.717 46.8341ZM228.414 46.877L228.414 47.038L230.392 47.038L230.392 43.5222L228.414 43.5222L228.414 46.877ZM205.938 45.5143C206.818 45.8934 208.034 46.5265 208.649 46.9628L207.901 48.093C207.315 47.6388 206.113 46.9628 205.204 46.5085L205.938 45.5143ZM227.07 48.3397L225.764 48.3397L225.764 53.2039C225.764 53.4685 225.736 53.6866 225.693 53.8512C226.701 52.2811 226.98 50.2031 227.07 48.3397ZM205.616 53.7045C206.392 52.6173 207.519 50.7289 208.37 49.0873L209.364 49.9814C208.588 51.505 207.622 53.2504 206.757 54.6273L205.616 53.7045Z" fill="#FFFFFFFF"/>
		</g>
	</g>
	<defs>
		<filter id="filter_1_692_dd" x="0.000000" y="0.000000" width="437.402588" height="173.677002" filterUnits="userSpaceOnUse" color-interpolation-filters="sRGB">
			<feFlood flood-opacity="0" result="BackgroundImageFix"/>
			<feColorMatrix in="SourceAlpha" type="matrix" values="0 0 0 0 0 0 0 0 0 0 0 0 0 0 0 0 0 0 127 0"/>
			<feOffset dx="0" dy="20"/>
			<feGaussianBlur stdDeviation="10"/>
			<feColorMatrix type="matrix" values="0 0 0 0 0.098039 0 0 0 0 0.1098 0 0 0 0 0.19608 0 0 0 0.098 0"/>
			<feBlend mode="normal" in2="BackgroundImageFix" result="effect_dropShadow_1"/>
			<feBlend mode="normal" in="SourceGraphic" in2="effect_dropShadow_1" result="shape"/>
		</filter>
		<filter id="filter_1_693_dd" x="30.000000" y="10.000000" width="377.402588" height="113.677002" filterUnits="userSpaceOnUse" color-interpolation-filters="sRGB">
			<feFlood flood-opacity="0" result="BackgroundImageFix"/>
			<feColorMatrix in="SourceAlpha" type="matrix" values="0 0 0 0 0 0 0 0 0 0 0 0 0 0 0 0 0 0 127 0"/>
			<feOffset dx="0" dy="20"/>
			<feGaussianBlur stdDeviation="10"/>
			<feColorMatrix type="matrix" values="0 0 0 0 0.098039 0 0 0 0 0.1098 0 0 0 0 0.19608 0 0 0 0.098 0"/>
			<feBlend mode="normal" in2="BackgroundImageFix" result="effect_dropShadow_1"/>
			<feBlend mode="normal" in="SourceGraphic" in2="effect_dropShadow_1" result="shape"/>
		</filter>
	</defs>
</svg>
