<?xml version="1.0" standalone="no"?><!DOCTYPE svg PUBLIC "-//W3C//DTD SVG 1.1//EN" "http://www.w3.org/Graphics/SVG/1.1/DTD/svg11.dtd"><svg t="1677642613277" class="icon" viewBox="0 0 1024 1024" version="1.1" xmlns="http://www.w3.org/2000/svg" p-id="1833" xmlns:xlink="http://www.w3.org/1999/xlink" width="128" height="128"><path d="M893.724444 487.537778C853.333333 421.546667 732.728889 246.328889 512 246.328889a440.32 440.32 0 0 0-384.568889 247.466667 40.96 40.96 0 0 0 0 36.408888 424.96 424.96 0 0 0 768.568889 7.395556 52.337778 52.337778 0 0 0-2.275556-50.062222zM512 709.404444A197.404444 197.404444 0 1 1 709.404444 512 197.973333 197.973333 0 0 1 512 709.404444z" p-id="1834" fill="#767676"></path><path d="M512 512m-106.382222 0a106.382222 106.382222 0 1 0 212.764444 0 106.382222 106.382222 0 1 0-212.764444 0Z" p-id="1835" fill="#767676"></path></svg>