<svg width="317.402588" height="53.677002" viewBox="0 0 317.403 53.677" fill="none" xmlns="http://www.w3.org/2000/svg" xmlns:xlink="http://www.w3.org/1999/xlink">
	<desc>
			Created with Pixso.
	</desc>
	<g id="forms/light/username">
		<g id="Rectangle 88">
			<rect rx="25.000000" width="317.402588" height="53.676998" fill="#FFFFFF"/>
		</g>
		<g id="icon 32px/light/user">
			<g id="Ellipse 5">
				<path d="M41.0182 26.3505C41.0182 34.9746 34.0222 41.9656 25.3922 41.9656C16.7622 41.9656 9.76624 34.9746 9.76624 26.3505C9.76624 17.7266 16.7622 10.7354 25.3922 10.7354C34.0222 10.7354 41.0182 17.7266 41.0182 26.3505Z" fill-rule="evenodd" fill="#FFEBE4"/>
			</g>
			<g id="Frame 8">
				<g id="Ellipse 11">
					<mask id="path-1-inside-1" fill="white">
						<path d="M23.9606 23.864C23.9606 23.0739 24.6016 22.4334 25.3922 22.4334C26.1827 22.4334 26.8237 23.0739 26.8237 23.864C26.8237 24.6541 26.1827 25.2946 25.3922 25.2946C24.6016 25.2946 23.9606 24.6541 23.9606 23.864ZM28.777 23.864C28.777 25.7321 27.2615 27.2465 25.3921 27.2465C23.5228 27.2465 22.0073 25.7321 22.0073 23.864C22.0073 21.9959 23.5228 20.4815 25.3922 20.4815C27.2615 20.4815 28.777 21.9959 28.777 23.864Z" clip-rule="evenodd" fill-rule="evenodd" fill-opacity="0.000000"/>
					</mask>
					<path d="M22.9606 23.864C22.9606 23.1927 23.1981 22.6197 23.6731 22.1451C24.1478 21.6707 24.7208 21.4334 25.3922 21.4334C27.0132 21.4334 27.8237 22.2436 27.8237 23.864C27.8237 25.4844 27.0132 26.2946 25.3922 26.2946C23.7711 26.2946 22.9606 25.4844 22.9606 23.864ZM24.9606 23.864C24.9606 24.1511 25.1045 24.2946 25.3922 24.2946C25.6799 24.2946 25.8237 24.1511 25.8237 23.864C25.8237 23.577 25.6799 23.4334 25.3922 23.4334C25.1045 23.4334 24.9606 23.577 24.9606 23.864ZM29.777 23.864C29.777 25.0743 29.3488 26.1074 28.4924 26.9631C27.6362 27.8187 26.6028 28.2465 25.3921 28.2465C24.1814 28.2465 23.1481 27.8187 22.2919 26.9631C21.4355 26.1073 21.0073 25.0743 21.0073 23.864C21.0073 22.6536 21.4355 21.6206 22.2919 20.7648C23.1481 19.9093 24.1815 19.4815 25.3922 19.4815C26.6029 19.4815 27.6362 19.9093 28.4924 20.7648C29.3488 21.6206 29.777 22.6537 29.777 23.864ZM27.777 23.864C27.777 22.2756 26.9821 21.4815 25.3922 21.4815C23.8022 21.4815 23.0073 22.2756 23.0073 23.864C23.0073 25.4523 23.8022 26.2465 25.3921 26.2465C26.0508 26.2465 26.613 26.0138 27.0787 25.5484C27.5442 25.0832 27.777 24.5217 27.777 23.864Z" fill-rule="evenodd" fill="#F7931A" fill-opacity="1.000000"/>
				</g>
				<g id="Vector 10">
					<path d="M22.6761 30.0095C22.1368 30.0095 21.6996 30.4464 21.6996 30.9854L21.6996 31.3782C21.6996 31.9171 21.2623 32.3541 20.7229 32.3541C20.1836 32.3541 19.7463 31.9171 19.7463 31.3781L19.7463 30.9854C19.7463 29.3684 21.0581 28.0576 22.6761 28.0576L28.1082 28.0576C29.7263 28.0576 31.038 29.3684 31.038 30.9854L31.038 31.3782C31.038 31.9171 30.6007 32.3541 30.0613 32.3541C29.522 32.3541 29.0847 31.9171 29.0847 31.3782L29.0847 30.9854C29.0847 30.4464 28.6476 30.0095 28.1082 30.0095L22.6763 30.0095L22.6761 30.0095Z" clip-rule="evenodd" fill-rule="evenodd" fill="#F7931A" fill-opacity="1.000000"/>
				</g>
			</g>
		</g>
		<g id="用户名">
			<path d="M83.5996 22.4283L82.9272 22.6321L87.5409 22.6321L87.5409 28.5513L86.4429 28.5513L86.4429 27.5999L78.7642 27.5999C78.6031 29.6957 78.1061 32.1135 76.6719 33.8409C76.4967 33.6514 76.0103 33.2973 75.7491 33.1829C77.5195 31.0262 77.7126 27.9969 77.7126 25.7974L77.7126 22.6321L82.4443 22.6321C82.2655 22.0635 81.9436 21.2266 81.6504 20.5828L82.7054 20.3039C83.0416 20.9798 83.4243 21.8561 83.5996 22.4283ZM96.4232 27.6572L102.239 27.6572L102.239 33.7515L101.126 33.7515L101.126 32.9897L94.6207 32.9897L94.6207 33.7515L93.5514 33.7515L93.5514 28.934C92.7466 29.213 91.9276 29.4454 91.1194 29.6349C91.0334 29.3417 90.7831 28.8732 90.5649 28.6407C92.3818 28.258 94.256 27.6143 95.9547 26.7058C95.311 26.1193 94.4454 25.4183 93.7302 24.9033L94.5492 24.2738C95.3253 24.8031 96.2909 25.5327 96.9669 26.1193C98.4154 25.2252 99.6923 24.1129 100.554 22.8396L95.1357 22.8396C94.1987 23.748 93.0399 24.5956 91.663 25.3145C91.5021 25.0642 91.1515 24.6565 90.9154 24.4955C93.276 23.3511 94.9283 21.7238 95.8081 20.3325L97.0242 20.5972C96.7451 21.0084 96.4376 21.434 96.0728 21.8417L101.259 21.8417L101.434 21.7845L102.167 22.2388C100.965 24.5671 98.8553 26.3696 96.4232 27.6572ZM62.8361 21.4161L73.5012 21.4161L73.5012 32.2887C73.5012 32.9897 73.3116 33.3116 72.8431 33.5048C72.3424 33.68 71.4948 33.6943 70.1178 33.68C70.0713 33.3867 69.8961 32.9182 69.7494 32.6249C70.6227 32.6614 71.4752 32.6565 71.8711 32.6542C71.9404 32.6539 71.9958 32.6535 72.0348 32.6535C72.3281 32.6392 72.4318 32.5498 72.4318 32.2744L72.4318 29.2988L68.4905 29.2988L68.4905 33.6192L67.4069 33.6192L67.4069 29.2988L63.7445 29.2988C63.5227 30.9261 63.0256 32.5963 61.9133 33.8409C61.7523 33.6192 61.3125 33.2544 61.0764 33.1221C62.6895 31.3052 62.8361 28.7265 62.8361 26.6915L62.8361 21.4161ZM67.4069 24.8031L67.4069 22.4569L63.9054 22.4569L63.9054 24.8031L67.4069 24.8031ZM68.4905 24.8031L72.4318 24.8031L72.4318 22.4569L68.4905 22.4569L68.4905 24.8031ZM78.825 25.7974C78.825 26.0477 78.825 26.2945 78.8107 26.5735L86.4429 26.5735L86.4429 23.6586L78.825 23.6586L78.825 25.7974ZM63.9054 26.6915C63.9054 27.1743 63.8911 27.718 63.8481 28.258L67.4069 28.258L67.4069 25.826L63.9054 25.826L63.9054 26.6915ZM68.4905 25.826L68.4905 28.258L72.4318 28.258L72.4318 25.826L68.4905 25.826ZM94.6207 28.6693L94.6207 31.9954L101.126 31.9954L101.126 28.6693L94.6207 28.6693Z" fill="#9395A4FF"/>
		</g>
	</g>
	<defs/>
</svg>
