<svg width="317.402588" height="53.677002" viewBox="0 0 317.403 53.677" fill="none" xmlns="http://www.w3.org/2000/svg" xmlns:xlink="http://www.w3.org/1999/xlink">
	<desc>
			Created with Pixso.
	</desc>
	<g id="forms/light/email address">
		<g id="Rectangle 88">
			<rect rx="25.000000" width="317.402588" height="53.676998" fill="#FFFFFF"/>
		</g>
		<g id="icon 32px/light/email">
			<g id="icon 32px/watchlists">
				<g id="Ellipse 5">
					<path d="M41.0182 26.3505C41.0182 34.9746 34.0222 41.9656 25.3922 41.9656C16.7622 41.9656 9.76624 34.9746 9.76624 26.3505C9.76624 17.7266 16.7622 10.7354 25.3922 10.7354C34.0222 10.7354 41.0182 17.7266 41.0182 26.3505Z" fill-rule="evenodd" fill="#DEF5E9"/>
				</g>
				<g id="Frame 8">
					<g id="Rectangle 103">
						<path d="M18.5559 22.4467C18.5559 21.9077 18.9932 21.4708 19.5325 21.4708L31.2521 21.4708C31.7915 21.4708 32.2286 21.9077 32.2286 22.4467L32.2286 31.2302C32.2286 31.7693 31.7915 32.2062 31.2521 32.2062L19.5325 32.2062C18.9932 32.2062 18.5559 31.7693 18.5559 31.2303L18.5559 22.4467ZM20.5092 24.5304L24.7671 28.0762C25.0994 28.3529 25.5742 28.3782 25.9341 28.1385L28.8639 26.1866C29.3126 25.8876 29.434 25.2817 29.1348 24.8333C28.8356 24.3848 28.2291 24.2636 27.7804 24.5626L25.4574 26.1102L22.2301 23.4227L30.2754 23.4227L30.2754 30.2543L20.5092 30.2543L20.5092 24.5304ZM19.5326 22.4468L18.9073 23.1965L20.5092 24.5304L20.5092 23.4227L22.2301 23.4227L20.1578 21.697L19.5326 22.4468ZM19.5326 22.4468L19.5326 23.4227L20.5092 23.4227L20.5092 22.4467L19.5326 22.4468ZM20.5092 30.2543L20.5092 31.2302L19.5326 31.2303L19.5326 30.2543L20.5092 30.2543ZM30.2754 30.2543L31.2521 30.2543L31.2521 31.2303L30.2754 31.2302L30.2754 30.2543ZM30.2754 23.4227L30.2754 22.4467L31.2521 22.4467L31.2521 23.4227L30.2754 23.4227ZM25.3923 27.3265L26.0176 26.5767L25.4574 26.1102L24.8506 26.5145L25.3923 27.3265Z" clip-rule="evenodd" fill-rule="evenodd" fill="#5FC88F" fill-opacity="1.000000"/>
					</g>
				</g>
			</g>
		</g>
		<g id="邮箱">
			<path d="M82.0188 27.1887L79.7047 27.1887L79.7047 27.7322C80.3057 28.258 81.6969 29.5634 82.0474 29.9139L81.3428 30.7651C81.0209 30.3395 80.3057 29.5205 79.7047 28.8589L79.7047 33.7658L78.6641 33.7658L78.6641 28.8875C78.0203 30.15 77.1833 31.3803 76.4215 32.1993C76.2749 31.9346 75.9817 31.5842 75.7349 31.366C76.7148 30.4432 77.7985 28.7408 78.4423 27.1887L76.114 27.1887L76.114 26.1801L78.6641 26.1801L78.6641 24.5241L79.3793 24.5241C79.2327 24.0091 78.9573 23.3224 78.6497 22.7359L78.0488 22.7359C77.6233 23.5263 77.1547 24.2452 76.6862 24.8031C76.4788 24.6422 76.0425 24.3489 75.7777 24.2166C76.6862 23.2473 77.4766 21.7845 77.9308 20.3182L78.9858 20.5828C78.8392 20.9941 78.6783 21.4019 78.5031 21.7988L82.3407 21.7988L82.3407 22.7359L79.7477 22.7359C80.0266 23.2938 80.2734 23.8947 80.3915 24.3167L79.7047 24.5956L79.7047 26.1801L82.0188 26.1801L82.0188 27.1887ZM84.6975 20.5828C84.5652 20.9941 84.4365 21.4019 84.2577 21.7988L89.0072 21.7988L89.0072 22.7359L85.8278 22.7359C86.2212 23.2795 86.5895 23.8804 86.7791 24.3024L85.842 24.6994C85.6525 24.1736 85.1517 23.3796 84.6689 22.7359L83.8213 22.7359C83.41 23.4977 82.9415 24.1736 82.4265 24.6994C82.2227 24.5241 81.7684 24.2166 81.5038 24.0699C82.4586 23.1615 83.2205 21.7702 83.6569 20.3182L84.6975 20.5828ZM64.5349 20.4076L65.59 20.4076L65.59 22.6179L68.3009 22.6179L68.3009 32.6249L67.3031 32.6249L67.3031 31.8631L62.7931 31.8631L62.7931 32.8288L61.8383 32.8288L61.8383 22.6179L64.5349 22.6179L64.5349 20.4076ZM73.4725 21.1694L73.6478 21.1265L74.3953 21.6093C73.866 22.9398 73.1793 24.5956 72.5498 25.9583C73.8802 27.3353 74.2201 28.4655 74.2201 29.4883C74.2201 30.3395 74.0126 31.0441 73.5298 31.366C73.2794 31.5269 72.9575 31.6271 72.6213 31.6736C72.2422 31.7165 71.7559 31.7165 71.3339 31.6879C71.3016 31.3946 71.2015 30.9547 71.012 30.6471C71.4805 30.69 71.8882 30.69 72.1958 30.69C72.4175 30.6757 72.6356 30.6328 72.8109 30.5291C73.1041 30.3395 73.2079 29.8996 73.1936 29.3882C73.1936 28.4797 72.8109 27.4104 71.4805 26.0906C72.0348 24.8604 72.6071 23.3224 73.0183 22.1959L70.6578 22.1959L70.6578 33.7515L69.7065 33.7515L69.7065 21.1694L73.4725 21.1694ZM64.5778 26.6343L64.5778 23.5728L62.7931 23.5728L62.7931 26.6343L64.5778 26.6343ZM65.5327 26.6343L67.3031 26.6343L67.3031 23.5728L65.5327 23.5728L65.5327 26.6343ZM83.5281 33.7515L82.473 33.7515L82.473 25.0499L88.5066 25.0499L88.5066 33.6656L87.4229 33.6656L87.4229 33.1221L83.5281 33.1221L83.5281 33.7515ZM87.4229 27.4819L87.4229 26.0334L83.5281 26.0334L83.5281 27.4819L87.4229 27.4819ZM64.5778 27.5856L62.7931 27.5856L62.7931 30.9117L64.5778 30.9117L64.5778 27.5856ZM65.5327 27.5856L65.5327 30.9117L67.3031 30.9117L67.3031 27.5856L65.5327 27.5856ZM83.5281 28.3331L83.5281 29.8281L87.4229 29.8281L87.4229 28.3331L83.5281 28.3331ZM83.5281 30.6757L83.5281 32.1993L87.4229 32.1993L87.4229 30.6757L83.5281 30.6757Z" fill="#9395A4FF"/>
		</g>
	</g>
	<defs/>
</svg>
