<svg width="317.402588" height="53.677002" viewBox="0 0 317.403 53.677" fill="none" xmlns="http://www.w3.org/2000/svg" xmlns:xlink="http://www.w3.org/1999/xlink">
	<desc>
			Created with Pixso.
	</desc>
	<g id="forms/light/password">
		<g id="Rectangle 88">
			<rect rx="25.000000" width="317.402588" height="53.676998" fill="#FFFFFF"/>
		</g>
		<g id="icon 32px/light/password">
			<g id="Ellipse 5">
				<path d="M41.0182 26.3505C41.0182 34.9746 34.0222 41.9656 25.3922 41.9656C16.7622 41.9656 9.76624 34.9746 9.76624 26.3505C9.76624 17.7266 16.7622 10.7354 25.3922 10.7354C34.0222 10.7354 41.0182 17.7266 41.0182 26.3505Z" fill-rule="evenodd" fill="#EBECFF"/>
			</g>
			<g id="Frame 8">
				<g id="Rectangle 97">
					<rect x="20.819580" y="25.470764" rx="1.000000" width="9.339799" height="6.428118" stroke="#9F9DF3" stroke-width="2.000000" stroke-linejoin="round"/>
				</g>
				<g id="Vector 12">
					<path d="M26.5132 28.1818C26.5132 27.6428 26.0759 27.2059 25.5365 27.2059C24.9972 27.2059 24.5599 27.6428 24.5599 28.1818L24.5599 29.1671C24.5599 29.7062 24.9972 30.1431 25.5365 30.1431C26.0759 30.1431 26.5132 29.7062 26.5132 29.1672L26.5132 28.1818L26.5132 28.1818Z" clip-rule="evenodd" fill-rule="evenodd" fill="#9F9DF3" fill-opacity="1.000000"/>
				</g>
				<g id="Vector 11">
					<path d="M25.1653 21.7781C24.626 21.7781 24.1887 22.2151 24.1887 22.7541L24.1887 25.072C24.1887 25.6109 23.7515 26.0479 23.212 26.0479C22.6727 26.0479 22.2355 25.6109 22.2355 25.0719L22.2355 22.754C22.2355 21.1371 23.5472 19.8262 25.1653 19.8262L26.5647 19.8262C28.1829 19.8262 29.4945 21.1371 29.4945 22.7541L29.4945 22.8668C29.4945 23.4056 29.0573 23.8426 28.5178 23.8426C27.9785 23.8426 27.5413 23.4056 27.5413 22.8668L27.5413 22.7541C27.5414 22.2151 27.1041 21.7781 26.5647 21.7781L25.1654 21.7781L25.1653 21.7781Z" clip-rule="evenodd" fill-rule="evenodd" fill="#9F9DF3" fill-opacity="1.000000"/>
				</g>
			</g>
		</g>
		<g id="密码">
			<path d="M72.9575 22.6178L62.7931 22.6178L62.7931 24.4811L61.7238 24.4811L61.7238 21.6378L67.4069 21.6378C67.3174 21.2408 67.1851 20.7723 67.042 20.4075L68.0649 20.2323C68.2544 20.6722 68.4332 21.2122 68.5334 21.6378L74.0591 21.6378L74.0591 24.4811L72.9575 24.4811L72.9575 22.6178ZM77.7699 22.1636L75.9817 22.1636L75.9817 21.155L80.978 21.155L80.978 22.1636L78.7964 22.1636C78.5746 23.3796 78.267 24.567 77.8879 25.6507L80.5667 25.6507L80.5667 31.9203L77.8879 31.9203L77.8879 33.1077L76.933 33.1077L76.933 27.8181C76.7006 28.2437 76.4502 28.6406 76.1711 28.9911C76.0996 28.7264 75.8492 28.1113 75.6741 27.8359C76.7006 26.4554 77.3729 24.3917 77.7699 22.1636ZM87.6875 21.2874C87.5695 22.793 87.3513 24.964 87.101 26.7665L88.9036 26.7665C88.9036 26.7665 88.8893 27.1027 88.8749 27.2494C88.553 31.1728 88.2133 32.6964 87.7018 33.2257C87.4086 33.5333 87.1439 33.6513 86.704 33.6656C86.3248 33.7086 85.6667 33.6942 84.9623 33.6656C84.9336 33.358 84.83 32.9467 84.6547 32.6534C85.3735 32.7429 86.0173 32.7429 86.282 32.7429C86.5287 32.7429 86.6897 32.7107 86.8363 32.5676C87.219 32.1993 87.5266 30.9117 87.8055 27.7036L81.9008 27.7036C82.0903 26.5162 82.2799 24.5813 82.3835 23.1614L83.3958 23.2186C83.3206 24.3345 83.174 25.6793 83.0416 26.7665L86.0889 26.7665C86.2677 25.3002 86.4572 23.5262 86.5752 22.253L81.6969 22.253L81.6969 21.2551L86.7648 21.2551L86.9258 21.1979L87.6875 21.2874ZM66.2946 22.8395C67.1708 23.2186 68.2723 23.866 68.8124 24.3774L68.2401 25.0784C67.7144 24.5527 66.6307 23.8803 65.7223 23.469L66.2946 22.8395ZM71.7737 26.3552C71.6271 28.0684 71.3195 28.494 70.0427 28.494L66.9526 28.494C66.0585 28.494 65.547 28.4046 65.2823 28.1113C64.1415 28.5977 62.9684 29.0054 61.7953 29.3416C61.663 29.1091 61.3553 28.655 61.1515 28.4332C62.4712 28.097 63.7874 27.6893 65.0034 27.1743L65.0034 24.3345L65.9869 24.3345L65.9869 26.7344C67.8611 25.8259 69.5027 24.6993 70.6006 23.3224L71.5377 23.7766C70.2644 25.3288 68.4476 26.5877 66.4412 27.5712C66.5878 27.5999 66.7773 27.5999 67.0098 27.5999L69.9712 27.5999C70.6721 27.5999 70.7902 27.396 70.8652 25.9725C71.0978 26.1478 71.4948 26.2944 71.7737 26.3552ZM61.2981 27.16C62.1458 26.5162 62.8503 25.4325 63.2473 24.5527L64.1415 24.964C63.6693 25.8724 63.0256 26.9847 62.178 27.6893L61.2981 27.16ZM73.6621 27.9075C73.2079 27.1313 72.1385 25.9725 71.2301 25.1678L72.0062 24.6242C72.9147 25.4182 73.9983 26.5305 74.4955 27.3066L73.6621 27.9075ZM77.8879 30.9403L79.6011 30.9403L79.6011 26.6199L77.8879 26.6199L77.8879 30.9403ZM68.3867 32.0669L71.8309 32.0669L71.8309 29.6206L72.9003 29.6206L72.9003 33.7371L71.8309 33.7371L71.8309 33.1077L62.9541 33.1077L62.9541 29.7386L64.0234 29.7386L64.0234 32.0669L67.3031 32.0669L67.3031 28.9625L68.3867 28.9625L68.3867 32.0669ZM81.2104 29.6206L86.7791 29.6206L86.7791 30.6041L81.2104 30.6041L81.2104 29.6206Z" fill="#9395A4FF"/>
		</g>
	</g>
	<defs/>
</svg>
