<svg width="172.737671" height="172.701050" viewBox="0 0 172.738 172.701" fill="none" xmlns="http://www.w3.org/2000/svg" xmlns:xlink="http://www.w3.org/1999/xlink">
	<desc>
			Created with Pixso.
	</desc>
	<g id="QQ">
		<g id="Ellipse 3" filter="url(#filter_1_707_dd)">
			<path d="M112.738 66.3505C112.738 80.9036 100.932 92.701 86.3688 92.701C71.8057 92.701 60 80.9036 60 66.3505C60 51.7975 71.8057 40 86.3688 40C100.932 40 112.738 51.7975 112.738 66.3505Z" fill-rule="evenodd" fill="#FFFFFF"/>
		</g>
		<g id="路径">
			<path d="M77.8707 68.1987C77.0675 70.0885 76.9371 71.8915 77.582 72.2283C78.0267 72.4603 78.724 71.9319 79.3766 70.962C79.635 72.0188 80.2745 72.9756 81.188 73.7432C80.2299 74.0967 79.6041 74.6738 79.6041 75.3282C79.6041 76.4042 81.2975 77.274 83.3875 77.274C85.2727 77.274 86.8339 76.5671 87.1221 75.6377C87.1995 75.6366 87.4972 75.6366 87.5723 75.6377C87.8616 76.5659 89.4241 77.274 91.308 77.274C93.3979 77.274 95.0914 76.403 95.0914 75.3282C95.0914 74.675 94.4662 74.0967 93.5076 73.7432C94.4198 72.9744 95.0616 72.0188 95.3188 70.962C95.9714 71.9319 96.667 72.4603 97.1123 72.2283C97.7578 71.8915 97.6304 70.0874 96.8242 68.1987C96.193 66.7135 95.3367 65.62 94.6818 65.3784C94.6913 65.2843 94.696 65.1879 94.696 65.0928C94.696 64.5192 94.5365 63.9884 94.2638 63.5564C94.2686 63.5231 94.2686 63.4885 94.2686 63.4552C94.2686 63.191 94.2054 62.9435 94.0981 62.7292C93.9327 58.8688 91.4176 55.8032 87.3478 55.8032C83.2756 55.8032 80.7593 58.8688 80.5956 62.7292C80.4872 62.9447 80.4247 63.1923 80.4247 63.4552C80.4247 63.4885 80.427 63.5231 80.4282 63.5564C80.158 63.9884 79.9983 64.5179 79.9983 65.0928C79.9983 65.188 80.002 65.2831 80.0103 65.3784C79.36 65.62 78.5009 66.7147 77.8708 68.1987L77.8707 68.1987Z" fill-rule="evenodd" fill="#1877F2"/>
		</g>
	</g>
	<defs>
		<filter id="filter_1_707_dd" x="0.000000" y="0.000000" width="172.737671" height="172.701050" filterUnits="userSpaceOnUse" color-interpolation-filters="sRGB">
			<feFlood flood-opacity="0" result="BackgroundImageFix"/>
			<feColorMatrix in="SourceAlpha" type="matrix" values="0 0 0 0 0 0 0 0 0 0 0 0 0 0 0 0 0 0 127 0"/>
			<feOffset dx="0" dy="20"/>
			<feGaussianBlur stdDeviation="20"/>
			<feColorMatrix type="matrix" values="0 0 0 0 0.21569 0 0 0 0 0.24314 0 0 0 0 0.4902 0 0 0 0.047 0"/>
			<feBlend mode="normal" in2="BackgroundImageFix" result="effect_dropShadow_1"/>
			<feBlend mode="normal" in="SourceGraphic" in2="effect_dropShadow_1" result="shape"/>
		</filter>
	</defs>
</svg>
