<svg width="172.737671" height="172.701050" viewBox="0 0 172.738 172.701" fill="none" xmlns="http://www.w3.org/2000/svg" xmlns:xlink="http://www.w3.org/1999/xlink">
	<desc>
			Created with Pixso.
	</desc>
	<g id="微信">
		<g id="Ellipse 3" filter="url(#filter_1_696_dd)">
			<path d="M112.738 66.3505C112.738 80.9036 100.932 92.701 86.3688 92.701C71.8057 92.701 60 80.9036 60 66.3505C60 51.7975 71.8057 40 86.3688 40C100.932 40 112.738 51.7975 112.738 66.3505Z" fill-rule="evenodd" fill="#FFFFFF"/>
		</g>
		<g id="形状结合">
			<path d="M73.6727 63.3406C73.6727 59.0186 77.8317 55.6149 82.9088 55.6149C87.4497 55.6149 91.4282 58.3342 92.2286 61.9924C91.9357 61.959 91.64 61.9385 91.3392 61.9385C87.416 61.9385 84.2292 64.515 83.5999 67.8992C84.3268 64.7926 87.4375 62.4464 91.2573 62.4464C95.3864 62.4464 99.0651 65.5201 99.0651 69.2942C99.0651 71.4219 97.6904 73.3062 95.8446 74.7281L96.5371 77.0856L94.017 75.6689C93.0979 75.9042 92.1737 76.1421 91.2573 76.1421C87.5812 76.1421 84.5615 73.9745 83.6918 71.0391C83.4329 71.0582 83.1719 71.0688 82.9088 71.0688C81.7552 71.0688 80.8293 70.8373 79.6732 70.6135L76.4454 72.2059L77.3688 69.4738C75.0564 67.8839 73.6727 65.8361 73.6727 63.3406ZM78.5511 60.6134C78.5511 61.2952 79.1135 61.8483 79.8066 61.8483C80.4999 61.8483 81.0623 61.2952 81.0623 60.6134C81.0623 59.9316 80.4999 59.3785 79.8066 59.3785C79.1135 59.3785 78.5511 59.9316 78.5511 60.6134ZM86.2571 61.8483C85.564 61.8483 85.0016 61.2952 85.0016 60.6134C85.0016 59.9316 85.564 59.3785 86.2571 59.3785C86.9503 59.3785 87.5127 59.9316 87.5127 60.6134C87.5127 61.2952 86.9503 61.8483 86.2571 61.8483ZM93.8971 66.1002C94.4724 66.1002 94.9385 66.5786 94.9385 67.1693C94.9385 67.76 94.4724 68.2385 93.8971 68.2385C93.3218 68.2385 92.8557 67.76 92.8557 67.1693C92.8557 66.5786 93.3218 66.1002 93.8971 66.1002ZM87.7972 67.1774C87.7972 67.7681 88.2633 68.2466 88.8386 68.2466C89.4139 68.2466 89.88 67.7654 89.88 67.1774C89.88 66.5867 89.4139 66.1083 88.8386 66.1083C88.2633 66.1083 87.7972 66.5867 87.7972 67.1774Z" clip-rule="evenodd" fill-rule="evenodd" fill="#00C800" fill-opacity="1.000000"/>
		</g>
	</g>
	<defs>
		<filter id="filter_1_696_dd" x="0.000000" y="0.000000" width="172.737671" height="172.701050" filterUnits="userSpaceOnUse" color-interpolation-filters="sRGB">
			<feFlood flood-opacity="0" result="BackgroundImageFix"/>
			<feColorMatrix in="SourceAlpha" type="matrix" values="0 0 0 0 0 0 0 0 0 0 0 0 0 0 0 0 0 0 127 0"/>
			<feOffset dx="0" dy="20"/>
			<feGaussianBlur stdDeviation="20"/>
			<feColorMatrix type="matrix" values="0 0 0 0 0.21569 0 0 0 0 0.24314 0 0 0 0 0.4902 0 0 0 0.047 0"/>
			<feBlend mode="normal" in2="BackgroundImageFix" result="effect_dropShadow_1"/>
			<feBlend mode="normal" in="SourceGraphic" in2="effect_dropShadow_1" result="shape"/>
		</filter>
	</defs>
</svg>
