<svg width="1085.259521" height="941.259521" viewBox="0 0 1085.26 941.26" fill="none" xmlns="http://www.w3.org/2000/svg" xmlns:xlink="http://www.w3.org/1999/xlink">
	<desc>
			Created with Pixso.
	</desc>
	<g id="blur">
		<g id="blur" filter="url(#filter_1_688_dd)">
			<path d="M494.673 379.173C494.673 442.962 442.962 494.673 379.173 494.673C315.384 494.673 263.673 442.962 263.673 379.173C263.673 315.384 315.384 263.673 379.173 263.673C442.962 263.673 494.673 315.384 494.673 379.173Z" fill-rule="evenodd" fill="#D2C0FF"/>
		</g>
		<g id="blur" filter="url(#filter_1_689_dd)">
			<path d="M839.954 587.767C869.829 617.642 869.829 666.079 839.954 695.954C810.079 725.829 761.642 725.829 731.767 695.954C701.892 666.079 701.892 617.642 731.767 587.767C761.642 557.892 810.079 557.892 839.954 587.767Z" fill-rule="evenodd" fill="#C2C4FF"/>
		</g>
		<g id="blur" filter="url(#filter_1_690_dd)">
			<path d="M919.469 432.938C947.782 461.252 947.782 507.156 919.469 535.469C891.156 563.782 845.252 563.782 816.938 535.469C788.625 507.156 788.625 461.251 816.938 432.938C845.252 404.625 891.156 404.625 919.469 432.938Z" fill-rule="evenodd" fill="#FFE3C9"/>
		</g>
	</g>
	<defs>
		<filter id="filter_1_688_dd" x="0.000000" y="0.000000" width="758.346191" height="758.346191" filterUnits="userSpaceOnUse" color-interpolation-filters="sRGB">
			<feFlood flood-opacity="0" result="BackgroundImageFix"/>
			<feBlend mode="normal" in="SourceGraphic" in2="BackgroundImageFix" result="shape"/>
			<feGaussianBlur stdDeviation="87.8911" result="effect_layerBlur_1"/>
		</filter>
		<filter id="filter_1_689_dd" x="486.461548" y="342.461548" width="598.797974" height="598.797974" filterUnits="userSpaceOnUse" color-interpolation-filters="sRGB">
			<feFlood flood-opacity="0" result="BackgroundImageFix"/>
			<feBlend mode="normal" in="SourceGraphic" in2="BackgroundImageFix" result="shape"/>
			<feGaussianBlur stdDeviation="74.2997" result="effect_layerBlur_1"/>
		</filter>
		<filter id="filter_1_690_dd" x="654.353027" y="270.353027" width="427.701416" height="427.701416" filterUnits="userSpaceOnUse" color-interpolation-filters="sRGB">
			<feFlood flood-opacity="0" result="BackgroundImageFix"/>
			<feBlend mode="normal" in="SourceGraphic" in2="BackgroundImageFix" result="shape"/>
			<feGaussianBlur stdDeviation="47.1169" result="effect_layerBlur_1"/>
		</filter>
	</defs>
</svg>
