<?xml version="1.0" standalone="no"?><!DOCTYPE svg PUBLIC "-//W3C//DTD SVG 1.1//EN" "http://www.w3.org/Graphics/SVG/1.1/DTD/svg11.dtd"><svg t="1676776311099" class="icon" viewBox="0 0 1024 1024" version="1.1" xmlns="http://www.w3.org/2000/svg" p-id="39357" xmlns:xlink="http://www.w3.org/1999/xlink" width="200" height="200"><path d="M802.133333 646.485333c-58.709333-49.152-125.610667-81.237333-197.290666-95.573333 91.477333-33.450667 157.013333-119.466667 157.013333-219.818667 0-129.706667-109.226667-234.837333-243.029333-234.837333S275.797333 201.386667 275.797333 331.093333c0 100.352 65.536 186.368 157.696 219.818667-177.493333 36.181333-319.488 180.906667-353.621333 370.005333-2.048 10.922667 5.461333 21.845333 16.384 23.893334h3.413333c9.557333 0 18.432-6.826667 20.48-17.066667 35.498667-199.338667 203.434667-344.746667 398.677334-344.746667 94.208 0 182.954667 32.768 257.365333 94.890667 8.192 6.826667 21.162667 6.144 28.672-2.730667 6.826667-8.192 6.144-21.162667-2.730667-28.672zM924.330667 826.709333H591.872c-11.605333 0-20.48-8.874667-20.48-20.48s8.874667-20.48 20.48-20.48h332.458667c11.605333 0 20.48 8.874667 20.48 20.48s-8.874667 20.48-20.48 20.48zM924.330667 944.810667H591.872c-11.605333 0-20.48-8.874667-20.48-20.48s8.874667-20.48 20.48-20.48h332.458667c11.605333 0 20.48 8.874667 20.48 20.48s-8.874667 20.48-20.48 20.48z" fill="#f7931a" p-id="39358"></path></svg>